<svg xmlns="http://www.w3.org/2000/svg" xmlns:svg="http://www.w3.org/2000/svg" xmlns:xlink="http://www.w3.org/1999/xlink" id="svg8" width="32" height="32" version="1.1" viewBox="0 0 32 32"><title id="title7895">Antu icon Theme</title><defs id="defs2"><style id="current-color-scheme" type="text/css"/><linearGradient id="linearGradient1036" x1="3" x2="3" y1="318.965" y2="317.65" gradientTransform="translate(57.000003,96.000003)" gradientUnits="userSpaceOnUse" xlink:href="#linearGradient4902"/><linearGradient id="linearGradient4902"><stop id="stop4898" offset="0" stop-color="#0d72ec" stop-opacity="1"/><stop id="stop4900" offset="1" stop-color="#36b2fb" stop-opacity="1"/></linearGradient><linearGradient id="linearGradient925" x1="3" x2="3" y1="319.65" y2="316.65" gradientTransform="translate(13,-289.64999)" gradientUnits="userSpaceOnUse" xlink:href="#linearGradient923"/><linearGradient id="linearGradient923"><stop id="stop919" offset="0" stop-color="#323232" stop-opacity="1"/><stop id="stop921" offset="1" stop-color="#484849" stop-opacity="1"/></linearGradient><linearGradient id="linearGradient916" x1="3" x2="3" y1="313.65" y2="293.65" gradientTransform="translate(13,-289.64999)" gradientUnits="userSpaceOnUse" xlink:href="#linearGradient914"/><linearGradient id="linearGradient914"><stop id="stop910" offset="0" stop-color="#dadbdb" stop-opacity="1"/><stop id="stop912" offset="1" stop-color="#e5e6e6" stop-opacity="1"/></linearGradient></defs><metadata id="metadata5"/><g id="layer1" transform="translate(0,-282.64999)"><g id="g1645" transform="translate(13,-7)"><g id="g1176"><g id="g894" transform="translate(-57.000003,-96.000003)"><g id="g935" transform="translate(57.000003,96.000003)"><path id="rect842" fill="#181818" fill-opacity="1" stroke="none" stroke-dasharray="none" stroke-dashoffset="0" stroke-linecap="round" stroke-linejoin="round" stroke-miterlimit="4" stroke-opacity="1" stroke-width="2" d="m -9,311.64999 h 24 c 1.108,0 2,0.892 2,2 v 5 c 0,1.108 -0.892,2 -2,2 H -9 c -1.108,0 -2,-0.892 -2,-2 v -5 c 0,-1.108 0.892,-2 2,-2 z"/><path id="path1024" fill="url(#linearGradient925)" fill-opacity="1" stroke="none" stroke-dasharray="none" stroke-dashoffset="0" stroke-linecap="round" stroke-linejoin="round" stroke-miterlimit="4" stroke-opacity="1" stroke-width="2" d="m 4,23 c -0.554,0 -1,0.446 -1,1 v 5 c 0,0.554 0.446,1 1,1 h 24 c 0.554,0 1,-0.446 1,-1 v -5 c 0,-0.554 -0.446,-1 -1,-1 z" transform="translate(-13,289.64999)"/><path id="rect838" fill="#a5a6a6" fill-opacity="1" stroke="none" stroke-dasharray="none" stroke-dashoffset="0" stroke-linecap="round" stroke-linejoin="round" stroke-miterlimit="4" stroke-opacity="1" stroke-width="2" d="m -9,290.64999 h 24 c 1.108,0 2,0.892 2,2 v 22 c 0,1.108 -0.892,2 -2,2 H -9 c -1.108,0 -2,-0.892 -2,-2 v -22 c 0,-1.108 0.892,-2 2,-2 z"/><path id="rect840" fill="url(#linearGradient916)" fill-opacity="1" stroke="none" stroke-dasharray="none" stroke-dashoffset="0" stroke-linecap="round" stroke-linejoin="round" stroke-miterlimit="4" stroke-opacity="1" stroke-width="2" d="M 4,2 C 3.446,2 3,2.446 3,3 v 22 c 0,0.554 0.446,1 1,1 h 24 c 0.554,0 1,-0.446 1,-1 V 3 C 29,2.446 28.554,2 28,2 Z M 5,3 C 5.554,3 6,3.446 6,4 6,4.554 5.554,5 5,5 4.446,5 4,4.554 4,4 4,3.446 4.446,3 5,3 Z m 22,0 c 0.554,0 1,0.446 1,1 0,0.554 -0.446,1 -1,1 C 26.446,5 26,4.554 26,4 26,3.446 26.446,3 27,3 Z M 5,12 c 0.554,0 1,0.446 1,1 0,0.554 -0.446,1 -1,1 -0.554,0 -1,-0.446 -1,-1 0,-0.554 0.446,-1 1,-1 z m 22,0 c 0.554,0 1,0.446 1,1 0,0.554 -0.446,1 -1,1 -0.554,0 -1,-0.446 -1,-1 0,-0.554 0.446,-1 1,-1 z M 5,23 c 0.554,0 1,0.446 1,1 0,0.554 -0.446,1 -1,1 -0.554,0 -1,-0.446 -1,-1 0,-0.554 0.446,-1 1,-1 z m 22,0 c 0.554,0 1,0.446 1,1 0,0.554 -0.446,1 -1,1 -0.554,0 -1,-0.446 -1,-1 0,-0.554 0.446,-1 1,-1 z" transform="translate(-13,289.64999)"/></g><path id="rect1028" fill="url(#linearGradient1036)" fill-opacity="1" stroke="none" stroke-dasharray="none" stroke-dashoffset="0" stroke-linecap="round" stroke-linejoin="round" stroke-miterlimit="4" stroke-opacity="1" stroke-width="2" d="m 52.500001,413.64999 h 15.000004 c 0.276999,0 0.499998,0.223 0.499998,0.5 0,0.277 -0.222999,0.5 -0.499998,0.5 H 52.500001 c -0.276999,0 -0.499998,-0.223 -0.499998,-0.5 0,-0.277 0.222999,-0.5 0.499998,-0.5 z" opacity=".98"/><path id="rect1082" fill="#181818" fill-opacity="1" stroke="none" stroke-dasharray="none" stroke-dashoffset="0" stroke-linecap="round" stroke-linejoin="round" stroke-miterlimit="4" stroke-opacity="1" stroke-width="2" d="m 52.000003,390.64999 h 12 v 5 h -12 z" opacity=".98"/><path id="rect1084" fill="#414141" fill-opacity="1" stroke="none" stroke-dasharray="none" stroke-dashoffset="0" stroke-linecap="round" stroke-linejoin="round" stroke-miterlimit="4" stroke-opacity="1" stroke-width="2" d="m 53.000003,391.64999 h 10 v 3 h -10 z" opacity=".98"/><path id="rect1098" fill="#fdffff" fill-opacity="1" stroke="none" stroke-dasharray="none" stroke-dashoffset="0" stroke-linecap="round" stroke-linejoin="round" stroke-miterlimit="4" stroke-opacity="1" stroke-width="2" d="m 54.000003,392.64999 h 2 v 1 h -2 z" opacity=".98"/><path id="rect1100" fill="#fdffff" fill-opacity="1" stroke="none" stroke-dasharray="none" stroke-dashoffset="0" stroke-linecap="round" stroke-linejoin="round" stroke-miterlimit="4" stroke-opacity="1" stroke-width="2" d="m 57.000003,392.64999 h 1 v 1 h -1 z" opacity=".98"/><path id="rect1102" fill="#fdffff" fill-opacity="1" stroke="none" stroke-dasharray="none" stroke-dashoffset="0" stroke-linecap="round" stroke-linejoin="round" stroke-miterlimit="4" stroke-opacity="1" stroke-width="2" d="m 59.000003,392.64999 h 1 v 1 h -1 z" opacity=".98"/></g></g></g></g></svg>