<svg xmlns="http://www.w3.org/2000/svg" xmlns:svg="http://www.w3.org/2000/svg" xmlns:xlink="http://www.w3.org/1999/xlink" id="svg8" width="32" height="32" version="1.1" viewBox="0 0 32 32"><title id="title7895">Antu icon Theme</title><defs id="defs2"><linearGradient id="linearGradient837" x1="4.233" x2="4.233" y1="296.206" y2="289.592" gradientTransform="matrix(3.7795275,0,0,3.7795275,0,-807.86964)" gradientUnits="userSpaceOnUse" xlink:href="#linearGradient4622"/><linearGradient id="linearGradient4622"><stop id="stop4618" offset="0" stop-color="#ff6a3e" stop-opacity="1"/><stop id="stop4620" offset="1" stop-color="#ff9065" stop-opacity="1"/></linearGradient></defs><metadata id="metadata5"/><g id="layer1" transform="translate(0,-282.64999)"><g id="g1240" transform="translate(1e-7,-10e-6)"><path id="rect827" fill="#dd4d25" fill-opacity="1" stroke="none" stroke-dasharray="none" stroke-linecap="round" stroke-linejoin="round" stroke-miterlimit="4" stroke-opacity="1" stroke-width="2" d="M 5.0000001,283.65001 H 26.999999 c 1.108,0 2,0.89202 2,2.00001 v 26.00001 c 0,1.10797 -0.892,1.99998 -2,1.99998 H 5.0000001 C 3.892,313.65001 3,312.758 3,311.65003 v -26 c 0,-1.108 0.892,-2.00001 2.0000001,-2.00002 z" opacity="1"/><path id="rect829" fill="url(#linearGradient837)" fill-opacity="1" stroke="none" stroke-dasharray="none" stroke-linecap="round" stroke-linejoin="round" stroke-miterlimit="4" stroke-opacity="1" stroke-width="2" d="m 5,284.65003 h 21.999999 c 0.554,0 1,0.44599 1,1 v 26 c 0,0.55401 -0.446,1 -1,1 H 5 c -0.554,0 -1,-0.44599 -1,-1 v -26 c 0,-0.554 0.446,-1 1,-1 z" opacity="1"/><path id="rect827-5" fill="#010102" fill-opacity="1" stroke="none" stroke-dasharray="none" stroke-linecap="round" stroke-linejoin="round" stroke-miterlimit="4" stroke-opacity="1" stroke-width="2" d="M 6.9375006,288.58749 H 28.9375 c 1.108,0 2,0.89202 2,2.00001 v 7 1.99999 H 4.9375002 l 3e-7,-1.99999 v -6.99999 c 0,-1.108 0.892,-2.00001 2.0000001,-2.00002 z" opacity="1" transform="translate(-1.9375002,-4.9375)"/><path id="rect829-3" fill="#2c2c2c" fill-opacity="1" stroke="none" stroke-dasharray="none" stroke-linecap="round" stroke-linejoin="round" stroke-miterlimit="4" stroke-opacity="1" stroke-width="2" d="M 6.9375005,289.58751 H 28.9375 c 0.554,0 1,0.44599 1,1 v 6.99999 0.99999 H 5.9375002 l 3e-7,-0.99999 v -6.99999 c 0,-0.554 0.446,-1 1,-1 z" opacity="1" transform="translate(-1.9375002,-4.9375)"/><path id="path839-3" fill="#eb5227" fill-opacity="1" stroke="none" stroke-dasharray="none" stroke-linecap="round" stroke-linejoin="round" stroke-miterlimit="4" stroke-opacity="1" stroke-width="2" d="m 11,297.65 c -0.554,0 -1.0000002,0.446 -1.0000002,1 v 1 h -1 c -0.554,0 -1,0.446 -1,1 0,0.554 0.446,1 1,1 h 1 v 1 c 0,0.554 0.4460002,1 1.0000002,1 0.554,0 1,-0.446 1,-1 v -1 h 1 c 0.554,0 1,-0.446 1,-1 0,-0.554 -0.446,-1 -1,-1 h -1 v -1 c 0,-0.554 -0.446,-1 -1,-1 z m 10,1 c -1.108,0 -2,0.892 -2,2 0,1.108 0.892,2 2,2 1.108,0 2,-0.892 2,-2 0,-1.108 -0.892,-2 -2,-2 z m -2,8 c -0.554,0 -1,0.446 -1,1 0,0.554 0.446,1 1,1 h 4 c 0.554,0 1,-0.446 1,-1 0,-0.554 -0.446,-1 -1,-1 z m -10.0000002,2 c -0.554,0 -1,0.446 -1,1 0,0.554 0.446,1 1,1 H 13 c 0.554,0 1,-0.446 1,-1 0,-0.554 -0.446,-1 -1,-1 z M 19,309.65 c -0.554,0 -1,0.446 -1,1 0,0.554 0.446,1 1,1 h 4 c 0.554,0 1,-0.446 1,-1 0,-0.554 -0.446,-1 -1,-1 z" opacity="1"/><path id="path839" fill="#feffff" fill-opacity="1" stroke="none" stroke-dasharray="none" stroke-linecap="round" stroke-linejoin="round" stroke-miterlimit="4" stroke-opacity="1" stroke-width="2" d="m 11,296.64999 c -0.554,0 -1.0000001,0.446 -1.0000001,1 v 1 h -1 c -0.554,0 -1,0.446 -1,1 0,0.554 0.446,1 1,1 h 1 v 1 c 0,0.554 0.4460001,1 1.0000001,1 0.554,0 1,-0.446 1,-1 v -1 h 1 c 0.554,0 1,-0.446 1,-1 0,-0.554 -0.446,-1 -1,-1 h -1 v -1 c 0,-0.554 -0.446,-1 -1,-1 z" opacity="1"/><path id="path837" fill="#feffff" fill-opacity="1" stroke="none" stroke-dasharray="none" stroke-linecap="round" stroke-linejoin="round" stroke-miterlimit="4" stroke-opacity="1" stroke-width="2" d="m 21,297.64999 c -1.108,0 -2,0.892 -2,2 0,1.108 0.892,2 2,2 1.108,0 2,-0.892 2,-2 0,-1.108 -0.892,-2 -2,-2 z" opacity="1"/><path id="path835" fill="#feffff" fill-opacity="1" stroke="none" stroke-dasharray="none" stroke-linecap="round" stroke-linejoin="round" stroke-miterlimit="4" stroke-opacity="1" stroke-width="2" d="m 19,305.64999 c -0.554,0 -1,0.446 -1,1 0,0.554 0.446,1 1,1 h 4 c 0.554,0 1,-0.446 1,-1 0,-0.554 -0.446,-1 -1,-1 z" opacity="1"/><path id="path833" fill="#feffff" fill-opacity="1" stroke="none" stroke-dasharray="none" stroke-linecap="round" stroke-linejoin="round" stroke-miterlimit="4" stroke-opacity="1" stroke-width="2" d="m 8.9999999,307.64999 c -0.554,0 -1,0.446 -1,1 0,0.554 0.446,1 1,1 H 13 c 0.554,0 1,-0.446 1,-1 0,-0.554 -0.446,-1 -1,-1 z" opacity="1"/><path id="rect1046" fill="#feffff" fill-opacity="1" stroke="none" stroke-dasharray="none" stroke-linecap="round" stroke-linejoin="round" stroke-miterlimit="4" stroke-opacity="1" stroke-width="2" d="m 19,308.64999 c -0.554,0 -1,0.446 -1,1 0,0.554 0.446,1 1,1 h 4 c 0.554,0 1,-0.446 1,-1 0,-0.554 -0.446,-1 -1,-1 z" opacity="1"/><path id="path925-8" fill="#feffff" fill-opacity="1" stroke="none" stroke-dasharray="none" stroke-miterlimit="4" stroke-opacity="1" stroke-width=".3" d="m 23.499985,286.64999 c -0.277001,0 -0.500001,0.223 -0.500001,0.5 v 1.98437 0.0156 0.0156 c 0,0.26835 0.216031,0.48438 0.484376,0.48438 h 0.01563 1.500003 v 1.5 c 0,0.27701 0.223,0.5 0.5,0.5 0.27701,0 0.5,-0.22296 0.5,-0.5 v -1.98438 -0.0312 -1.98437 c 0,-0.277 -0.223,-0.5 -0.5,-0.5 -0.27701,0 -0.5,0.22296 -0.5,0.5 v 1.5 h -1.000002 v -1.5 c 0,-0.277 -0.223001,-0.5 -0.500001,-0.5 z" opacity="1"/><path id="rect1212" fill="#feffff" fill-opacity="1" stroke="none" stroke-dasharray="none" stroke-linecap="round" stroke-linejoin="round" stroke-miterlimit="4" stroke-opacity="1" stroke-width="2" d="m 21.5,286.64999 h 1e-6 c 0.277,0 0.5,0.223 0.5,0.5 v 4 c 0,0.277 -0.223,0.5 -0.5,0.5 H 21.5 c -0.277,0 -0.5,-0.223 -0.5,-0.5 v -4 c 0,-0.277 0.223,-0.5 0.5,-0.5 z" opacity="1"/><path id="rect1214" fill="#feffff" fill-opacity="1" stroke="none" stroke-dasharray="none" stroke-linecap="round" stroke-linejoin="round" stroke-miterlimit="4" stroke-opacity="1" stroke-width="2" d="m 15.5,286.64999 c -0.277,0 -0.5,0.223 -0.5,0.5 0,0.277 0.223,0.5 0.5,0.5 H 17 v 1 h -0.5 c -0.277,0 -0.5,0.223 -0.5,0.5 0,0.277 0.223,0.5 0.5,0.5 H 17 v 1 h -1.5 c -0.277,0 -0.5,0.223 -0.5,0.5 0,0.277 0.223,0.5 0.5,0.5 h 2 c 0.06925,0 0.135453,-0.0138 0.195312,-0.0391 C 17.874891,291.53522 18,291.35774 18,291.14999 v -2 -2 c 0,-0.277 -0.223,-0.5 -0.5,-0.5 z" opacity="1"/><path id="rect1223" fill="#feffff" fill-opacity="1" stroke="none" stroke-dasharray="none" stroke-linecap="round" stroke-linejoin="round" stroke-miterlimit="4" stroke-opacity="1" stroke-width="2" d="m 19.5,290.64999 c 0.277,0 0.5,0.223 0.5,0.5 0,0.277 -0.223,0.5 -0.5,0.5 -0.277,0 -0.5,-0.223 -0.5,-0.5 0,-0.277 0.223,-0.5 0.5,-0.5 z" opacity="1"/></g></g></svg>