<svg xmlns="http://www.w3.org/2000/svg" xmlns:svg="http://www.w3.org/2000/svg" xmlns:xlink="http://www.w3.org/1999/xlink" id="svg8" width="32" height="32" version="1.1" viewBox="0 0 32 32"><title id="title7895">Antu icon Theme</title><defs id="defs2"><linearGradient id="linearGradient852" x1="8.712" x2="8.712" y1="295.601" y2="288.987" gradientTransform="matrix(3.7795275,0,0,3.7795275,-15.928569,-804.58391)" gradientUnits="userSpaceOnUse" xlink:href="#linearGradient4582"/><linearGradient id="linearGradient4582"><stop id="stop4578" offset="0" stop-color="#dd366b" stop-opacity="1"/><stop id="stop4580" offset="1" stop-color="#f25183" stop-opacity="1"/></linearGradient></defs><metadata id="metadata5"/><g id="layer1" transform="translate(0,-282.64999)"><path id="rect868" fill="#90a4ae" fill-opacity="1" stroke="none" stroke-dasharray="none" stroke-dashoffset="0" stroke-linecap="round" stroke-linejoin="round" stroke-miterlimit="4" stroke-opacity="1" stroke-width="2" d="m 27,284.64999 c -0.554,0 -1,0.446 -1,1 v 5 c 0,0.554 0.446,1 1,1 h 2 v 14 h -2 c -0.554,0 -1,0.446 -1,1 v 5 c 0,0.554 0.446,1 1,1 h 2 c 0.554,0 1,-0.446 1,-1 v -4 -1 -16 -2 -3 c 0,-0.554 -0.446,-1 -1,-1 z" opacity=".98"/><path id="rect870" fill="#f3f7f7" fill-opacity="1" stroke="none" stroke-dasharray="none" stroke-dashoffset="0" stroke-linecap="round" stroke-linejoin="round" stroke-miterlimit="4" stroke-opacity="1" stroke-width="2" d="m 27,285.64999 v 3 2 16 3 2 h 2 v -2 -3 -16 -2 -3 z" opacity=".98"/><path id="rect969" fill="#90a4ae" fill-opacity="1" stroke="none" stroke-dasharray="none" stroke-linecap="round" stroke-linejoin="round" stroke-miterlimit="4" stroke-opacity="1" stroke-width="2" d="m 28,287.64999 v 2 h -6 v -2 z m -7,0 v 2 h -3 v -2 z m -4,0 v 2 h -4 v -2 z m -5,0 v 2 H 9.9999998 v -2 z m 16,4 v 2 h -3 v -2 z m -4,0 v 2 h -8 v -2 z m -9,0 v 2 h -2 v -2 z m -3,0 v 2 H 9.9999998 v -2 z m 16,4 v 2 h -5 v -2 z m -6,0 v 2 h -2 v -2 z m -3,0 v 2 h -4 v -2 z m -5,0 v 2 H 9.9999998 v -2 z m 14,4 v 2 h -2 v -2 z m -3,0 v 2 h -2 v -2 z m -3,0 v 2 h -5 v -2 z m -6,0 v 2 h -4 v -2 z m 12,4 v 2 h -6 v -2 z m -7,0 v 2 h -2 v -2 z m -3,0 v 2 h -3 v -2 z m -4,0 v 2 h -3 v -2 z m 14,4 v 2 h -3 v -2 z m -4,0 v 2 h -7 v -2 z m -8,0 v 2 h -2 v -2 z m -3,0 v 2 h -2 v -2 z"/><path id="rect843" fill="#ba205b" fill-opacity="1" stroke="none" stroke-dasharray="none" stroke-linecap="round" stroke-linejoin="round" stroke-miterlimit="4" stroke-opacity="1" stroke-width="2.393" d="m 3,283.64999 h 22 c 1.108,0 2,0.892 2,2 v 26 c 0,1.108 -0.892,2 -2,2 H 3 c -1.108,0 -2,-0.892 -2,-2 v -26 c 0,-1.108 0.892,-2 2,-2 z" opacity="1"/><path id="rect843-3" fill="url(#linearGradient852)" fill-opacity="1" stroke="none" stroke-dasharray="none" stroke-linecap="round" stroke-linejoin="round" stroke-miterlimit="4" stroke-opacity="1" stroke-width="2.234" d="m 3,284.64999 c -0.554,0 -1,0.446 -1,1 v 26 c 0,0.554 0.446,1 1,1 h 1 v -28 z m 2,0 v 28 h 20 c 0.553999,0 1,-0.446 1,-1 v -26 c 0,-0.554 -0.446001,-1 -1,-1 z" opacity="1"/><path id="path4764-3" fill="#ba205b" fill-opacity="1" stroke="none" stroke-linecap="butt" stroke-linejoin="miter" stroke-opacity="1" stroke-width="1" d="m 13,292.65003 -5.0000002,12 L 11,305.65006 l 1,-3 h 5.999999 l 1.000001,3 3,-1.00003 -5,-12 z m 2,3 2,4.00003 h -4 z"/><path id="path4764" fill="#fff" fill-opacity="1" stroke="none" stroke-linecap="butt" stroke-linejoin="miter" stroke-opacity="1" stroke-width="1" d="m 13,291.65001 -5.0000002,12 L 11,304.65003 l 1,-3 h 6 l 1,3 3,-1.00002 -5,-12 z m 2,3 2,4.00002 h -4 z"/></g></svg>