<svg xmlns="http://www.w3.org/2000/svg" xmlns:svg="http://www.w3.org/2000/svg" xmlns:xlink="http://www.w3.org/1999/xlink" id="svg8" width="32" height="32" version="1.1" viewBox="0 0 8.467 8.467"><defs id="defs2"><linearGradient id="linearGradient4658" x1="22" x2="22" y1="1049.362" y2="1030.362" gradientTransform="matrix(0.26458333,0,0,0.26458333,0,19.09166)" gradientUnits="userSpaceOnUse" xlink:href="#linearGradient4656"/><linearGradient id="linearGradient4656"><stop id="stop4652" offset="0" stop-color="#e4e4e4" stop-opacity="1"/><stop id="stop4654" offset="1" stop-color="#fbfbfb" stop-opacity="1"/></linearGradient><linearGradient id="linearGradient4604" x1="11" x2="11" y1="1042.362" y2="1023.362" gradientTransform="matrix(0.26458333,0,0,0.26458333,0,18.033327)" gradientUnits="userSpaceOnUse" xlink:href="#linearGradient4602"/><linearGradient id="linearGradient4602"><stop id="stop4598" offset="0" stop-color="#228ee9" stop-opacity="1"/><stop id="stop4600" offset="1" stop-color="#2eb5fd" stop-opacity="1"/></linearGradient></defs><metadata id="metadata5"/><g id="layer1" transform="translate(0,-288.53332)"><path id="rect4491-3" fill="#666" fill-opacity="1" stroke="none" stroke-dasharray="none" stroke-linecap="round" stroke-linejoin="round" stroke-miterlimit="4" stroke-opacity="1" stroke-width=".275" d="m 2.9104167,291.44374 h 5.2916667 c 0.1465791,0 0.2645833,0.118 0.2645833,0.26458 v 5.02708 c 0,0.14658 -0.1180042,0.26459 -0.2645833,0.26459 H 2.9104167 c -0.1465792,0 -0.2645834,-0.11801 -0.2645834,-0.26459 v -5.02708 c 0,-0.14658 0.1180042,-0.26458 0.2645834,-0.26458 z" opacity="1"/><path id="rect4508" fill="url(#linearGradient4658)" fill-opacity="1" stroke="none" stroke-dasharray="none" stroke-linecap="round" stroke-linejoin="round" stroke-miterlimit="4" stroke-opacity="1" stroke-width=".275" d="m 2.9104167,291.70832 h 5.2916667 v 5.02708 H 2.9104167 Z" opacity="1"/><path id="rect4710-6-6" fill="#ccc" fill-opacity="1" stroke="none" stroke-dasharray="none" stroke-linecap="round" stroke-linejoin="round" stroke-miterlimit="4" stroke-opacity="1" stroke-width=".275" d="m 5.0270834,292.50207 v 0.26458 H 4.4979167 4.2333333 v 0.26458 0.26459 0.26458 0.26458 0.26459 1.05833 h 0.2645834 2.1166667 v 0.52917 H 6.0854167 v -0.26459 H 5.8208334 v 0.26459 H 5.2916667 v -0.26459 H 5.0270834 v 0.26459 H 4.4979167 v -0.26459 H 4.2333333 v 0.26459 0.26458 0.26458 h 0.2645834 v -0.26458 h 2.1166667 v 0.26458 H 6.0854167 v 0.26459 h 0.7937499 v -0.26459 -1.32291 H 4.4979167 v -0.26459 h 2.3812499 v -0.26458 -1.32292 -0.26458 H 5.55625 v -0.26458 z m -0.5291667,0.52916 h 2.1166667 v 0.26459 H 4.4979167 Z m 0,0.52917 h 2.1166667 v 0.26458 H 4.4979167 Z m 0,0.52917 h 2.1166667 v 0.26458 H 4.4979167 Z" opacity="1"/><path id="rect4710-6" fill="#666" fill-opacity="1" stroke="none" stroke-dasharray="none" stroke-linecap="round" stroke-linejoin="round" stroke-miterlimit="4" stroke-opacity="1" stroke-width=".275" d="m 5.0270834,292.23749 v 0.26458 H 4.4979167 4.2333333 v 0.26458 0.26459 0.26458 0.26458 0.26459 1.05833 h 0.2645834 2.1166667 v 0.52917 H 6.0854167 V 295.1479 H 5.8208334 v 0.26459 H 5.2916667 V 295.1479 H 5.0270834 v 0.26459 H 4.4979167 V 295.1479 H 4.2333333 v 0.26459 0.26458 0.26458 h 0.2645834 v -0.26458 h 2.1166667 v 0.26458 H 6.0854167 v 0.26459 h 0.79375 v -0.26459 -1.32291 h -2.38125 v -0.26459 h 2.38125 v -0.26458 -1.32292 -0.26458 H 5.55625 v -0.26458 z m -0.5291667,0.52916 h 2.1166667 v 0.26459 H 4.4979167 Z m 0,0.52917 h 2.1166667 v 0.26458 H 4.4979167 Z m 0,0.52917 h 2.1166667 v 0.26458 H 4.4979167 Z" opacity="1"/><path id="rect4491" fill="#1a6cb2" fill-opacity="1" stroke="none" stroke-dasharray="none" stroke-linecap="round" stroke-linejoin="round" stroke-miterlimit="4" stroke-opacity="1" stroke-width=".275" d="M 0.2645834,288.53332 H 5.55625 c 0.1465792,0 0.2645834,0.118 0.2645834,0.26458 v 5.02709 c 0,0.14658 -0.1180042,0.26458 -0.2645834,0.26458 H 0.2645834 C 0.1180042,294.08957 0,293.97157 0,293.82499 v -5.02709 c 0,-0.14658 0.1180042,-0.26458 0.2645834,-0.26458 z" opacity="1"/><path id="rect4508-6" fill="url(#linearGradient4604)" fill-opacity="1" stroke="none" stroke-dasharray="none" stroke-linecap="round" stroke-linejoin="round" stroke-miterlimit="4" stroke-opacity="1" stroke-width=".275" d="M 0.2645834,288.7979 H 5.55625 v 5.02709 H 0.2645834 Z" opacity="1"/><path id="path4764-3" fill="#1e7ccc" fill-opacity="1" stroke="none" stroke-linecap="butt" stroke-linejoin="miter" stroke-opacity="1" stroke-width=".265" d="m 2.38125,289.85624 -1.3229167,3.175 0.79375,0.26459 0.2645834,-0.79375 h 1.5874999 l 0.2645834,0.79375 0.79375,-0.26459 -1.3229167,-3.175 z m 0.5291667,0.79375 0.5291666,1.05834 H 2.38125 Z"/><path id="path4764" fill="#fff" fill-opacity="1" stroke="none" stroke-linecap="butt" stroke-linejoin="miter" stroke-opacity="1" stroke-width=".265" d="m 2.38125,289.59165 -1.3229167,3.175 0.79375,0.26459 0.2645834,-0.79375 h 1.5875 l 0.2645833,0.79375 0.79375,-0.26459 -1.3229167,-3.175 z m 0.5291667,0.79375 0.5291666,1.05834 H 2.38125 Z"/></g></svg>