<svg xmlns="http://www.w3.org/2000/svg" xmlns:svg="http://www.w3.org/2000/svg" xmlns:xlink="http://www.w3.org/1999/xlink" id="svg8" width="32" height="32" version="1.1" viewBox="0 0 32 32"><title id="title7895">Antu icon Theme</title><defs id="defs2"><linearGradient id="linearGradient1542" x1="-42" x2="-42" y1="275.65" y2="268.65" gradientTransform="translate(59,24)" gradientUnits="userSpaceOnUse" xlink:href="#linearGradient6375"/><linearGradient id="linearGradient6375"><stop id="stop6371" offset="0" stop-color="#ec0123" stop-opacity="1"/><stop id="stop6373" offset="1" stop-color="#ff4762" stop-opacity="1"/></linearGradient><linearGradient id="linearGradient1550" x1="-45" x2="-45" y1="278.65" y2="276.197" gradientTransform="translate(59,24)" gradientUnits="userSpaceOnUse" xlink:href="#0-5"/><linearGradient id="0-5" x2="0" y1="542.2" y2="526.2" gradientUnits="userSpaceOnUse"><stop id="stop1121" stop-color="#d0d0d0"/><stop id="stop1123" offset="1" stop-color="#fffcff" stop-opacity="1"/></linearGradient><linearGradient id="linearGradient4682" x1="2.806" x2="2.806" y1="296.603" y2="291.311" gradientTransform="matrix(4.1231209,0,0,4.1231209,4.428598,-913.37117)" gradientUnits="userSpaceOnUse" xlink:href="#linearGradient4680-8"/><linearGradient id="linearGradient4680-8"><stop id="stop4676-9" offset="0" stop-color="#0e73ec" stop-opacity="1"/><stop id="stop4678-7" offset="1" stop-color="#36b1fb" stop-opacity="1"/></linearGradient><linearGradient id="linearGradient4543" x1="2.806" x2="2.806" y1="297.397" y2="290.518" gradientTransform="matrix(3.7795275,0,0,3.7795275,5.392882,-812.36947)" gradientUnits="userSpaceOnUse" xlink:href="#linearGradient4582-3"/><linearGradient id="linearGradient4582-3"><stop id="stop4578-6" offset="0" stop-color="#cee3e3" stop-opacity="1"/><stop id="stop4580-1" offset="1" stop-color="#fcfcfc" stop-opacity="1"/></linearGradient></defs><metadata id="metadata5"/><g id="layer1" transform="translate(0,-282.64999)"><path id="path4628" fill="#90a4ae" fill-opacity="1" stroke="none" stroke-dasharray="none" stroke-linecap="round" stroke-linejoin="round" stroke-miterlimit="4" stroke-opacity="1" stroke-width="1.47" d="m 16,283.65003 c 8.31,0 15,6.68984 15,14.99992 0,8.30994 -6.69,15 -15,15 -8.309999,0 -15,-6.69006 -15,-15 0,-8.31008 6.690001,-14.99992 15,-14.99992 z"/><path id="path4630" fill="url(#linearGradient4543)" fill-opacity="1" stroke="none" stroke-dasharray="none" stroke-linecap="round" stroke-linejoin="round" stroke-miterlimit="4" stroke-opacity="1" stroke-width="1.402" d="M 16.000001,284.64998 C 23.756,284.64998 30,290.89391 30,298.64995 30,306.406 23.756,312.65004 16.000001,312.65004 8.244,312.65004 2,306.406 2,298.64995 2,290.89391 8.244,284.64998 16.000001,284.64998 Z"/><path id="path4632" fill="#0e44b2" fill-opacity="1" stroke="none" stroke-dasharray="none" stroke-linecap="round" stroke-linejoin="round" stroke-miterlimit="4" stroke-opacity="1" stroke-width="1.576" d="M 15.999999,285.64999 C 23.202,285.64999 29,291.44803 29,298.65003 c 0,7.20201 -5.798,13 -13.000001,13 C 8.798,311.65003 3,305.85204 3,298.65003 c 0,-7.202 5.798,-13.00004 12.999999,-13.00004 z" opacity="1"/><path id="path4634" fill="url(#linearGradient4682)" fill-opacity="1" stroke="none" stroke-dasharray="none" stroke-linecap="round" stroke-linejoin="round" stroke-miterlimit="4" stroke-opacity="1" stroke-width="1.455" d="m 16,286.65 c 6.648,0 12,5.35202 12,12.00001 0,6.648 -5.352,12.00002 -12,12.00002 -6.648,0 -12,-5.35202 -12,-12.00002 C 4,292.00202 9.352,286.65 16,286.65 Z" opacity="1"/><path id="path1344" fill="#104ecc" fill-opacity="1" stroke="none" stroke-linecap="butt" stroke-linejoin="miter" stroke-opacity="1" stroke-width="1" d="m 22,292.64999 -8,5 -4,9 8,-5 z"/><path id="path1344-0" fill="url(#linearGradient1550)" fill-opacity="1" stroke="none" stroke-linecap="butt" stroke-linejoin="miter" stroke-opacity="1" stroke-width="1" d="m 16,298.64999 -2,-2 -4,9 8,-5 z"/><path id="path1481" fill="url(#linearGradient1542)" fill-opacity="1" stroke="none" stroke-linecap="butt" stroke-linejoin="miter" stroke-opacity="1" stroke-width="1" d="m 14,296.64999 4,4 4,-9 z"/><path id="rect853-3" fill="#104ecc" fill-opacity="1" stroke="none" stroke-dasharray="none" stroke-linecap="round" stroke-linejoin="round" stroke-miterlimit="4" stroke-opacity="1" stroke-width="2" d="m 16,288.64999 c -0.553999,0 -1,0.446 -1,1 0,0.554 0.446001,1 1,1 0.553999,0 1,-0.446 1,-1 0,-0.554 -0.446001,-1 -1,-1 z m -10.0214844,10 C 5.4368816,298.64999 5,299.08688 5,299.62851 v 0.043 c 0,0.54163 0.4368816,0.97855 0.9785156,0.97851 h 0.042969 C 6.5631184,300.64999 7,300.21311 7,299.67147 v -0.043 c 0,-0.54162 -0.4368816,-0.97851 -0.9785156,-0.97851 z m 20.0214844,0 c -0.554,0 -1,0.446 -1,1 0,0.554 0.446,1 1,1 0.554,0 1,-0.446 1,-1 0,-0.554 -0.446,-1 -1,-1 z m -10,10 c -0.554,0 -1,0.446 -1,1 0,0.554 0.446,1 1,1 0.554,0 1,-0.446 1,-1 0,-0.554 -0.446,-1 -1,-1 z" opacity="1"/><path id="rect853" fill="#c5e6fb" fill-opacity="1" stroke="none" stroke-dasharray="none" stroke-linecap="round" stroke-linejoin="round" stroke-miterlimit="4" stroke-opacity="1" stroke-width="2" d="m 16,287.64999 c -0.553999,0 -1,0.446 -1,1 0,0.554 0.446001,1 1,1 0.553999,0 1,-0.446 1,-1 0,-0.554 -0.446001,-1 -1,-1 z m -10.0214844,10 C 5.4368816,297.64999 5,298.08688 5,298.62851 v 0.043 c 0,0.54163 0.4368816,0.97855 0.9785156,0.97851 h 0.042969 C 6.5631184,299.64999 7,299.21311 7,298.67147 v -0.043 c 0,-0.54162 -0.4368816,-0.97851 -0.9785156,-0.97851 z m 20.0214844,0 c -0.554,0 -1,0.446 -1,1 0,0.554 0.446,1 1,1 0.554,0 1,-0.446 1,-1 0,-0.554 -0.446,-1 -1,-1 z m -10,10 c -0.554,0 -1,0.446 -1,1 0,0.554 0.446,1 1,1 0.554,0 1,-0.446 1,-1 0,-0.554 -0.446,-1 -1,-1 z" opacity="1"/></g></svg>