<svg xmlns="http://www.w3.org/2000/svg" xmlns:svg="http://www.w3.org/2000/svg" xmlns:xlink="http://www.w3.org/1999/xlink" id="svg8" width="32" height="32" version="1.1" viewBox="0 0 32 32"><title id="title7895">Antu icon Theme</title><defs id="defs2"><linearGradient id="linearGradient923"><stop id="stop919" offset="0" stop-color="#323232" stop-opacity="1"/><stop id="stop921" offset="1" stop-color="#484849" stop-opacity="1"/></linearGradient><linearGradient id="linearGradient914"><stop id="stop910" offset="0" stop-color="#cbcccc" stop-opacity="1"/><stop id="stop912" offset="1" stop-color="#e5e6e6" stop-opacity="1"/></linearGradient><linearGradient id="linearGradient916" x1="3" x2="3" y1="313.65" y2="293.65" gradientTransform="translate(13,-289.64999)" gradientUnits="userSpaceOnUse" xlink:href="#linearGradient914"/><linearGradient id="linearGradient925" x1="3" x2="3" y1="319.65" y2="316.65" gradientTransform="translate(13,-289.64999)" gradientUnits="userSpaceOnUse" xlink:href="#linearGradient923"/><linearGradient id="linearGradient4902"><stop id="stop4898" offset="0" stop-color="#5563b2" stop-opacity="1"/><stop id="stop4900" offset="1" stop-color="#7986cb" stop-opacity="1"/></linearGradient><style id="current-color-scheme" type="text/css"/><linearGradient id="linearGradient1096" x1="7" x2="7" y1="321.65" y2="301.65" gradientUnits="userSpaceOnUse" xlink:href="#linearGradient4902"/></defs><metadata id="metadata5"/><g id="layer1" transform="translate(0,-282.64999)"><g id="g1645" transform="translate(13,-7)"><g id="g1176"><g id="g935" transform="translate(-2,-1)"><path id="rect842" fill="#181818" fill-opacity="1" stroke="none" stroke-dasharray="none" stroke-dashoffset="0" stroke-linecap="round" stroke-linejoin="round" stroke-miterlimit="4" stroke-opacity="1" stroke-width="2" d="m -9,311.64999 h 24 c 1.108,0 2,0.892 2,2 v 5 c 0,1.108 -0.892,2 -2,2 H -9 c -1.108,0 -2,-0.892 -2,-2 v -5 c 0,-1.108 0.892,-2 2,-2 z"/><path id="rect844" fill="url(#linearGradient925)" fill-opacity="1" stroke="none" stroke-dasharray="none" stroke-dashoffset="0" stroke-linecap="round" stroke-linejoin="round" stroke-miterlimit="4" stroke-opacity="1" stroke-width="2" d="m 4,23 c -0.554,0 -1,0.446 -1,1 v 5 c 0,0.554 0.446,1 1,1 h 24 c 0.554,0 1,-0.446 1,-1 v -5 c 0,-0.554 -0.446,-1 -1,-1 z m 1.4785156,5 H 26.521484 C 26.786243,28 27,28.213757 27,28.478516 v 0.04297 C 27,28.786243 26.786243,29 26.521484,29 H 5.4785156 C 5.2137574,29 5,28.786243 5,28.521484 v -0.04297 C 5,28.213757 5.2137574,28 5.4785156,28 Z" transform="translate(-13,289.64999)"/><path id="rect838" fill="#a5a6a6" fill-opacity="1" stroke="none" stroke-dasharray="none" stroke-dashoffset="0" stroke-linecap="round" stroke-linejoin="round" stroke-miterlimit="4" stroke-opacity="1" stroke-width="2" d="m -9,290.64999 h 24 c 1.108,0 2,0.892 2,2 v 22 c 0,1.108 -0.892,2 -2,2 H -9 c -1.108,0 -2,-0.892 -2,-2 v -22 c 0,-1.108 0.892,-2 2,-2 z"/><path id="rect840" fill="url(#linearGradient916)" fill-opacity="1" stroke="none" stroke-dasharray="none" stroke-dashoffset="0" stroke-linecap="round" stroke-linejoin="round" stroke-miterlimit="4" stroke-opacity="1" stroke-width="2" d="M 4,2 C 3.446,2 3,2.446 3,3 v 22 c 0,0.554 0.446,1 1,1 h 24 c 0.554,0 1,-0.446 1,-1 V 3 C 29,2.446 28.554,2 28,2 Z M 5,3 C 5.554,3 6,3.446 6,4 6,4.554 5.554,5 5,5 4.446,5 4,4.554 4,4 4,3.446 4.446,3 5,3 Z m 22,0 c 0.554,0 1,0.446 1,1 0,0.554 -0.446,1 -1,1 C 26.446,5 26,4.554 26,4 26,3.446 26.446,3 27,3 Z M 5,12 c 0.554,0 1,0.446 1,1 0,0.554 -0.446,1 -1,1 -0.554,0 -1,-0.446 -1,-1 0,-0.554 0.446,-1 1,-1 z m 0,11 c 0.554,0 1,0.446 1,1 0,0.554 -0.446,1 -1,1 -0.554,0 -1,-0.446 -1,-1 0,-0.554 0.446,-1 1,-1 z m 22,0 c 0.554,0 1,0.446 1,1 0,0.554 -0.446,1 -1,1 -0.554,0 -1,-0.446 -1,-1 0,-0.554 0.446,-1 1,-1 z" transform="translate(-13,289.64999)"/></g><path id="rect937" fill="#4a5599" fill-opacity="1" stroke="none" stroke-dasharray="none" stroke-dashoffset="0" stroke-linecap="round" stroke-linejoin="round" stroke-miterlimit="4" stroke-opacity="1" stroke-width="2" d="m 9,301.64999 c 5.54,0 10,4.46 10,10 v 10e-6 c 0,5.54 -4.46,10 -10,10 -5.54,0 -10,-4.46 -10,-10 v -10e-6 c 0,-5.54 4.46,-10 10,-10 z"/><path id="rect939" fill="url(#linearGradient1096)" fill-opacity="1" stroke="none" stroke-dasharray="none" stroke-dashoffset="0" stroke-linecap="round" stroke-linejoin="round" stroke-miterlimit="4" stroke-opacity="1" stroke-width="2" d="m 9,302.64999 c 4.986,0 9,4.014 9,9 0,4.986 -4.014,9 -9,9 -4.986,0 -9,-4.014 -9,-9 0,-4.986 4.014,-9 9,-9 z"/><g id="layer1-8" transform="translate(50.999992,26.00006)"><g id="g7878" transform="translate(39.000008,-16)"><path id="path7212-4-9" fill="#4a5599" fill-opacity="1" stroke="none" stroke-opacity="1" stroke-width="1" d="m -81,297.64993 c 1.108,0 2,0.89201 2,2.00001 v 3 h 1 a 1.0001,1.0001 0 0 1 0.707031,1.70703 l -3,3 a 1.0001,1.0001 0 0 1 -1.414062,0 l -2.999995,-3 a 1.0001,1.0001 0 0 1 0.70703,-1.70703 h 1 v -3 c 0,-1.108 0.892,-2.00001 1.999996,-2.00001 z" opacity="1"/><path id="path7212-4" fill="#ebecf4" fill-opacity="1" stroke="none" stroke-opacity="1" stroke-width="1" d="m -81,296.64993 c 1.108,0 2,0.89201 2,2.00001 v 3 h 1 a 1.0001,1.0001 0 0 1 0.707031,1.70703 l -3,3 a 1.0001,1.0001 0 0 1 -1.414062,0 l -3,-3 A 1.0001,1.0001 0 0 1 -84,301.64994 h 1 v -3 c 0,-1.108 0.892,-2.00001 2,-2.00001 z" opacity="1"/></g></g></g></g></g></svg>