<svg xmlns="http://www.w3.org/2000/svg" xmlns:svg="http://www.w3.org/2000/svg" xmlns:xlink="http://www.w3.org/1999/xlink" id="svg8" width="32" height="32" version="1.1" viewBox="0 0 32 32"><title id="title7895">Antu icon Theme</title><defs id="defs2"><linearGradient id="linearGradient4508" x1="2.806" x2="2.806" y1="297.397" y2="290.518" gradientTransform="matrix(3.7795275,0,0,3.7795275,5.392882,-812.36957)" gradientUnits="userSpaceOnUse" xlink:href="#linearGradient4506"/><linearGradient id="linearGradient4506"><stop id="stop4502" offset="0" stop-color="#252a34" stop-opacity="1"/><stop id="stop4504" offset="1" stop-color="#353d4b" stop-opacity="1"/></linearGradient><linearGradient id="linearGradient4508-9" x1="2.806" x2="2.806" y1="297.397" y2="290.518" gradientTransform="matrix(3.2395877,0,0,3.2395877,6.908205,-653.65036)" gradientUnits="userSpaceOnUse" xlink:href="#linearGradient4846"/><linearGradient id="linearGradient4846"><stop id="stop4842" offset="0" stop-color="#e4efef" stop-opacity="1"/><stop id="stop4844" offset="1" stop-color="#fcfcfc" stop-opacity="1"/></linearGradient></defs><metadata id="metadata5"/><g id="layer1" transform="translate(0,-282.64999)"><g id="g6308"><path id="rect4496" fill="#1f1f26" fill-opacity="1" stroke="none" stroke-dasharray="none" stroke-linecap="round" stroke-linejoin="round" stroke-miterlimit="4" stroke-opacity="1" stroke-width="1.47" d="m 16,283.65003 c 8.31,0 15,6.68984 15,14.99992 0,8.30994 -6.69,15 -15,15 -8.309999,0 -15,-6.69006 -15,-15 0,-8.31008 6.690001,-14.99992 15,-14.99992 z"/><path id="rect4570-9-6" fill="url(#linearGradient4508)" fill-opacity="1" stroke="none" stroke-dasharray="none" stroke-linecap="round" stroke-linejoin="round" stroke-miterlimit="4" stroke-opacity="1" stroke-width="1.402" d="M 16.000001,284.64998 C 23.756,284.64998 30,290.89391 30,298.64995 30,306.406 23.756,312.65004 16.000001,312.65004 8.244,312.65004 2,306.406 2,298.64995 2,290.89391 8.244,284.64998 16.000001,284.64998 Z"/><path id="rect4570-9-6-2" fill="url(#linearGradient4508-9)" fill-opacity="1" stroke="none" stroke-dasharray="none" stroke-linecap="round" stroke-linejoin="round" stroke-miterlimit="4" stroke-opacity="1" stroke-width="1.202" d="m 16.000001,286.64999 c 6.647984,0 11.999971,5.35193 11.999971,11.99996 0,6.648 -5.351987,12.00004 -11.999971,12.00004 -6.6479859,0 -11.999973,-5.35204 -11.999973,-12.00004 0,-6.64803 5.3519871,-11.99996 11.999973,-11.99996 z"/><path id="rect5668-9" fill="#c3cccc" fill-opacity="1" stroke="none" stroke-dasharray="none" stroke-linecap="round" stroke-linejoin="round" stroke-miterlimit="4" stroke-opacity="1" stroke-width=".808" d="m 16,289.64999 c -0.554,0 -1,0.446 -1,1 v 6.18164 c -1.164689,0.41156 -2,1.50928 -2,2.81836 0,1.30909 0.835311,2.4068 2,2.81836 v 5.36328 c 0,0.55401 0.446,1 1,1 0.554,0 1,-0.44599 1,-1 v -5.35742 c 0.848629,-0.30177 1.517526,-0.9729 1.818359,-1.82422 H 23 c 0.554,0 1,-0.446 1,-1 0,-0.554 -0.446,-1 -1,-1 H 18.818359 C 18.517751,297.7993 17.850699,297.13226 17,296.83163 v -6.18164 c 0,-0.554 -0.445999,-1 -1,-1 z m 0,8 c 0.554001,0 1,0.446 1,1 0,0.554 -0.445999,1 -1,1 -0.554,0 -1,-0.446 -1,-1 0,-0.554 0.446,-1 1,-1 z" opacity="1" paint-order="stroke markers fill"/><path id="rect5668" fill="#f4203e" fill-opacity="1" stroke="none" stroke-dasharray="none" stroke-linecap="round" stroke-linejoin="round" stroke-miterlimit="4" stroke-opacity="1" stroke-width=".808" d="m 15.999999,299.65005 c 0.554,0 1,0.44598 1,0.99998 v 6 c 0,0.55401 -0.446,1.00003 -1,1.00003 -0.554,0 -1,-0.44602 -1,-1.00003 v -6 c 0,-0.554 0.446,-0.99998 1,-0.99998 z" opacity="1" paint-order="stroke markers fill"/><path id="rect5658" fill="#252a34" fill-opacity="1" stroke="none" stroke-dasharray="none" stroke-linecap="round" stroke-linejoin="round" stroke-miterlimit="4" stroke-opacity="1" stroke-width=".808" d="M 15.999999,288.65 C 15.445999,288.65 15,289.09599 15,289.64999 v 6.18164 c -1.164689,0.41156 -2.000001,1.50928 -2.000001,2.81836 0,1.66201 1.338,3 3,3 1.309083,0 2.406799,-0.83531 2.818359,-1.99998 h 4.181641 c 0.554,0 1,-0.44602 1,-1.00002 0,-0.554 -0.446,-0.99999 -1,-0.99999 h -4.181641 c -0.300608,-0.85069 -0.96766,-1.51774 -1.818359,-1.81837 v -6.18164 c 0,-0.554 -0.445999,-0.99999 -1,-0.99999 z m 0,9 c 0.554001,0 1,0.44599 1,0.99999 0,0.554 -0.445999,1.00002 -1,1.00002 -0.554,0 -0.999999,-0.44602 -0.999999,-1.00002 0,-0.554 0.445999,-0.99999 0.999999,-0.99999 z" opacity="1" paint-order="stroke markers fill"/></g></g></svg>