<svg xmlns="http://www.w3.org/2000/svg" xmlns:svg="http://www.w3.org/2000/svg" xmlns:xlink="http://www.w3.org/1999/xlink" id="svg8" width="32" height="32" version="1.1" viewBox="0 0 32 32"><title id="title7895">Antu icon Theme</title><defs id="defs2"><linearGradient id="linearGradient4581-2-3" x1="9.525" x2="9.525" y1="290.915" y2="285.623" gradientTransform="matrix(4.5354327,0,0,4.5354327,-43.199998,-1001.7737)" gradientUnits="userSpaceOnUse" xlink:href="#linearGradient2126"/><linearGradient id="linearGradient2126"><stop id="stop2122" offset="0" stop-color="#475057" stop-opacity="1"/><stop id="stop2124" offset="1" stop-color="#5e6a73" stop-opacity="1"/></linearGradient><linearGradient id="linearGradient852" x1="8.712" x2="8.712" y1="294.543" y2="288.987" gradientTransform="matrix(3.7795275,0,0,3.7795275,-35.928569,-797.58391)" gradientUnits="userSpaceOnUse" xlink:href="#linearGradient4619"/><linearGradient id="linearGradient4619"><stop id="stop4615" offset="0" stop-color="#67d924" stop-opacity="1"/><stop id="stop4617" offset="1" stop-color="#a3eb1e" stop-opacity="1"/></linearGradient></defs><metadata id="metadata5"/><g id="layer1" transform="translate(0,-282.64999)"><g id="g2351" transform="translate(19,-7)"><path id="path1073" fill="#343b40" fill-opacity="1" stroke="none" stroke-dasharray="none" stroke-linecap="round" stroke-linejoin="round" stroke-miterlimit="4" stroke-opacity="1" stroke-width="1.274" d="m 0,292.64999 c -7.201999,0 -13,5.79792 -13,13 0,7.20194 5.798001,13 13,13 7.202,0 13,-5.79806 13,-13 0,-7.20208 -5.798,-13 -13,-13 z m 0,9 c 2.215999,0 4,1.78402 4,4 0,2.21603 -1.784001,4 -4,4 -2.215999,0 -4,-1.78397 -4,-4 0,-2.21598 1.784001,-4 4,-4 z"/><path id="path1067" fill="url(#linearGradient4581-2-3)" fill-opacity="1" stroke="none" stroke-dasharray="none" stroke-linecap="round" stroke-linejoin="round" stroke-miterlimit="4" stroke-opacity="1" stroke-width="1.202" d="m 0,293.64999 c -6.648001,0 -12,5.35196 -12,12 0,6.64803 5.351999,12 12,12 6.647999,0 12,-5.35197 12,-12 0,-6.64804 -5.352001,-12 -12,-12 z m 0,7 c 2.769997,0 5,2.22996 5,5 0,2.77 -2.230003,5 -5,5 -2.77,0 -5,-2.23 -5,-5 0,-2.77004 2.229999,-5 5,-5 z"/><path id="rect843" fill="#56b21d" fill-opacity="1" stroke="none" stroke-dasharray="none" stroke-linecap="round" stroke-linejoin="round" stroke-miterlimit="4" stroke-opacity="1" stroke-width="2.393" d="M -17,290.64999 H 0 c 1.108,0 2,0.892 2,2 v 26 c 0,1.108 -0.892,2 -2,2 h -17 c -1.108,0 -2,-0.892 -2,-2 v -26 c 0,-1.108 0.892,-2 2,-2 z" opacity="1"/><path id="rect843-3" fill="url(#linearGradient852)" fill-opacity="1" stroke="none" stroke-dasharray="none" stroke-linecap="round" stroke-linejoin="round" stroke-miterlimit="4" stroke-opacity="1" stroke-width="2.234" d="M -17,291.64999 H 0 c 0.553999,0 1,0.446 1,1 v 26 c 0,0.554 -0.446001,1 -1,1 h -17 c -0.554,0 -1,-0.446 -1,-1 v -26 c 0,-0.554 0.446,-1 1,-1 z" opacity="1"/><path id="rect4689-9-0-2" fill="#4a9919" fill-opacity="1" stroke="none" stroke-opacity="1" stroke-width="1" d="m -3,298.64999 -5,2 v 3 1 2.55078 c -0.589552,-0.34166 -1.266971,-0.55078 -2,-0.55078 -2.216,0 -4,1.78403 -4,4 0,2.21601 1.784,4 4,4 2.216,0 4,-1.78399 4,-4 v -5 -1.80078 l 3,-1.19922 z" opacity="1"/><path id="rect4689-9-0" fill="#fff" fill-opacity="1" stroke="none" stroke-opacity="1" stroke-width="1" d="m -3,297.64999 -5,2 v 3 1 2.55078 c -0.589552,-0.34166 -1.266971,-0.55078 -2,-0.55078 -2.216,0 -4,1.78403 -4,4 0,2.21601 1.784,4 4,4 2.216,0 4,-1.78399 4,-4 v -5 -1.80078 l 3,-1.19922 z" opacity="1"/></g></g></svg>