<svg xmlns="http://www.w3.org/2000/svg" xmlns:svg="http://www.w3.org/2000/svg" xmlns:xlink="http://www.w3.org/1999/xlink" id="svg8" width="32" height="32" version="1.1" viewBox="0 0 32 32"><title id="title7895">Antu icon Theme</title><defs id="defs2"><linearGradient id="linearGradient4759" x1="4.762" x2="4.762" y1="7.408" y2="1.058" gradientTransform="matrix(3.7795275,0,0,3.7795275,-0.999998,287.64994)" gradientUnits="userSpaceOnUse" xlink:href="#linearGradient4774"/><linearGradient id="linearGradient4774"><stop id="stop4770" offset="0" stop-color="#f41e3d" stop-opacity="1"/><stop id="stop4772" offset="1" stop-color="#fc3a56" stop-opacity="1"/></linearGradient></defs><metadata id="metadata5"/><g id="layer1" transform="translate(0,-282.64999)"><g id="g4150" transform="translate(1,-5)"><path id="path12329" fill="#d90122" fill-opacity="1" stroke-width="1" d="m 0,289.64999 c -0.55401,0 -1,0.446 -1,1 v 26 c 0,0.554 0.44599,1 1,1 h 30 c 0.554009,0 1,-0.446 1,-1 v -26 c 0,-0.554 -0.445992,-1 -1,-1 H 16 13 Z"/><path id="path13-5-2-9-4-2-6-6" fill="url(#linearGradient4759)" fill-opacity="1" stroke-width="1" d="m 0,290.64999 v 26 h 30 v -26 H 15 13 Z"/><path id="rect11549-7" fill="#d90122" fill-opacity="1" stroke="none" stroke-dasharray="none" stroke-linecap="round" stroke-linejoin="round" stroke-miterlimit="4" stroke-opacity="1" stroke-width="2" d="m 8,299.64826 c -0.5540329,0 -1,0.44595 -1,1 v 8 c 0,0.554 0.4459671,1 1,1 h 8 c 0.554033,0 1,-0.446 1,-1 v -2.58594 l 3.292969,3.29297 c 0.629995,0.62956 1.706681,0.18369 1.707031,-0.70703 v -8 c 1.84e-4,-0.56391 -0.465631,-1.01648 -1.029297,-1 -0.255008,0.008 -0.49746,0.11269 -0.677734,0.29297 L 17,303.2342 v -2.58594 c 0,-0.55404 -0.445967,-1 -1,-1 z" opacity="1"/><path id="rect11549" fill="#fff" fill-opacity="1" stroke="none" stroke-dasharray="none" stroke-linecap="round" stroke-linejoin="round" stroke-miterlimit="4" stroke-opacity="1" stroke-width="2" d="m 8,298.64826 c -0.554033,0 -1,0.44596 -1,1 v 8 c 0,0.554 0.445967,1 1,1 h 8 c 0.554033,0 1,-0.446 1,-1 v -2.58594 l 3.292969,3.29297 c 0.629995,0.62955 1.706681,0.18365 1.707031,-0.70703 v -8 c 1.84e-4,-0.56391 -0.465631,-1.01648 -1.029297,-1 -0.255008,0.008 -0.49746,0.11269 -0.677734,0.29297 L 17,302.2342 v -2.58594 c 0,-0.55404 -0.445967,-1 -1,-1 z" opacity="1"/><path id="rect2787" fill="#d90122" fill-opacity="1" stroke="none" stroke-dasharray="none" stroke-dashoffset="0" stroke-linecap="round" stroke-linejoin="round" stroke-miterlimit="4" stroke-opacity="1" stroke-width="6" d="m 26.510153,292.64999 c 1.385,0 2.5,1.115 2.5,2.5 0,1.385 -1.115,2.5 -2.5,2.5 -1.385,0 -2.5,-1.115 -2.5,-2.5 0,-1.385 1.115,-2.5 2.5,-2.5 z" opacity="1" paint-order="stroke markers fill"/><path id="rect2787-8" fill="#fff" fill-opacity="1" stroke="none" stroke-dasharray="none" stroke-dashoffset="0" stroke-linecap="round" stroke-linejoin="round" stroke-miterlimit="4" stroke-opacity="1" stroke-width="6" d="m 26.510153,291.64999 c 1.385,0 2.5,1.115 2.5,2.5 0,1.385 -1.115,2.5 -2.5,2.5 -1.385,0 -2.5,-1.115 -2.5,-2.5 0,-1.385 1.115,-2.5 2.5,-2.5 z" opacity="1" paint-order="stroke markers fill"/><path id="rect3441-6" fill="#d90122" fill-opacity="1" stroke="none" stroke-dasharray="none" stroke-dashoffset="0" stroke-linecap="round" stroke-linejoin="round" stroke-miterlimit="4" stroke-opacity="1" stroke-width="6" d="m 1,292.64999 v 2 2 h 2 v -2 h 2 v -2 H 3 Z" opacity="1" paint-order="stroke markers fill"/><path id="rect3441" fill="#fff" fill-opacity="1" stroke="none" stroke-dasharray="none" stroke-dashoffset="0" stroke-linecap="round" stroke-linejoin="round" stroke-miterlimit="4" stroke-opacity="1" stroke-width="6" d="m 1,291.64999 v 2 2 h 2 v -2 h 2 v -2 H 3 Z" opacity="1" paint-order="stroke markers fill"/><path id="rect3441-6-6" fill="#d90122" fill-opacity="1" stroke="none" stroke-dasharray="none" stroke-dashoffset="0" stroke-linecap="round" stroke-linejoin="round" stroke-miterlimit="4" stroke-opacity="1" stroke-width="6" d="m 1,316.64999 v -2 -2 h 2 v 2 h 2 v 2 H 3 Z" opacity="1" paint-order="stroke markers fill"/><path id="rect3441-9" fill="#fff" fill-opacity="1" stroke="none" stroke-dasharray="none" stroke-dashoffset="0" stroke-linecap="round" stroke-linejoin="round" stroke-miterlimit="4" stroke-opacity="1" stroke-width="6" d="m 1,315.64999 v -2 -2 h 2 v 2 h 2 v 2 H 3 Z" opacity="1" paint-order="stroke markers fill"/><path id="rect3441-6-4" fill="#d90122" fill-opacity="1" stroke="none" stroke-dasharray="none" stroke-dashoffset="0" stroke-linecap="round" stroke-linejoin="round" stroke-miterlimit="4" stroke-opacity="1" stroke-width="6" d="m 29,316.64999 v -2 -2 h -2 v 2 h -2 v 2 h 2 z" opacity="1" paint-order="stroke markers fill"/><path id="rect3441-9-2" fill="#fff" fill-opacity="1" stroke="none" stroke-dasharray="none" stroke-dashoffset="0" stroke-linecap="round" stroke-linejoin="round" stroke-miterlimit="4" stroke-opacity="1" stroke-width="6" d="m 29,315.64999 h -2 -2 v -2 h 2 v -2 h 2 v 2 z" opacity="1" paint-order="stroke markers fill"/></g></g></svg>