<svg xmlns="http://www.w3.org/2000/svg" xmlns:svg="http://www.w3.org/2000/svg" xmlns:xlink="http://www.w3.org/1999/xlink" id="svg8" width="32" height="32" version="1.1" viewBox="0 0 32 32"><title id="title7895">Antu icon Theme</title><defs id="defs2"><linearGradient id="linearGradient852-9" x1="8.448" x2="8.448" y1="295.601" y2="288.987" gradientTransform="matrix(3.7795275,0,0,3.7795275,-28.928569,-797.58391)" gradientUnits="userSpaceOnUse" xlink:href="#linearGradient5716-5"/><linearGradient id="linearGradient5716-5"><stop id="stop5712-0" offset="0" stop-color="#1980f1" stop-opacity="1"/><stop id="stop5714-4" offset="1" stop-color="#1fb5f9" stop-opacity="1"/></linearGradient></defs><metadata id="metadata5"/><g id="layer1" transform="translate(0,-282.64999)"><g id="g1645" transform="translate(13,-7)"><path id="rect843-8" fill="#1466b2" fill-opacity="1" stroke="none" stroke-dasharray="none" stroke-linecap="round" stroke-linejoin="round" stroke-miterlimit="4" stroke-opacity="1" stroke-width="2.393" d="m -10,290.64999 c -1.108,0 -2,0.892 -2,2 v 26 c 0,1.108 0.892,2 2,2 h 26 c 1.108,0 2,-0.892 2,-2 v -26 c 0,-1.108 -0.892,-2 -2,-2 z m 1,4 h 2 v 2 h -2 z m 22,0 h 2 v 2 h -2 z m -22,5 h 2 v 2 h -2 z m 22,0 h 2 v 2 h -2 z m -22,5 h 2 v 2 h -2 z m 22,0 h 2 v 2 h -2 z m -22,5 h 2 v 2 h -2 z m 22,0 h 2 v 2 h -2 z m -22,5 h 2 v 2 h -2 z m 22,0 h 2 v 2 h -2 z" opacity="1"/><path id="path1667" fill="url(#linearGradient852-9)" fill-opacity="1" stroke="none" stroke-dasharray="none" stroke-linecap="round" stroke-linejoin="round" stroke-miterlimit="4" stroke-opacity="1" stroke-width="2.234" d="m -10,291.64999 c -0.554,0 -1,0.446 -1,1 v 26 c 0,0.554 0.446,1 1,1 h 26 c 0.553999,0 1,-0.446 1,-1 v -26 c 0,-0.554 -0.446001,-1 -1,-1 z" opacity="1"/><path id="Triangle-1-0" fill="#1466b2" fill-opacity="1" fill-rule="nonzero" stroke="none" stroke-dasharray="none" stroke-dashoffset="0" stroke-linecap="round" stroke-linejoin="round" stroke-miterlimit="4" stroke-opacity="1" stroke-width="2" d="m -1.041345,300.64964 c -0.536181,0.0221 -0.959384,0.46337 -0.958984,1 v 10 c -2e-4,0.78621 0.865086,1.2652 1.53125,0.84765 l 8,-5 c 0.625818,-0.39184 0.625818,-1.30347 0,-1.69531 l -8,-5 c -0.171002,-0.10739 -0.370506,-0.1605 -0.572266,-0.15234 z" baseline-shift="baseline" clip-rule="nonzero" color="#000" color-interpolation="sRGB" color-interpolation-filters="linearRGB" color-rendering="auto" direction="ltr" display="inline" dominant-baseline="auto" enable-background="accumulate" font-family="sans-serif" font-size="medium" font-stretch="normal" font-style="normal" font-variant="normal" font-weight="normal" image-rendering="auto" letter-spacing="normal" opacity="1" overflow="visible" shape-rendering="auto" text-anchor="start" text-decoration="none" text-rendering="auto" vector-effect="none" visibility="visible" word-spacing="normal" writing-mode="lr-tb" style="line-height:normal;font-variant-ligatures:normal;font-variant-position:normal;font-variant-caps:normal;font-variant-numeric:normal;font-variant-alternates:normal;font-feature-settings:normal;text-indent:0;text-align:start;text-decoration-line:none;text-decoration-style:solid;text-decoration-color:#000;text-transform:none;text-orientation:mixed;white-space:normal;shape-padding:0;isolation:auto;mix-blend-mode:normal;solid-color:#000;solid-opacity:1"/><path id="Triangle-1" fill="#fff" fill-opacity="1" fill-rule="nonzero" stroke="none" stroke-dasharray="none" stroke-dashoffset="0" stroke-linecap="round" stroke-linejoin="round" stroke-miterlimit="4" stroke-opacity="1" stroke-width="2" d="m -1.041344,299.64999 c -0.536182,0.0221 -0.9593848,0.46337 -0.9589848,1 v 10 c -2.044e-4,0.78621 0.8650828,1.26521 1.5312498,0.84766 l 8,-5 c 0.62582,-0.39184 0.62582,-1.30348 0,-1.69532 l -8,-5 c -0.171001,-0.10738 -0.370505,-0.16049 -0.572265,-0.15234 z" baseline-shift="baseline" clip-rule="nonzero" color="#000" color-interpolation="sRGB" color-interpolation-filters="linearRGB" color-rendering="auto" direction="ltr" display="inline" dominant-baseline="auto" enable-background="accumulate" font-family="sans-serif" font-size="medium" font-stretch="normal" font-style="normal" font-variant="normal" font-weight="normal" image-rendering="auto" letter-spacing="normal" opacity="1" overflow="visible" shape-rendering="auto" text-anchor="start" text-decoration="none" text-rendering="auto" vector-effect="none" visibility="visible" word-spacing="normal" writing-mode="lr-tb" style="line-height:normal;font-variant-ligatures:normal;font-variant-position:normal;font-variant-caps:normal;font-variant-numeric:normal;font-variant-alternates:normal;font-feature-settings:normal;text-indent:0;text-align:start;text-decoration-line:none;text-decoration-style:solid;text-decoration-color:#000;text-transform:none;text-orientation:mixed;white-space:normal;shape-padding:0;isolation:auto;mix-blend-mode:normal;solid-color:#000;solid-opacity:1"/><path id="path1665-9-7" fill="#1466b2" fill-opacity="1" stroke="none" stroke-dasharray="none" stroke-linecap="round" stroke-linejoin="round" stroke-miterlimit="4" stroke-opacity="1" stroke-width="2.234" d="m 12,293.64999 v 4 h 3 v -4 z m 0,5 v 4 h 3 v -4 z m 0,5 v 4 h 3 v -4 z m 0,5 v 4 h 3 v -4 z m 0,5 v 4 h 3 v -4 z" opacity="1"/><path id="path1665-9" fill="#fff" fill-opacity="1" stroke="none" stroke-dasharray="none" stroke-linecap="round" stroke-linejoin="round" stroke-miterlimit="4" stroke-opacity="1" stroke-width="2.234" d="m 12,293.64999 v 3 h 3 v -3 z m 0,5 v 3 h 3 v -3 z m 0,5 v 3 h 3 v -3 z m 0,5 v 3 h 3 v -3 z m 0,5 v 3 h 3 v -3 z" opacity="1"/><path id="path1665-9-7-9" fill="#1466b2" fill-opacity="1" stroke="none" stroke-dasharray="none" stroke-linecap="round" stroke-linejoin="round" stroke-miterlimit="4" stroke-opacity="1" stroke-width="2.234" d="m -9,293.64999 v 4 h 3 v -4 z m 0,5 v 4 h 3 v -4 z m 0,5 v 4 h 3 v -4 z m 0,5 v 4 h 3 v -4 z m 0,5 v 4 h 3 v -4 z" opacity="1"/><path id="path1665-9-3" fill="#fff" fill-opacity="1" stroke="none" stroke-dasharray="none" stroke-linecap="round" stroke-linejoin="round" stroke-miterlimit="4" stroke-opacity="1" stroke-width="2.234" d="m -9,293.64999 v 3 h 3 v -3 z m 0,5 v 3 h 3 v -3 z m 0,5 v 3 h 3 v -3 z m 0,5 v 3 h 3 v -3 z m 0,5 v 3 h 3 v -3 z" opacity="1"/></g></g></svg>