<svg xmlns="http://www.w3.org/2000/svg" xmlns:svg="http://www.w3.org/2000/svg" xmlns:xlink="http://www.w3.org/1999/xlink" id="svg8" width="32" height="32" version="1.1" viewBox="0 0 32 32"><title id="title7895">Antu icon Theme</title><defs id="defs2"><linearGradient id="linearGradient4592" x1="15" x2="15" y1="28" y2="16" gradientTransform="translate(0,282.64999)" gradientUnits="userSpaceOnUse" xlink:href="#linearGradient4846"/><linearGradient id="linearGradient4846"><stop id="stop4842" offset="0" stop-color="#e4efef" stop-opacity="1"/><stop id="stop4844" offset="1" stop-color="#fcfcfc" stop-opacity="1"/></linearGradient></defs><metadata id="metadata5"/><g id="layer1" transform="translate(0,-282.64999)"><path id="rect4703" fill="#1f1f26" fill-opacity="1" stroke="none" stroke-dasharray="none" stroke-dashoffset="0" stroke-linecap="round" stroke-linejoin="miter" stroke-miterlimit="4" stroke-opacity=".392" stroke-width=".756" d="M 10,284.64999 V 286.65 H 9 v 10.99998 H 8 v 2.00001 H 9 V 301.65 h 2 v -15 h 3 v 10.99998 h 2 v -3 h 2 v 3 h 2 v -3 h 2 v 3 h 2 V 289.65 h -2 v 3 h -6 v -6 h -1 v -2.00001 z M 24,289.65 h 3 v 15 h 2 v -15 h -1 v -2.00001 h -4 z m 3,15 h -2 v 3.99999 h 2 z m -2,3.99999 H 23 V 310.65 H 13 v -2.00001 h -2 v 4 h 2 12 v -1.99998 z m -14,0 v -2 H 9 v 2 z m -2,-2 v -3 H 7 v 3 z m -2,-3 v -1.99998 H 5 v 1.99998 z m -2,-1.99998 v -4.00002 H 3 v 4.00002 z m 0,-4.00002 h 3 v -1.99998 H 5 Z m 8.999999,2 10e-7,5.00002 h 2 l -10e-7,-5.00001 z m 4,0 L 18,304.65 h 2 l -1e-6,-5.00001 z m 4,0 L 22,304.65 h 2 l -1e-6,-5.00001 z" opacity="1" paint-order="stroke fill markers" vector-effect="none"/><path id="rect4758" fill="url(#linearGradient4592)" fill-opacity="1" stroke="none" stroke-dasharray="none" stroke-dashoffset="0" stroke-linecap="round" stroke-linejoin="miter" stroke-miterlimit="4" stroke-opacity=".392" stroke-width=".756" d="m 11,286.64999 v 15 H 9 v -2.00001 H 8 v -2.00001 H 5 v 4.00002 h 2 v 1.99998 h 2 v 3 h 2 v 2.00001 h 2 v 2.00001 h 10 v -2.00001 h 2 v -3.99999 h 2 v -15 h -3 v 7.99998 h -2 v -3 h -2 v 3 h -2 v -3 h -2 v 3 h -2 v -10.99998 z m 2.999999,12.99999 h 2 L 16,304.64999 h -2 z m 4,0 h 2 l 1e-6,5.00001 h -2 z m 4,0 h 2 l 1e-6,5.00001 h -1 -1 z" opacity="1" paint-order="stroke fill markers" vector-effect="none"/></g></svg>