<svg xmlns="http://www.w3.org/2000/svg" xmlns:svg="http://www.w3.org/2000/svg" xmlns:xlink="http://www.w3.org/1999/xlink" id="svg8" width="32" height="32" version="1.1" viewBox="0 0 32 32"><title id="title7895">Antu icon Theme</title><defs id="defs2"><linearGradient id="linearGradient852" x1="8.712" x2="8.712" y1="294.543" y2="288.987" gradientTransform="matrix(3.7795275,0,0,3.7795275,-29.928569,-797.58391)" gradientUnits="userSpaceOnUse" xlink:href="#linearGradient4515"/><linearGradient id="linearGradient4515"><stop id="stop4511" offset="0" stop-color="#4061a6" stop-opacity="1"/><stop id="stop4513" offset="1" stop-color="#4a72bf" stop-opacity="1"/></linearGradient></defs><metadata id="metadata5"/><g id="layer1" transform="translate(0,-282.64999)"><g id="g1481" transform="translate(14,-7)"><path id="rect843" fill="#324b80" fill-opacity="1" stroke="none" stroke-dasharray="none" stroke-linecap="round" stroke-linejoin="round" stroke-miterlimit="4" stroke-opacity="1" stroke-width="2.393" d="m -11,290.64999 h 26 c 1.108,0 2,0.892 2,2 v 26 c 0,1.108 -0.892,2 -2,2 h -26 c -1.108,0 -2,-0.892 -2,-2 v -26 c 0,-1.108 0.892,-2 2,-2 z" opacity="1"/><path id="rect843-3" fill="url(#linearGradient852)" fill-opacity="1" stroke="none" stroke-dasharray="none" stroke-linecap="round" stroke-linejoin="round" stroke-miterlimit="4" stroke-opacity="1" stroke-width="2.234" d="m -11,291.64999 h 26 c 0.553999,0 1,0.446 1,1 v 26 c 0,0.554 -0.446001,1 -1,1 h -26 c -0.554,0 -1,-0.446 -1,-1 v -26 c 0,-0.554 0.446,-1 1,-1 z" opacity="1"/><path id="rect4519-3-5-6" fill="#324b80" fill-opacity="1" stroke="none" stroke-opacity="1" stroke-width="1" d="m 7.95508,295.64998 c -2.745528,0 -4.955081,2.20955 -4.955081,4.95507 v 3.08984 0.95509 H -1 v 5.00001 h 3.999999 v 9.99999 H 8 v -9.99999 h 4.000003 v -5.00001 H 8 v -2.50001 c 0,-0.831 0.668995,-1.49998 1.5,-1.49998 h 0.500001 1.5 1.5 v -0.045 -4.95508 h -4.955077 -0.0449 z" opacity="1"/><path id="rect4519-3-5" fill="#fbfbfb" fill-opacity=".96" stroke="none" stroke-opacity="1" stroke-width="1" d="m 7.95508,294.64999 c -2.745528,0 -4.955081,2.20955 -4.955081,4.95508 v 3.08984 0.95508 H -1 v 5.00002 h 3.999999 v 9.99998 H 8 v -9.99998 h 4.000003 v -5.00002 H 8 v -2.5 c 0,-0.83101 0.668995,-1.49998 1.5,-1.49998 h 0.500001 1.5 1.5 v -0.045 -4.95507 h -4.955077 -0.0449 z" opacity="1"/></g></g></svg>