<svg xmlns="http://www.w3.org/2000/svg" xmlns:svg="http://www.w3.org/2000/svg" xmlns:xlink="http://www.w3.org/1999/xlink" id="svg8" width="32" height="32" version="1.1" viewBox="0 0 32 32"><title id="title7895">Antu icon Theme</title><defs id="defs2"><linearGradient id="linearGradient4544" x1="2.806" x2="2.806" y1="297.397" y2="290.518" gradientTransform="matrix(3.7795279,0,0,3.7795108,-20.220189,-802.05155)" gradientUnits="userSpaceOnUse" xlink:href="#linearGradient4582-3"/><linearGradient id="linearGradient4582-3"><stop id="stop4578-6" offset="0" stop-color="#cee3e3" stop-opacity="1"/><stop id="stop4580-1" offset="1" stop-color="#fcfcfc" stop-opacity="1"/></linearGradient><linearGradient id="linearGradient991" x1="4.235" x2="4.235" y1="296.477" y2="291.449" gradientTransform="matrix(3.7795279,0,0,3.7795108,-25.435816,-797.55045)" gradientUnits="userSpaceOnUse" xlink:href="#linearGradient1018"/><linearGradient id="linearGradient1018"><stop id="stop1014" offset="0" stop-color="#0d72ec" stop-opacity="1"/><stop id="stop1016" offset="1" stop-color="#37c8ff" stop-opacity="1"/></linearGradient></defs><metadata id="metadata5"/><g id="layer1" transform="translate(0,-282.64999)"><g id="g843" transform="translate(25.430764,-10.335774)"><path id="rect4496" fill="#90a4ae" fill-opacity="1" stroke="none" stroke-dasharray="none" stroke-linecap="round" stroke-linejoin="round" stroke-miterlimit="4" stroke-opacity="1" stroke-width="1.47" d="m -9.6130708,293.96319 c 8.310001,0 15.000002,6.68981 15.000002,14.99985 0,8.30991 -6.690001,14.99994 -15.000002,14.99994 -8.3100002,0 -15.0000012,-6.69003 -15.0000012,-14.99994 0,-8.31004 6.690001,-14.99985 15.0000012,-14.99985 z"/><path id="rect4570-9-6" fill="url(#linearGradient4544)" fill-opacity="1" stroke="none" stroke-dasharray="none" stroke-linecap="round" stroke-linejoin="round" stroke-miterlimit="4" stroke-opacity="1" stroke-width="1.402" d="m -9.6130688,294.96314 c 7.755999,0 13.999999,6.2439 13.999999,13.9999 0,7.75602 -6.244,14.00003 -13.999999,14.00003 -7.7560022,0 -14.0000032,-6.24401 -14.0000032,-14.00003 0,-7.756 6.244001,-13.9999 14.0000032,-13.9999 z"/><path id="path937" fill="url(#linearGradient991)" fill-opacity="1" stroke="#0c3996" stroke-dasharray="none" stroke-linecap="round" stroke-linejoin="round" stroke-miterlimit="4" stroke-opacity="1" stroke-width=".8" d="m -3.4361628,293.96493 c -6.287644,12.10451 4.00195296,15.02539 0.002,20.02539 -3,3 -6.395756,2.36804 -10.1621092,-0.23243 1.190662,0.2623 3.450904,-0.0397 4.4511712,-0.79297 0.0013,-9e-4 0.0026,-0.005 0.0039,-0.006 1.086554,-0.75173 1.728572,-1.29779 2.30664,-1.16796 0.578185,0.13039 0.962752,-0.45763 0.513672,-0.97852 -0.449607,-0.52188 -1.540646,-1.23846 -3.017578,-0.84766 -1.0415562,0.2759 -2.3325522,1.44206 -4.3027342,0.26172 -1.512224,-0.90662 -1.654499,-1.65999 -1.667969,-2.18164 0.0373,-0.18482 0.08481,-0.35832 0.140625,-0.51562 0.174044,-0.49187 0.702532,-0.63866 0.996094,-0.75586 0.498017,0.0866 0.926403,0.24303 1.376953,0.47656 0.0059,-0.15194 0.0082,-0.35374 0,-0.58203 0.04317,-0.0865 0.01652,-0.34735 -0.05273,-0.66797 -0.03988,-0.31975 -0.104921,-0.64994 -0.207032,-0.95117 v -0.002 c 0.0017,-4e-5 0.0042,-9.5e-4 0.0059,-0.002 0.0024,-0.001 0.0039,-0.006 0.0059,-0.01 h 0.002 c 0.0025,-0.004 0.0045,-0.007 0.0059,-0.0137 0.03126,-0.14324 0.367555,-0.4198 0.787109,-0.7168 0.375968,-0.26607 0.81781,-0.5489 1.166015,-0.76758 0.30821,-0.19389 0.543694,-0.3372 0.59375,-0.375 0.0189,-0.0151 0.04168,-0.0304 0.06641,-0.0508 0.0046,-0.004 0.009,-0.008 0.01367,-0.0117 0.0028,-0.002 0.0069,-0.004 0.0098,-0.008 0.16549,-0.13326 0.4125882,-0.38679 0.4646432,-0.91781 1.17e-4,-0.001 -6e-5,-0.003 0,-0.004 0.0015,-0.0151 0.0028,-0.0302 0.0039,-0.0469 8.81e-4,-0.0113 0.0013,-0.0219 0.002,-0.0332 4.12e-4,-0.008 0.0017,-0.0197 0.002,-0.0273 9.41e-4,-0.0227 -3e-4,-0.0429 0,-0.0645 l 0.002,-0.002 c 7.08e-4,-0.0514 -9.9e-4,-0.10579 -0.0039,-0.16211 -0.0016,-0.0302 -0.0045,-0.0594 -0.0098,-0.0859 -2.34e-4,-0.001 8.24e-4,-0.003 0,-0.004 -5.3e-4,-0.002 -0.0014,-0.004 -0.002,-0.008 -0.0011,-0.004 -0.0025,-0.009 -0.0039,-0.0156 -0.0016,-0.004 -0.004,-0.0118 -0.0059,-0.0156 -0.05371,-0.12729 -0.2550652,-0.17351 -1.0859372,-0.1875 h -0.002 c -0.339028,-0.008 -0.782213,-0.008 -1.363281,-0.004 -1.018559,0.004 -1.582029,-1.007 -1.761719,-1.39844 0.246331,-1.37839 0.957642,-2.36139 2.126954,-3.02734 0.02211,-0.0113 0.01828,-0.0237 -0.0078,-0.0312 0.228229,-0.14022 -2.763725,-0.004 -4.140664,1.76758 -1.22194,-0.30765 -2.28704,-0.28607 -3.205078,-0.0684 -0.176262,-0.004 -0.397462,-0.0265 -0.658203,-0.082 -0.610479,-0.55963 -1.482831,-1.59445 -1.529297,-2.82812 0,0 -0.003,0.002 -0.0078,0.008 -6.5e-4,-0.0113 -0.0034,-0.0219 -0.0039,-0.0332 0,0 -1.858465,1.44543 -1.580078,5.38868 -7.07e-4,0.0631 -0.0023,0.125 -0.0039,0.18359 -0.503368,0.69086 -0.75295,1.27024 -0.771479,1.39844 -3.695384,9.08984 2.376135,20.16705 12.867187,20.71875 0.544865,0.0453 1.0953112,0.05 1.6484372,0.0371 11.805838,0.88169 21.4573258,-13.1269 10.992188,-26.58203 -0.07733,0.61713 -0.125394,1.22233 -0.179688,1.83008 -1.14128404,-1.59105 -2.714768,-3.21044 -4.820312,-4.83008 z"/></g></g></svg>