<svg xmlns="http://www.w3.org/2000/svg" xmlns:svg="http://www.w3.org/2000/svg" xmlns:xlink="http://www.w3.org/1999/xlink" id="svg8" width="32" height="32" version="1.1" viewBox="0 0 32 32"><title id="title7895">Antu icon Theme</title><defs id="defs2"><linearGradient id="linearGradient852" x1="8.712" x2="8.712" y1="294.543" y2="288.987" gradientTransform="matrix(3.7795275,0,0,3.7795275,-33.928569,-798.58391)" gradientUnits="userSpaceOnUse" xlink:href="#linearGradient4564"/><linearGradient id="linearGradient4564"><stop id="stop4560" offset="0" stop-color="#ef0b2c" stop-opacity="1"/><stop id="stop4562" offset="1" stop-color="#fc3a56" stop-opacity="1"/></linearGradient></defs><metadata id="metadata5"/><g id="layer1" transform="translate(0,-282.64999)"><g id="g2981" transform="translate(18,-6)"><path id="rect843" fill="#be011e" fill-opacity="1" stroke="none" stroke-dasharray="none" stroke-linecap="round" stroke-linejoin="round" stroke-miterlimit="4" stroke-opacity="1" stroke-width="2.393" d="m -15,289.64999 h 26 c 1.108,0 2,0.892 2,2 v 26 c 0,1.108 -0.892,2 -2,2 h -26 c -1.108,0 -2,-0.892 -2,-2 v -26 c 0,-1.108 0.892,-2 2,-2 z" opacity="1"/><path id="rect843-3" fill="url(#linearGradient852)" fill-opacity="1" stroke="none" stroke-dasharray="none" stroke-linecap="round" stroke-linejoin="round" stroke-miterlimit="4" stroke-opacity="1" stroke-width="2.234" d="m -15,290.64999 h 26 c 0.553999,0 1,0.446 1,1 v 26 c 0,0.554 -0.446001,1 -1,1 h -26 c -0.554,0 -1,-0.446 -1,-1 v -26 c 0,-0.554 0.446,-1 1,-1 z" opacity="1"/><path id="path4801-8" fill="#d90122" fill-opacity="1" stroke="none" stroke-dasharray="none" stroke-miterlimit="4" stroke-opacity="1" stroke-width=".334" d="m -2,295.64999 c -5.5228335,0 -9.99998,4.47714 -10,10 2e-5,5.52285 4.4771665,10 10,10 5.522834,0 9.999981,-4.47715 10,-10 v -2 H 7.789062 -2 v 4 h 5.648438 c -0.846539,2.39437 -3.108833,3.99644 -5.648438,4 -3.3137,0 -5.9999885,-2.68629 -5.9999995,-6 1.1e-5,-3.31371 2.6862995,-6 5.9999995,-6 1.301565,0.002 2.567013,0.42823 3.605469,1.21289 l 2.40625,-3.19336 C 2.280001,296.36191 0.169943,295.65308 -2,295.64999 Z" opacity="1"/><path id="path4801" fill="#f7faff" fill-opacity="1" stroke="none" stroke-dasharray="none" stroke-miterlimit="4" stroke-opacity="1" stroke-width=".334" d="m -2,294.64999 c -5.5228338,0 -9.999981,4.47714 -10,10 1.9e-5,5.52285 4.4771662,10 10,10 5.522834,0 9.999981,-4.47715 10,-10 v -2 H 7.789062 -2 v 4 h 5.648438 c -0.846539,2.39437 -3.108833,3.99644 -5.648438,4 -3.3137,0 -5.9999888,-2.68629 -5.9999998,-6 1.1e-5,-3.31371 2.6862998,-6 5.9999998,-6 1.301565,0.002 2.567013,0.42823 3.605469,1.21289 l 2.40625,-3.19336 C 2.280001,295.36191 0.169943,294.65308 -2,294.64999 Z" opacity="1"/></g></g></svg>