<svg xmlns="http://www.w3.org/2000/svg" xmlns:svg="http://www.w3.org/2000/svg" xmlns:xlink="http://www.w3.org/1999/xlink" id="svg8" width="32" height="32" version="1.1" viewBox="0 0 32 32"><title id="title7895">Antu icon Theme</title><defs id="defs2"><linearGradient id="linearGradient3082"><stop id="stop3078" offset="0" stop-color="#f2e7ed" stop-opacity="1"/><stop id="stop3080" offset="1" stop-color="#e5c6d2" stop-opacity="0"/></linearGradient><linearGradient id="linearGradient1001" x1="16" x2="9" y1="297.65" y2="290.65" gradientTransform="translate(-24,16)" gradientUnits="userSpaceOnUse" xlink:href="#linearGradient8668"/><linearGradient id="linearGradient8668"><stop id="stop8664" offset="0" stop-color="#c62f4e" stop-opacity="1"/><stop id="stop8666" offset="1" stop-color="#4c1a4a" stop-opacity="1"/></linearGradient><linearGradient id="linearGradient2237" x1="8.448" x2="8.448" y1="295.601" y2="288.987" gradientTransform="matrix(3.7795275,0,0,3.7795275,-39.928569,-788.58391)" gradientUnits="userSpaceOnUse" xlink:href="#linearGradient4846"/><linearGradient id="linearGradient4846"><stop id="stop4842" offset="0" stop-color="#e4efef" stop-opacity="1"/><stop id="stop4844" offset="1" stop-color="#fcfcfc" stop-opacity="1"/></linearGradient><linearGradient id="linearGradient1091" x1="23.875" x2="7" y1="305.962" y2="288.136" gradientTransform="translate(-24,16)" gradientUnits="userSpaceOnUse" xlink:href="#linearGradient8668"/><linearGradient id="linearGradient1182" x1="20" x2="21.476" y1="305.65" y2="299.65" gradientTransform="translate(-24,16)" gradientUnits="userSpaceOnUse" xlink:href="#linearGradient8858"/><linearGradient id="linearGradient8858"><stop id="stop8854" offset="0" stop-color="#f1e1e9" stop-opacity=".149"/><stop id="stop8856" offset="1" stop-color="#f2e7ed" stop-opacity="1"/></linearGradient><linearGradient id="linearGradient1174" x1="13" x2="19" y1="295.65" y2="304.65" gradientTransform="translate(-24,16)" gradientUnits="userSpaceOnUse" xlink:href="#linearGradient8858"/><linearGradient id="linearGradient4666-9" x1="25.646" x2="28.354" y1="15" y2="15" gradientTransform="matrix(-1,0,0,1,11,293.19553)" gradientUnits="userSpaceOnUse" xlink:href="#linearGradient4646"/><linearGradient id="linearGradient4646"><stop id="stop4642" offset="0" stop-color="#fff" stop-opacity="1"/><stop id="stop4644" offset="1" stop-color="#fff" stop-opacity="0"/></linearGradient><linearGradient id="linearGradient4632-9" x1="24" x2="26" y1="11.454" y2="8.813" gradientTransform="matrix(-1,0,0,1,9.40625,295.19551)" gradientUnits="userSpaceOnUse" xlink:href="#linearGradient4630"/><linearGradient id="linearGradient4630"><stop id="stop4626" offset="0" stop-color="#cacaca" stop-opacity="1"/><stop id="stop4628" offset="1" stop-color="#cacaca" stop-opacity="0"/></linearGradient><linearGradient id="linearGradient8714-4" x1="6.375" x2="9" y1="290.65" y2="294.65" gradientTransform="translate(-8.999998,13.99998)" gradientUnits="userSpaceOnUse" xlink:href="#linearGradient8858"/><linearGradient id="linearGradient3084" x1="-8" x2="-10" y1="308.65" y2="305.65" gradientUnits="userSpaceOnUse" xlink:href="#linearGradient3082"/></defs><metadata id="metadata5"/><g id="layer1" transform="translate(0,-282.64999)"><g id="g3016" transform="translate(24,-16)"><path id="rect843" fill="#7f9099" fill-opacity="1" stroke="none" stroke-dasharray="none" stroke-linecap="round" stroke-linejoin="round" stroke-miterlimit="4" stroke-opacity="1" stroke-width="2.393" d="M -20,299.64999 H 4 c 1.108,0 2,0.89201 2,2.00001 v 25.99998 c 0,1.108 -0.892,2.00001 -2,2.00001 h -24 c -1.108,0 -2,-0.89201 -2,-2.00001 V 301.65 c 0,-1.108 0.892,-2.00001 2,-2.00001 z" opacity="1"/><path id="rect843-3" fill="url(#linearGradient2237)" fill-opacity="1" stroke="none" stroke-dasharray="none" stroke-linecap="round" stroke-linejoin="round" stroke-miterlimit="4" stroke-opacity="1" stroke-width="2.234" d="M -20,300.65002 H 4 c 0.554,0 1,0.44598 1,0.99998 v 26.00001 C 5,328.20398 4.554,328.65 4,328.65 h -24 c -0.554,0 -1,-0.44602 -1,-0.99999 V 301.65 c 0,-0.554 0.446,-0.99998 1,-0.99998 z" opacity="1"/><rect id="rect889" width="22" height="20" x="-19" y="302.65" fill="url(#linearGradient1001)" fill-opacity="1" stroke="none" stroke-dasharray="none" stroke-linecap="round" stroke-linejoin="round" stroke-miterlimit="4" stroke-opacity="1" stroke-width=".8"/><path id="path895" fill="url(#linearGradient1182)" fill-opacity="1" stroke="none" stroke-linecap="butt" stroke-linejoin="miter" stroke-opacity="1" stroke-width="1" d="m 3,322.64999 v -5 l -5,-5 -4.3370874,4.18241 L -1,322.64999 Z"/><path id="path891" fill="url(#linearGradient1174)" fill-opacity="1" stroke="none" stroke-linecap="butt" stroke-linejoin="miter" stroke-opacity="1" stroke-width="1" d="m -19,322.64999 v -5 l 7,-7 11,12 z"/><path id="path893" fill="#e5c6d2" fill-opacity="1" stroke="none" stroke-linecap="butt" stroke-linejoin="miter" stroke-opacity="1" stroke-width="1" d="m -19,317.64999 7,-7 5,12 h -12 z"/><path id="rect889-9" fill="url(#linearGradient1091)" fill-opacity="1" stroke="none" stroke-dasharray="none" stroke-linecap="round" stroke-linejoin="round" stroke-miterlimit="4" stroke-opacity="1" stroke-width=".8" d="m -20,301.64999 v 22 H 4 v -22 z m 1,1 H 3 v 20 h -22 z"/><path id="rect8706-3" fill="url(#linearGradient8714-4)" fill-opacity="1" stroke="none" stroke-dasharray="none" stroke-dashoffset="0" stroke-linecap="round" stroke-linejoin="round" stroke-miterlimit="4" stroke-opacity="1" stroke-width="2" d="m -1,303.64999 h 4e-6 c 1.661999,0 2.999998,1.338 2.999998,3 0,1.66201 -1.337999,3 -2.999998,3 H -1 c -1.661999,0 -2.999998,-1.33799 -2.999998,-3 0,-1.662 1.337999,-3 2.999998,-3 z" opacity="1" paint-order="stroke markers fill" vector-effect="none"/><path id="path4561-4" fill="none" fill-opacity="1" stroke="url(#linearGradient3084)" stroke-dasharray="none" stroke-linecap="round" stroke-linejoin="miter" stroke-miterlimit="4" stroke-opacity="1" stroke-width=".8" d="m -7.999999,308.64999 -3.000001,-3"/><path id="path4563-7" fill="none" stroke="url(#linearGradient4632-9)" stroke-dasharray="none" stroke-linecap="round" stroke-linejoin="bevel" stroke-miterlimit="4" stroke-opacity=".677" stroke-width=".8" d="m -16.59375,302.64999 4,4"/><path id="path4658-8" fill="none" stroke="url(#linearGradient4666-9)" stroke-dasharray="none" stroke-linecap="round" stroke-linejoin="miter" stroke-miterlimit="4" stroke-opacity="1" stroke-width=".8" d="m -15,309.19551 -2,-2"/></g></g></svg>