<svg xmlns="http://www.w3.org/2000/svg" xmlns:svg="http://www.w3.org/2000/svg" id="svg8" width="32" height="32" version="1.1" viewBox="0 0 8.467 8.467"><metadata id="metadata5"/><g id="layer1" transform="translate(0,-288.53332)"><g id="g8976" transform="translate(3.3120164,-0.12284165)"><path id="rect6288" fill="#333" fill-opacity="1" stroke="none" stroke-dasharray="none" stroke-dashoffset="0" stroke-linecap="round" stroke-linejoin="bevel" stroke-miterlimit="4" stroke-opacity=".392" stroke-width=".2" d="M -3.0474331,289.44991 H 4.890067 v 6.87917 h -7.9375001 z" opacity="1" paint-order="stroke fill markers" vector-effect="none"/><path id="rect6283" fill="#030303" fill-opacity="1" stroke="none" stroke-dasharray="none" stroke-dashoffset="0" stroke-linecap="round" stroke-linejoin="bevel" stroke-miterlimit="4" stroke-opacity=".392" stroke-width=".2" d="m -3.0474331,289.18533 c -0.1465817,0 -0.2645833,0.118 -0.2645833,0.26458 v 6.87917 c 0,0.14658 0.1180016,0.26458 0.2645833,0.26458 H 4.890067 c 0.1465818,0 0.2645833,-0.118 0.2645833,-0.26458 v -6.87917 c 0,-0.14658 -0.1180015,-0.26458 -0.2645833,-0.26458 z m 0.2645834,0.52917 h 7.4083333 v 6.35 h -7.4083333 z" opacity="1" paint-order="stroke fill markers" vector-effect="none"/><path id="rect6127" fill="#29d6ff" fill-opacity="1" stroke="none" stroke-dasharray="none" stroke-linecap="butt" stroke-linejoin="round" stroke-miterlimit="4" stroke-opacity="1" stroke-width=".265" d="m -2.2536831,295.53533 v 0.26458 h 0.79375 v -0.26458 z m 1.0583334,0 v 0.26458 h 0.79375002 v -0.26458 z m 1.05833332,0 v 0.26458 h 0.79375 v -0.26458 z m 1.32291668,0 v 0.26458 h 0.79375 v -0.26458 z m 1.0583333,0 v 0.26458 h 0.79375 v -0.26458 z m 1.0583334,0 v 0.26458 h 0.79375 v -0.26458 z" opacity="1"/><path id="rect6299-1-1-0" fill="#0f0f0f" fill-opacity=".702" stroke="none" stroke-dasharray="none" stroke-dashoffset="0" stroke-linecap="round" stroke-linejoin="bevel" stroke-miterlimit="4" stroke-opacity=".392" stroke-width=".2" d="m -2.7828497,290.50825 v 1.05833 h 7.4083333 v -1.05833 z m 0,1.85208 v 1.05833 h 7.4083333 v -1.05833 z m 0,1.85208 v 1.05834 h 7.4083333 v -1.05834 z" opacity="1" paint-order="stroke fill markers" vector-effect="none"/><path id="rect6031" fill="#32ff3f" fill-opacity="1" stroke="none" stroke-dasharray="none" stroke-linecap="butt" stroke-linejoin="round" stroke-miterlimit="4" stroke-opacity="1" stroke-width=".265" d="m -0.40159968,290.77283 v 1.05834 h 0.2645833 v -1.05834 z m 0.5291666,0 v 1.05834 h 0.2645834 v -1.05834 z m 1.58750008,0 v 1.05834 h 0.2645833 v -1.05834 z m 0.5291666,0 v 1.05834 H 2.508817 v -1.05834 z m -2.64583328,1.32292 v 1.05833 h 0.2645833 v -1.05833 z m 0.5291666,0 v 1.05833 h 0.2645834 v -1.05833 z m 0.5291667,0 v 1.05833 h 0.2645833 v -1.05833 z m 0.52916668,0 v 1.05833 h 0.2645833 v -1.05833 z m 0.5291667,0 v 1.05833 h 0.2645833 v -1.05833 z m 0.5291666,0 v 1.05833 H 2.508817 v -1.05833 z m -2.64583328,1.32292 v 1.05833 h 0.2645833 v -1.05833 z m 0.5291666,0 v 1.05833 h 0.2645834 v -1.05833 z m 1.58750008,0 v 1.05833 h 0.2645833 v -1.05833 z m 0.5291666,0 V 294.477 H 2.508817 v -1.05833 z" opacity="1"/><path id="rect6065" fill="#fefefe" fill-opacity="1" stroke="none" stroke-dasharray="none" stroke-linecap="butt" stroke-linejoin="round" stroke-miterlimit="4" stroke-opacity="1" stroke-width=".265" d="m -0.93076638,290.77283 v 1.05834 h 0.2645833 v -1.05834 z m 3.70416668,0 v 1.05834 h 0.2645833 v -1.05834 z m -3.70416668,1.32292 v 1.05833 h 0.2645833 v -1.05833 z m 3.70416668,0 v 1.05833 h 0.2645833 v -1.05833 z m -3.70416668,1.32292 v 1.05833 h 0.2645833 v -1.05833 z m 3.70416668,0 v 1.05833 h 0.2645833 v -1.05833 z" opacity="1"/></g></g></svg>