<svg xmlns="http://www.w3.org/2000/svg" xmlns:svg="http://www.w3.org/2000/svg" xmlns:xlink="http://www.w3.org/1999/xlink" id="svg8" width="32" height="32" version="1.1" viewBox="0 0 32 32"><title id="title7895">Antu icon Theme</title><defs id="defs2"><linearGradient id="linearGradient852" x1="8.712" x2="8.712" y1="294.543" y2="288.987" gradientTransform="matrix(3.7795275,0,0,3.7795275,8.071431,-772.58391)" gradientUnits="userSpaceOnUse" xlink:href="#linearGradient4582"/><linearGradient id="linearGradient4582"><stop id="stop4578" offset="0" stop-color="#428c54" stop-opacity="1"/><stop id="stop4580" offset="1" stop-color="#55b26b" stop-opacity="1"/></linearGradient><linearGradient id="linearGradient882" x1="16" x2="16" y1="304.65" y2="292.65" gradientTransform="translate(24,32)" gradientUnits="userSpaceOnUse" xlink:href="#linearGradient880"/><linearGradient id="linearGradient880"><stop id="stop876" offset="0" stop-color="#595959" stop-opacity="1"/><stop id="stop878" offset="1" stop-color="#676767" stop-opacity="1"/></linearGradient></defs><metadata id="metadata5"/><g id="layer1" transform="translate(0,-282.64999)"><g id="g872" transform="translate(-24,-32)"><path id="rect843" fill="#2a5935" fill-opacity="1" stroke="none" stroke-dasharray="none" stroke-linecap="round" stroke-linejoin="round" stroke-miterlimit="4" stroke-opacity="1" stroke-width="2.393" d="m 27,315.64999 h 26 c 1.108,0 2,0.892 2,2 v 26 c 0,1.108 -0.892,2 -2,2 H 27 c -1.108,0 -2,-0.892 -2,-2 v -26 c 0,-1.108 0.892,-2 2,-2 z" opacity="1"/><path id="rect843-3" fill="url(#linearGradient852)" fill-opacity="1" stroke="none" stroke-dasharray="none" stroke-linecap="round" stroke-linejoin="round" stroke-miterlimit="4" stroke-opacity="1" stroke-width="2.234" d="m 27,316.64999 h 26 c 0.553999,0 1,0.446 1,1 v 26 c 0,0.554 -0.446001,1 -1,1 H 27 c -0.554,0 -1,-0.446 -1,-1 v -26 c 0,-0.554 0.446,-1 1,-1 z" opacity="1"/><path id="rect872" fill="#2e2e2e" fill-opacity="1" stroke="none" stroke-dasharray="none" stroke-dashoffset="0" stroke-linecap="round" stroke-linejoin="round" stroke-miterlimit="4" stroke-opacity="1" stroke-width="2" d="m 33.999996,323.64999 h 12.000008 c 0.553998,0 0.999996,0.446 0.999996,1 v 12 c 0,0.554 -0.445998,1 -0.999996,1 H 33.999996 c -0.553998,0 -0.999996,-0.446 -0.999996,-1 v -12 c 0,-0.554 0.445998,-1 0.999996,-1 z" opacity=".98"/><path id="rect874" fill="url(#linearGradient882)" fill-opacity="1" stroke="none" stroke-dasharray="none" stroke-dashoffset="0" stroke-linecap="round" stroke-linejoin="round" stroke-miterlimit="4" stroke-opacity="1" stroke-width="2" d="m 34,324.64999 h 12 v 12 H 34 Z" opacity=".98"/><path id="rect998-3" fill="#3c804c" fill-opacity="1" stroke="none" stroke-dasharray="none" stroke-dashoffset="0" stroke-linecap="round" stroke-linejoin="round" stroke-miterlimit="4" stroke-opacity="1" stroke-width="2" d="m 36,318.64999 v 2 h 2 v -2 z m 2,2 v 2 h 2 v -2 z m 2,0 h 2 v -2 h -2 z m 2,0 v 2 h 2 v -2 z m 2,0 h 2 v -2 h -2 z m 2,0 v 2 h 2 v -2 z m 2,0 h 2 v -2 h -2 z m 2,0 v 2 h 2 v -2 z m -23,6 v 2 h 2 v -2 z m 2,2 v 2 h 2 v -2 z m 0,2 h -2 v 2 h 2 z m 0,2 v 2 h 2 v -2 z m 0,2 h -2 v 2 h 2 z m -2,4 v 6 h 6 z m 10,2 v 2 h 2 v -2 z m 2,2 v 2 h 2 v -2 z m 2,0 h 2 v -2 h -2 z m 2,0 v 2 h 2 v -2 z m 2,0 h 2 v -2 h -2 z m 2,0 v 2 h 2 v -2 z m -10,0 h -2 v 2 h 2 z" opacity=".98"/><path id="rect1243" fill="#2e302f" fill-opacity="1" stroke="none" stroke-dasharray="none" stroke-dashoffset="0" stroke-linecap="round" stroke-linejoin="round" stroke-miterlimit="4" stroke-opacity="1" stroke-width="2" d="m 42,325.64999 h 3 v 1 h -3 z" opacity=".98"/><path id="rect1245" fill="#2e302f" fill-opacity="1" stroke="none" stroke-dasharray="none" stroke-dashoffset="0" stroke-linecap="round" stroke-linejoin="round" stroke-miterlimit="4" stroke-opacity="1" stroke-width="2" d="m 39,325.64999 h 2 v 1 h -2 z" opacity=".98"/><path id="rect998" fill="#f5f5f5" fill-opacity="1" stroke="none" stroke-dasharray="none" stroke-dashoffset="0" stroke-linecap="round" stroke-linejoin="round" stroke-miterlimit="4" stroke-opacity="1" stroke-width="2" d="m 36,317.64999 v 2 h 2 v -2 z m 2,2 v 2 h 2 v -2 z m 2,0 h 2 v -2 h -2 z m 2,0 v 2 h 2 v -2 z m 2,0 h 2 v -2 h -2 z m 2,0 v 2 h 2 v -2 z m 2,0 h 2 v -2 h -2 z m 2,0 v 2 h 2 v -2 z m -23,6 v 2 h 2 v -2 z m 2,2 v 2 h 2 v -2 z m 0,2 h -2 v 2 h 2 z m 0,2 v 2 h 2 v -2 z m 0,2 h -2 v 2 h 2 z m -2,4 v 6 h 6 z m 10,2 v 2 h 2 v -2 z m 2,2 v 2 h 2 v -2 z m 2,0 h 2 v -2 h -2 z m 2,0 v 2 h 2 v -2 z m 2,0 h 2 v -2 h -2 z m 2,0 v 2 h 2 v -2 z m -10,0 h -2 v 2 h 2 z" opacity=".98"/></g></g></svg>