<svg xmlns="http://www.w3.org/2000/svg" xmlns:svg="http://www.w3.org/2000/svg" xmlns:xlink="http://www.w3.org/1999/xlink" id="svg8" width="32" height="32" version="1.1" viewBox="0 0 32 32"><title id="title7895">Antu icon Theme</title><defs id="defs2"><linearGradient id="linearGradient3107" x1="2" x2="30" y1="29" y2="1" gradientTransform="translate(-19,289.64999)" gradientUnits="userSpaceOnUse" xlink:href="#linearGradient4555"/><linearGradient id="linearGradient4555"><stop id="stop4551" offset="0" stop-color="#b28e41" stop-opacity="1"/><stop id="stop4559" offset=".481" stop-color="#801c41" stop-opacity="1"/><stop id="stop4553" offset="1" stop-color="#5e2166" stop-opacity="1"/></linearGradient><linearGradient id="linearGradient3061" x1="-3" x2="27" y1="324.65" y2="294.65" gradientTransform="translate(-15,-5)" gradientUnits="userSpaceOnUse" xlink:href="#linearGradient4555"/><linearGradient id="linearGradient852" x1="5.008" x2="11.887" y1="295.337" y2="288.458" gradientTransform="matrix(3.7795275,0,0,3.7795275,-34.928569,-798.58391)" gradientUnits="userSpaceOnUse" xlink:href="#linearGradient4541"/><linearGradient id="linearGradient4541"><stop id="stop4537" offset="0" stop-color="#ffca5c" stop-opacity="1"/><stop id="stop4547" offset=".52" stop-color="#e02f73" stop-opacity="1"/><stop id="stop4539" offset="1" stop-color="#a93cb6" stop-opacity="1"/></linearGradient></defs><metadata id="metadata5"/><g id="layer1" transform="translate(0,-282.64999)"><g id="g3748" transform="translate(19,-6)"><path id="rect843" fill="url(#linearGradient3061)" fill-opacity="1" stroke="none" stroke-dasharray="none" stroke-linecap="round" stroke-linejoin="round" stroke-miterlimit="4" stroke-opacity="1" stroke-width="2.393" d="m -16,289.64999 h 26 c 1.108,0 2,0.892 2,2 v 26 c 0,1.108 -0.892,2 -2,2 h -26 c -1.108,0 -2,-0.892 -2,-2 v -26 c 0,-1.108 0.892,-2 2,-2 z" opacity="1"/><path id="rect843-3" fill="url(#linearGradient852)" fill-opacity="1" stroke="none" stroke-dasharray="none" stroke-linecap="round" stroke-linejoin="round" stroke-miterlimit="4" stroke-opacity="1" stroke-width="2.234" d="m -16,290.64999 h 26 c 0.553999,0 1,0.446 1,1 v 26 c 0,0.554 -0.446001,1 -1,1 h -26 c -0.554,0 -1,-0.446 -1,-1 v -26 c 0,-0.554 0.446,-1 1,-1 z" opacity="1"/><path id="rect4580-1" fill="url(#linearGradient3107)" fill-opacity="1" stroke="none" stroke-opacity="1" stroke-width=".941" d="m 7,293.64999 c -1.108,0 -2,0.892 -2,2 0,1.108 0.892,2 2,2 1.108,0 2,-0.892 2,-2 0,-1.108 -0.892,-2 -2,-2 z m -10,4 c -4.432,0 -8,3.568 -8,8 0,4.432 3.568,8 8,8 4.432,0 8,-3.568 8,-8 0,-4.432 -3.568,-8 -8,-8 z m 0,3 c 2.77,0 5,2.23 5,5 0,2.77 -2.23,5 -5,5 -2.77,0 -5,-2.23 -5,-5 0,-2.77 2.23,-5 5,-5 z" opacity=".8"/><path id="rect4580" fill="#fff" fill-opacity=".95" stroke="none" stroke-opacity="1" stroke-width=".941" d="m 7,292.65001 c -1.108,0 -2,0.892 -2,2 0,1.108 0.892,2 2,2 1.108,0 2,-0.892 2,-2 0,-1.108 -0.892,-2 -2,-2 z m -10,4 c -4.432,0 -8,3.568 -8,8 0,4.432 3.568,8 8,8 4.432,0 8,-3.568 8,-8 0,-4.432 -3.568,-8 -8,-8 z m 0,3 c 2.77,0 5,2.23 5,5 0,2.77 -2.23,5 -5,5 -2.77,0 -5,-2.23 -5,-5 0,-2.77 2.23,-5 5,-5 z" opacity="1"/></g></g></svg>