<svg xmlns="http://www.w3.org/2000/svg" xmlns:svg="http://www.w3.org/2000/svg" xmlns:xlink="http://www.w3.org/1999/xlink" id="svg8" width="32" height="32" version="1.1" viewBox="0 0 32 32"><title id="title7895">Antu icon Theme</title><defs id="defs2"><linearGradient id="linearGradient852" x1="8.712" x2="8.712" y1="294.543" y2="288.987" gradientTransform="matrix(3.7795275,0,0,3.7795275,-15.928569,-1087.2339)" gradientUnits="userSpaceOnUse" xlink:href="#linearGradient4582"/><linearGradient id="linearGradient4582"><stop id="stop4578" offset="0" stop-color="#ae874e" stop-opacity="1"/><stop id="stop4580" offset="1" stop-color="#c9a46a" stop-opacity="1"/></linearGradient></defs><metadata id="metadata5"/><g id="layer1" transform="translate(0,-282.64999)"><g id="g1235"><rect id="rect868-2" width="4" height="7" x="26" y="291.65" fill="#1770d9" fill-opacity=".98" stroke="none" stroke-dasharray="none" stroke-dashoffset="0" stroke-linecap="round" stroke-linejoin="round" stroke-miterlimit="4" stroke-opacity="1" stroke-width="2" opacity=".98" ry="1"/><path id="rect868" fill="#cc0120" fill-opacity="1" stroke="none" stroke-dasharray="none" stroke-dashoffset="0" stroke-linecap="round" stroke-linejoin="round" stroke-miterlimit="4" stroke-opacity="1" stroke-width="2" d="m 27,284.64999 h 2 c 0.554,0 1,0.446 1,1 v 5 c 0,0.554 -0.446,1 -1,1 h -2 c -0.554,0 -1,-0.446 -1,-1 v -5 c 0,-0.554 0.446,-1 1,-1 z" opacity=".98"/><path id="rect870" fill="#fc3a56" fill-opacity="1" stroke="none" stroke-dasharray="none" stroke-dashoffset="0" stroke-linecap="round" stroke-linejoin="round" stroke-miterlimit="4" stroke-opacity="1" stroke-width="2" d="m 27,285.64999 h 2 v 5 h -2 z" opacity=".98"/><path id="rect870-9" fill="#03b0fd" fill-opacity=".98" stroke="none" stroke-dasharray="none" stroke-dashoffset="0" stroke-linecap="round" stroke-linejoin="round" stroke-miterlimit="4" stroke-opacity="1" stroke-width="2" d="m 27,292.64999 h 2 v 5 h -2 z" opacity=".98"/><path id="rect868-2-1" fill="#2aa65a" fill-opacity="1" stroke="none" stroke-dasharray="none" stroke-dashoffset="0" stroke-linecap="round" stroke-linejoin="round" stroke-miterlimit="4" stroke-opacity="1" stroke-width="2" d="m 27,298.64999 h 2 c 0.554,0 1,0.446 1,1 v 5 c 0,0.554 -0.446,1 -1,1 h -2 c -0.554,0 -1,-0.446 -1,-1 v -5 c 0,-0.554 0.446,-1 1,-1 z" opacity=".98"/><path id="rect870-9-2" fill="#6bdf73" fill-opacity="1" stroke="none" stroke-dasharray="none" stroke-dashoffset="0" stroke-linecap="round" stroke-linejoin="round" stroke-miterlimit="4" stroke-opacity="1" stroke-width="2" d="m 27,299.64999 h 2 v 5 h -2 z" opacity=".98"/><path id="rect868-2-7" fill="#f89804" fill-opacity="1" stroke="none" stroke-dasharray="none" stroke-dashoffset="0" stroke-linecap="round" stroke-linejoin="round" stroke-miterlimit="4" stroke-opacity="1" stroke-width="2" d="m 27,305.64999 h 2 c 0.554,0 1,0.446 1,1 v 5 c 0,0.554 -0.446,1 -1,1 h -2 c -0.554,0 -1,-0.446 -1,-1 v -5 c 0,-0.554 0.446,-1 1,-1 z" opacity=".98"/><g id="g1598" transform="translate(4,-11)"><path id="rect843" fill="#987343" fill-opacity="1" stroke="none" stroke-dasharray="none" stroke-linecap="round" stroke-linejoin="round" stroke-miterlimit="4" stroke-opacity="1" stroke-width="2.393" d="m -1,294.64999 h 22 c 1.108,0 2,0.892 2,2 v 26 c 0,1.108 -0.892,2 -2,2 H -1 c -1.108,0 -2,-0.892 -2,-2 v -26 c 0,-1.108 0.892,-2 2,-2 z" opacity="1"/><path id="rect843-3" fill="url(#linearGradient852)" fill-opacity="1" stroke="none" stroke-dasharray="none" stroke-linecap="round" stroke-linejoin="round" stroke-miterlimit="4" stroke-opacity="1" stroke-width="2.234" d="M 3,2 C 2.446,2 2,2.446 2,3 v 26 c 0,0.554 0.446,1 1,1 H 4 V 2 Z m 2,0 v 28 h 20 c 0.553999,0 1,-0.446 1,-1 V 3 C 26,2.446 25.553999,2 25,2 Z" opacity="1" transform="translate(-4,293.64999)"/></g><path id="rect870-9-0" fill="#ffe200" fill-opacity="1" stroke="none" stroke-dasharray="none" stroke-dashoffset="0" stroke-linecap="round" stroke-linejoin="round" stroke-miterlimit="4" stroke-opacity="1" stroke-width="2" d="m 27,306.64999 h 2 v 5 h -2 z" opacity=".98"/><path id="rect966-6-1" fill="#987343" fill-opacity="1" stroke="none" stroke-dasharray="none" stroke-dashoffset="0" stroke-linecap="round" stroke-linejoin="round" stroke-miterlimit="4" stroke-opacity="1" stroke-width="2" d="m 15,293.64983 c -1.662,0 -3,1.338 -3,3 0,1.662 1.338,3 3,3 1.662,0 3,-1.338 3,-3 0,-1.662 -1.338,-3 -3,-3 z m 0,7 c -2.761424,0 -5,2.23858 -5,5 3.216353,1.24779 6.533856,1.41664 10,0 0,-2.76142 -2.238576,-5 -5,-5 z" opacity=".98"/><path id="rect966-6" fill="#fff" fill-opacity="1" stroke="none" stroke-dasharray="none" stroke-dashoffset="0" stroke-linecap="round" stroke-linejoin="round" stroke-miterlimit="4" stroke-opacity="1" stroke-width="2" d="m 15,292.64983 c -1.662,0 -3,1.338 -3,3 0,1.662 1.338,3 3,3 1.662,0 3,-1.338 3,-3 0,-1.662 -1.338,-3 -3,-3 z m 0,7 c -2.761424,0 -5,2.23858 -5,5 3.216353,1.24779 6.533856,1.41664 10,0 0,-2.76142 -2.238576,-5 -5,-5 z" opacity=".98"/></g></g></svg>