<svg xmlns="http://www.w3.org/2000/svg" xmlns:svg="http://www.w3.org/2000/svg" xmlns:xlink="http://www.w3.org/1999/xlink" id="svg8" width="32" height="32" version="1.1" viewBox="0 0 32 32"><title id="title7895">Antu icon Theme</title><defs id="defs2"><linearGradient id="linearGradient1134" x1="16" x2="16" y1="32" y2="0" gradientTransform="translate(-44,290.64999)" gradientUnits="userSpaceOnUse" xlink:href="#linearGradient1132"/><linearGradient id="linearGradient1132"><stop id="stop1127" offset="0" stop-color="#141a1a" stop-opacity="1"/><stop id="stop1129" offset="1" stop-color="#232c2c" stop-opacity="1"/></linearGradient><linearGradient id="linearGradient1083" x1="27" x2="10" y1="34" y2="5" gradientTransform="translate(-44,290.64993)" gradientUnits="userSpaceOnUse" xlink:href="#linearGradient4737"/><linearGradient id="linearGradient4737"><stop id="stop4733" offset="0" stop-color="#018ed7" stop-opacity="1"/><stop id="stop4735" offset="1" stop-color="#00dc9a" stop-opacity="1"/></linearGradient></defs><metadata id="metadata5"/><g id="layer1" transform="translate(0,-282.64999)"><g id="g2044" transform="translate(44,-8)"><rect id="rect837-3" width="20" height="30" x="-38" y="291.65" fill="#233a39" fill-opacity="1" stroke="none" stroke-dasharray="none" stroke-linecap="round" stroke-linejoin="round" stroke-miterlimit="4" stroke-opacity="1" stroke-width=".8" ry="3"/><path id="rect835" fill="url(#linearGradient1134)" fill-opacity="1" stroke="#e5c6d2" stroke-dasharray="none" stroke-linecap="round" stroke-linejoin="round" stroke-miterlimit="4" stroke-opacity="0" stroke-width=".8" d="m -35,291.64999 c -1.661998,0 -3,1.338 -3,3 v 24 c 0,1.662 1.338002,3 3,3 h 14 c 1.661998,0 3,-1.338 3,-3 v -24 c 0,-1.662 -1.338002,-3 -3,-3 h -1.96875 -10.0625 z m 0,1 h 1 v 1.03125 c 0,0.53669 0.432063,0.96875 0.96875,0.96875 h 10.0625 c 0.536687,0 0.96875,-0.43206 0.96875,-0.96875 v -1.03125 h 1 c 1.107998,0 2,0.892 2,2 v 24 c 0,1.108 -0.892002,2 -2,2 h -14 c -1.107998,0 -2,-0.892 -2,-2 v -24 c 0,-1.108 0.897501,-2.11025 2,-2 z"/><path id="path1056" fill="url(#linearGradient1083)" fill-opacity="1" stroke="#e5c6d2" stroke-dasharray="none" stroke-linecap="round" stroke-linejoin="round" stroke-miterlimit="4" stroke-opacity="0" stroke-width=".8" d="m -34,293.64993 h -1 c -0.553998,0 -1,0.446 -1,1 v 24 c 0,0.554 0.446002,1 1,1 h 14 c 0.553998,0 1,-0.446 1,-1 v -24 c 0,-0.554 -0.446002,-1 -1,-1 h -1 c 0,0.277 -0.112219,0.52628 -0.292969,0.70703 -0.180749,0.18075 -0.430032,0.29297 -0.707031,0.29297 h -10 c -0.276999,0 -0.526282,-0.11222 -0.707031,-0.29297 C -33.887781,294.17621 -34,293.92693 -34,293.64993 Z"/><path id="rect995" fill="#1a2121" fill-opacity="1" stroke="none" stroke-dasharray="none" stroke-linecap="round" stroke-linejoin="round" stroke-miterlimit="4" stroke-opacity="1" stroke-width=".8" d="m -31.500002,317.64987 h 7.000004 c 0.276999,0 0.499998,0.223 0.499998,0.5 0,0.277 -0.222999,0.5 -0.499998,0.5 h -7.000004 c -0.276999,0 -0.499998,-0.223 -0.499998,-0.5 0,-0.277 0.222999,-0.5 0.499998,-0.5 z"/><path id="rect1058" fill="#c3fbfb" fill-opacity="1" stroke="none" stroke-dasharray="none" stroke-linecap="round" stroke-linejoin="round" stroke-miterlimit="4" stroke-opacity="1" stroke-width=".8" d="m -32.5,292.64999 c 0.277,0 0.5,0.223 0.5,0.5 0,0.277 -0.223,0.5 -0.5,0.5 -0.277,0 -0.5,-0.223 -0.5,-0.5 0,-0.277 0.223,-0.5 0.5,-0.5 z"/><path id="rect1060" fill="#c3fbfb" fill-opacity="1" stroke="none" stroke-dasharray="none" stroke-linecap="round" stroke-linejoin="round" stroke-miterlimit="4" stroke-opacity="1" stroke-width=".8" d="m -30.507812,292.64999 h 3.015624 c 0.272672,0 0.492188,0.21952 0.492188,0.49219 v 0.0156 c 0,0.27268 -0.219516,0.49219 -0.492188,0.49219 h -3.015624 C -30.780484,293.64999 -31,293.43048 -31,293.1578 v -0.0156 c 0,-0.27267 0.219516,-0.49219 0.492188,-0.49219 z"/><path id="rect1062" fill="#c3fbfb" fill-opacity="1" stroke="none" stroke-dasharray="none" stroke-linecap="round" stroke-linejoin="round" stroke-miterlimit="4" stroke-opacity="1" stroke-width=".8" d="m -25.5,292.64999 c 0.277,0 0.5,0.223 0.5,0.5 0,0.277 -0.223,0.5 -0.5,0.5 -0.277,0 -0.5,-0.223 -0.5,-0.5 0,-0.277 0.223,-0.5 0.5,-0.5 z"/><path id="rect1064" fill="#c3fbfb" fill-opacity="1" stroke="none" stroke-dasharray="none" stroke-linecap="round" stroke-linejoin="round" stroke-miterlimit="4" stroke-opacity="1" stroke-width=".8" d="m -24,292.64999 h 1 v 1 h -1 z"/></g></g></svg>