<svg xmlns="http://www.w3.org/2000/svg" xmlns:svg="http://www.w3.org/2000/svg" xmlns:xlink="http://www.w3.org/1999/xlink" id="svg8" width="32" height="32" version="1.1" viewBox="0 0 32 32"><title id="title7895">Antu icon Theme</title><defs id="defs2"><linearGradient id="linearGradient882" x1="16" x2="16" y1="27" y2="21" gradientTransform="translate(-24,288.64999)" gradientUnits="userSpaceOnUse" xlink:href="#linearGradient4656"/><linearGradient id="linearGradient4656"><stop id="stop4652" offset="0" stop-color="#e4e4e4" stop-opacity="1"/><stop id="stop4654" offset="1" stop-color="#fbfbfb" stop-opacity="1"/></linearGradient><linearGradient id="linearGradient898" x1="16" x2="16" y1="298.65" y2="289.65" gradientTransform="translate(-24,6)" gradientUnits="userSpaceOnUse" xlink:href="#linearGradient4627"/><linearGradient id="linearGradient4627"><stop id="stop4623" offset="0" stop-color="#ffc900" stop-opacity="1"/><stop id="stop4625" offset="1" stop-color="#ffe200" stop-opacity="1"/></linearGradient></defs><metadata id="metadata5"/><g id="layer1" transform="translate(0,-282.64999)"><g id="g1655" transform="translate(24,-6.000005)"><path id="rect862" fill="#343b40" fill-opacity=".98" stroke="none" stroke-dasharray="none" stroke-linecap="square" stroke-linejoin="miter" stroke-miterlimit="4" stroke-opacity="1" stroke-width="2" d="m -8,313.64999 c 1.662,0 3,1.338 3,3 v 10e-6 c 0,1.662 -1.338,3 -3,3 -1.662,0 -3,-1.338 -3,-3 v -10e-6 c 0,-1.662 1.338,-3 3,-3 z" opacity=".98" paint-order="stroke markers fill"/><path id="rect867" fill="#535e66" fill-opacity=".961" stroke="none" stroke-dasharray="none" stroke-linecap="square" stroke-linejoin="miter" stroke-miterlimit="4" stroke-opacity="1" stroke-width="2" d="m -8,314.64999 c 1.108,0 2,0.892 2,2 0,1.108 -0.892,2 -2,2 -1.108,0 -2,-0.892 -2,-2 0,-1.108 0.892,-2 2,-2 z" opacity=".98" paint-order="stroke markers fill"/><path id="rect837" fill="#ff9600" fill-opacity=".98" stroke="none" stroke-dasharray="none" stroke-linecap="square" stroke-linejoin="miter" stroke-miterlimit="4" stroke-opacity="1" stroke-width="2.047" d="m -8,289.64999 c 6.094,0 11,4.906 11,11 0,6.094 -4.906,11 -11,11 -6.094,0 -11,-4.906 -11,-11 0,-6.094 4.906,-11 11,-11 z" opacity=".98" paint-order="stroke markers fill"/><path id="rect839" fill="url(#linearGradient898)" fill-opacity="1" stroke="none" stroke-dasharray="none" stroke-linecap="square" stroke-linejoin="miter" stroke-miterlimit="4" stroke-opacity="1" stroke-width="2" d="m -8,290.64999 c 5.54,0 10,4.46 10,10 0,5.54 -4.46,10 -10,10 -5.54,0 -10,-4.46 -10,-10 0,-5.54 4.46,-10 10,-10 z" opacity=".98" paint-order="stroke markers fill"/><path id="Triangle-1" fill="#a3b9bf" fill-opacity="1" fill-rule="nonzero" stroke="none" stroke-dasharray="none" stroke-dashoffset="0" stroke-linecap="butt" stroke-linejoin="miter" stroke-miterlimit="4" stroke-opacity="1" stroke-width="2" d="m -16,305.64999 c -0.856232,5.1e-4 -1.315948,1.00666 -0.755859,1.6543 L -13,311.64999 v 3 c 0,1.662 1.338002,3 3,3 h 4 c 1.661998,0 3,-1.338 3,-3 v -3 l 3.755859,-4.3457 C 1.315947,306.65665 0.856232,305.6505 0,305.64999 Z" baseline-shift="baseline" clip-rule="nonzero" color="#000" color-interpolation="sRGB" color-interpolation-filters="linearRGB" color-rendering="auto" direction="ltr" display="inline" dominant-baseline="auto" enable-background="accumulate" font-family="sans-serif" font-size="medium" font-stretch="normal" font-style="normal" font-variant="normal" font-weight="normal" image-rendering="auto" letter-spacing="normal" opacity="1" overflow="visible" shape-rendering="auto" text-anchor="start" text-decoration="none" text-rendering="auto" vector-effect="none" visibility="visible" word-spacing="normal" writing-mode="lr-tb" style="line-height:normal;font-variant-ligatures:normal;font-variant-position:normal;font-variant-caps:normal;font-variant-numeric:normal;font-variant-alternates:normal;font-feature-settings:normal;text-indent:0;text-align:start;text-decoration-line:none;text-decoration-style:solid;text-decoration-color:#000;text-transform:none;text-orientation:mixed;white-space:normal;shape-padding:0;isolation:auto;mix-blend-mode:normal;solid-color:#000;solid-opacity:1"/><path id="rect869" fill="url(#linearGradient882)" fill-opacity="1" stroke="none" stroke-dasharray="none" stroke-linecap="square" stroke-linejoin="miter" stroke-miterlimit="4" stroke-opacity="1" stroke-width="2" d="m -16,306.64999 4,4 h 2 v 1 h -2 v 1 h 2 v 1 h -2 v 1 c 0,1.108 0.892002,2 2,2 h 4 c 1.107998,0 2,-0.892 2,-2 h -2 v -1 h 2 v -1 h -2 v -1 h 2 v -1 l 4,-4 z" opacity=".98" paint-order="stroke markers fill"/><path id="path4614-7-4-8" fill="#645400" fill-opacity="1" stroke="none" stroke-linecap="butt" stroke-linejoin="miter" stroke-opacity="1" stroke-width=".5" d="m -9.000001,303.64999 4.000005,-5 -2.000004,-1 v -4 l -4.000005,5 2.000005,1 z"/></g></g></svg>