<svg xmlns="http://www.w3.org/2000/svg" xmlns:svg="http://www.w3.org/2000/svg" xmlns:xlink="http://www.w3.org/1999/xlink" id="svg8" width="32" height="32" version="1.1" viewBox="0 0 32 32"><title id="title7895">Antu icon Theme</title><defs id="defs2"><linearGradient id="linearGradient837" x1="4.233" x2="4.233" y1="296.206" y2="289.592" gradientTransform="matrix(3.7795275,0,0,3.7795275,0,-807.86964)" gradientUnits="userSpaceOnUse" xlink:href="#linearGradient4902"/><linearGradient id="linearGradient4902"><stop id="stop4898" offset="0" stop-color="#e7c591" stop-opacity="1"/><stop id="stop4900" offset="1" stop-color="#ffe2b5" stop-opacity="1"/></linearGradient><linearGradient id="linearGradient1096" x1="14" x2="14" y1="308.65" y2="293.65" gradientUnits="userSpaceOnUse" xlink:href="#linearGradient908"/><linearGradient id="linearGradient908"><stop id="stop904" offset="0" stop-color="#f2efe0" stop-opacity="1"/><stop id="stop906" offset="1" stop-color="#fffcf3" stop-opacity="1"/></linearGradient><linearGradient id="linearGradient1086" x1="16" x2="16" y1="7" y2="4" gradientUnits="userSpaceOnUse" xlink:href="#linearGradient979"/><linearGradient id="linearGradient979"><stop id="stop975" offset="0" stop-color="#b3b1ab" stop-opacity="1"/><stop id="stop977" offset="1" stop-color="#d9d6cf" stop-opacity="1"/></linearGradient></defs><metadata id="metadata5"/><g id="layer1" transform="translate(0,-282.64999)"><g id="g1118" transform="translate(5e-7,-10e-6)"><path id="rect827" fill="#bb9c5f" fill-opacity="1" stroke="none" stroke-dasharray="none" stroke-linecap="round" stroke-linejoin="round" stroke-miterlimit="4" stroke-opacity="1" stroke-width="2" d="M 5.0000001,285.64998 H 26.999999 c 1.108,0 2,0.89202 2,2.00001 v 24.00004 c 0,1.10797 -0.892,1.99998 -2,1.99998 H 5.0000001 C 3.892,313.65001 3,312.758 3,311.65003 V 287.65 c 0,-1.108 0.892,-2.00001 2.0000001,-2.00002 z" opacity="1"/><path id="rect829" fill="url(#linearGradient837)" fill-opacity="1" stroke="none" stroke-dasharray="none" stroke-linecap="round" stroke-linejoin="round" stroke-miterlimit="4" stroke-opacity="1" stroke-width="2" d="m 5,286.65 h 21.999999 c 0.554,0 1,0.44599 1,1 v 24.00003 c 0,0.55401 -0.446,1 -1,1 H 5 c -0.554,0 -1,-0.44599 -1,-1 V 287.65 c 0,-0.554 0.446,-1 1,-1 z" opacity="1"/><path id="rect842" fill="#b2aea4" fill-opacity="1" stroke="none" stroke-dasharray="none" stroke-dashoffset="0" stroke-linecap="round" stroke-linejoin="round" stroke-miterlimit="4" stroke-opacity=".989" stroke-width="1.1" d="M 6,288.64999 H 26 V 310.65 H 6 Z" opacity="1" paint-order="stroke markers fill"/><path id="rect846" fill="url(#linearGradient1096)" fill-opacity="1" stroke="none" stroke-dasharray="none" stroke-dashoffset="0" stroke-linecap="round" stroke-linejoin="round" stroke-miterlimit="4" stroke-opacity=".989" stroke-width="1.1" d="M 7,289.64999 H 25 V 309.65 H 7 Z" opacity="1" paint-order="stroke markers fill"/><path id="rect848" fill="#8e8c87" fill-opacity="1" stroke="none" stroke-dasharray="none" stroke-dashoffset="0" stroke-linecap="round" stroke-linejoin="round" stroke-miterlimit="4" stroke-opacity=".989" stroke-width="1.1" d="m 10,1 v 4 c 0,1.6619989 1.338001,3 3,3 h 6 c 1.661999,0 3,-1.3380011 3,-3 V 1 Z" opacity="1" paint-order="stroke markers fill" transform="translate(0,282.64999)"/><path id="rect855" fill="url(#linearGradient1086)" fill-opacity="1" stroke="none" stroke-dasharray="none" stroke-dashoffset="0" stroke-linecap="round" stroke-linejoin="round" stroke-miterlimit="4" stroke-opacity=".989" stroke-width="1.1" d="m 11,2 v 3 c 0,1.108 0.892,2 2,2 h 6 c 1.108,0 2,-0.892 2,-2 V 2 Z m 5,1 c 0.553999,0 1,0.4460011 1,1 0,0.5539989 -0.446001,1 -1,1 -0.553999,0 -1,-0.4460011 -1,-1 0,-0.5539989 0.446001,-1 1,-1 z" opacity="1" paint-order="stroke markers fill" transform="translate(0,282.64999)"/><path id="rect861" fill="#b2aea4" fill-opacity="1" stroke="none" stroke-dasharray="none" stroke-dashoffset="0" stroke-linecap="round" stroke-linejoin="round" stroke-miterlimit="4" stroke-opacity=".989" stroke-width="1.1" d="m 10.5,293.64999 c 0.831,0 1.5,0.669 1.5,1.50001 0,0.831 -0.669,1.5 -1.5,1.5 -0.831,0 -1.5,-0.669 -1.5,-1.5 0,-0.83101 0.669,-1.50001 1.5,-1.50001 z" opacity="1" paint-order="stroke markers fill"/><path id="rect863" fill="#b2aea4" fill-opacity="1" stroke="none" stroke-dasharray="none" stroke-dashoffset="0" stroke-linecap="round" stroke-linejoin="round" stroke-miterlimit="4" stroke-opacity=".989" stroke-width="1.1" d="m 14,294.64999 h 9 v 2 h -9 z" opacity="1" paint-order="stroke markers fill"/><path id="rect863-6" fill="#b2aea4" fill-opacity="1" stroke="none" stroke-dasharray="none" stroke-dashoffset="0" stroke-linecap="round" stroke-linejoin="round" stroke-miterlimit="4" stroke-opacity=".989" stroke-width="1.1" d="m 14,299.64999 h 9 v 2 h -9 z" opacity="1" paint-order="stroke markers fill"/><path id="rect863-5" fill="#b2aea4" fill-opacity="1" stroke="none" stroke-dasharray="none" stroke-dashoffset="0" stroke-linecap="round" stroke-linejoin="round" stroke-miterlimit="4" stroke-opacity=".989" stroke-width="1.1" d="m 14,304.64999 h 9 v 2 h -9 z" opacity="1" paint-order="stroke markers fill"/><path id="rect861-3" fill="#b2aea4" fill-opacity="1" stroke="none" stroke-dasharray="none" stroke-dashoffset="0" stroke-linecap="round" stroke-linejoin="round" stroke-miterlimit="4" stroke-opacity=".989" stroke-width="1.1" d="m 10.5,298.64999 c 0.831,0 1.5,0.669 1.5,1.50001 0,0.831 -0.669,1.5 -1.5,1.5 -0.831,0 -1.5,-0.669 -1.5,-1.5 0,-0.83101 0.669,-1.50001 1.5,-1.50001 z" opacity="1" paint-order="stroke markers fill"/><path id="rect861-5" fill="#b2aea4" fill-opacity="1" stroke="none" stroke-dasharray="none" stroke-dashoffset="0" stroke-linecap="round" stroke-linejoin="round" stroke-miterlimit="4" stroke-opacity=".989" stroke-width="1.1" d="m 10.5,303.64999 c 0.831,0 1.5,0.669 1.5,1.50001 0,0.831 -0.669,1.5 -1.5,1.5 -0.831,0 -1.5,-0.669 -1.5,-1.5 0,-0.83101 0.669,-1.50001 1.5,-1.50001 z" opacity="1" paint-order="stroke markers fill"/></g></g></svg>