<svg xmlns="http://www.w3.org/2000/svg" xmlns:svg="http://www.w3.org/2000/svg" xmlns:xlink="http://www.w3.org/1999/xlink" id="svg8" width="32" height="32" version="1.1" viewBox="0 0 32 32"><title id="title7895">Antu icon Theme</title><defs id="defs2"><linearGradient id="linearGradient960" x1="16" x2="16" y1="310.65" y2="295.65" gradientUnits="userSpaceOnUse" xlink:href="#linearGradient4582-3"/><linearGradient id="linearGradient4582-3"><stop id="stop4578-5" offset="0" stop-color="#cee3e3" stop-opacity="1"/><stop id="stop4580-6" offset="1" stop-color="#fcfcfc" stop-opacity="1"/></linearGradient><linearGradient id="linearGradient968" x1="16" x2="16" y1="293.65" y2="291.65" gradientUnits="userSpaceOnUse" xlink:href="#linearGradient902"/><linearGradient id="linearGradient902"><stop id="stop898" offset="0" stop-color="#363c4d" stop-opacity="1"/><stop id="stop900" offset="1" stop-color="#5c647c" stop-opacity="1"/></linearGradient></defs><metadata id="metadata5"/><g id="layer1" transform="translate(0,-282.64999)"><g id="g979"><path id="rect937" fill="#90a4ae" fill-opacity="1" stroke="none" stroke-dasharray="none" stroke-linecap="round" stroke-linejoin="round" stroke-miterlimit="4" stroke-opacity="1" stroke-width=".808" d="m 16,283.64999 c 5.54,0 10,4.46 10,10 v 10 c 0,5.54 -4.46,10 -10,10 -5.54,0 -10,-4.46 -10,-10 v -10 c 0,-5.54 4.46,-10 10,-10 z" opacity="1" paint-order="stroke markers fill"/><path id="rect939" fill="url(#linearGradient960)" fill-opacity="1" stroke="none" stroke-dasharray="none" stroke-linecap="round" stroke-linejoin="round" stroke-miterlimit="4" stroke-opacity="1" stroke-width=".808" d="m 16,284.64999 c 4.986,0 9,4.014 9,9 V 303.65 c 0,4.986 -4.014,9 -9,9 -4.986,0 -9,-4.014 -9,-9 v -10.00001 c 0,-4.986 4.014,-9 9,-9 z" opacity="1" paint-order="stroke markers fill"/><path id="rect941" fill="url(#linearGradient968)" fill-opacity="1" stroke="none" stroke-dasharray="none" stroke-linecap="round" stroke-linejoin="round" stroke-miterlimit="4" stroke-opacity="1" stroke-width=".808" d="m 15.999998,290.64999 h 4e-6 c 1.107999,0 1.999998,0.892 1.999998,2 0,1.108 -0.891999,2 -1.999998,2 h -4e-6 c -1.107999,0 -1.999998,-0.892 -1.999998,-2 0,-1.108 0.891999,-2 1.999998,-2 z" opacity="1" paint-order="stroke markers fill"/></g></g></svg>