<svg xmlns="http://www.w3.org/2000/svg" xmlns:svg="http://www.w3.org/2000/svg" xmlns:xlink="http://www.w3.org/1999/xlink" id="svg8" width="32" height="32" version="1.1" viewBox="0 0 32 32"><title id="title7895">Antu icon Theme</title><defs id="defs2"><linearGradient id="linearGradient852" x1="8.712" x2="8.712" y1="294.543" y2="288.987" gradientTransform="matrix(3.7795275,0,0,3.7795275,-33.928569,-798.58391)" gradientUnits="userSpaceOnUse" xlink:href="#linearGradient4846"/><linearGradient id="linearGradient4564"><stop id="stop4560" offset="0" stop-color="#ef0b2c" stop-opacity="1"/><stop id="stop4562" offset="1" stop-color="#fc3a56" stop-opacity="1"/></linearGradient><linearGradient id="linearGradient4846"><stop id="stop4842" offset="0" stop-color="#e4efef" stop-opacity="1"/><stop id="stop4844" offset="1" stop-color="#fcfcfc" stop-opacity="1"/></linearGradient><linearGradient id="linearGradient890" x1="-2" x2="-2" y1="298.65" y2="290.65" gradientTransform="translate(18,-288.64999)" gradientUnits="userSpaceOnUse" xlink:href="#linearGradient4564"/></defs><metadata id="metadata5"/><g id="layer1" transform="translate(0,-282.64999)"><g id="g2981" transform="translate(18,-6)"><path id="rect843" fill="#90a4ae" fill-opacity="1" stroke="none" stroke-dasharray="none" stroke-linecap="round" stroke-linejoin="round" stroke-miterlimit="4" stroke-opacity="1" stroke-width="2.393" d="m -15,289.64999 h 26 c 1.108,0 2,0.892 2,2 v 26 c 0,1.108 -0.892,2 -2,2 h -26 c -1.108,0 -2,-0.892 -2,-2 v -26 c 0,-1.108 0.892,-2 2,-2 z" opacity="1"/><path id="rect843-3" fill="url(#linearGradient852)" fill-opacity="1" stroke="none" stroke-dasharray="none" stroke-linecap="round" stroke-linejoin="round" stroke-miterlimit="4" stroke-opacity="1" stroke-width="2.234" d="m -15,290.64999 h 26 c 0.553999,0 1,0.446 1,1 v 26 c 0,0.554 -0.446001,1 -1,1 h -26 c -0.554,0 -1,-0.446 -1,-1 v -26 c 0,-0.554 0.446,-1 1,-1 z" opacity="1"/><path id="rect875" fill="#bd0420" fill-opacity="1" stroke="none" stroke-dasharray="none" stroke-dashoffset="0" stroke-linecap="round" stroke-linejoin="round" stroke-miterlimit="4" stroke-opacity="1" stroke-width="2" d="M 3,1 C 1.8920022,1 1,1.8920022 1,3 v 3 2 2 h 2 26 2 V 8 6 3 C 31,1.8920022 30.107998,1 29,1 Z" opacity=".98" transform="translate(-18,288.64999)"/><path id="rect882" fill="url(#linearGradient890)" fill-opacity="1" stroke="none" stroke-dasharray="none" stroke-dashoffset="0" stroke-linecap="round" stroke-linejoin="round" stroke-miterlimit="4" stroke-opacity="1" stroke-width="2" d="M 3,2 C 2.4460021,2 2,2.4460021 2,3 v 3 2 1 h 1 26 1 V 8 6 3 C 30,2.4460021 29.553998,2 29,2 Z" opacity=".98" transform="translate(-18,288.64999)"/><path id="rect3294-2" fill="#90a4ae" fill-opacity="1" stroke="none" stroke-dasharray="none" stroke-linecap="square" stroke-linejoin="miter" stroke-miterlimit="4" stroke-opacity="1" stroke-width="2" d="M 5 12 L 5 13 L 5 15 L 5 28 L 11 28 L 21 28 L 24 28 L 27 28 L 27 27 L 27 25 L 27 24 L 27 16 L 27 15 L 27 13 L 27 12 L 26 12 L 24 12 L 18 12 L 17 12 L 11 12 L 9 12 L 8 12 L 6 12 L 5 12 z M 6 13 L 8 13 L 8 15 L 6 15 L 6 13 z M 9 13 L 11 13 L 11 15 L 9 15 L 9 13 z M 12 13 L 14 13 L 14 15 L 12 15 L 12 13 z M 15 13 L 17 13 L 17 15 L 15 15 L 15 13 z M 18 13 L 20 13 L 20 15 L 18 15 L 18 13 z M 21 13 L 23 13 L 23 15 L 21 15 L 21 13 z M 24 13 L 26 13 L 26 15 L 24 15 L 24 13 z M 6 16 L 8 16 L 8 18 L 6 18 L 6 16 z M 9 16 L 11 16 L 11 18 L 9 18 L 9 16 z M 12 16 L 14 16 L 14 18 L 12 18 L 12 16 z M 15 16 L 17 16 L 17 18 L 15 18 L 15 16 z M 18 16 L 20 16 L 20 18 L 18 18 L 18 16 z M 21 16 L 23 16 L 23 18 L 21 18 L 21 16 z M 24 16 L 26 16 L 26 18 L 24 18 L 24 16 z M 6 19 L 8 19 L 8 21 L 6 21 L 6 19 z M 9 19 L 11 19 L 11 21 L 9 21 L 9 19 z M 12 19 L 14 19 L 14 21 L 12 21 L 12 19 z M 15 19 L 17 19 L 17 21 L 15 21 L 15 19 z M 18 19 L 20 19 L 20 21 L 18 21 L 18 19 z M 21 19 L 23 19 L 23 21 L 21 21 L 21 19 z M 24 19 L 26 19 L 26 21 L 24 21 L 24 19 z M 6 22 L 8 22 L 8 24 L 6 24 L 6 22 z M 9 22 L 11 22 L 11 24 L 9 24 L 9 22 z M 12 22 L 14 22 L 14 24 L 12 24 L 12 22 z M 15 22 L 17 22 L 17 24 L 15 24 L 15 22 z M 18 22 L 20 22 L 20 24 L 18 24 L 18 22 z M 21 22 L 23 22 L 23 24 L 21 24 L 21 22 z M 24 22 L 26 22 L 26 24 L 24 24 L 24 22 z M 6 25 L 8 25 L 8 27 L 6 27 L 6 25 z M 9 25 L 11 25 L 11 27 L 9 27 L 9 25 z M 12 25 L 14 25 L 14 27 L 12 27 L 12 25 z M 15 25 L 17 25 L 17 27 L 15 27 L 15 25 z M 18 25 L 20 25 L 20 27 L 18 27 L 18 25 z M 21 25 L 23 25 L 23 27 L 21 27 L 21 25 z M 24 25 L 26 25 L 26 27 L 24 27 L 24 25 z" opacity=".98" paint-order="stroke markers fill" transform="translate(-18,288.64999)"/></g></g></svg>