<svg xmlns="http://www.w3.org/2000/svg" xmlns:svg="http://www.w3.org/2000/svg" xmlns:xlink="http://www.w3.org/1999/xlink" id="svg8" width="32" height="32" version="1.1" viewBox="0 0 8.467 8.467"><defs id="defs2"><linearGradient id="linearGradient837-2" x1="4.233" x2="4.233" y1="296.206" y2="289.592" gradientTransform="matrix(3.7795275,0,0,3.7795275,-3.0000012,-804.24469)" gradientUnits="userSpaceOnUse" xlink:href="#linearGradient4656"/><linearGradient id="linearGradient4656"><stop id="stop4652" offset="0" stop-color="#e4e4e4" stop-opacity="1"/><stop id="stop4654" offset="1" stop-color="#fbfbfb" stop-opacity="1"/></linearGradient><linearGradient id="linearGradient837-2-3" x1="4.233" x2="4.233" y1="296.206" y2="289.592" gradientTransform="matrix(3.7795276,0,0,3.7795276,-6.0000006,-806.24473)" gradientUnits="userSpaceOnUse" xlink:href="#linearGradient4587"/><linearGradient id="linearGradient4587"><stop id="stop4583" offset="0" stop-color="#3a92d9" stop-opacity="1"/><stop id="stop4585" offset="1" stop-color="#42b4f2" stop-opacity="1"/></linearGradient></defs><metadata id="metadata5"/><g id="layer1" transform="translate(0,-288.53332)"><g id="g1070" transform="matrix(0.26458333,0,0,0.26458333,1.0583335,213.05431)"><path id="rect827-6-5" fill="#1b7ecc" fill-opacity="1" stroke="none" stroke-dasharray="none" stroke-linecap="round" stroke-linejoin="round" stroke-miterlimit="4" stroke-opacity="1" stroke-width="2" d="M -0.99999963,285.27499 H 20.999999 c 1.108,0 2,0.892 2,2 v 26 c 0,1.108 -0.892,2 -2,2 H -0.99999963 c -1.10799997,0 -1.99999997,-0.892 -1.99999997,-2 v -26 c 0,-1.108 0.892,-2 1.99999997,-2 z" opacity="1"/><path id="rect829-0-35" fill="url(#linearGradient837-2-3)" fill-opacity="1" stroke="none" stroke-dasharray="none" stroke-linecap="round" stroke-linejoin="round" stroke-miterlimit="4" stroke-opacity="1" stroke-width="2" d="M -1.0000006,286.275 H 20.999998 c 0.554,0 1,0.446 1,1 v 26 c 0,0.554 -0.446,1 -1,1 H -1.0000006 c -0.554,0 -1,-0.446 -1,-1 v -26 c 0,-0.554 0.446,-1 1,-1 z" opacity="1"/><path id="rect827-6" fill="#90a4ae" fill-opacity="1" stroke="none" stroke-dasharray="none" stroke-linecap="round" stroke-linejoin="round" stroke-miterlimit="4" stroke-opacity="1" stroke-width="2" d="M 1.9999994,287.275 H 23.999998 c 1.108,0 2,0.892 2,2 v 26 c 0,1.108 -0.892,2 -2,2 H 1.9999994 c -1.10799998,0 -1.99999998110237,-0.892 -1.99999998110237,-2 v -26 c 0,-1.108 0.89200000110237,-2 1.99999998110237,-2 z" opacity="1"/><path id="rect829-0" fill="url(#linearGradient837-2)" fill-opacity="1" stroke="none" stroke-dasharray="none" stroke-linecap="round" stroke-linejoin="round" stroke-miterlimit="4" stroke-opacity="1" stroke-width="2" d="M 1.9999988,288.27501 H 23.999997 c 0.554,0 1,0.446 1,1 v 26 c 0,0.554 -0.446,1 -1,1 H 1.9999988 c -0.554,0 -0.99999998,-0.446 -0.99999998,-1 v -26 c 0,-0.554 0.44599998,-1 0.99999998,-1 z" opacity="1"/><path id="rect969" fill="#90a4ae" fill-opacity="1" stroke="none" stroke-dasharray="none" stroke-linecap="round" stroke-linejoin="round" stroke-miterlimit="4" stroke-opacity="1" stroke-width="2" d="M 8 6 L 8 8 L 14 8 L 14 6 L 8 6 z M 15 6 L 15 8 L 18 8 L 18 6 L 15 6 z M 19 6 L 19 8 L 23 8 L 23 6 L 19 6 z M 24 6 L 24 8 L 26 8 L 26 6 L 24 6 z M 8 10 L 8 12 L 11 12 L 11 10 L 8 10 z M 12 10 L 12 12 L 20 12 L 20 10 L 12 10 z M 21 10 L 21 12 L 23 12 L 23 10 L 21 10 z M 24 10 L 24 12 L 26 12 L 26 10 L 24 10 z M 8 14 L 8 16 L 13 16 L 13 14 L 8 14 z M 14 14 L 14 16 L 16 16 L 16 14 L 14 14 z M 17 14 L 17 16 L 21 16 L 21 14 L 17 14 z M 22 14 L 22 16 L 26 16 L 26 14 L 22 14 z M 8 18 L 8 20 L 10 20 L 10 18 L 8 18 z M 11 18 L 11 20 L 13 20 L 13 18 L 11 18 z M 14 18 L 14 20 L 19 20 L 19 18 L 14 18 z M 20 18 L 20 20 L 24 20 L 24 18 L 20 18 z M 8 22 L 8 24 L 14 24 L 14 22 L 8 22 z M 15 22 L 15 24 L 17 24 L 17 22 L 15 22 z M 18 22 L 18 24 L 21 24 L 21 22 L 18 22 z M 22 22 L 22 24 L 25 24 L 25 22 L 22 22 z M 8 26 L 8 28 L 11 28 L 11 26 L 8 26 z M 12 26 L 12 28 L 19 28 L 19 26 L 12 26 z M 20 26 L 20 28 L 22 28 L 22 26 L 20 26 z M 23 26 L 23 28 L 25 28 L 25 26 L 23 26 z" transform="translate(-4.0000007,285.275)"/></g></g></svg>