<svg xmlns="http://www.w3.org/2000/svg" xmlns:svg="http://www.w3.org/2000/svg" xmlns:xlink="http://www.w3.org/1999/xlink" id="svg8" width="32" height="32" version="1.1" viewBox="0 0 32 32"><title id="title7895">Antu icon Theme</title><defs id="defs2"><linearGradient id="linearGradient2408" x1="8.448" x2="8.448" y1="295.601" y2="288.987" gradientTransform="matrix(3.7795275,0,0,3.7795275,-26.928569,-801.58391)" gradientUnits="userSpaceOnUse" xlink:href="#linearGradient6408"/><linearGradient id="linearGradient6408"><stop id="stop6404" offset="0" stop-color="#f34242" stop-opacity="1"/><stop id="stop6406" offset="1" stop-color="#ff6767" stop-opacity="1"/></linearGradient><linearGradient id="linearGradient2410" x1="-10" x2="-10" y1="313.65" y2="292.65" gradientTransform="translate(15,-1.99998)" gradientUnits="userSpaceOnUse" xlink:href="#linearGradient4582"/><linearGradient id="linearGradient4582"><stop id="stop4578" offset="0" stop-color="#e3e3e3" stop-opacity="1"/><stop id="stop4580" offset="1" stop-color="#fcfcfc" stop-opacity="1"/></linearGradient></defs><metadata id="metadata5"/><g id="layer1" transform="translate(0,-282.64999)"><g id="g2980" transform="translate(11,-2.9998)"><path id="rect843-5-4" fill="#b42c2c" fill-opacity="1" stroke="none" stroke-dasharray="none" stroke-linecap="round" stroke-linejoin="round" stroke-miterlimit="4" stroke-opacity="1" stroke-width="2.393" d="m -6,286.64959 22,4e-4 c 1.108,2e-5 2,0.892 2,2 v 26 c 0,1.108 -0.892,2.00002 -2,2 l -22,-4e-4 c -1.108,-2e-5 -2,-0.892 -2,-2 v -26 c 0,-1.108 0.892,-2.00002 2,-2 z" opacity="1"/><path id="rect843-3-9-3" fill="url(#linearGradient2408)" fill-opacity="1" stroke="none" stroke-dasharray="none" stroke-linecap="round" stroke-linejoin="round" stroke-miterlimit="4" stroke-opacity="1" stroke-width="2.234" d="m -6,287.64959 22,4e-4 c 0.554,10e-6 1,0.446 1,1 v 26 c 0,0.554 -0.446,1.00001 -1,1 l -22,-4e-4 c -0.554,-10e-6 -1,-0.446 -1,-1 v -26 c 0,-0.554 0.446,-1.00001 1,-1 z" opacity="1"/><path id="rect926-8-3" fill="#b42c2c" fill-opacity="1" fill-rule="nonzero" stroke="none" stroke-dasharray="none" stroke-dashoffset="0" stroke-linecap="square" stroke-linejoin="miter" stroke-miterlimit="4" stroke-opacity="1" stroke-width="2" d="m -6,288.64999 v 1 25 l 22,4e-4 v -17.41406 l -4.292969,-4.29297 -4.292969,-4.29297 z m 2,2 10.585937,4e-4 3.707032,3.70703 L 14,298.06445 v 14.58594 l -18,-4e-4 z" baseline-shift="baseline" clip-rule="nonzero" color="#000" color-interpolation="sRGB" color-interpolation-filters="linearRGB" color-rendering="auto" direction="ltr" display="inline" dominant-baseline="auto" enable-background="accumulate" font-family="sans-serif" font-size="medium" font-stretch="normal" font-style="normal" font-variant="normal" font-weight="normal" image-rendering="auto" letter-spacing="normal" opacity=".98" overflow="visible" paint-order="stroke markers fill" shape-rendering="auto" text-anchor="start" text-decoration="none" text-rendering="auto" vector-effect="none" visibility="visible" word-spacing="normal" writing-mode="lr-tb" style="line-height:normal;font-variant-ligatures:normal;font-variant-position:normal;font-variant-caps:normal;font-variant-numeric:normal;font-variant-alternates:normal;font-feature-settings:normal;text-indent:0;text-align:start;text-decoration-line:none;text-decoration-style:solid;text-decoration-color:#000;text-transform:none;text-orientation:mixed;white-space:normal;shape-padding:0;isolation:auto;mix-blend-mode:normal;solid-color:#000;solid-opacity:1"/><path id="rect926-6-4-3" fill="url(#linearGradient2410)" fill-opacity="1" stroke="none" stroke-dasharray="none" stroke-linecap="square" stroke-linejoin="miter" stroke-miterlimit="4" stroke-opacity="1" stroke-width="2" d="m -5,289.64959 12,4e-4 4,4 4,4 v 16 l -20,-4e-4 z" opacity=".98" paint-order="stroke markers fill"/></g><path id="path2316-3" fill="#a9a9a9" fill-opacity="1" stroke="none" stroke-dasharray="none" stroke-linecap="square" stroke-linejoin="miter" stroke-miterlimit="4" stroke-opacity="1" stroke-width="1.778" d="m 13,294.64999 v 4 h 4 c 0,-2.20914 -1.790861,-4 -4,-4 z m -1,1 c -1.617649,0 -3.0760562,0.97432 -3.6953132,2.46875 -0.619196,1.49478 -0.276928,3.21537 0.867188,4.35937 1.1440102,1.14412 2.8645992,1.48639 4.3593752,0.86719 1.494426,-0.61925 2.468753,-2.07766 2.46875,-3.69531 h -4 z m 6,0 v 2 h 6 v -2 z m 2,3 v 2 h 4 v -2 z m -3,3 v 2 h 7 v -2 z" opacity=".98" paint-order="stroke markers fill"/></g></svg>