<svg xmlns="http://www.w3.org/2000/svg" xmlns:svg="http://www.w3.org/2000/svg" xmlns:xlink="http://www.w3.org/1999/xlink" id="svg8" width="32" height="32" version="1.1" viewBox="0 0 32 32"><title id="title7895">Antu icon Theme</title><defs id="defs2"><linearGradient id="linearGradient2408" x1="8.448" x2="8.448" y1="295.601" y2="288.987" gradientTransform="matrix(3.7795275,0,0,3.7795275,-33.928569,-797.58391)" gradientUnits="userSpaceOnUse" xlink:href="#linearGradient979"/><linearGradient id="linearGradient979"><stop id="stop975" offset="0" stop-color="#858888" stop-opacity="1"/><stop id="stop977" offset="1" stop-color="#a1abae" stop-opacity="1"/></linearGradient><linearGradient id="linearGradient2410" x1="-10" x2="-10" y1="313.65" y2="292.65" gradientTransform="translate(8,2.00002)" gradientUnits="userSpaceOnUse" xlink:href="#linearGradient4582"/><linearGradient id="linearGradient4582"><stop id="stop4578" offset="0" stop-color="#e3e3e3" stop-opacity="1"/><stop id="stop4580" offset="1" stop-color="#fcfcfc" stop-opacity="1"/></linearGradient></defs><metadata id="metadata5"/><g id="layer1" transform="translate(0,-282.64999)"><g id="g2241" transform="translate(18,-6.9998)"><path id="rect843-5-4" fill="#727474" fill-opacity="1" stroke="none" stroke-dasharray="none" stroke-linecap="round" stroke-linejoin="round" stroke-miterlimit="4" stroke-opacity="1" stroke-width="2.393" d="m -13,290.64959 22,4e-4 c 1.108,2e-5 2,0.892 2,2 v 26 c 0,1.108 -0.892,2.00002 -2,2 l -22,-4e-4 c -1.108,-2e-5 -2,-0.892 -2,-2 v -26 c 0,-1.108 0.892,-2.00002 2,-2 z" opacity="1"/><path id="rect843-3-9-3" fill="url(#linearGradient2408)" fill-opacity="1" stroke="none" stroke-dasharray="none" stroke-linecap="round" stroke-linejoin="round" stroke-miterlimit="4" stroke-opacity="1" stroke-width="2.234" d="m -13,291.64959 22,4e-4 c 0.554,10e-6 1,0.446 1,1 v 26 c 0,0.554 -0.446,1.00001 -1,1 l -22,-4e-4 c -0.554,-10e-6 -1,-0.446 -1,-1 v -26 c 0,-0.554 0.446,-1.00001 1,-1 z" opacity="1"/><path id="rect926-8-3" fill="#727474" fill-opacity="1" fill-rule="nonzero" stroke="none" stroke-dasharray="none" stroke-dashoffset="0" stroke-linecap="square" stroke-linejoin="miter" stroke-miterlimit="4" stroke-opacity="1" stroke-width="2" d="m -13,292.64999 v 1 25 l 22,4e-4 v -17.41406 l -4.292969,-4.29297 -4.292969,-4.29297 z m 2,2 10.585937,4e-4 3.707032,3.70703 L 7,302.06445 v 14.58594 l -18,-4e-4 z" baseline-shift="baseline" clip-rule="nonzero" color="#000" color-interpolation="sRGB" color-interpolation-filters="linearRGB" color-rendering="auto" direction="ltr" display="inline" dominant-baseline="auto" enable-background="accumulate" font-family="sans-serif" font-size="medium" font-stretch="normal" font-style="normal" font-variant="normal" font-weight="normal" image-rendering="auto" letter-spacing="normal" opacity=".98" overflow="visible" paint-order="stroke markers fill" shape-rendering="auto" text-anchor="start" text-decoration="none" text-rendering="auto" vector-effect="none" visibility="visible" word-spacing="normal" writing-mode="lr-tb" style="line-height:normal;font-variant-ligatures:normal;font-variant-position:normal;font-variant-caps:normal;font-variant-numeric:normal;font-variant-alternates:normal;font-feature-settings:normal;text-indent:0;text-align:start;text-decoration-line:none;text-decoration-style:solid;text-decoration-color:#000;text-transform:none;text-orientation:mixed;white-space:normal;shape-padding:0;isolation:auto;mix-blend-mode:normal;solid-color:#000;solid-opacity:1"/><path id="rect926-6-4-3" fill="url(#linearGradient2410)" fill-opacity="1" stroke="none" stroke-dasharray="none" stroke-linecap="square" stroke-linejoin="miter" stroke-miterlimit="4" stroke-opacity="1" stroke-width="2" d="m -12,293.64959 12,4e-4 4,4 4,4 v 16 l -20,-4e-4 z" opacity=".98" paint-order="stroke markers fill"/><path id="path839-6" fill="#a9a9a8" fill-opacity="1" stroke="none" stroke-dasharray="none" stroke-linecap="round" stroke-linejoin="round" stroke-miterlimit="4" stroke-opacity="1" stroke-width="2" d="m -7,300.64999 v 1 1 h -1 -1 v 1 1 h 1 1 v 1 1 h 1 1 v -1 -1 h 1 1 v -1 -1 h -1 -1 v -1 -1 h -1 z m 9,1 c -1.108,0 -2,0.892 -2,2 0,1.108 0.892,2 2,2 1.108,0 2,-0.892 2,-2 0,-1.108 -0.892,-2 -2,-2 z m -3,6 v 1 1 h 1 4 1 v -1 -1 H 4 0 Z m -8,2 v 1 1 h 1 4 1 v -1 -1 h -1 -4 z m 8,1 v 1 1 h 1 4 1 v -1 -1 H 4 0 Z" opacity="1"/></g></g></svg>