<svg xmlns="http://www.w3.org/2000/svg" xmlns:svg="http://www.w3.org/2000/svg" xmlns:xlink="http://www.w3.org/1999/xlink" id="svg8" width="32" height="32" version="1.1" viewBox="0 0 32 32"><title id="title7895">Antu icon Theme</title><defs id="defs2"><linearGradient id="linearGradient2408" x1="8.448" x2="8.448" y1="295.601" y2="288.987" gradientTransform="matrix(3.7795275,0,0,3.7795275,-30.928569,-797.58391)" gradientUnits="userSpaceOnUse" xlink:href="#linearGradient7100"/><linearGradient id="linearGradient7100"><stop id="stop7096" offset="0" stop-color="#02ca56" stop-opacity="1"/><stop id="stop7098" offset="1" stop-color="#75d97d" stop-opacity="1"/></linearGradient><linearGradient id="linearGradient2410" x1="-10" x2="-10" y1="313.65" y2="292.65" gradientTransform="translate(11,2.00002)" gradientUnits="userSpaceOnUse" xlink:href="#linearGradient4582"/><linearGradient id="linearGradient4582"><stop id="stop4578" offset="0" stop-color="#e3e3e3" stop-opacity="1"/><stop id="stop4580" offset="1" stop-color="#fcfcfc" stop-opacity="1"/></linearGradient></defs><metadata id="metadata5"/><g id="layer1" transform="translate(0,-282.64999)"><g id="g4421" transform="translate(15,-6.9998)"><path id="rect843-5-4" fill="#269435" fill-opacity="1" stroke="none" stroke-dasharray="none" stroke-linecap="round" stroke-linejoin="round" stroke-miterlimit="4" stroke-opacity="1" stroke-width="2.393" d="m -10,290.64959 22,4e-4 c 1.108,2e-5 2,0.892 2,2 v 26 c 0,1.108 -0.892,2.00002 -2,2 l -22,-4e-4 c -1.108,-2e-5 -2,-0.892 -2,-2 v -26 c 0,-1.108 0.892,-2.00002 2,-2 z" opacity="1"/><path id="rect843-3-9-3" fill="url(#linearGradient2408)" fill-opacity="1" stroke="none" stroke-dasharray="none" stroke-linecap="round" stroke-linejoin="round" stroke-miterlimit="4" stroke-opacity="1" stroke-width="2.234" d="m -10,291.64959 22,4e-4 c 0.554,10e-6 1,0.446 1,1 v 26 c 0,0.554 -0.446,1.00001 -1,1 l -22,-4e-4 c -0.554,-10e-6 -1,-0.446 -1,-1 v -26 c 0,-0.554 0.446,-1.00001 1,-1 z" opacity="1"/><path id="rect926-8-3" fill="#269435" fill-opacity="1" fill-rule="nonzero" stroke="none" stroke-dasharray="none" stroke-dashoffset="0" stroke-linecap="square" stroke-linejoin="miter" stroke-miterlimit="4" stroke-opacity="1" stroke-width="2" d="m -10,292.64999 v 1 25 l 22,4e-4 v -17.41406 l -4.292969,-4.29297 -4.292969,-4.29297 z m 2,2 10.585937,4e-4 3.707032,3.70703 L 10,302.06445 v 14.58594 l -18,-4e-4 z" baseline-shift="baseline" clip-rule="nonzero" color="#000" color-interpolation="sRGB" color-interpolation-filters="linearRGB" color-rendering="auto" direction="ltr" display="inline" dominant-baseline="auto" enable-background="accumulate" font-family="sans-serif" font-size="medium" font-stretch="normal" font-style="normal" font-variant="normal" font-weight="normal" image-rendering="auto" letter-spacing="normal" opacity=".98" overflow="visible" paint-order="stroke markers fill" shape-rendering="auto" text-anchor="start" text-decoration="none" text-rendering="auto" vector-effect="none" visibility="visible" word-spacing="normal" writing-mode="lr-tb" style="line-height:normal;font-variant-ligatures:normal;font-variant-position:normal;font-variant-caps:normal;font-variant-numeric:normal;font-variant-alternates:normal;font-feature-settings:normal;text-indent:0;text-align:start;text-decoration-line:none;text-decoration-style:solid;text-decoration-color:#000;text-transform:none;text-orientation:mixed;white-space:normal;shape-padding:0;isolation:auto;mix-blend-mode:normal;solid-color:#000;solid-opacity:1"/><path id="rect926-6-4-3" fill="url(#linearGradient2410)" fill-opacity="1" stroke="none" stroke-dasharray="none" stroke-linecap="square" stroke-linejoin="miter" stroke-miterlimit="4" stroke-opacity="1" stroke-width="2" d="m -9,293.64959 12,4e-4 4,4 4,4 v 16 l -20,-4e-4 z" opacity=".98" paint-order="stroke markers fill"/><path id="rect3294" fill="#a9a9a8" fill-opacity="1" stroke="none" stroke-dasharray="none" stroke-linecap="square" stroke-linejoin="miter" stroke-miterlimit="4" stroke-opacity="1" stroke-width="2" d="M 8 10 L 8 11 L 8 13 L 8 26 L 24 26 L 24 13 L 21 13 L 21 10 L 20 10 L 12 10 L 11 10 L 9 10 L 8 10 z M 9 11 L 11 11 L 11 13 L 9 13 L 9 11 z M 12 11 L 14 11 L 14 13 L 12 13 L 12 11 z M 15 11 L 17 11 L 17 13 L 15 13 L 15 11 z M 18 11 L 20 11 L 20 13 L 18 13 L 18 11 z M 9 14 L 11 14 L 11 16 L 9 16 L 9 14 z M 12 14 L 14 14 L 14 16 L 12 16 L 12 14 z M 15 14 L 17 14 L 17 16 L 15 16 L 15 14 z M 18 14 L 20 14 L 20 16 L 18 16 L 18 14 z M 21 14 L 23 14 L 23 16 L 21 16 L 21 14 z M 9 17 L 11 17 L 11 19 L 9 19 L 9 17 z M 12 17 L 14 17 L 14 19 L 12 19 L 12 17 z M 15 17 L 17 17 L 17 19 L 15 19 L 15 17 z M 18 17 L 20 17 L 20 19 L 18 19 L 18 17 z M 21 17 L 23 17 L 23 19 L 21 19 L 21 17 z M 9 20 L 11 20 L 11 22 L 9 22 L 9 20 z M 12 20 L 14 20 L 14 22 L 12 22 L 12 20 z M 15 20 L 17 20 L 17 22 L 15 22 L 15 20 z M 18 20 L 20 20 L 20 22 L 18 22 L 18 20 z M 21 20 L 23 20 L 23 22 L 21 22 L 21 20 z M 9 23 L 11 23 L 11 25 L 9 25 L 9 23 z M 12 23 L 14 23 L 14 25 L 12 25 L 12 23 z M 15 23 L 17 23 L 17 25 L 15 25 L 15 23 z M 18 23 L 20 23 L 20 25 L 18 25 L 18 23 z M 21 23 L 23 23 L 23 25 L 21 25 L 21 23 z" opacity=".98" paint-order="stroke markers fill" transform="translate(-15,289.64979)"/></g></g></svg>