<svg xmlns="http://www.w3.org/2000/svg" xmlns:svg="http://www.w3.org/2000/svg" xmlns:xlink="http://www.w3.org/1999/xlink" id="svg8" width="32" height="32" version="1.1" viewBox="0 0 32 32"><title id="title7895">Antu icon Theme</title><defs id="defs2"><linearGradient id="linearGradient4581-2-3" x1="9.525" x2="9.525" y1="290.915" y2="285.623" gradientTransform="matrix(5.2913381,0,0,5.2913381,-52.328571,-1219.3026)" gradientUnits="userSpaceOnUse" xlink:href="#linearGradient4541"/><linearGradient id="linearGradient4541"><stop id="stop4537" offset="0" stop-color="#5a627a" stop-opacity="1"/><stop id="stop4539" offset="1" stop-color="#737c98" stop-opacity="1"/></linearGradient></defs><metadata id="metadata5"/><g id="layer1" transform="translate(0,-282.64999)"><g id="g1448" transform="translate(17.928573,-7.375)"><path id="rect4496-5" fill="#363c4d" fill-opacity="1" stroke="none" stroke-dasharray="none" stroke-linecap="round" stroke-linejoin="round" stroke-miterlimit="4" stroke-opacity="1" stroke-width="1.47" d="m -1.928573,291.02503 c 8.31,0 15,6.68984 15,14.99992 0,8.30994 -6.69,15 -15,15 -8.309999,0 -15,-6.69006 -15,-15 0,-8.31008 6.690001,-14.99992 15,-14.99992 z"/><path id="rect4570-9-6-6" fill="url(#linearGradient4581-2-3)" fill-opacity="1" stroke="none" stroke-dasharray="none" stroke-linecap="round" stroke-linejoin="round" stroke-miterlimit="4" stroke-opacity="1" stroke-width="1.402" d="m -1.928572,292.02498 c 7.755999,0 13.999999,6.24393 13.999999,13.99997 0,7.75605 -6.244,14.00009 -13.999999,14.00009 -7.756001,0 -14.000001,-6.24404 -14.000001,-14.00009 0,-7.75604 6.244,-13.99997 14.000001,-13.99997 z"/><path id="path4558-3" fill="#484f66" fill-opacity="1" stroke="none" stroke-dasharray="none" stroke-linecap="butt" stroke-linejoin="round" stroke-miterlimit="4" stroke-opacity="1" stroke-width="1" d="m -2.928573,299.02508 a 6.9999998,6.9999998 0 0 0 -6.9999999,6.99999 6.9999998,6.9999998 0 0 0 6.9999999,6.99998 6.9999998,6.9999998 0 0 0 3.84375,-1.15623 l 3.15625,3.15625 2,-2.00002 -3.154297,-3.15427 a 6.9999998,6.9999998 0 0 0 1.154297,-3.84571 6.9999998,6.9999998 0 0 0 -7,-6.99999 z m 0,3 a 4.0000002,4.0000002 0 0 1 4,3.99999 4.0000002,4.0000002 0 0 1 -4,3.99998 4.0000002,4.0000002 0 0 1 -4.0000003,-3.99998 4.0000002,4.0000002 0 0 1 4.0000003,-3.99999 z"/><path id="path4558-2" fill="#fff" fill-opacity="1" stroke="none" stroke-dasharray="none" stroke-linecap="butt" stroke-linejoin="round" stroke-miterlimit="4" stroke-opacity="1" stroke-width="1" d="m -2.928573,298.02502 a 6.9999998,6.9999998 0 0 0 -6.9999999,6.99998 6.9999998,6.9999998 0 0 0 6.9999999,6.99999 6.9999998,6.9999998 0 0 0 3.84375,-1.15623 l 3.15625,3.15624 2,-2.00001 -3.154297,-3.15428 a 6.9999998,6.9999998 0 0 0 1.154297,-3.84571 6.9999998,6.9999998 0 0 0 -7,-6.99998 z m 0,3 a 4.0000002,4.0000002 0 0 1 4,3.99998 4.0000002,4.0000002 0 0 1 -4,3.99999 4.0000002,4.0000002 0 0 1 -4.0000003,-3.99999 4.0000002,4.0000002 0 0 1 4.0000003,-3.99998 z"/></g></g></svg>