<svg xmlns="http://www.w3.org/2000/svg" xmlns:svg="http://www.w3.org/2000/svg" xmlns:xlink="http://www.w3.org/1999/xlink" id="svg8" width="32" height="32" version="1.1" viewBox="0 0 32 32"><title id="title7895">Antu icon Theme</title><defs id="defs2"><linearGradient id="linearGradient956" x1="16" x2="16" y1="312.65" y2="285.65" gradientTransform="translate(-21,5)" gradientUnits="userSpaceOnUse" xlink:href="#linearGradient4902"/><linearGradient id="linearGradient4902"><stop id="stop4898" offset="0" stop-color="#0d72ec" stop-opacity="1"/><stop id="stop4900" offset="1" stop-color="#36b2fb" stop-opacity="1"/></linearGradient></defs><metadata id="metadata5"/><g id="layer1" transform="translate(0,-282.64999)"><g id="g2317" transform="translate(21,-5)"><path id="rect903" fill="#0e44b2" fill-opacity="1" stroke="none" stroke-dasharray="none" stroke-linecap="round" stroke-linejoin="round" stroke-miterlimit="4" stroke-opacity="1" stroke-width="1.977" d="m -5,288.64999 c 8.31,0 15,6.69 15,15 0,8.31 -6.69,15 -15,15 -8.31,0 -15,-6.69 -15,-15 0,-8.31 6.69,-15 15,-15 z" opacity="1"/><path id="rect903-2" fill="url(#linearGradient956)" fill-opacity="1" stroke="none" stroke-dasharray="none" stroke-linecap="round" stroke-linejoin="round" stroke-miterlimit="4" stroke-opacity="1" stroke-width="1.845" d="m -5,289.64999 c 7.756,0 14,6.244 14,14 0,7.756 -6.244,14 -14,14 -7.756,0 -14,-6.244 -14,-14 0,-7.756 6.244,-14 14,-14 z" opacity="1"/><path id="path845-6" fill="#0e44b2" fill-opacity="1" stroke="none" stroke-dasharray="none" stroke-linecap="round" stroke-linejoin="round" stroke-miterlimit="4" stroke-opacity="1" stroke-width=".856" d="M -6.087891,295.72811 A 9,9 0 0 0 -14,304.64999 a 9,9 0 0 0 9,9 9,9 0 0 0 8.087891,-5.07813 9,9 0 0 1 -0.451172,0.0547 A 9,9 0 0 1 2,308.64996 a 9,9 0 0 1 -0.898438,-0.0449 9,9 0 0 1 -0.888671,-0.13476 9,9 0 0 1 -0.873047,-0.22266 9,9 0 0 1 -0.84375,-0.30859 9,9 0 0 1 -0.810547,-0.39063 9,9 0 0 1 -0.767578,-0.4707 9,9 0 0 1 -0.716797,-0.54492 9,9 0 0 1 -0.658203,-0.61328 9,9 0 0 1 -0.59375,-0.67579 9,9 0 0 1 -0.521485,-0.73046 9,9 0 0 1 -0.449218,-0.78125 9,9 0 0 1 -0.367188,-0.82033 9,9 0 0 1 -0.283203,-0.85351 9,9 0 0 1 -0.197266,-0.87891 A 9,9 0 0 1 -6.976562,300.2867 9,9 0 0 1 -7,299.64999 a 9,9 0 0 1 0.04492,-0.89844 9,9 0 0 1 0.134766,-0.88867 9,9 0 0 1 0.222656,-0.87304 9,9 0 0 1 0.308594,-0.84375 9,9 0 0 1 0.201171,-0.41798 z" opacity="1" paint-order="stroke markers fill"/><path id="path845" fill="#e5fafb" fill-opacity="1" stroke="none" stroke-dasharray="none" stroke-linecap="round" stroke-linejoin="round" stroke-miterlimit="4" stroke-opacity="1" stroke-width=".856" d="M -6.087891,294.72811 A 9,9 0 0 0 -14,303.64999 a 9,9 0 0 0 9,9 9,9 0 0 0 8.087891,-5.07813 9,9 0 0 1 -0.451172,0.0547 A 9,9 0 0 1 2,307.64996 a 9,9 0 0 1 -0.898438,-0.0449 9,9 0 0 1 -0.888671,-0.13477 9,9 0 0 1 -0.873047,-0.22265 9,9 0 0 1 -0.84375,-0.3086 9,9 0 0 1 -0.810547,-0.39062 9,9 0 0 1 -0.767578,-0.47071 9,9 0 0 1 -0.716797,-0.54492 9,9 0 0 1 -0.658203,-0.61328 9,9 0 0 1 -0.59375,-0.67578 9,9 0 0 1 -0.521485,-0.73047 9,9 0 0 1 -0.449218,-0.78125 9,9 0 0 1 -0.367188,-0.82031 9,9 0 0 1 -0.283203,-0.85352 9,9 0 0 1 -0.197266,-0.8789 A 9,9 0 0 1 -6.976562,299.2867 9,9 0 0 1 -7,298.64999 a 9,9 0 0 1 0.04492,-0.89844 9,9 0 0 1 0.134766,-0.88867 9,9 0 0 1 0.222656,-0.87305 9,9 0 0 1 0.308594,-0.84375 9,9 0 0 1 0.201171,-0.41797 z" opacity="1" paint-order="stroke markers fill"/></g></g></svg>