<svg xmlns="http://www.w3.org/2000/svg" xmlns:svg="http://www.w3.org/2000/svg" xmlns:xlink="http://www.w3.org/1999/xlink" id="svg8" width="32" height="32" version="1.1" viewBox="0 0 32 32"><title id="title7895">Antu icon Theme</title><defs id="defs2"><linearGradient id="linearGradient852" x1="8.448" x2="8.448" y1="295.601" y2="288.987" gradientTransform="matrix(3.7795275,0,0,3.7795275,-26.928569,-796.58391)" gradientUnits="userSpaceOnUse" xlink:href="#linearGradient6408"/><linearGradient id="linearGradient6408"><stop id="stop6404" offset="0" stop-color="#cfa578" stop-opacity="1"/><stop id="stop6406" offset="1" stop-color="#d9b389" stop-opacity="1"/></linearGradient></defs><metadata id="metadata5"/><g id="layer1" transform="translate(0,-282.64999)"><g id="g1853" transform="translate(11,-8)"><path id="rect843" fill="#806956" fill-opacity="1" stroke="none" stroke-dasharray="none" stroke-linecap="round" stroke-linejoin="round" stroke-miterlimit="4" stroke-opacity="1" stroke-width="2.393" d="m -8,291.64999 h 26 c 1.108,0 2,0.892 2,2 v 26 c 0,1.108 -0.892,2 -2,2 H -8 c -1.108,0 -2,-0.892 -2,-2 v -26 c 0,-1.108 0.892,-2 2,-2 z" opacity="1"/><path id="rect843-3" fill="url(#linearGradient852)" fill-opacity="1" stroke="none" stroke-dasharray="none" stroke-linecap="round" stroke-linejoin="round" stroke-miterlimit="4" stroke-opacity="1" stroke-width="2.234" d="m -8,292.64999 c -0.554,0 -1,0.446 -1,1 v 9 h 23 3 l -1,2 1,2 -1,2 1,2 H 14 -9 v 9 c 0,0.554 0.446,1 1,1 h 26 c 0.554,0 1,-0.446 1,-1 v -26 c 0,-0.554 -0.446,-1 -1,-1 z" opacity="1"/><path id="rect841" fill="#fff" fill-opacity="1" stroke="none" stroke-dasharray="none" stroke-dashoffset="0" stroke-linecap="round" stroke-linejoin="round" stroke-miterlimit="4" stroke-opacity="1" stroke-width="6" d="m -4.000004,295.64999 h 16 c 0.554,0 1,0.446 1,1 v 20 c 0,0.554 -0.446,1 -1,1 h -16 c -0.554,0 -1,-0.446 -1,-1 v -20 c 0,-0.554 0.446,-1 1,-1 z" opacity="1" paint-order="stroke markers fill"/><path id="rect860" fill="#2c87ec" fill-opacity="1" stroke="none" stroke-dasharray="none" stroke-dashoffset="0" stroke-linecap="round" stroke-linejoin="round" stroke-miterlimit="4" stroke-opacity="1" stroke-width="6" d="m -3,297.64999 v 7 h 7 v -7 z m 1,1 h 4 v 1 h -4 z m 0,2 h 2 v 1 h -2 z" opacity="1" paint-order="stroke markers fill"/><path id="rect877" fill="gray" fill-opacity="1" stroke="none" stroke-dasharray="none" stroke-dashoffset="0" stroke-linecap="round" stroke-linejoin="round" stroke-miterlimit="4" stroke-opacity="1" stroke-width="6" d="M -2,306.64999 H 8 v 1 H -2 Z" opacity="1" paint-order="stroke markers fill"/><path id="rect879" fill="gray" fill-opacity="1" stroke="none" stroke-dasharray="none" stroke-dashoffset="0" stroke-linecap="round" stroke-linejoin="round" stroke-miterlimit="4" stroke-opacity="1" stroke-width="6" d="m -2,308.64999 h 6 v 1 h -6 z" opacity="1" paint-order="stroke markers fill"/><path id="rect881" fill="gray" fill-opacity="1" stroke="none" stroke-dasharray="none" stroke-dashoffset="0" stroke-linecap="round" stroke-linejoin="round" stroke-miterlimit="4" stroke-opacity="1" stroke-width="6" d="m -2,310.64999 h 8 v 1 h -8 z" opacity="1" paint-order="stroke markers fill"/><path id="rect883" fill="#242833" fill-opacity="1" stroke="none" stroke-dasharray="none" stroke-dashoffset="0" stroke-linecap="round" stroke-linejoin="round" stroke-miterlimit="4" stroke-opacity="1" stroke-width="6" d="m -4,313.64999 h 1 v 3 h -1 z" opacity="1" paint-order="stroke markers fill"/><path id="rect885" fill="#242833" fill-opacity="1" stroke="none" stroke-dasharray="none" stroke-dashoffset="0" stroke-linecap="round" stroke-linejoin="round" stroke-miterlimit="4" stroke-opacity="1" stroke-width="6" d="m -2,313.64999 h 2 v 3 h -2 z" opacity="1" paint-order="stroke markers fill"/><path id="rect887" fill="#242833" fill-opacity="1" stroke="none" stroke-dasharray="none" stroke-dashoffset="0" stroke-linecap="round" stroke-linejoin="round" stroke-miterlimit="4" stroke-opacity="1" stroke-width="6" d="m 1,313.64999 h 1 v 3 H 1 Z" opacity="1" paint-order="stroke markers fill"/><path id="rect889" fill="#242833" fill-opacity="1" stroke="none" stroke-dasharray="none" stroke-dashoffset="0" stroke-linecap="round" stroke-linejoin="round" stroke-miterlimit="4" stroke-opacity="1" stroke-width="6" d="m 3,313.64999 h 2 v 3 H 3 Z" opacity="1" paint-order="stroke markers fill"/><path id="rect891" fill="#242833" fill-opacity="1" stroke="none" stroke-dasharray="none" stroke-dashoffset="0" stroke-linecap="round" stroke-linejoin="round" stroke-miterlimit="4" stroke-opacity="1" stroke-width="6" d="m 6,313.64999 h 2 v 3 H 6 Z" opacity="1" paint-order="stroke markers fill"/><path id="rect893" fill="#242833" fill-opacity="1" stroke="none" stroke-dasharray="none" stroke-dashoffset="0" stroke-linecap="round" stroke-linejoin="round" stroke-miterlimit="4" stroke-opacity="1" stroke-width="6" d="m 9.000005,313.64999 h 1 v 3 h -1 z" opacity="1" paint-order="stroke markers fill"/><path id="rect895" fill="#242833" fill-opacity="1" stroke="none" stroke-dasharray="none" stroke-dashoffset="0" stroke-linecap="round" stroke-linejoin="round" stroke-miterlimit="4" stroke-opacity="1" stroke-width="6" d="m 11.000005,313.64999 h 1 v 3 h -1 z" opacity="1" paint-order="stroke markers fill"/><path id="path904" fill="#242833" fill-opacity="1" stroke="none" d="m 8,297.65001 c 0.553999,0 1,0.44603 1,0.99999 v 2 h 1 c 0.89067,3.2e-4 1.336636,1.07707 0.707031,1.70706 l -2,1.99998 c -0.39053,0.39037 -1.023532,0.39037 -1.414062,0 l -2,-1.99998 C 4.663346,301.72707 5.109318,300.65031 6,300.64999 h 1 v -2 c 0,-0.55396 0.446001,-0.99999 1,-0.99998 z" color="#122036"/></g></g></svg>