<svg xmlns="http://www.w3.org/2000/svg" xmlns:svg="http://www.w3.org/2000/svg" xmlns:xlink="http://www.w3.org/1999/xlink" id="svg8" width="32" height="32" version="1.1" viewBox="0 0 8.467 8.467"><defs id="defs2"><linearGradient id="linearGradient4576" x1="16" x2="16" y1="26" y2="6" gradientTransform="matrix(0.26458333,0,0,0.26458333,-1e-7,288.53332)" gradientUnits="userSpaceOnUse" xlink:href="#linearGradient4574"/><linearGradient id="linearGradient4574"><stop id="stop4570" offset="0" stop-color="#e6e6e6" stop-opacity="1"/><stop id="stop4572" offset="1" stop-color="#fff" stop-opacity="1"/></linearGradient><linearGradient id="linearGradient4594" x1="2.806" x2="2.806" y1="297.397" y2="290.518" gradientTransform="translate(1.4268668,-1.1906062)" gradientUnits="userSpaceOnUse" xlink:href="#linearGradient4592"/><linearGradient id="linearGradient4592"><stop id="stop4588" offset="0" stop-color="#de3f33" stop-opacity="1"/><stop id="stop4590" offset="1" stop-color="#fe756a" stop-opacity="1"/></linearGradient></defs><metadata id="metadata5"/><g id="layer1" transform="translate(0,-288.53332)"><path id="rect4496" fill="#cc3232" fill-opacity="1" stroke="none" stroke-dasharray="none" stroke-linecap="round" stroke-linejoin="round" stroke-miterlimit="4" stroke-opacity="1" stroke-width=".389" d="m 4.2333333,288.79791 c 2.1986875,0 3.96875,1.77002 3.96875,3.96873 0,2.19867 -1.7700625,3.96875 -3.96875,3.96875 -2.1986873,0 -3.96875,-1.77008 -3.96875,-3.96875 0,-2.19871 1.7700627,-3.96873 3.96875,-3.96873 z"/><path id="rect4570-9-6" fill="url(#linearGradient4594)" fill-opacity="1" stroke="none" stroke-dasharray="none" stroke-linecap="round" stroke-linejoin="round" stroke-miterlimit="4" stroke-opacity="1" stroke-width=".371" d="m 4.2333336,289.06248 c 2.0521081,0 3.7041664,1.65204 3.7041664,3.70416 0,2.05212 -1.6520583,3.70419 -3.7041664,3.70419 -2.0521086,0 -3.7041669,-1.65207 -3.7041669,-3.70419 0,-2.05212 1.6520583,-3.70416 3.7041669,-3.70416 z"/><path id="rect4515-3-5" fill="#cc3232" fill-opacity="1" stroke="none" stroke-dasharray="none" stroke-linecap="round" stroke-linejoin="round" stroke-miterlimit="4" stroke-opacity="1" stroke-width=".253" d="m 4.2333333,290.12084 c -1.612371,0 -2.9104168,1.29804 -2.9104168,2.91041 0,1.61237 1.2980458,2.91042 2.9104168,2.91042 1.6123708,0 2.9104166,-1.29805 2.9104166,-2.91042 0,-1.61237 -1.2980458,-2.91041 -2.9104166,-2.91041 z m 0,0.79375 a 1.5875,2.1166667 0 0 1 1.5875,2.11666 1.5875,2.1166667 0 0 1 -1.5875,2.11667 1.5875,2.1166667 0 0 1 -1.5875001,-2.11667 1.5875,2.1166667 0 0 1 1.5875001,-2.11666 z" opacity="1"/><path id="rect4515-3" fill="url(#linearGradient4576)" fill-opacity="1" stroke="none" stroke-dasharray="none" stroke-linecap="round" stroke-linejoin="round" stroke-miterlimit="4" stroke-opacity="1" stroke-width=".253" d="m 4.2333333,289.85624 c -1.6123709,0 -2.9104167,1.29804 -2.9104167,2.91041 0,1.61237 1.2980458,2.91042 2.9104167,2.91042 1.6123709,0 2.9104167,-1.29805 2.9104167,-2.91042 0,-1.61237 -1.2980458,-2.91041 -2.9104167,-2.91041 z m 0,0.79375 a 1.5875,2.1166667 0 0 1 1.5875,2.11666 1.5875,2.1166667 0 0 1 -1.5875,2.11667 1.5875,2.1166667 0 0 1 -1.5875,-2.11667 1.5875,2.1166667 0 0 1 1.5875,-2.11666 z" opacity="1"/></g></svg>