<svg xmlns="http://www.w3.org/2000/svg" xmlns:svg="http://www.w3.org/2000/svg" xmlns:xlink="http://www.w3.org/1999/xlink" id="svg8" width="32" height="32" version="1.1" viewBox="0 0 8.467 8.467"><defs id="defs2"><linearGradient id="linearGradient4581-2-3" x1="9.525" x2="9.525" y1="290.915" y2="285.623" gradientTransform="matrix(1.3999999,0,0,1.3999999,-9.1016664,-110.80962)" gradientUnits="userSpaceOnUse" xlink:href="#linearGradient4587"/><linearGradient id="linearGradient4587"><stop id="stop4583" offset="0" stop-color="#1b87f2" stop-opacity="1"/><stop id="stop4585" offset="1" stop-color="#30bafc" stop-opacity="1"/></linearGradient></defs><metadata id="metadata5"/><g id="layer1" transform="translate(0,-288.53332)"><path id="rect4496" fill="#115799" fill-opacity="1" stroke="none" stroke-dasharray="none" stroke-linecap="round" stroke-linejoin="round" stroke-miterlimit="4" stroke-opacity="1" stroke-width=".389" d="m 4.2333333,288.79791 c 2.1986875,0 3.96875,1.77002 3.96875,3.96873 0,2.19867 -1.7700625,3.96875 -3.96875,3.96875 -2.1986873,0 -3.96875,-1.77008 -3.96875,-3.96875 0,-2.19871 1.7700627,-3.96873 3.96875,-3.96873 z"/><path id="rect4570-9-6" fill="url(#linearGradient4581-2-3)" fill-opacity="1" stroke="none" stroke-dasharray="none" stroke-linecap="round" stroke-linejoin="round" stroke-miterlimit="4" stroke-opacity="1" stroke-width=".371" d="m 4.2333336,289.06248 c 2.0521081,0 3.7041664,1.65204 3.7041664,3.70416 0,2.05212 -1.6520583,3.70419 -3.7041664,3.70419 -2.0521086,0 -3.704167,-1.65207 -3.704167,-3.70419 0,-2.05212 1.6520584,-3.70416 3.704167,-3.70416 z"/><path id="path4558-3" fill="#1466b2" fill-opacity="1" stroke="none" stroke-dasharray="none" stroke-linecap="butt" stroke-linejoin="round" stroke-miterlimit="4" stroke-opacity="1" stroke-width=".265" d="m 3.9687499,290.91459 a 1.8520833,1.8520833 0 0 0 -1.8520832,1.85208 1.8520833,1.8520833 0 0 0 1.8520832,1.85208 1.8520833,1.8520833 0 0 0 1.0169923,-0.30592 L 5.8208334,295.14792 6.35,294.61875 5.5154256,293.78418 a 1.8520833,1.8520833 0 0 0 0.3054078,-1.01751 1.8520833,1.8520833 0 0 0 -1.8520835,-1.85208 z m 0,0.79375 a 1.0583334,1.0583334 0 0 1 1.0583335,1.05833 1.0583334,1.0583334 0 0 1 -1.0583335,1.05833 1.0583334,1.0583334 0 0 1 -1.0583333,-1.05833 1.0583334,1.0583334 0 0 1 1.0583333,-1.05833 z"/><path id="path4558" fill="#fff" fill-opacity="1" stroke="none" stroke-dasharray="none" stroke-linecap="butt" stroke-linejoin="round" stroke-miterlimit="4" stroke-opacity="1" stroke-width=".265" d="m 3.96875,290.64999 a 1.8520833,1.8520833 0 0 0 -1.8520833,1.85208 1.8520833,1.8520833 0 0 0 1.8520833,1.85208 1.8520833,1.8520833 0 0 0 1.0169922,-0.30592 L 5.8208333,294.88332 6.35,294.35415 5.5154256,293.51958 A 1.8520833,1.8520833 0 0 0 5.8208333,292.50207 1.8520833,1.8520833 0 0 0 3.96875,290.64999 Z m 0,0.79375 A 1.0583334,1.0583334 0 0 1 5.0270833,292.50207 1.0583334,1.0583334 0 0 1 3.96875,293.5604 1.0583334,1.0583334 0 0 1 2.9104166,292.50207 1.0583334,1.0583334 0 0 1 3.96875,291.44374 Z"/></g></svg>