<svg xmlns="http://www.w3.org/2000/svg" xmlns:svg="http://www.w3.org/2000/svg" xmlns:xlink="http://www.w3.org/1999/xlink" id="svg8" width="32" height="32" version="1.1" viewBox="0 0 32 32"><title id="title7895">Antu icon Theme</title><defs id="defs2"><linearGradient id="linearGradient1036" x1="-63" x2="-63" y1="311.65" y2="303.65" gradientTransform="translate(56,-4)" gradientUnits="userSpaceOnUse" xlink:href="#linearGradient1034"/><linearGradient id="linearGradient1034"><stop id="stop1030" offset="0" stop-color="#4cb4f0" stop-opacity="1"/><stop id="stop1032" offset="1" stop-color="#6dcbf5" stop-opacity="1"/></linearGradient><linearGradient id="linearGradient1044" x1="-61" x2="-61" y1="309.65" y2="305.65" gradientTransform="translate(56,-4)" gradientUnits="userSpaceOnUse" xlink:href="#linearGradient1042"/><linearGradient id="linearGradient1042"><stop id="stop1038" offset="0" stop-color="#2187be" stop-opacity="1"/><stop id="stop1040" offset="1" stop-color="#3290c3" stop-opacity="1"/></linearGradient><linearGradient id="linearGradient993" x1="-70" x2="-70" y1="314.65" y2="312.65" gradientTransform="translate(55,-7)" gradientUnits="userSpaceOnUse" xlink:href="#linearGradient934"/><linearGradient id="linearGradient934"><stop id="stop930" offset="0" stop-color="#eee9dd" stop-opacity="1"/><stop id="stop932" offset="1" stop-color="#fff" stop-opacity=".986"/></linearGradient><linearGradient id="linearGradient973" x1="-71" x2="-71" y1="317.65" y2="310.65" gradientTransform="translate(54.000001,-7)" gradientUnits="userSpaceOnUse" xlink:href="#linearGradient5716"/><linearGradient id="linearGradient5716"><stop id="stop5712" offset="0" stop-color="#0090ff" stop-opacity="1"/><stop id="stop5714" offset="1" stop-color="#13befd" stop-opacity="1"/></linearGradient><linearGradient id="linearGradient981" x1="-74" x2="-74" y1="320.65" y2="319.65" gradientTransform="translate(55,-7)" gradientUnits="userSpaceOnUse" xlink:href="#linearGradient979"/><linearGradient id="linearGradient979"><stop id="stop975" offset="0" stop-color="#b3b1ab" stop-opacity="1"/><stop id="stop977" offset="1" stop-color="#d9d6cf" stop-opacity="1"/></linearGradient><linearGradient id="linearGradient936" x1="-71" x2="-71" y1="319.65" y2="299.65" gradientTransform="translate(56,-6)" gradientUnits="userSpaceOnUse" xlink:href="#linearGradient934"/><linearGradient id="linearGradient880" x1="17" x2="17" y1="297.65" y2="290.65" gradientTransform="translate(-16,-4)" gradientUnits="userSpaceOnUse" xlink:href="#linearGradient4774"/><linearGradient id="linearGradient4774"><stop id="stop4770" offset="0" stop-color="#f41e3d" stop-opacity="1"/><stop id="stop4772" offset="1" stop-color="#fc3a56" stop-opacity="1"/></linearGradient><linearGradient id="linearGradient902-3" x1="11" x2="11" y1="297.65" y2="290.65" gradientTransform="translate(-16,-4)" gradientUnits="userSpaceOnUse" xlink:href="#linearGradient908"/><linearGradient id="linearGradient908"><stop id="stop904" offset="0" stop-color="#d9d6cf" stop-opacity="1"/><stop id="stop906" offset="1" stop-color="#f2efe7" stop-opacity="1"/></linearGradient><linearGradient id="linearGradient872" x1="5" x2="5" y1="297.65" y2="290.65" gradientTransform="translate(-16,-4)" gradientUnits="userSpaceOnUse" xlink:href="#linearGradient4774"/><linearGradient id="linearGradient888-5" x1="-1" x2="-1" y1="297.65" y2="290.65" gradientTransform="translate(-16,-4)" gradientUnits="userSpaceOnUse" xlink:href="#linearGradient908"/><linearGradient id="linearGradient864" x1="-7" x2="-7" y1="297.65" y2="290.65" gradientTransform="translate(-16,-4)" gradientUnits="userSpaceOnUse" xlink:href="#linearGradient4774"/></defs><metadata id="metadata5"/><g id="layer1" transform="translate(0,-282.64999)"><g id="g2933" transform="translate(27,-1)"><path id="rect926" fill="#c8c3b7" fill-opacity="1" stroke="none" stroke-dasharray="none" stroke-linecap="round" stroke-linejoin="round" stroke-miterlimit="4" stroke-opacity="1" stroke-width=".808" d="M -23,291.64999 H 1 c 1.108,0 2,0.892 2,2 v 19 c 0,1.108 -0.892,2 -2,2 h -24 c -1.108,0 -2,-0.892 -2,-2 v -19 c 0,-1.108 0.892,-2 2,-2 z" opacity="1" paint-order="stroke markers fill"/><path id="rect928" fill="url(#linearGradient936)" fill-opacity="1" stroke="none" stroke-dasharray="none" stroke-linecap="round" stroke-linejoin="round" stroke-miterlimit="4" stroke-opacity="1" stroke-width=".808" d="M -23,292.64999 H 1.000012 c 0.554,0 1,0.446 1,1 v 19 c 0,0.554 -0.446,1 -1,1 H -23 c -0.554,0 -1,-0.446 -1,-1 v -19 c 0,-0.554 0.446,-1 1,-1 z" opacity="1" paint-order="stroke markers fill"/><path id="rect963" fill="#0082e5" fill-opacity="1" stroke="none" stroke-dasharray="none" stroke-linecap="round" stroke-linejoin="round" stroke-miterlimit="4" stroke-opacity="1" stroke-width=".808" d="m -20,299.64999 h 6.999999 c 0.554,0 1,0.446 1,1 v 11 c 0,0.554 -0.446,1 -1,1 H -20 c -0.554,0 -1,-0.446 -1,-1 v -11 c 0,-0.554 0.446,-1 1,-1 z" opacity="1" paint-order="stroke markers fill"/><path id="rect938" fill="#8e8c87" fill-opacity="1" stroke="none" stroke-dasharray="none" stroke-linecap="round" stroke-linejoin="round" stroke-miterlimit="4" stroke-opacity="1" stroke-width=".808" d="m -21,311.64999 c -0.554,0 -1,0.446 -1,1 v 1 1 h 1 9 1 v -1 -1 c 0,-0.554 -0.445999,-1 -1,-1 z" opacity="1" paint-order="stroke markers fill"/><path id="rect965" fill="url(#linearGradient973)" fill-opacity="1" stroke="none" stroke-dasharray="none" stroke-linecap="round" stroke-linejoin="round" stroke-miterlimit="4" stroke-opacity="1" stroke-width=".808" d="m -20,300.64999 h 7 v 11 h -7 z" opacity="1" paint-order="stroke markers fill"/><path id="rect945" fill="url(#linearGradient981)" fill-opacity="1" stroke="none" stroke-dasharray="none" stroke-linecap="round" stroke-linejoin="round" stroke-miterlimit="4" stroke-opacity="1" stroke-width=".808" d="m -21,312.64999 h 9 v 1 h -9 z" opacity="1" paint-order="stroke markers fill"/><path id="rect985-5" fill="#0082e5" fill-opacity="1" stroke="none" stroke-dasharray="none" stroke-linecap="round" stroke-linejoin="round" stroke-miterlimit="4" stroke-opacity="1" stroke-width=".808" d="m -15,306.64999 c 0.554,0 1,0.446 1,1 0,0.554 -0.446,1 -1,1 -0.554,0 -1,-0.446 -1,-1 0,-0.554 0.446,-1 1,-1 z" opacity="1" paint-order="stroke markers fill"/><path id="rect985" fill="url(#linearGradient993)" fill-opacity="1" stroke="none" stroke-dasharray="none" stroke-linecap="round" stroke-linejoin="round" stroke-miterlimit="4" stroke-opacity="1" stroke-width=".808" d="m -15,305.64999 c 0.554,0 1,0.446 1,1 0,0.554 -0.446,1 -1,1 -0.554,0 -1,-0.446 -1,-1 0,-0.554 0.446,-1 1,-1 z" opacity="1" paint-order="stroke markers fill"/><path id="rect1019" fill="#0082e5" fill-opacity="1" stroke="none" stroke-dasharray="none" stroke-linecap="round" stroke-linejoin="round" stroke-miterlimit="4" stroke-opacity="1" stroke-width=".808" d="M -8,298.64999 H 1e-6 c 0.554,0 1,0.446 1,1 v 8 c 0,0.554 -0.446,1 -1,1 H -8 c -0.554,0 -1,-0.446 -1,-1 v -8 c 0,-0.554 0.446,-1 1,-1 z" opacity="1" paint-order="stroke markers fill"/><path id="rect1021" fill="url(#linearGradient1036)" fill-opacity="1" stroke="none" stroke-dasharray="none" stroke-linecap="round" stroke-linejoin="round" stroke-miterlimit="4" stroke-opacity="1" stroke-width=".808" d="m -8,299.64999 h 8 v 8 h -8 z" opacity="1" paint-order="stroke markers fill"/><path id="rect1023" fill="#00598c" fill-opacity="1" stroke="none" stroke-dasharray="none" stroke-linecap="round" stroke-linejoin="round" stroke-miterlimit="4" stroke-opacity="1" stroke-width=".808" d="m -6,300.64999 h 4 c 0.554,0 1,0.446 1,1 v 4 c 0,0.554 -0.446,1 -1,1 h -4 c -0.554,0 -1,-0.446 -1,-1 v -4 c 0,-0.554 0.446,-1 1,-1 z" opacity="1" paint-order="stroke markers fill"/><path id="rect1025" fill="url(#linearGradient1044)" fill-opacity="1" stroke="none" stroke-dasharray="none" stroke-linecap="round" stroke-linejoin="round" stroke-miterlimit="4" stroke-opacity="1" stroke-width=".808" d="m -6,301.64999 h 4 v 4 h -4 z" opacity="1" paint-order="stroke markers fill"/><path id="path1075-0" fill="#d90122" fill-opacity="1" stroke="none" stroke-dasharray="none" stroke-linecap="round" stroke-linejoin="round" stroke-miterlimit="4" stroke-opacity="1" stroke-width=".808" d="m -24,284.64999 c -1.108,0 -2,0.892 -2,2 v 1 3 2 c 1.49e-4,1.07165 0.571926,2.06184 1.5,2.59766 0.928203,0.5359 2.071797,0.5359 3,0 0.928074,-0.53582 1.499851,-1.52601 1.5,-2.59766 v -2 -3 -1 -2 h -2 z m 10,0 v 2 4 2 c 1.49e-4,1.07165 0.571926,2.06184 1.5,2.59766 0.928203,0.5359 2.071797,0.5359 3,0 0.928074,-0.53582 1.499851,-1.52601 1.5,-2.59766 v -5 -1 -2 h -2 -2 z m 12,0 v 2 4 2 c 1.49e-4,1.07165 0.571926,2.06184 1.5,2.59766 0.928203,0.5359 2.071797,0.5359 3,0 0.928074,-0.53582 1.499851,-1.52601 1.5,-2.59766 v -5 -1 c 0,-1.108 -0.892,-2 -2,-2 H 0 Z" opacity="1" paint-order="stroke markers fill"/><path id="path1075-0-1" fill="#999" fill-opacity="1" stroke="none" stroke-dasharray="none" stroke-linecap="round" stroke-linejoin="round" stroke-miterlimit="4" stroke-opacity="1" stroke-width=".808" d="m -20,284.64999 v 2 4 2 c 1.49e-4,1.07165 0.571926,2.06184 1.5,2.59766 0.928203,0.5359 2.071797,0.5359 3,0 0.928074,-0.53582 1.499851,-1.52601 1.5,-2.59766 v -5 -1 -2 h -2 -2 z m 12,0 v 2 4 2 c 1.49e-4,1.07165 0.571926,2.06184 1.5,2.59766 0.928203,0.5359 2.071797,0.5359 3,0 0.928074,-0.53582 1.499851,-1.52601 1.5,-2.59766 v -5 -1 -2 h -2 -2 z" opacity="1" paint-order="stroke markers fill"/><path id="path1075-0-9-2" fill="url(#linearGradient880)" fill-opacity="1" stroke="none" stroke-dasharray="none" stroke-linecap="round" stroke-linejoin="round" stroke-miterlimit="4" stroke-opacity="1" stroke-width=".539" d="m -1,285.64999 v 1 5.00017 1 c -1.32e-4,0.71466 0.381084,1.37509 1,1.73242 0.618802,0.35727 1.381198,0.35727 2,0 0.618916,-0.35733 1.000132,-1.01776 1,-1.73242 v -1 -5.00017 c 0,-0.554 -0.446,-1 -1,-1 H 0 Z" opacity="1" paint-order="stroke markers fill"/><path id="path1075-0-9-2-0" fill="url(#linearGradient902-3)" fill-opacity="1" stroke="none" stroke-dasharray="none" stroke-linecap="round" stroke-linejoin="round" stroke-miterlimit="4" stroke-opacity="1" stroke-width=".539" d="m -7,285.64999 v 1 5.00017 1 c -1.32e-4,0.71466 0.381084,1.37509 1,1.73242 0.618802,0.35727 1.381198,0.35727 2,0 0.618916,-0.35733 1.000132,-1.01776 1,-1.73242 v -1 -5.00017 -1 h -1 -2 z" opacity="1" paint-order="stroke markers fill"/><path id="path1075-0-9-2-2" fill="url(#linearGradient872)" fill-opacity="1" stroke="none" stroke-dasharray="none" stroke-linecap="round" stroke-linejoin="round" stroke-miterlimit="4" stroke-opacity="1" stroke-width=".539" d="m -13,285.64999 v 1 5.00017 1 c -1.32e-4,0.71466 0.381084,1.37509 1,1.73242 0.618802,0.35727 1.381198,0.35727 2,0 0.618916,-0.35733 1.000132,-1.01776 1,-1.73242 v -1 -5.00017 -1 h -1 -2 z" opacity="1" paint-order="stroke markers fill"/><path id="path1075-0-9-2-3" fill="url(#linearGradient888-5)" fill-opacity="1" stroke="none" stroke-dasharray="none" stroke-linecap="round" stroke-linejoin="round" stroke-miterlimit="4" stroke-opacity="1" stroke-width=".539" d="m -19,285.64999 v 1 5.00017 1 c -1.31e-4,0.71466 0.381084,1.37509 1,1.73242 0.618803,0.35727 1.381198,0.35727 2,0 0.618916,-0.35733 1.000132,-1.01776 1,-1.73242 v -1 -5.00017 -1 h -1 -2 z" opacity="1" paint-order="stroke markers fill"/><path id="path1075-0-9-2-7" fill="url(#linearGradient864)" fill-opacity="1" stroke="none" stroke-dasharray="none" stroke-linecap="round" stroke-linejoin="round" stroke-miterlimit="4" stroke-opacity="1" stroke-width=".539" d="m -24,285.64999 c -0.553999,0 -1,0.446 -1,1 v 5.00017 1 c -1.31e-4,0.71466 0.381084,1.37509 1,1.73242 0.618803,0.35727 1.381198,0.35727 2,0 0.618917,-0.35733 1.000132,-1.01776 1,-1.73242 v -1 -5.00017 -1 h -1 z" opacity="1" paint-order="stroke markers fill"/></g></g></svg>