<svg xmlns="http://www.w3.org/2000/svg" xmlns:svg="http://www.w3.org/2000/svg" xmlns:xlink="http://www.w3.org/1999/xlink" id="svg8" width="32" height="32" version="1.1" viewBox="0 0 32 32"><title id="title7895">Antu icon Theme</title><defs id="defs2"><linearGradient id="linearGradient2237" x1="8.448" x2="8.448" y1="295.601" y2="288.987" gradientTransform="matrix(3.5095612,0,0,3.5095612,-31.647957,-716.78151)" gradientUnits="userSpaceOnUse" xlink:href="#linearGradient4582"/><linearGradient id="linearGradient4582"><stop id="stop4578" offset="0" stop-color="#e3e3e3" stop-opacity="1"/><stop id="stop4580" offset="1" stop-color="#fcfcfc" stop-opacity="1"/></linearGradient><linearGradient id="linearGradient4536-5" x1="-3.653" x2="-3.653" y1="299.836" y2="296.661" gradientTransform="matrix(2.519675,0,0,2.519675,-3.79447,-443.83807)" gradientUnits="userSpaceOnUse" xlink:href="#linearGradient4902"/><linearGradient id="linearGradient4902"><stop id="stop4898" offset="0" stop-color="#0d72ec" stop-opacity="1"/><stop id="stop4900" offset="1" stop-color="#36b2fb" stop-opacity="1"/></linearGradient><linearGradient id="linearGradient4536-5-0" x1="-3.653" x2="-3.653" y1="299.836" y2="296.661" gradientTransform="matrix(2.519675,0,0,2.519675,18.205546,-443.83807)" gradientUnits="userSpaceOnUse" xlink:href="#linearGradient4619"/><linearGradient id="linearGradient4619"><stop id="stop4615" offset="0" stop-color="#67d924" stop-opacity="1"/><stop id="stop4617" offset="1" stop-color="#a3eb1e" stop-opacity="1"/></linearGradient><linearGradient id="linearGradient4536" x1="-3.653" x2="-3.653" y1="299.439" y2="296.661" gradientTransform="matrix(2.5196733,0,0,2.5196733,7.20554,-443.83758)" gradientUnits="userSpaceOnUse" xlink:href="#linearGradient1078"/><linearGradient id="linearGradient1078"><stop id="stop1074" offset="0" stop-color="#de3f33" stop-opacity="1"/><stop id="stop1076" offset="1" stop-color="#f26156" stop-opacity="1"/></linearGradient></defs><metadata id="metadata5"/><g id="layer1" transform="translate(0,-282.64999)"><g id="g1738" transform="translate(17.999992,-9)"><path id="rect843-0" fill="gray" fill-opacity="1" stroke="none" stroke-dasharray="none" stroke-linecap="round" stroke-linejoin="round" stroke-miterlimit="4" stroke-opacity="1" stroke-width="2.234" d="m -14.133333,293.64999 h 24.266665 c 1.034135,0 1.866668,0.83254 1.866668,1.86667 v 24.26666 c 0,1.03413 -0.832533,1.86667 -1.866668,1.86667 H -14.133333 C -15.167467,321.64999 -16,320.81743 -16,319.7833 v -24.26664 c 0,-1.03413 0.832533,-1.86667 1.866667,-1.86667 z" opacity="1"/><path id="rect843-3-9" fill="url(#linearGradient2237)" fill-opacity="1" stroke="none" stroke-dasharray="none" stroke-linecap="round" stroke-linejoin="round" stroke-miterlimit="4" stroke-opacity="1" stroke-width="2.074" d="m -14.071428,294.64999 h 24.142856 c 0.514429,0 0.928572,0.41413 0.928572,0.92856 v 24.14285 c 0,0.51441 -0.414143,0.92857 -0.928572,0.92857 H -14.071428 C -14.585857,320.64999 -15,320.23581 -15,319.7214 v -24.14285 c 0,-0.51443 0.414143,-0.92854 0.928572,-0.92856 z" opacity="1"/><path id="rect4496-3-9" fill="#0a5dbf" fill-opacity="1" stroke="none" stroke-dasharray="none" stroke-linecap="round" stroke-linejoin="round" stroke-miterlimit="4" stroke-opacity="1" stroke-width=".49" d="m -13,302.65001 c 2.770001,0 5,2.22994 5,4.99996 0,2.76999 -2.229999,5 -5,5 -2.769999,0 -5,-2.23001 -5,-5 0,-2.77002 2.230001,-4.99996 5,-4.99996 z"/><path id="rect4570-9-6-5-1" fill="url(#linearGradient4536-5)" fill-opacity="1" stroke="none" stroke-dasharray="none" stroke-linecap="round" stroke-linejoin="round" stroke-miterlimit="4" stroke-opacity="1" stroke-width=".401" d="m -13.000016,303.64999 c 2.215991,0 3.999984,1.784 3.999984,4 0,2.216 -1.783993,4 -3.999984,4 -2.215992,0 -3.999984,-1.784 -3.999984,-4 0,-2.216 1.783992,-4 3.999984,-4 z"/><path id="rect4496-3" fill="#b22c2c" fill-opacity="1" stroke="none" stroke-dasharray="none" stroke-linecap="round" stroke-linejoin="round" stroke-miterlimit="4" stroke-opacity="1" stroke-width=".49" d="m -2,302.64999 c 2.77001,0 5.000017,2.22994 5.000017,4.99997 0,2.77002 -2.230007,5.00003 -5.000017,5.00003 -2.770009,0 -5.000017,-2.23003 -5.000017,-5.00003 0,-2.77001 2.230008,-4.99997 5.000017,-4.99997 z"/><path id="rect4570-9-6-5" fill="url(#linearGradient4536)" fill-opacity="1" stroke="none" stroke-dasharray="none" stroke-linecap="round" stroke-linejoin="round" stroke-miterlimit="4" stroke-opacity="1" stroke-width=".401" d="m -2,303.64999 c 2.21599,0 3.999981,1.78399 3.999981,4 0,2.216 -1.783991,4 -3.999981,4 -2.21599,0 -3.999981,-1.784 -3.999981,-4 0,-2.21601 1.783991,-4 3.999981,-4 z"/><path id="rect4496-3-9-6" fill="#56b21d" fill-opacity="1" stroke="none" stroke-dasharray="none" stroke-linecap="round" stroke-linejoin="round" stroke-miterlimit="4" stroke-opacity="1" stroke-width=".49" d="m 9.000016,302.65001 c 2.770001,0 5,2.22994 5,4.99995 0,2.77 -2.229999,5 -5,5 -2.769999,0 -5,-2.23 -5,-5 0,-2.77001 2.230001,-4.99995 5,-4.99995 z"/><path id="rect4570-9-6-5-1-1" fill="url(#linearGradient4536-5-0)" fill-opacity="1" stroke="none" stroke-dasharray="none" stroke-linecap="round" stroke-linejoin="round" stroke-miterlimit="4" stroke-opacity="1" stroke-width=".401" d="m 9,303.64999 c 2.215991,0 3.999984,1.784 3.999984,4 0,2.21602 -1.783993,4 -3.999984,4 -2.215992,0 -3.999984,-1.78398 -3.999984,-4 0,-2.216 1.783992,-4 3.999984,-4 z"/></g></g></svg>