<svg xmlns="http://www.w3.org/2000/svg" xmlns:svg="http://www.w3.org/2000/svg" xmlns:xlink="http://www.w3.org/1999/xlink" id="svg8" width="32" height="32" version="1.1" viewBox="0 0 32 32"><title id="title7895">Antu icon Theme</title><defs id="defs2"><linearGradient id="linearGradient872" x1="-1" x2="-1" y1="308.65" y2="303.65" gradientTransform="translate(7,18.000008)" gradientUnits="userSpaceOnUse" xlink:href="#linearGradient870"/><linearGradient id="linearGradient870"><stop id="stop866" offset="0" stop-color="#b2b2b2" stop-opacity="1"/><stop id="stop868" offset="1" stop-color="#ccc" stop-opacity="1"/></linearGradient><linearGradient id="linearGradient864" x1="-1" x2="-1" y1="316.65" y2="309.65" gradientTransform="translate(7,18.000008)" gradientUnits="userSpaceOnUse" xlink:href="#linearGradient7100"/><linearGradient id="linearGradient7100"><stop id="stop7096" offset="0" stop-color="#f0f0f0" stop-opacity="1"/><stop id="stop7098" offset="1" stop-color="#fff" stop-opacity="1"/></linearGradient><linearGradient id="linearGradient2237" x1="8.448" x2="8.448" y1="295.601" y2="288.987" gradientTransform="matrix(3.7795275,0,0,3.7795275,-25.928569,-775.58391)" gradientUnits="userSpaceOnUse" xlink:href="#linearGradient7100"/></defs><metadata id="metadata5"/><g id="layer1" transform="translate(0,-282.64999)"><g id="g2167" transform="translate(26,-5.0000039)"><g id="g867" transform="translate(-16,-23.999996)"><path id="rect843" fill="#919191" fill-opacity="1" stroke="none" stroke-dasharray="none" stroke-linecap="round" stroke-linejoin="round" stroke-miterlimit="4" stroke-opacity="1" stroke-width="2.393" d="M -7,312.64999 H 18.999999 C 20.108,312.64999 21,313.542 21,314.65 v 25.99998 c 0,1.108 -0.892,2.00001 -2.000001,2.00001 H -7 c -1.108,0 -2,-0.89201 -2,-2.00001 V 314.65 c 0,-1.108 0.892,-2.00001 2,-2.00001 z" opacity="1"/><path id="rect843-3" fill="url(#linearGradient2237)" fill-opacity="1" stroke="none" stroke-dasharray="none" stroke-linecap="round" stroke-linejoin="round" stroke-miterlimit="4" stroke-opacity="1" stroke-width="2.234" d="M -7,313.65002 H 18.999999 C 19.554,313.65002 20,314.096 20,314.65 v 26.00001 c 0,0.55397 -0.446,0.99999 -1.000001,0.99999 H -7 c -0.554,0 -1,-0.44602 -1,-0.99999 V 314.65 c 0,-0.554 0.446,-0.99998 1,-0.99998 z" opacity="1"/><path id="rect863" fill="#919191" fill-opacity="1" stroke="none" stroke-dasharray="none" stroke-dashoffset="0" stroke-linecap="round" stroke-linejoin="round" stroke-miterlimit="4" stroke-opacity="1" stroke-width="4" d="m 2,318.64999 h 8 c 0.554,0 1,0.446 1,1 v 16 c 0,0.554 -0.446,1 -1,1 H 2 c -0.554,0 -1,-0.446 -1,-1 v -16 c 0,-0.554 0.446,-1 1,-1 z" opacity="1"/><path id="rect865" fill="url(#linearGradient864)" fill-opacity="1" stroke="none" stroke-dasharray="none" stroke-dashoffset="0" stroke-linecap="round" stroke-linejoin="round" stroke-miterlimit="4" stroke-opacity="1" stroke-width="4" d="m 2,319.64999 h 8 V 335.65 H 2 Z" opacity=".97"/><path id="rect824" fill="url(#linearGradient872)" fill-opacity="1" stroke="none" stroke-dasharray="none" stroke-dashoffset="0" stroke-linecap="round" stroke-linejoin="round" stroke-miterlimit="4" stroke-opacity="1" stroke-width="2" d="m 2,320.64999 h 8 V 327.65 H 2 Z" opacity="1"/><path id="rect856" fill="#ededed" fill-opacity="1" stroke="none" stroke-dasharray="none" stroke-dashoffset="0" stroke-linecap="round" stroke-linejoin="round" stroke-miterlimit="4" stroke-opacity="1" stroke-width="2" d="m 2,319.64999 h 8 V 320.65 H 2 Z" opacity="1"/></g></g><path id="rect869" fill="#919191" fill-opacity="1" stroke="none" stroke-dasharray="none" stroke-dashoffset="0" stroke-linecap="round" stroke-linejoin="round" stroke-miterlimit="4" stroke-opacity="1" stroke-width="2" d="m 4.5,285.64999 c 0.831,0 1.5,0.669 1.5,1.5 0,0.831 -0.669,1.5 -1.5,1.5 -0.831,0 -1.5,-0.669 -1.5,-1.5 0,-0.831 0.669,-1.5 1.5,-1.5 z" opacity=".97"/><path id="rect871" fill="#919191" fill-opacity="1" stroke="none" stroke-dasharray="none" stroke-dashoffset="0" stroke-linecap="round" stroke-linejoin="round" stroke-miterlimit="4" stroke-opacity="1" stroke-width="2" d="m 27.5,285.64999 c 0.831,0 1.5,0.669 1.5,1.5 0,0.831 -0.669,1.5 -1.5,1.5 -0.831,0 -1.5,-0.669 -1.5,-1.5 0,-0.831 0.669,-1.5 1.5,-1.5 z" opacity=".97"/><path id="rect869-3" fill="#919191" fill-opacity="1" stroke="none" stroke-dasharray="none" stroke-dashoffset="0" stroke-linecap="round" stroke-linejoin="round" stroke-miterlimit="4" stroke-opacity="1" stroke-width="2" d="m 4.5,308.64999 c 0.831,0 1.5,0.669 1.5,1.5 0,0.831 -0.669,1.5 -1.5,1.5 -0.831,0 -1.5,-0.669 -1.5,-1.5 0,-0.831 0.669,-1.5 1.5,-1.5 z" opacity=".97"/><path id="rect871-6" fill="#919191" fill-opacity="1" stroke="none" stroke-dasharray="none" stroke-dashoffset="0" stroke-linecap="round" stroke-linejoin="round" stroke-miterlimit="4" stroke-opacity="1" stroke-width="2" d="m 27.5,308.64999 c 0.831,0 1.5,0.669 1.5,1.5 0,0.831 -0.669,1.5 -1.5,1.5 -0.831,0 -1.5,-0.669 -1.5,-1.5 0,-0.831 0.669,-1.5 1.5,-1.5 z" opacity=".97"/></g></svg>