<svg xmlns="http://www.w3.org/2000/svg" xmlns:svg="http://www.w3.org/2000/svg" xmlns:xlink="http://www.w3.org/1999/xlink" id="svg8" width="32" height="32" version="1.1" viewBox="0 0 32 32"><title id="title7895">Antu icon Theme</title><defs id="defs2"><linearGradient id="linearGradient1765" x1="-10" x2="-10" y1="318.65" y2="314.65" gradientTransform="translate(2e-6,-1)" gradientUnits="userSpaceOnUse" xlink:href="#linearGradient833"/><linearGradient id="linearGradient833"><stop id="stop829" offset="0" stop-color="#c3f7f9" stop-opacity="1"/><stop id="stop831" offset="1" stop-color="#fffeff" stop-opacity="1"/></linearGradient><linearGradient id="linearGradient4759" x1="1.852" x2="1.852" y1="6.615" y2="1.058" gradientTransform="matrix(3.7795275,0,0,3.7795275,-17.999998,288.64994)" gradientUnits="userSpaceOnUse" xlink:href="#linearGradient4902"/><linearGradient id="linearGradient4902"><stop id="stop4898" offset="0" stop-color="#0d72ec" stop-opacity="1"/><stop id="stop4900" offset="1" stop-color="#36b2fb" stop-opacity="1"/></linearGradient><linearGradient id="linearGradient1698" x1="22" x2="22" y1="302.65" y2="284.65" gradientTransform="translate(-18,6)" gradientUnits="userSpaceOnUse" xlink:href="#linearGradient4543"/><linearGradient id="linearGradient4543"><stop id="stop4539" offset="0" stop-color="#004a60" stop-opacity="1"/><stop id="stop4541" offset="1" stop-color="#007b60" stop-opacity="1"/></linearGradient><linearGradient id="linearGradient4538-3-1" x1="22" x2="22" y1="30" y2="3" gradientTransform="translate(-18,288.64994)" gradientUnits="userSpaceOnUse" xlink:href="#linearGradient4737"/><linearGradient id="linearGradient4737"><stop id="stop4733" offset="0" stop-color="#018ed7" stop-opacity="1"/><stop id="stop4735" offset="1" stop-color="#00dc9a" stop-opacity="1"/></linearGradient></defs><metadata id="metadata5"/><g id="layer1" transform="translate(0,-282.64999)"><g id="g2502" transform="translate(18,-6)"><path id="path12329" fill="#0a5dbf" fill-opacity="1" stroke-width="1" d="m -17,290.64999 c -0.55401,0 -1,0.446 -1,1 v 26 c 0,0.554 0.44599,1 1,1 h 30 c 0.554009,0 1,-0.446 1,-1 v -26 c 0,-0.554 -0.445992,-1 -1,-1 H -1 -4 Z"/><path id="path13-5-2-9-4-2-6-6" fill="url(#linearGradient4759)" fill-opacity="1" stroke-width="1" d="m -17,291.64999 v 22 h 30 v -22 H -2 -4 Z"/><path id="path1690" fill="url(#linearGradient1765)" fill-opacity="1" stroke="none" stroke-dasharray="none" stroke-linecap="round" stroke-linejoin="round" stroke-miterlimit="4" stroke-opacity="1" stroke-width=".4" d="m -17,313.64999 v 4 h 30 v -4 z"/><path id="rect4491-9-9" fill="url(#linearGradient4538-3-1)" fill-opacity="1" stroke="none" stroke-dasharray="none" stroke-linecap="butt" stroke-linejoin="round" stroke-miterlimit="4" stroke-opacity="1" stroke-width="1" d="M -2,291.64999 H 13 V 317.65 H -2 Z"/><path id="rect4572-2" fill="#023e54" fill-opacity="1" stroke="none" stroke-dasharray="none" stroke-linecap="round" stroke-linejoin="round" stroke-miterlimit="4" stroke-opacity="1" stroke-width=".4" d="M -2,313.65001 H 13 V 317.65 H -2 Z"/><path id="path13-2-0" fill="url(#linearGradient1698)" fill-opacity="1" stroke-width="1" d="m -3,290.65 v 0.99999 26.00001 0.99999 h 16 c 0.55401,0 1,-0.44599 1,-0.99999 V 291.64999 C 14,291.09598 13.55401,290.65 13,290.65 Z m 1,0.99999 H 13 V 317.65 H -2 Z"/></g></g></svg>