<svg xmlns="http://www.w3.org/2000/svg" xmlns:svg="http://www.w3.org/2000/svg" xmlns:xlink="http://www.w3.org/1999/xlink" id="svg8" width="32" height="32" version="1.1" viewBox="0 0 32 32"><title id="title7895">Antu icon Theme</title><defs id="defs2"><linearGradient id="linearGradient2927"><stop id="stop2923" offset="0" stop-color="#dcffe9" stop-opacity="1"/><stop id="stop2925" offset="1" stop-color="#fff" stop-opacity="1"/></linearGradient><linearGradient id="linearGradient1256" x1="16" x2="16" y1="310.65" y2="290.65" gradientTransform="translate(-6,2)" gradientUnits="userSpaceOnUse" xlink:href="#linearGradient2126"/><linearGradient id="linearGradient2126"><stop id="stop2122" offset="0" stop-color="#475057" stop-opacity="1"/><stop id="stop2124" offset="1" stop-color="#5e6a73" stop-opacity="1"/></linearGradient><linearGradient id="linearGradient4536" x1="-3.653" x2="-3.653" y1="299.836" y2="296.661" gradientTransform="matrix(4.4094489,0,0,4.4094489,34.10977,-1006.4594)" gradientUnits="userSpaceOnUse" xlink:href="#linearGradient4587"/><linearGradient id="linearGradient4587"><stop id="stop4583" offset="0" stop-color="#29d465" stop-opacity="1"/><stop id="stop4585" offset="1" stop-color="#5bfb93" stop-opacity="1"/></linearGradient><linearGradient id="linearGradient2929" x1="18" x2="18" y1="310.65" y2="306.65" gradientUnits="userSpaceOnUse" xlink:href="#linearGradient2927"/></defs><metadata id="metadata5"/><g id="layer1" transform="translate(0,-282.64999)"><g id="g2871" transform="translate(5.0000005,-3)"><path id="rect879" fill="#343b40" fill-opacity="1" stroke="none" stroke-dasharray="none" stroke-linecap="round" stroke-linejoin="round" stroke-miterlimit="4" stroke-opacity="1" stroke-width=".808" d="m -4,287.64999 v 5 3 h 3 v -1 c 0,-1.108 0.892,-2 2,-2 h 2 4 v 14 2 c 0,1.108 -0.892,2 -2,2 H 3 v 4 h 14 v -4 h -2 c -1.108,0 -2,-0.892 -2,-2 v -2 -14 h 6 c 1.108,0 2,0.892 2,2 v 1 h 3 v -4 -4 z" opacity="1" paint-order="stroke markers fill"/><path id="rect965" fill="url(#linearGradient1256)" fill-opacity="1" stroke="none" stroke-dasharray="none" stroke-linecap="round" stroke-linejoin="round" stroke-miterlimit="4" stroke-opacity="1" stroke-width=".808" d="m -3,288.64999 v 3 3 h 1 c 0,-0.831 0.334703,-1.5808 0.876953,-2.12305 C -0.580797,291.98469 0.169,291.64999 1,291.64999 h 7 v 17 c 0,0.831 -0.334703,1.5808 -0.876953,2.12305 C 6.580797,311.31529 5.831,311.64999 5,311.64999 H 4 v 1 1 h 12 v -1 -1 h -1 c -0.831,0 -1.580797,-0.3347 -2.123047,-0.87695 C 12.334703,310.23079 12,309.48099 12,308.64999 v -17 h 7 c 0.831,0 1.580797,0.3347 2.123047,0.87695 C 21.665297,293.06919 22,293.81899 22,294.64999 h 1 v -4 -2 z" opacity="1" paint-order="stroke markers fill"/><path id="rect4496-3" fill="#1a9946" fill-opacity="1" stroke="none" stroke-dasharray="none" stroke-linecap="round" stroke-linejoin="round" stroke-miterlimit="4" stroke-opacity="1" stroke-width=".784" d="m 18,300.65004 c 4.432,0 7.999999,3.56791 7.999999,7.99994 0,4.43198 -3.567999,8.00001 -7.999999,8.00001 -4.432,0 -8,-3.56803 -8,-8.00001 0,-4.43203 3.568,-7.99994 8,-7.99994 z"/><path id="rect4570-9-6-5" fill="url(#linearGradient4536)" fill-opacity="1" stroke="none" stroke-dasharray="none" stroke-linecap="round" stroke-linejoin="round" stroke-miterlimit="4" stroke-opacity="1" stroke-width=".701" d="m 18,301.64999 c 3.878,0 7,3.12201 7,7.00003 0,3.87803 -3.122,7.00002 -7,7.00002 -3.878001,0 -7,-3.122 -7,-7.00002 0,-3.87802 3.121999,-7.00003 7,-7.00003 z"/><path id="path2073-9" fill="#1a9946" fill-opacity="1" stroke="none" d="m 18,305.64999 c 0.554,0 1,0.446 1,1 v 3 h 1 c 0.890637,3.5e-4 1.336587,1.07704 0.707031,1.70703 l -2,2 c -0.39053,0.39037 -1.023532,0.39037 -1.414062,0 l -2,-2 C 14.663413,310.72703 15.109363,309.65034 16,309.64999 h 1 v -3 c 0,-0.554 0.446,-1 1,-1 z" color="#122036"/><path id="path2073" fill="url(#linearGradient2929)" fill-opacity="1" stroke="none" d="m 18,304.64999 c 0.554,0 1,0.446 1,1 v 3 h 1 c 0.890637,3.5e-4 1.336587,1.07704 0.707031,1.70703 l -2,2 c -0.39053,0.39037 -1.023532,0.39037 -1.414062,0 l -2,-2 C 14.663413,309.72703 15.109363,308.65034 16,308.64999 h 1 v -3 c 0,-0.554 0.446,-1 1,-1 z" color="#122036"/></g></g></svg>