<svg xmlns="http://www.w3.org/2000/svg" xmlns:svg="http://www.w3.org/2000/svg" xmlns:xlink="http://www.w3.org/1999/xlink" id="svg8" width="32" height="32" version="1.1" viewBox="0 0 32 32"><title id="title7895">Antu icon Theme</title><defs id="defs2"><linearGradient id="linearGradient1256" x1="16" x2="16" y1="310.65" y2="290.65" gradientTransform="translate(-24,8)" gradientUnits="userSpaceOnUse" xlink:href="#linearGradient2126"/><linearGradient id="linearGradient2126"><stop id="stop2122" offset="0" stop-color="#475057" stop-opacity="1"/><stop id="stop2124" offset="1" stop-color="#5e6a73" stop-opacity="1"/></linearGradient></defs><metadata id="metadata5"/><g id="layer1" transform="translate(0,-282.64999)"><g id="g2069" transform="translate(24,-8)"><path id="rect879" fill="#343b40" fill-opacity="1" stroke="none" stroke-dasharray="none" stroke-linecap="round" stroke-linejoin="round" stroke-miterlimit="4" stroke-opacity="1" stroke-width=".808" d="m -22,293.64999 v 5 3 h 3 v -1 c 0,-1.108 0.892,-2 2,-2 h 2 4 v 14 2 c 0,1.108 -0.892,2 -2,2 h -2 v 4 h 14 v -4 h -2 c -1.108,0 -2,-0.892 -2,-2 v -2 -14 h 6 c 1.108,0 2,0.892 2,2 v 1 h 3 v -4 -4 z" opacity="1" paint-order="stroke markers fill"/><path id="rect965" fill="url(#linearGradient1256)" fill-opacity="1" stroke="none" stroke-dasharray="none" stroke-linecap="round" stroke-linejoin="round" stroke-miterlimit="4" stroke-opacity="1" stroke-width=".808" d="m -21,294.64999 v 3 3 h 1 c 0,-0.831 0.334703,-1.5808 0.876953,-2.12305 0.54225,-0.54225 1.292047,-0.87695 2.123047,-0.87695 h 7 v 17 c 0,0.831 -0.334703,1.5808 -0.876953,2.12305 -0.54225,0.54225 -1.292047,0.87695 -2.123047,0.87695 h -1 v 1 1 h 12 v -1 -1 h -1 c -0.831,0 -1.580797,-0.3347 -2.123047,-0.87695 C -5.665297,316.23079 -6,315.48099 -6,314.64999 v -17 h 7 c 0.831,0 1.580797,0.3347 2.123047,0.87695 C 3.665297,299.06919 4,299.81899 4,300.64999 h 1 v -4 -2 z" opacity="1" paint-order="stroke markers fill"/></g></g></svg>