<svg xmlns="http://www.w3.org/2000/svg" xmlns:svg="http://www.w3.org/2000/svg" xmlns:xlink="http://www.w3.org/1999/xlink" id="svg8" width="32" height="32" version="1.1" viewBox="0 0 32 32"><title id="title7895">Antu icon Theme</title><defs id="defs2"><linearGradient id="linearGradient844" x1="-2" x2="-2" y1="317.65" y2="290.65" gradientTransform="translate(1,-1)" gradientUnits="userSpaceOnUse" xlink:href="#linearGradient842"/><linearGradient id="linearGradient842"><stop id="stop838" offset="0" stop-color="#566066" stop-opacity="1"/><stop id="stop840" offset="1" stop-color="#6d7a81" stop-opacity="1"/></linearGradient><linearGradient id="linearGradient852" x1="-2" x2="-2" y1="311.65" y2="293.65" gradientTransform="translate(1.022097,-1.0221)" gradientUnits="userSpaceOnUse" xlink:href="#linearGradient850"/><linearGradient id="linearGradient850"><stop id="stop846" offset="0" stop-color="#233a39" stop-opacity="1"/><stop id="stop848" offset="1" stop-color="#434d4d" stop-opacity="1"/></linearGradient></defs><metadata id="metadata5"/><g id="layer1" transform="translate(0,-282.64999)"><g id="g1520" transform="translate(17,-5)"><path id="rect843" fill="#394349" fill-opacity="1" stroke="none" stroke-dasharray="none" stroke-linecap="round" stroke-linejoin="round" stroke-miterlimit="4" stroke-opacity="1" stroke-width="2.393" d="m -14,288.64999 h 26 c 1.108,0 2,0.892 2,2 v 26 c 0,1.108 -0.892,2 -2,2 h -26 c -1.108,0 -2,-0.892 -2,-2 v -26 c 0,-1.108 0.892,-2 2,-2 z" opacity="1"/><path id="rect843-3" fill="url(#linearGradient844)" fill-opacity="1" stroke="none" stroke-dasharray="none" stroke-linecap="round" stroke-linejoin="round" stroke-miterlimit="4" stroke-opacity="1" stroke-width="2.234" d="m -14,289.64999 h 26 c 0.553999,0 1,0.446 1,1 v 26 c 0,0.554 -0.446001,1 -1,1 h -26 c -0.554,0 -1,-0.446 -1,-1 v -26 c 0,-0.554 0.446,-1 1,-1 z" opacity="1"/><path id="rect834" fill="#232c2c" fill-opacity="1" stroke="none" stroke-dasharray="none" stroke-linecap="round" stroke-linejoin="round" stroke-miterlimit="4" stroke-opacity="1" stroke-width="2" d="m -13.000004,290.64999 h 24.000008 c 0.553998,0 0.999996,0.446 0.999996,1 v 20 c 0,0.554 -0.445998,1 -0.999996,1 h -24.000008 c -0.553998,0 -0.999996,-0.446 -0.999996,-1 v -20 c 0,-0.554 0.445998,-1 0.999996,-1 z" opacity="1" paint-order="stroke markers fill"/><path id="rect836" fill="url(#linearGradient852)" fill-opacity="1" stroke="none" stroke-dasharray="none" stroke-linecap="round" stroke-linejoin="round" stroke-miterlimit="4" stroke-opacity="1" stroke-width="2" d="m -12.977903,291.6279 h 24 v 20 h -24 z" opacity="1" paint-order="stroke markers fill"/><path id="path872-3" fill="#232c2c" fill-opacity="1" stroke="none" stroke-dasharray="none" stroke-linecap="round" stroke-linejoin="round" stroke-miterlimit="4" stroke-opacity="1" stroke-width="1.867" d="m -2,294.64999 v 5 h 2 v -5 z m -1,1.40234 c -2.876849,0.86923 -5,3.42982 -5,6.59766 0,3.878 3.122,7 7,7 3.878,0 7,-3.122 7,-7 0,-3.16784 -2.123151,-5.72843 -5,-6.59766 v 2.02344 c 1.765432,0.7702 3,2.51865 3,4.57422 0,2.77 -2.23,5 -5,5 -2.77,0 -5,-2.23 -5,-5 0,-2.05557 1.234568,-3.80402 3,-4.57422 z" opacity="1" paint-order="stroke markers fill"/><path id="path872" fill="#fff" fill-opacity="1" stroke="none" stroke-dasharray="none" stroke-linecap="round" stroke-linejoin="round" stroke-miterlimit="4" stroke-opacity="1" stroke-width="1.867" d="m -2,293.64999 v 5 h 2 v -5 z m -1,1.40234 c -2.876849,0.86923 -5,3.42982 -5,6.59766 0,3.878 3.122,7 7,7 3.878,0 7,-3.122 7,-7 0,-3.16784 -2.123151,-5.72843 -5,-6.59766 v 2.02344 c 1.765432,0.7702 3,2.51865 3,4.57422 0,2.77 -2.23,5 -5,5 -2.77,0 -5,-2.23 -5,-5 0,-2.05557 1.234568,-3.80402 3,-4.57422 z" opacity="1" paint-order="stroke markers fill"/></g><path id="rect1584" fill="#394349" fill-opacity="1" stroke="none" stroke-dasharray="none" stroke-linecap="round" stroke-linejoin="round" stroke-miterlimit="4" stroke-opacity="1" stroke-width="2" d="m 26.5,308.64999 c 0.831,0 1.5,0.669 1.5,1.5 0,0.831 -0.669,1.5 -1.5,1.5 -0.831,0 -1.5,-0.669 -1.5,-1.5 0,-0.831 0.669,-1.5 1.5,-1.5 z" opacity="1" paint-order="stroke markers fill"/><path id="rect1586" fill="#48ff5d" fill-opacity="1" stroke="none" stroke-dasharray="none" stroke-linecap="round" stroke-linejoin="round" stroke-miterlimit="4" stroke-opacity="1" stroke-width="2" d="m 26.5,309.64999 c 0.277,0 0.5,0.223 0.5,0.5 0,0.277 -0.223,0.5 -0.5,0.5 -0.277,0 -0.5,-0.223 -0.5,-0.5 0,-0.277 0.223,-0.5 0.5,-0.5 z" opacity="1" paint-order="stroke markers fill"/><path id="rect1584-6" fill="#394349" fill-opacity="1" stroke="none" stroke-dasharray="none" stroke-linecap="round" stroke-linejoin="round" stroke-miterlimit="4" stroke-opacity="1" stroke-width="2" d="m 22.5,308.64999 c 0.831,0 1.5,0.669 1.5,1.5 0,0.831 -0.669,1.5 -1.5,1.5 -0.831,0 -1.5,-0.669 -1.5,-1.5 0,-0.831 0.669,-1.5 1.5,-1.5 z" opacity="1" paint-order="stroke markers fill"/><path id="rect1586-7" fill="#48ff5d" fill-opacity="1" stroke="none" stroke-dasharray="none" stroke-linecap="round" stroke-linejoin="round" stroke-miterlimit="4" stroke-opacity="1" stroke-width="2" d="m 22.5,309.64999 c 0.277,0 0.5,0.223 0.5,0.5 0,0.277 -0.223,0.5 -0.5,0.5 -0.277,0 -0.5,-0.223 -0.5,-0.5 0,-0.277 0.223,-0.5 0.5,-0.5 z" opacity="1" paint-order="stroke markers fill"/></g></svg>