<svg xmlns="http://www.w3.org/2000/svg" xmlns:svg="http://www.w3.org/2000/svg" xmlns:xlink="http://www.w3.org/1999/xlink" id="svg8" width="32" height="32" version="1.1" viewBox="0 0 8.467 8.467"><defs id="defs2"><linearGradient id="linearGradient4621" x1=".58" x2=".58" y1="295.602" y2="292.427" gradientTransform="matrix(1.166663,0,0,1.166663,1.6763921,-52.904673)" gradientUnits="userSpaceOnUse" xlink:href="#linearGradient4619"/><linearGradient id="linearGradient4619"><stop id="stop4615" offset="0" stop-color="#67d924" stop-opacity="1"/><stop id="stop4617" offset="1" stop-color="#a3eb1e" stop-opacity="1"/></linearGradient><linearGradient id="linearGradient4629" x1="-3.635" x2="-3.653" y1="295.574" y2="292.427" gradientTransform="matrix(1.1666667,0,0,1.1666667,2.3819456,-52.905732)" gradientUnits="userSpaceOnUse" xlink:href="#linearGradient4627"/><linearGradient id="linearGradient4627"><stop id="stop4623" offset="0" stop-color="#ffc900" stop-opacity="1"/><stop id="stop4625" offset="1" stop-color="#ffe200" stop-opacity="1"/></linearGradient><linearGradient id="linearGradient4664" x1="-1.565" x2="-1.537" y1="297.69" y2="294.544" gradientTransform="matrix(1.1666666,0,0,1.1666666,2.0291677,-53.258501)" gradientUnits="userSpaceOnUse" xlink:href="#linearGradient4662"/><linearGradient id="linearGradient4662"><stop id="stop4658" offset="0" stop-color="#dfe5ff" stop-opacity="1"/><stop id="stop4660" offset="1" stop-color="#f7fdff" stop-opacity="1"/></linearGradient><linearGradient id="linearGradient4581-2-3" x1="9.525" x2="9.525" y1="290.915" y2="285.623" gradientTransform="matrix(0.69999994,0,0,0.69999994,-4.3145981,92.556582)" gradientUnits="userSpaceOnUse" xlink:href="#linearGradient4717"/><linearGradient id="linearGradient4717"><stop id="stop4713" offset="0" stop-color="#1a86f2" stop-opacity="1"/><stop id="stop4715" offset="1" stop-color="#31bbfc" stop-opacity="1"/></linearGradient><linearGradient id="linearGradient4536" x1="-3.653" x2="-3.653" y1="299.836" y2="296.661" gradientTransform="matrix(1.1666666,0,0,1.1666666,2.3819451,-53.61127)" gradientUnits="userSpaceOnUse" xlink:href="#linearGradient4534"/><linearGradient id="linearGradient4534"><stop id="stop4530" offset="0" stop-color="#d43434" stop-opacity="1"/><stop id="stop4532" offset="1" stop-color="#f84f4f" stop-opacity="1"/></linearGradient></defs><metadata id="metadata5"/><g id="layer1" transform="translate(0,-288.53332)"><g id="g13383" transform="translate(3.9970982,0.53861835)"><path id="rect4496-7" fill="#56b21d" fill-opacity="1" stroke="none" stroke-dasharray="none" stroke-linecap="round" stroke-linejoin="round" stroke-miterlimit="4" stroke-opacity="1" stroke-width=".207" d="m 2.3529019,287.9947 c 1.1726341,0 2.1166667,0.94402 2.1166667,2.11665 0,1.17264 -0.9440326,2.11668 -2.1166667,2.11668 -1.1726333,0 -2.11666638,-0.94404 -2.11666638,-2.11668 0,-1.17263 0.94403308,-2.11665 2.11666638,-2.11665 z"/><path id="rect4570" fill="url(#linearGradient4621)" fill-opacity="1" stroke="none" stroke-dasharray="none" stroke-linecap="round" stroke-linejoin="round" stroke-miterlimit="4" stroke-opacity="1" stroke-width=".185" d="m 2.3529016,288.25928 c 1.026051,0 1.8520778,0.82604 1.8520778,1.85209 0,1.02605 -0.8260268,1.85208 -1.8520778,1.85208 -1.0260507,0 -1.85207698,-0.82603 -1.85207698,-1.85208 0,-1.02605 0.82602628,-1.85209 1.85207698,-1.85209 z"/><path id="rect4496-7-5" fill="#ff9a0a" fill-opacity="1" stroke="none" stroke-dasharray="none" stroke-linecap="round" stroke-linejoin="round" stroke-miterlimit="4" stroke-opacity="1" stroke-width=".207" d="m -1.8804319,287.9947 c 1.17263352,0 2.11666682,0.94402 2.11666682,2.11665 0,1.17264 -0.9440333,2.11668 -2.11666682,2.11668 -1.1726333,0 -2.1166665,-0.94404 -2.1166665,-2.11668 0,-1.17263 0.9440332,-2.11665 2.1166665,-2.11665 z"/><path id="rect4570-9" fill="url(#linearGradient4629)" fill-opacity="1" stroke="none" stroke-dasharray="none" stroke-linecap="round" stroke-linejoin="round" stroke-miterlimit="4" stroke-opacity="1" stroke-width=".186" d="m -1.8804316,288.25928 c 1.02605402,0 1.85208322,0.82602 1.85208322,1.85208 0,1.02606 -0.8260292,1.85209 -1.85208322,1.85209 -1.0260544,0 -1.8520835,-0.82603 -1.8520835,-1.85209 0,-1.02606 0.8260291,-1.85208 1.8520835,-1.85208 z"/><path id="rect4496" fill="#115799" fill-opacity="1" stroke="none" stroke-dasharray="none" stroke-linecap="round" stroke-linejoin="round" stroke-miterlimit="4" stroke-opacity="1" stroke-width=".207" d="m 2.3529016,292.22805 c 1.1726334,0 2.1166667,0.94401 2.1166667,2.11665 0,1.17263 -0.9440333,2.11667 -2.1166667,2.11667 -1.1726333,0 -2.11666668,-0.94404 -2.11666668,-2.11667 0,-1.17264 0.94403338,-2.11665 2.11666668,-2.11665 z"/><path id="rect4570-9-6" fill="url(#linearGradient4581-2-3)" fill-opacity="1" stroke="none" stroke-dasharray="none" stroke-linecap="round" stroke-linejoin="round" stroke-miterlimit="4" stroke-opacity="1" stroke-width=".186" d="m 2.3529016,292.49262 c 1.0260542,0 1.8520834,0.82602 1.8520834,1.85208 0,1.02606 -0.8260292,1.8521 -1.8520834,1.8521 -1.0260541,0 -1.85208328,-0.82604 -1.85208328,-1.8521 0,-1.02606 0.82602918,-1.85208 1.85208328,-1.85208 z"/><path id="rect4496-3" fill="#992626" fill-opacity="1" stroke="none" stroke-dasharray="none" stroke-linecap="round" stroke-linejoin="round" stroke-miterlimit="4" stroke-opacity="1" stroke-width=".207" d="m -1.8804316,292.22805 c 1.17263352,0 2.11666652,0.94401 2.11666652,2.11665 0,1.17263 -0.944033,2.11667 -2.11666652,2.11667 -1.1726334,0 -2.1166666,-0.94404 -2.1166666,-2.11667 0,-1.17264 0.9440332,-2.11665 2.1166666,-2.11665 z"/><path id="rect4570-9-6-5" fill="url(#linearGradient4536)" fill-opacity="1" stroke="none" stroke-dasharray="none" stroke-linecap="round" stroke-linejoin="round" stroke-miterlimit="4" stroke-opacity="1" stroke-width=".186" d="m -1.8804316,292.49262 c 1.02605402,0 1.85208322,0.82603 1.85208322,1.85209 0,1.02606 -0.8260292,1.85209 -1.85208322,1.85209 -1.0260543,0 -1.8520834,-0.82603 -1.8520834,-1.85209 0,-1.02606 0.8260291,-1.85209 1.8520834,-1.85209 z"/><path id="rect4496-1" fill="#b3b7cc" fill-opacity="1" stroke="none" stroke-dasharray="none" stroke-linecap="round" stroke-linejoin="round" stroke-miterlimit="4" stroke-opacity="1" stroke-width=".207" d="m 0.23623522,290.11137 c 1.17263308,0 2.11666638,0.94401 2.11666638,2.11665 0,1.17263 -0.9440333,2.11667 -2.11666638,2.11667 -1.1726336,0 -2.11666682,-0.94404 -2.11666682,-2.11667 0,-1.17264 0.94403322,-2.11665 2.11666682,-2.11665 z"/><path id="rect4570-9-6-2" fill="url(#linearGradient4664)" fill-opacity="1" stroke="none" stroke-dasharray="none" stroke-linecap="round" stroke-linejoin="round" stroke-miterlimit="4" stroke-opacity="1" stroke-width=".185" d="m 0.23623522,290.37594 c 1.02605388,0 1.85208308,0.82603 1.85208308,1.85209 0,1.02606 -0.8260292,1.85209 -1.85208308,1.85209 -1.0260544,0 -1.85208352,-0.82603 -1.85208352,-1.85209 0,-1.02606 0.82602912,-1.85209 1.85208352,-1.85209 z"/><path id="path4823-3" fill="#383940" fill-opacity="1" stroke-width=".005" d="m 0.23623515,291.1697 c 0,0 -0.49978151,0.6686 -0.63562021,0.86971 -0.092108,0.13637 -0.1587881,0.29381 -0.1581298,0.47026 0.00161,0.43042 0.3569912,0.77828 0.79375001,0.77669 0.4367588,0.002 0.79213915,-0.34627 0.79374995,-0.77669 6.615e-4,-0.17645 -0.0660219,-0.33389 -0.15812975,-0.47026 -0.097949,-0.14501 -0.6356202,-0.86971 -0.6356202,-0.86971 z"/></g></g></svg>