<svg xmlns="http://www.w3.org/2000/svg" xmlns:svg="http://www.w3.org/2000/svg" xmlns:xlink="http://www.w3.org/1999/xlink" id="svg8" width="32" height="32" version="1.1" viewBox="0 0 32 32"><title id="title7895">Antu icon Theme</title><defs id="defs2"><linearGradient id="linearGradient4759" x1="4.762" x2="4.762" y1="6.615" y2="1.058" gradientTransform="matrix(3.7795275,0,0,3.7795275,-26,287.64994)" gradientUnits="userSpaceOnUse" xlink:href="#linearGradient4582-3"/><linearGradient id="linearGradient4582-3"><stop id="stop4578-5" offset="0" stop-color="#cee3e3" stop-opacity="1"/><stop id="stop4580-6" offset="1" stop-color="#fcfcfc" stop-opacity="1"/></linearGradient><linearGradient id="linearGradient2120" x1="-7" x2="-7" y1="314.65" y2="295.65" gradientTransform="translate(-15,2)" gradientUnits="userSpaceOnUse" xlink:href="#linearGradient2118"/><linearGradient id="linearGradient2118"><stop id="stop2114" offset="0" stop-color="#238abf" stop-opacity="1"/><stop id="stop2116" offset="1" stop-color="#30b9fc" stop-opacity="1"/></linearGradient><linearGradient id="linearGradient2128" x1="-3" x2="-3" y1="293.65" y2="288.65" gradientTransform="translate(-15,2)" gradientUnits="userSpaceOnUse" xlink:href="#linearGradient2126"/><linearGradient id="linearGradient2126"><stop id="stop2122" offset="0" stop-color="#475057" stop-opacity="1"/><stop id="stop2124" offset="1" stop-color="#5e6a73" stop-opacity="1"/></linearGradient></defs><metadata id="metadata5"/><g id="layer1" transform="translate(0,-282.64999)"><g id="g2924" transform="translate(26,-5)"><path id="path12329" fill="#90a4ae" fill-opacity="1" stroke-width="1" d="m -25,289.64999 c -0.55401,0 -1,0.446 -1,1 v 26 c 0,0.554 0.44599,1 1,1 H 5 c 0.55401,0 1,-0.446 1,-1 v -26 c 0,-0.554 -0.44599,-1 -1,-1 h -14 -3 z"/><path id="path13-5-2-9-4-2-6-6" fill="url(#linearGradient4759)" fill-opacity="1" stroke-width="1" d="m -25,290.64999 v 5 H 5 v -5 h -15 -2 z m 0,6 v 20 H 5 v -20 z"/><path id="rect1191" fill="#343b40" fill-opacity="1" stroke="none" stroke-dasharray="none" stroke-linecap="round" stroke-linejoin="round" stroke-miterlimit="4" stroke-opacity="1" stroke-width=".808" d="m -25,289.64999 c -0.554,0 -1,0.446 -1,1 v 5 1 h 1 30 1 v -1 -5 c 0,-0.554 -0.446,-1 -1,-1 z" opacity="1" paint-order="stroke markers fill"/><path id="rect4537-2" fill="url(#linearGradient2128)" fill-opacity="1" stroke="none" stroke-dasharray="none" stroke-linecap="round" stroke-linejoin="round" stroke-miterlimit="4" stroke-opacity="1" stroke-width=".4" d="m -25,290.64999 v 5 H 5 v -5 z"/><path id="rect860" fill="#115799" fill-opacity="1" stroke="none" stroke-dasharray="none" stroke-linecap="round" stroke-linejoin="round" stroke-miterlimit="4" stroke-opacity="1" stroke-width=".808" d="m -26,296.64999 v 19 1 c 0,0.554 0.446,1 1,1 h 5 3 1 v -1 -1 -19 h -1 v 18 h -8 v -18 z" opacity="1" paint-order="stroke markers fill"/><path id="rect858" fill="url(#linearGradient2120)" fill-opacity="1" stroke="none" stroke-dasharray="none" stroke-linecap="round" stroke-linejoin="round" stroke-miterlimit="4" stroke-opacity="1" stroke-width=".808" d="m -25,296.64999 h 8 v 20 h -8 z" opacity="1" paint-order="stroke markers fill"/></g></g></svg>