<svg xmlns="http://www.w3.org/2000/svg" xmlns:svg="http://www.w3.org/2000/svg" xmlns:xlink="http://www.w3.org/1999/xlink" id="svg8" width="32" height="32" version="1.1" viewBox="0 0 32 32"><title id="title7895">Antu icon Theme</title><defs id="defs2"><linearGradient id="linearGradient844" x1="-2" x2="-2" y1="317.65" y2="290.65" gradientTransform="translate(1,-1)" gradientUnits="userSpaceOnUse" xlink:href="#linearGradient4582-3"/><linearGradient id="linearGradient852" x1="-2" x2="-2" y1="311.65" y2="293.65" gradientTransform="translate(1.022097,-1.0221)" gradientUnits="userSpaceOnUse" xlink:href="#linearGradient2126"/><style id="current-color-scheme" type="text/css"/><style id="current-color-scheme-7" type="text/css"/><style id="current-color-scheme-5" type="text/css"/><linearGradient id="linearGradient4582-3"><stop id="stop4578-5" offset="0" stop-color="#c8c8c8" stop-opacity="1"/><stop id="stop4580-6" offset="1" stop-color="#f2f2f2" stop-opacity="1"/></linearGradient><linearGradient id="linearGradient2126"><stop id="stop2122" offset="0" stop-color="#475057" stop-opacity="1"/><stop id="stop2124" offset="1" stop-color="#5e6a73" stop-opacity="1"/></linearGradient><linearGradient id="linearGradient986" x1="16" x2="16" y1="307.15" y2="289.15" gradientUnits="userSpaceOnUse" xlink:href="#linearGradient4582-3"/></defs><metadata id="metadata5"/><g id="layer1" transform="translate(0,-282.64999)"><g id="g1520" transform="translate(17,-5)"><path id="rect843" fill="gray" fill-opacity="1" stroke="none" stroke-dasharray="none" stroke-linecap="round" stroke-linejoin="round" stroke-miterlimit="4" stroke-opacity="1" stroke-width="2.393" d="m -14,288.64999 h 26 c 1.108,0 2,0.892 2,2 v 26 c 0,1.108 -0.892,2 -2,2 h -26 c -1.108,0 -2,-0.892 -2,-2 v -26 c 0,-1.108 0.892,-2 2,-2 z" opacity="1"/><path id="rect843-3" fill="url(#linearGradient844)" fill-opacity="1" stroke="none" stroke-dasharray="none" stroke-linecap="round" stroke-linejoin="round" stroke-miterlimit="4" stroke-opacity="1" stroke-width="2.234" d="m -14,289.64999 h 26 c 0.553999,0 1,0.446 1,1 v 26 c 0,0.554 -0.446001,1 -1,1 h -26 c -0.554,0 -1,-0.446 -1,-1 v -26 c 0,-0.554 0.446,-1 1,-1 z" opacity="1"/><path id="rect834" fill="#343b40" fill-opacity="1" stroke="none" stroke-dasharray="none" stroke-linecap="round" stroke-linejoin="round" stroke-miterlimit="4" stroke-opacity="1" stroke-width="2" d="m -13.000004,290.64999 h 24.000008 c 0.553998,0 0.999996,0.446 0.999996,1 v 24.00004 c 0,0.554 -0.445998,1 -0.999996,1 h -24.000008 c -0.553998,0 -0.999996,-0.446 -0.999996,-1 v -24.00004 c 0,-0.554 0.445998,-1 0.999996,-1 z" opacity="1" paint-order="stroke markers fill"/><path id="rect836" fill="url(#linearGradient852)" fill-opacity="1" stroke="none" stroke-dasharray="none" stroke-linecap="round" stroke-linejoin="round" stroke-miterlimit="4" stroke-opacity="1" stroke-width="2" d="m -12.977903,291.6279 h 24 v 24.02209 h -24 z" opacity="1" paint-order="stroke markers fill"/></g><g id="layer1-1" transform="translate(36.333984,-6.66211)"><g id="g1006" transform="translate(-36.333984,7.16211)"><path id="rect945" fill="#343b40" fill-opacity="1" stroke="none" stroke-dasharray="none" stroke-dashoffset="0" stroke-linecap="round" stroke-linejoin="round" stroke-miterlimit="4" stroke-opacity="1" stroke-width="2" d="m 15,289.14999 c -0.553999,0 -1,0.446 -1,1 v 2.29297 c -0.46663,0.13808 -0.914075,0.31806 -1.333984,0.54492 l -1.615235,-1.61523 c -0.391737,-0.39174 -1.022326,-0.39174 -1.4140622,0 l -1.4140626,1.41406 c -0.3917362,0.39174 -0.3917363,1.02233 0,1.41406 l 1.6152344,1.61524 c -0.2268643,0.4199 -0.4068415,0.86735 -0.5449218,1.33398 H 7 c -0.554,0 -1,0.446 -1,1 v 2 c 0,0.554 0.446,1 1,1 h 2.2929688 c 0.1380803,0.46663 0.3180575,0.91408 0.5449218,1.33398 l -1.6152344,1.61524 c -0.3917369,0.39173 -0.3917369,1.02232 0,1.41406 l 1.4140626,1.41406 c 0.3917372,0.39174 1.0223242,0.39174 1.4140622,0 l 1.615235,-1.61523 c 0.419909,0.22686 0.867354,0.40684 1.333984,0.54492 v 2.29297 c 0,0.554 0.446001,1 1,1 h 2 c 0.553999,0 1,-0.446 1,-1 v -2.29297 c 0.46663,-0.13808 0.914075,-0.31806 1.333984,-0.54492 l 1.615235,1.61523 c 0.391737,0.39174 1.022326,0.39174 1.414062,0 l 1.414063,-1.41406 c 0.391736,-0.39174 0.391736,-1.02233 0,-1.41406 l -1.615235,-1.61524 c 0.226865,-0.4199 0.406842,-0.86735 0.544922,-1.33398 H 25 c 0.554,0 1,-0.446 1,-1 v -2 c 0,-0.554 -0.446,-1 -1,-1 h -2.292969 c -0.13808,-0.46663 -0.318057,-0.91408 -0.544922,-1.33398 l 1.615235,-1.61524 c 0.391737,-0.39173 0.391737,-1.02232 0,-1.41406 l -1.414063,-1.41406 c -0.391737,-0.39174 -1.022324,-0.39174 -1.414062,0 l -1.615235,1.61523 C 18.914075,292.76102 18.46663,292.58104 18,292.44296 v -2.29297 c 0,-0.554 -0.446001,-1 -1,-1 z m 1,6 c 2.216,0 4,1.784 4,4 0,2.216 -1.784,4 -4,4 -2.216,0 -4,-1.784 -4,-4 0,-2.216 1.784,-4 4,-4 z" opacity=".97"/><path id="rect945-1" fill="url(#linearGradient986)" fill-opacity="1" stroke="none" stroke-dasharray="none" stroke-dashoffset="0" stroke-linecap="round" stroke-linejoin="round" stroke-miterlimit="4" stroke-opacity="1" stroke-width="2" d="m 15,288.14999 c -0.553999,0 -1,0.446 -1,1 v 2.29297 c -0.46663,0.13808 -0.914075,0.31806 -1.333984,0.54492 l -1.615235,-1.61523 c -0.391737,-0.39174 -1.022326,-0.39174 -1.414062,0 l -1.414063,1.41406 c -0.391736,0.39174 -0.3917361,1.02233 0,1.41406 l 1.615235,1.61524 c -0.226865,0.4199 -0.406842,0.86735 -0.544922,1.33398 H 7 c -0.554,0 -1,0.446 -1,1 v 2 c 0,0.554 0.446,1 1,1 h 2.292969 c 0.13808,0.46663 0.318057,0.91408 0.544922,1.33398 l -1.615235,1.61524 c -0.3917367,0.39173 -0.3917367,1.02232 0,1.41406 l 1.414063,1.41406 c 0.391737,0.39174 1.022324,0.39174 1.414062,0 l 1.615235,-1.61523 c 0.419909,0.22686 0.867354,0.40684 1.333984,0.54492 v 2.29297 c 0,0.554 0.446001,1 1,1 h 2 c 0.553999,0 1,-0.446 1,-1 v -2.29297 c 0.46663,-0.13808 0.914075,-0.31806 1.333984,-0.54492 l 1.615235,1.61523 c 0.391737,0.39174 1.022326,0.39174 1.414062,0 l 1.414063,-1.41406 c 0.391736,-0.39174 0.391736,-1.02233 0,-1.41406 l -1.615235,-1.61524 c 0.226865,-0.4199 0.406842,-0.86735 0.544922,-1.33398 H 25 c 0.554,0 1,-0.446 1,-1 v -2 c 0,-0.554 -0.446,-1 -1,-1 h -2.292969 c -0.13808,-0.46663 -0.318057,-0.91408 -0.544922,-1.33398 l 1.615235,-1.61524 c 0.391737,-0.39173 0.391737,-1.02232 0,-1.41406 l -1.414063,-1.41406 c -0.391737,-0.39174 -1.022324,-0.39174 -1.414062,0 l -1.615235,1.61523 C 18.914075,291.76102 18.46663,291.58104 18,291.44296 v -2.29297 c 0,-0.554 -0.446001,-1 -1,-1 z m 1,6 c 2.216,0 4,1.784 4,4 0,2.216 -1.784,4 -4,4 -2.216,0 -4,-1.784 -4,-4 0,-2.216 1.784,-4 4,-4 z" opacity=".97"/></g></g></g></svg>