<svg xmlns="http://www.w3.org/2000/svg" xmlns:svg="http://www.w3.org/2000/svg" xmlns:xlink="http://www.w3.org/1999/xlink" id="svg8" width="32" height="32" version="1.1" viewBox="0 0 32 32"><title id="title7895">Antu icon Theme</title><defs id="defs2"><linearGradient id="linearGradient4759" x1="4.233" x2="4.233" y1="7.673" y2="2.381" gradientTransform="matrix(3.7795275,0,0,3.7795275,-26,287.64994)" gradientUnits="userSpaceOnUse" xlink:href="#linearGradient4846"/><linearGradient id="linearGradient2128" x1="-3" x2="-3" y1="293.65" y2="288.65" gradientTransform="translate(-15,2)" gradientUnits="userSpaceOnUse" xlink:href="#linearGradient2126"/><linearGradient id="linearGradient2126"><stop id="stop2122" offset="0" stop-color="#475057" stop-opacity="1"/><stop id="stop2124" offset="1" stop-color="#5e6a73" stop-opacity="1"/></linearGradient><linearGradient id="linearGradient4536" x1="-3.653" x2="-3.653" y1="299.836" y2="296.661" gradientTransform="matrix(4.4094489,0,0,4.4094489,32.10977,-1013.4594)" gradientUnits="userSpaceOnUse" xlink:href="#linearGradient2126"/><linearGradient id="linearGradient1151" x1="23" x2="23" y1="293.65" y2="290.65" gradientTransform="translate(-6.9999995,10.000005)" gradientUnits="userSpaceOnUse" xlink:href="#linearGradient4656"/><linearGradient id="linearGradient4656"><stop id="stop4652" offset="0" stop-color="#e4e4e4" stop-opacity="1"/><stop id="stop4654" offset="1" stop-color="#fbfbfb" stop-opacity="1"/></linearGradient><linearGradient id="linearGradient4846"><stop id="stop4842" offset="0" stop-color="#e4efef" stop-opacity="1"/><stop id="stop4844" offset="1" stop-color="#fcfcfc" stop-opacity="1"/></linearGradient></defs><metadata id="metadata5"/><g id="layer1" transform="translate(0,-282.64999)"><g id="g2924" transform="translate(26,-5)"><path id="path12329" fill="#90a4ae" fill-opacity="1" stroke-width="1" d="m -25,289.64999 c -0.55401,0 -1,0.446 -1,1 v 26 c 0,0.554 0.44599,1 1,1 H 5 c 0.55401,0 1,-0.446 1,-1 v -26 c 0,-0.554 -0.44599,-1 -1,-1 h -14 -3 z"/><path id="path13-5-2-9-4-2-6-6" fill="url(#linearGradient4759)" fill-opacity="1" stroke-width="1" d="m -25,296.64999 v 20 H 5 v -20 z"/><path id="rect1191" fill="#343b40" fill-opacity="1" stroke="none" stroke-dasharray="none" stroke-linecap="round" stroke-linejoin="round" stroke-miterlimit="4" stroke-opacity="1" stroke-width=".808" d="m -25,289.64999 c -0.554,0 -1,0.446 -1,1 v 5 1 h 1 30 1 v -1 -5 c 0,-0.554 -0.446,-1 -1,-1 z" opacity="1" paint-order="stroke markers fill"/><path id="rect4537-2" fill="url(#linearGradient2128)" fill-opacity="1" stroke="none" stroke-dasharray="none" stroke-linecap="round" stroke-linejoin="round" stroke-miterlimit="4" stroke-opacity="1" stroke-width=".4" d="m -25,290.64999 v 5 H 5 v -5 z"/></g><path id="rect4496-3" fill="#343b40" fill-opacity="1" stroke="none" stroke-dasharray="none" stroke-linecap="round" stroke-linejoin="round" stroke-miterlimit="4" stroke-opacity="1" stroke-width=".784" d="m 16,293.65001 c 4.432,0 7.999999,3.56791 7.999999,7.99994 0,4.43198 -3.567999,8.00001 -7.999999,8.00001 -4.432,0 -7.9999995,-3.56803 -7.9999995,-8.00001 0,-4.43203 3.5680005,-7.99994 7.9999995,-7.99994 z"/><path id="rect4570-9-6-5" fill="url(#linearGradient4536)" fill-opacity="1" stroke="none" stroke-dasharray="none" stroke-linecap="round" stroke-linejoin="round" stroke-miterlimit="4" stroke-opacity="1" stroke-width=".701" d="m 16,294.64996 c 3.878,0 7,3.12201 7,7.00003 0,3.87804 -3.122,7.00002 -7,7.00002 -3.878001,0 -7,-3.122 -7,-7.00002 0,-3.87802 3.121999,-7.00003 7,-7.00003 z"/><path id="path4614-7-4-7" fill="#343b40" fill-opacity="1" stroke="none" stroke-linecap="butt" stroke-linejoin="miter" stroke-opacity="1" stroke-width=".5" d="m 14.999999,307.64999 4.000005,-5 -2.000004,-1 v -4 l -4.000005,5 2.000005,1 z"/><path id="path4614-7-4" fill="url(#linearGradient1151)" fill-opacity="1" stroke="none" stroke-linecap="butt" stroke-linejoin="miter" stroke-opacity="1" stroke-width=".5" d="m 14.999999,306.64999 4.000005,-5 -2.000004,-1 v -4 l -4.000005,5 2.000005,1 z"/></g></svg>