<svg xmlns="http://www.w3.org/2000/svg" xmlns:svg="http://www.w3.org/2000/svg" xmlns:xlink="http://www.w3.org/1999/xlink" id="svg8" width="32" height="32" version="1.1" viewBox="0 0 32 32"><title id="title7895">Antu icon Theme</title><defs id="defs2"><linearGradient id="linearGradient961" x1="-10" x2="-10" y1="315.65" y2="299.65" gradientTransform="translate(0,2)" gradientUnits="userSpaceOnUse" xlink:href="#linearGradient1116"/><linearGradient id="linearGradient1116"><stop id="stop1111" offset="0" stop-color="#dadada" stop-opacity="1"/><stop id="stop1113" offset="1" stop-color="#fcfcfc" stop-opacity="1"/></linearGradient><linearGradient id="linearGradient1037" x1="-2" x2="-2" y1="304.65" y2="297.65" gradientTransform="translate(-8)" gradientUnits="userSpaceOnUse" xlink:href="#linearGradient4582-3"/><linearGradient id="linearGradient4582-3"><stop id="stop4578-5" offset="0" stop-color="#c8c8c8" stop-opacity="1"/><stop id="stop4580-6" offset="1" stop-color="#f2f2f2" stop-opacity="1"/></linearGradient><linearGradient id="linearGradient1115" x1="-10" x2="-10" y1="306.65" y2="301.65" gradientTransform="matrix(0.66666667,0,0,0.66666667,5.666667,95.21667)" gradientUnits="userSpaceOnUse" xlink:href="#linearGradient4619"/><linearGradient id="linearGradient4619"><stop id="stop4615" offset="0" stop-color="#67d924" stop-opacity="1"/><stop id="stop4617" offset="1" stop-color="#a3eb1e" stop-opacity="1"/></linearGradient><linearGradient id="linearGradient1123" x1="-1" x2="-1" y1="306.65" y2="301.65" gradientTransform="matrix(0.66666667,0,0,0.66666667,-9.333333,95.21667)" gradientUnits="userSpaceOnUse" xlink:href="#linearGradient4627"/><linearGradient id="linearGradient4627"><stop id="stop4623" offset="0" stop-color="#ffc900" stop-opacity="1"/><stop id="stop4625" offset="1" stop-color="#ffe200" stop-opacity="1"/></linearGradient><linearGradient id="linearGradient1107" x1="-20" x2="-20" y1="306.65" y2="301.65" gradientTransform="matrix(0.66666667,0,0,0.66666667,-6.333331,95.21667)" gradientUnits="userSpaceOnUse" xlink:href="#linearGradient4774"/><linearGradient id="linearGradient4774"><stop id="stop4770" offset="0" stop-color="#f41e3d" stop-opacity="1"/><stop id="stop4772" offset="1" stop-color="#fc3a56" stop-opacity="1"/></linearGradient></defs><metadata id="metadata5"/><g id="layer1" transform="translate(0,-282.64999)"><g id="g1796" transform="translate(26,-7)"><path id="rect941" fill="#90a4ae" fill-opacity="1" stroke="none" stroke-dasharray="none" stroke-linecap="round" stroke-linejoin="round" stroke-miterlimit="4" stroke-opacity="1" stroke-width=".808" d="M -24.000004,291.64999 H 4.000004 c 1.107998,0 1.999996,0.892 1.999996,2 V 317.65 c 0,1.108 -0.891998,1.99999 -1.999996,1.99999 H -24.000004 C -25.108002,319.64999 -26,318.758 -26,317.65 v -24.00001 c 0,-1.108 0.891998,-2 1.999996,-2 z" opacity="1" paint-order="stroke markers fill"/><path id="rect943" fill="url(#linearGradient961)" fill-opacity="1" stroke="none" stroke-dasharray="none" stroke-linecap="round" stroke-linejoin="round" stroke-miterlimit="4" stroke-opacity="1" stroke-width=".808" d="M -24,292.64999 H 4 c 0.554,0 1,0.446 1,1 v 24 c 0,0.554 -0.446,1 -1,1 h -28 c -0.554,0 -1,-0.446 -1,-1 v -24 c 0,-0.554 0.446,-1 1,-1 z" opacity="1" paint-order="stroke markers fill"/><path id="rect866" fill="gray" fill-opacity="1" stroke="none" stroke-dasharray="none" stroke-linecap="round" stroke-linejoin="round" stroke-miterlimit="4" stroke-opacity="1" stroke-width=".808" d="m -24,291.64999 c -1.107998,0 -2,0.892 -2,2 v 7 1 2 h 2 28 2 v -2 -1 -7 c 0,-1.108 -0.892002,-2 -2,-2 z" opacity="1" paint-order="stroke markers fill"/><path id="rect868" fill="url(#linearGradient1037)" fill-opacity="1" stroke="none" stroke-dasharray="none" stroke-linecap="round" stroke-linejoin="round" stroke-miterlimit="4" stroke-opacity="1" stroke-width=".808" d="m -24,292.64999 c -0.553998,0 -1,0.446 -1,1 v 7 1 1 h 1 28 1 v -1 -1 -7 c 0,-0.554 -0.446002,-1 -1,-1 z" opacity="1" paint-order="stroke markers fill"/><path id="rect836-7" fill="#ff9a0a" fill-opacity="1" stroke="none" stroke-dasharray="none" stroke-linecap="round" stroke-linejoin="round" stroke-miterlimit="4" stroke-opacity="1" stroke-width=".539" d="m -10.000001,294.64999 h 2e-6 c 1.662,0 2.999999,1.338 2.999999,3 0,1.662 -1.337999,3 -2.999999,3 h -2e-6 c -1.662,0 -2.999999,-1.338 -2.999999,-3 0,-1.662 1.337999,-3 2.999999,-3 z" opacity="1" paint-order="stroke markers fill"/><path id="rect880-5" fill="url(#linearGradient1123)" fill-opacity="1" stroke="none" stroke-dasharray="none" stroke-linecap="round" stroke-linejoin="round" stroke-miterlimit="4" stroke-opacity="1" stroke-width=".539" d="m -10,295.64999 c 1.108,0 2,0.892 2,2 0,1.108 -0.892,2 -2,2 -1.108,0 -2,-0.892 -2,-2 0,-1.108 0.892,-2 2,-2 z" opacity="1" paint-order="stroke markers fill"/><path id="rect836" fill="#56b21d" fill-opacity="1" stroke="none" stroke-dasharray="none" stroke-linecap="round" stroke-linejoin="round" stroke-miterlimit="4" stroke-opacity="1" stroke-width=".539" d="m -1.000002,294.64999 h 3e-6 c 1.662,0 2.999999,1.338 2.999999,3 0,1.662 -1.337999,3 -2.999999,3 h -3e-6 c -1.661999,0 -2.999998,-1.338 -2.999998,-3 0,-1.662 1.337999,-3 2.999998,-3 z" opacity="1" paint-order="stroke markers fill"/><path id="rect836-5" fill="#be011e" fill-opacity="1" stroke="none" stroke-dasharray="none" stroke-linecap="round" stroke-linejoin="round" stroke-miterlimit="4" stroke-opacity="1" stroke-width=".539" d="m -19,294.64999 h 3e-6 c 1.662,0 2.999999,1.338 2.999999,3 0,1.662 -1.337999,3 -2.999999,3 H -19 c -1.661999,0 -2.999998,-1.338 -2.999998,-3 0,-1.662 1.337999,-3 2.999998,-3 z" opacity="1" paint-order="stroke markers fill"/><path id="rect880" fill="url(#linearGradient1107)" fill-opacity="1" stroke="none" stroke-dasharray="none" stroke-linecap="round" stroke-linejoin="round" stroke-miterlimit="4" stroke-opacity="1" stroke-width=".539" d="m -18.999998,295.64999 c 1.108,0 2,0.892 2,2 0,1.108 -0.892,2 -2,2 -1.108,0 -2,-0.892 -2,-2 0,-1.108 0.892,-2 2,-2 z" opacity="1" paint-order="stroke markers fill"/><path id="rect880-3" fill="url(#linearGradient1115)" fill-opacity="1" stroke="none" stroke-dasharray="none" stroke-linecap="round" stroke-linejoin="round" stroke-miterlimit="4" stroke-opacity="1" stroke-width=".539" d="m -1,295.64999 c 1.108,0 2,0.892 2,2 0,1.108 -0.892,2 -2,2 -1.108,0 -2,-0.892 -2,-2 0,-1.108 0.892,-2 2,-2 z" opacity="1" paint-order="stroke markers fill"/></g></g></svg>