<svg xmlns="http://www.w3.org/2000/svg" xmlns:svg="http://www.w3.org/2000/svg" xmlns:xlink="http://www.w3.org/1999/xlink" id="svg8" width="32" height="32" version="1.1" viewBox="0 0 32 32"><title id="title7895">Antu icon Theme</title><defs id="defs2"><linearGradient id="linearGradient4599" x1="22" x2="22" y1="26" y2="19" gradientTransform="translate(-33.000001,282.15)" gradientUnits="userSpaceOnUse" xlink:href="#linearGradient4582"/><linearGradient id="linearGradient4582"><stop id="stop4578" offset="0" stop-color="#e3e3e3" stop-opacity="1"/><stop id="stop4580" offset="1" stop-color="#fcfcfc" stop-opacity="1"/></linearGradient><linearGradient id="linearGradient4577" x1="15" x2="15" y1="14" y2="5" gradientTransform="translate(-31.000001,295.14999)" gradientUnits="userSpaceOnUse" xlink:href="#linearGradient4575"/><linearGradient id="linearGradient4575"><stop id="stop4571" offset="0" stop-color="#228de8" stop-opacity="1"/><stop id="stop4573" offset="1" stop-color="#2eb6fd" stop-opacity="1"/></linearGradient><linearGradient id="linearGradient2237" x1="8.448" x2="8.448" y1="295.601" y2="288.987" gradientTransform="matrix(3.7795275,0,0,3.7795275,-46.928569,-798.58391)" gradientUnits="userSpaceOnUse" xlink:href="#linearGradient4582"/></defs><metadata id="metadata5"/><g id="layer1" transform="translate(0,-282.64999)"><g id="g3569" transform="translate(31,-6)"><path id="rect843" fill="#7f9099" fill-opacity="1" stroke="none" stroke-dasharray="none" stroke-linecap="round" stroke-linejoin="round" stroke-miterlimit="4" stroke-opacity="1" stroke-width="2.393" d="m -28,289.64999 h 25.9999992 c 1.108001,0 2.000001,0.89201 2.000001,2.00001 v 25.99998 c 0,1.108 -0.892,2.00001 -2.000001,2.00001 H -28 c -1.108,0 -2,-0.89201 -2,-2.00001 V 291.65 c 0,-1.108 0.892,-2.00001 2,-2.00001 z" opacity="1"/><path id="rect843-3" fill="url(#linearGradient2237)" fill-opacity="1" stroke="none" stroke-dasharray="none" stroke-linecap="round" stroke-linejoin="round" stroke-miterlimit="4" stroke-opacity="1" stroke-width="2.234" d="m -28,290.65002 h 25.9999992 c 0.554001,0 1.000001,0.44598 1.000001,0.99998 v 26.00001 c 0,0.55397 -0.446,0.99999 -1.000001,0.99999 H -28 c -0.554,0 -1,-0.44602 -1,-0.99999 V 291.65 c 0,-0.554 0.446,-0.99998 1,-0.99998 z" opacity="1"/><path id="rect4527" fill="#1a6cb2" fill-opacity="1" stroke="none" stroke-dasharray="none" stroke-linecap="round" stroke-linejoin="round" stroke-miterlimit="4" stroke-opacity="1" stroke-width=".4" d="m -19.000001,298.64997 h 8 c 3.3240002,0 6.0000002,2.67602 6.0000002,6 0,3.32402 -2.676,6 -6.0000002,6 h -8 c -3.323999,0 -5.999999,-2.67598 -5.999999,-6 0,-3.32398 2.676,-6 5.999999,-6 z"/><path id="rect4554" fill="url(#linearGradient4577)" fill-opacity="1" stroke="none" stroke-dasharray="none" stroke-linecap="round" stroke-linejoin="round" stroke-miterlimit="4" stroke-opacity="1" stroke-width=".4" d="m -19.000001,299.64996 h 8 c 2.7700002,0 5.0000002,2.23 5.0000002,5.00001 0,2.77002 -2.23,5.00001 -5.0000002,5.00001 h -8 c -2.77,0 -5,-2.22999 -5,-5.00001 0,-2.77001 2.23,-5.00001 5,-5.00001 z"/><path id="rect4529" fill="#1a6cb2" fill-opacity="1" stroke="none" stroke-dasharray="none" stroke-linecap="round" stroke-linejoin="round" stroke-miterlimit="4" stroke-opacity="1" stroke-width=".4" d="m -11.000001,300.64998 c 2.2160002,0 4.0000002,1.78398 4.0000002,3.99999 0,2.21601 -1.784,3.99999 -4.0000002,3.99999 -2.216,0 -4,-1.78398 -4,-3.99999 0,-2.21601 1.784,-3.99999 4,-3.99999 z"/><path id="rect4591" fill="url(#linearGradient4599)" fill-opacity="1" stroke="none" stroke-dasharray="none" stroke-linecap="round" stroke-linejoin="round" stroke-miterlimit="4" stroke-opacity="1" stroke-width=".4" d="m -11.000001,301.64997 c 1.6620002,0 3.0000002,1.33799 3.0000002,3 0,1.66201 -1.338,3 -3.0000002,3 -1.662,0 -3,-1.33799 -3,-3 0,-1.66201 1.338,-3 3,-3 z"/></g></g></svg>