<svg xmlns="http://www.w3.org/2000/svg" xmlns:svg="http://www.w3.org/2000/svg" xmlns:xlink="http://www.w3.org/1999/xlink" id="svg8" width="32" height="32" version="1.1" viewBox="0 0 32 32"><title id="title7895">Antu icon Theme</title><defs id="defs2"><linearGradient id="linearGradient2237" x1="8.448" x2="8.448" y1="295.601" y2="288.987" gradientTransform="matrix(2.6996625,0,0,2.6996625,-23.806121,-491.37423)" gradientUnits="userSpaceOnUse" xlink:href="#linearGradient4582-5"/><linearGradient id="linearGradient4582-5"><stop id="stop4578-3" offset="0" stop-color="#5b637b" stop-opacity="1"/><stop id="stop4580-5" offset="1" stop-color="#727b97" stop-opacity="1"/></linearGradient><linearGradient id="linearGradient888" x1="23" x2="23" y1="302.65" y2="292.65" gradientTransform="translate(-13,-6)" gradientUnits="userSpaceOnUse" xlink:href="#linearGradient4582"/><linearGradient id="linearGradient4582"><stop id="stop4578" offset="0" stop-color="#cee3e3" stop-opacity="1"/><stop id="stop4580" offset="1" stop-color="#fcfcfc" stop-opacity="1"/></linearGradient><linearGradient id="linearGradient896" x1="23" x2="23" y1="291.65" y2="288.65" gradientTransform="translate(-13,-6)" gradientUnits="userSpaceOnUse" xlink:href="#linearGradient902"/><linearGradient id="linearGradient902"><stop id="stop898" offset="0" stop-color="#363c4d" stop-opacity="1"/><stop id="stop900" offset="1" stop-color="#5c647c" stop-opacity="1"/></linearGradient></defs><metadata id="metadata5"/><g id="layer1" transform="translate(0,-282.64999)"><g id="g1549" transform="translate(13,6.000015)"><path id="rect843-0" fill="#363c4d" fill-opacity="1" stroke="none" stroke-dasharray="none" stroke-linecap="round" stroke-linejoin="round" stroke-miterlimit="4" stroke-opacity="1" stroke-width="1.755" d="M -10.533333,285.64996 H 8.533332 C 9.345867,285.64996 10,286.3041 10,287.11663 v 19.06666 c 0,0.81253 -0.654133,1.46667 -1.466668,1.46667 H -10.533333 C -11.345867,307.64996 -12,306.99581 -12,306.18328 v -19.06665 c 0,-0.81253 0.654133,-1.46667 1.466667,-1.46667 z" opacity="1"/><path id="rect843-3-9" fill="url(#linearGradient2237)" fill-opacity="1" stroke="none" stroke-dasharray="none" stroke-linecap="round" stroke-linejoin="round" stroke-miterlimit="4" stroke-opacity="1" stroke-width="1.595" d="M -10.285714,286.64998 H 8.285714 C 8.681428,286.64998 9,286.96853 9,287.36424 v 18.57144 c 0,0.3957 -0.318572,0.71428 -0.714286,0.71428 H -10.285714 C -10.681428,306.64996 -11,306.33138 -11,305.93568 v -18.57144 c 0,-0.39571 0.318572,-0.71426 0.714286,-0.71426 z" opacity="1"/><path id="rect847" fill="#474f66" fill-opacity="1" stroke="none" stroke-dasharray="none" stroke-linecap="round" stroke-linejoin="round" stroke-miterlimit="4" stroke-opacity="1" stroke-width=".808" d="m -5.5,290.64999 c -1.385,0 -2.5,1.115 -2.5,2.5 0,1.385 1.115,2.5 2.5,2.5 H -4 v 3 h -1.5 c -1.385,0 -2.5,1.115 -2.5,2.5 0,1.38499 1.115,2.5 2.5,2.5 1.385,0 2.5,-1.11501 2.5,-2.5 v -1.5 h 3 v 1.5 c 0,1.38499 1.115,2.5 2.5,2.5 1.385,0 2.5,-1.11501 2.5,-2.5 0,-1.385 -1.115,-2.5 -2.5,-2.5 H 1 v -3 h 1.5 c 1.385,0 2.5,-1.11501 2.5,-2.5 0,-1.385 -1.115,-2.5 -2.5,-2.5 -1.385,0 -2.5,1.115 -2.5,2.5 v 1.5 h -3 v -1.5 c 0,-1.385 -1.115,-2.5 -2.5,-2.5 z m 0,1 c 0.831,0 1.5,0.66901 1.5,1.5 v 1.5 h -1.5 c -0.831,0 -1.5,-0.669 -1.5,-1.5 0,-0.83099 0.669,-1.5 1.5,-1.5 z m 8,0 c 0.831,0 1.5,0.66899 1.5,1.5 0,0.831 -0.669,1.5 -1.5,1.5 H 1 v -1.5 c 0,-0.83101 0.669,-1.5 1.5,-1.5 z m -5.5,4 h 3 v 3 h -3 z m -2.5,4 H -4 v 1.5 c 0,0.831 -0.669,1.5 -1.5,1.5 -0.831,0 -1.5,-0.669 -1.5,-1.5 0,-0.83101 0.669,-1.5 1.5,-1.5 z m 6.5,0 h 1.5 c 0.831,0 1.5,0.66899 1.5,1.5 0,0.831 -0.669,1.5 -1.5,1.5 -0.831,0 -1.5,-0.669 -1.5,-1.5 z" opacity="1" paint-order="stroke markers fill"/><path id="rect847-5" fill="#f4ffff" fill-opacity="1" stroke="none" stroke-dasharray="none" stroke-linecap="round" stroke-linejoin="round" stroke-miterlimit="4" stroke-opacity="1" stroke-width=".808" d="m -5.5,289.64999 c -1.385,0 -2.5,1.115 -2.5,2.5 0,1.38499 1.115,2.5 2.5,2.5 H -4 v 3 h -1.5 c -1.385,0 -2.5,1.115 -2.5,2.5 0,1.38499 1.115,2.5 2.5,2.5 1.385,0 2.5,-1.11501 2.5,-2.5 v -1.5 h 3 v 1.5 c 0,1.38499 1.115,2.5 2.5,2.5 1.385,0 2.5,-1.11501 2.5,-2.5 0,-1.385 -1.115,-2.5 -2.5,-2.5 H 1 v -3 h 1.5 c 1.385,0 2.5,-1.11501 2.5,-2.5 0,-1.385 -1.115,-2.5 -2.5,-2.5 -1.385,0 -2.5,1.115 -2.5,2.5 v 1.5 h -3 v -1.5 c 0,-1.385 -1.115,-2.5 -2.5,-2.5 z m 0,1 c 0.831,0 1.5,0.66899 1.5,1.5 v 1.5 h -1.5 c -0.831,0 -1.5,-0.669 -1.5,-1.5 0,-0.83101 0.669,-1.5 1.5,-1.5 z m 8,0 c 0.831,0 1.5,0.66899 1.5,1.5 0,0.831 -0.669,1.5 -1.5,1.5 H 1 v -1.5 c 0,-0.83101 0.669,-1.5 1.5,-1.5 z m -5.5,4 h 3 v 3 h -3 z m -2.5,4 H -4 v 1.5 c 0,0.831 -0.669,1.5 -1.5,1.5 -0.831,0 -1.5,-0.669 -1.5,-1.5 0,-0.83101 0.669,-1.5 1.5,-1.5 z m 6.5,0 h 1.5 c 0.831,0 1.5,0.66899 1.5,1.5 0,0.831 -0.669,1.5 -1.5,1.5 -0.831,0 -1.5,-0.669 -1.5,-1.5 z" opacity="1" paint-order="stroke markers fill"/><path id="rect835" fill="#90a4ae" fill-opacity="1" stroke="none" stroke-dasharray="none" stroke-linecap="round" stroke-linejoin="round" stroke-miterlimit="4" stroke-opacity="1" stroke-width=".808" d="m 10,277.64999 c 4.432,0 8,3.568 8,8 v 7 c 0,4.432 -3.568,8 -8,8 -4.432,0 -8,-3.568 -8,-8 v -7 c 0,-4.432 3.568,-8 8,-8 z" opacity="1" paint-order="stroke markers fill"/><path id="rect837" fill="url(#linearGradient888)" fill-opacity="1" stroke="none" stroke-dasharray="none" stroke-linecap="round" stroke-linejoin="round" stroke-miterlimit="4" stroke-opacity="1" stroke-width=".808" d="m 10,278.64999 c 3.878,0 7,3.122 7,7 v 7 c 0,3.878 -3.122,7 -7,7 -3.878,0 -7,-3.122 -7,-7 v -7 c 0,-3.878 3.122,-7 7,-7 z" opacity="1" paint-order="stroke markers fill"/><path id="rect843" fill="url(#linearGradient896)" fill-opacity="1" stroke="none" stroke-dasharray="none" stroke-linecap="round" stroke-linejoin="round" stroke-miterlimit="4" stroke-opacity="1" stroke-width=".808" d="m 10,281.64999 c 1.108,0 2,0.892 2,2 0,1.108 -0.892,2 -2,2 -1.108,0 -2,-0.892 -2,-2 0,-1.108 0.892,-2 2,-2 z" opacity="1" paint-order="stroke markers fill"/></g></g></svg>