<svg xmlns="http://www.w3.org/2000/svg" xmlns:svg="http://www.w3.org/2000/svg" xmlns:xlink="http://www.w3.org/1999/xlink" id="svg8" width="32" height="32" version="1.1" viewBox="0 0 32 32"><title id="title7895">Antu icon Theme</title><defs id="defs2"><linearGradient id="linearGradient1554" x1="9" x2="9" y1="15" y2="2" gradientUnits="userSpaceOnUse" xlink:href="#linearGradient1552"/><linearGradient id="linearGradient1552"><stop id="stop1548" offset="0" stop-color="#578e24" stop-opacity="1"/><stop id="stop1550" offset="1" stop-color="#6eb22e" stop-opacity="1"/></linearGradient><linearGradient id="linearGradient1564" x1="7" x2="7" y1="330.65" y2="317.65" gradientUnits="userSpaceOnUse" xlink:href="#linearGradient1570"/><linearGradient id="linearGradient1570"><stop id="stop1566" offset="0" stop-color="#bd332e" stop-opacity="1"/><stop id="stop1568" offset="1" stop-color="#e5403a" stop-opacity="1"/></linearGradient></defs><metadata id="metadata5"/><g id="layer1" transform="translate(0,-282.64999)"><g id="g1619" transform="translate(-13.312501,0.6875)"><path id="rect1356" fill="#1f5a08" fill-opacity="1" stroke="none" stroke-dasharray="none" stroke-dashoffset="0" stroke-linecap="round" stroke-linejoin="round" stroke-miterlimit="4" stroke-opacity="1" stroke-width="2" d="M 3,1 C 1.892,1 1,1.892 1,3 v 7 4 2 h 2 26 2 V 14 10 3 C 31,1.892 30.108,1 29,1 Z" opacity=".97" transform="translate(13.312501,281.96249)"/><path id="rect1356-5" fill="#992823" fill-opacity="1" stroke="none" stroke-dasharray="none" stroke-dashoffset="0" stroke-linecap="round" stroke-linejoin="round" stroke-miterlimit="4" stroke-opacity="1" stroke-width="2" d="m -5.9999985,331.64999 c -1.108,0 -2.000001,-0.892 -2.000001,-2 v -7 -4 -2 h 2 H 20 22 v 2 4 7 c 0,1.108 -0.891999,2 -2,2 z" opacity=".97" transform="translate(22.3125,-18.6875)"/><path id="rect1376" fill="url(#linearGradient1554)" fill-opacity="1" stroke="none" stroke-dasharray="none" stroke-dashoffset="0" stroke-linecap="round" stroke-linejoin="round" stroke-miterlimit="4" stroke-opacity="1" stroke-width="2" d="M 3,2 C 2.4459999,2 2,2.4459999 2,3 v 8 3 1 h 1 26 1 V 14 11 3 C 30,2.4459999 29.554,2 29,2 Z" opacity=".97" transform="translate(13.312501,281.96249)"/><path id="rect1376-0" fill="url(#linearGradient1564)" fill-opacity="1" stroke="none" stroke-dasharray="none" stroke-dashoffset="0" stroke-linecap="round" stroke-linejoin="round" stroke-miterlimit="4" stroke-opacity="1" stroke-width="2" d="m -5.9999995,330.64999 c -0.5540001,0 -1,-0.446 -1,-1 v -8 -3 -1 h 1 H 20 21 v 1 3 8 c 0,0.554 -0.446,1 -1,1 z" opacity=".97" transform="translate(22.3125,-18.6875)"/><path id="path1396" fill="#1e5807" fill-opacity="1" stroke="none" stroke-dasharray="none" stroke-dashoffset="0" stroke-linecap="round" stroke-linejoin="round" stroke-miterlimit="4" stroke-opacity="1" stroke-width="2.163" d="m -2.9999995,315.64999 a 10,10 0 0 1 10.0000002,-10 10,10 0 0 1 9.9999993,10 H 7.0000005 Z" opacity=".97" transform="translate(22.3125,-18.6875)"/><path id="path1396-3" fill="#cdfaad" fill-opacity="1" stroke="none" stroke-dasharray="none" stroke-dashoffset="0" stroke-linecap="round" stroke-linejoin="round" stroke-miterlimit="4" stroke-opacity="1" stroke-width="1.73" d="m -0.99999952,315.64999 a 8,8 0 0 1 8.00000022,-8 8,8 0 0 1 7.9999993,8 H 7.0000005 Z" opacity=".97" transform="translate(22.3125,-18.6875)"/><path id="path1396-3-6" fill="#1e5a07" fill-opacity="1" stroke="none" stroke-dasharray="none" stroke-dashoffset="0" stroke-linecap="round" stroke-linejoin="round" stroke-miterlimit="4" stroke-opacity="1" stroke-width="1.081" d="m 11,10 v 2 h 1.007812 A 5,5 0 0 0 11,15 h 2 a 3,3 0 0 1 3,-3 3,3 0 0 1 3,3 h 2 A 5,5 0 0 0 19.992188,12 H 21 v -2 h -5 z" opacity="1" transform="translate(13.312501,281.96249)"/><path id="path1396-0" fill="#fd9500" fill-opacity="1" stroke="none" stroke-dasharray="none" stroke-dashoffset="0" stroke-linecap="round" stroke-linejoin="round" stroke-miterlimit="4" stroke-opacity="1" stroke-width="2.163" d="m -2.9999995,330.64999 a 10,10 0 0 1 10.0000002,-10 10,10 0 0 1 9.9999993,10 H 7.0000005 Z" opacity=".97" transform="translate(22.3125,-18.6875)"/><path id="path1396-3-63" fill="#fdfcfc" fill-opacity="1" stroke="none" stroke-dasharray="none" stroke-dashoffset="0" stroke-linecap="round" stroke-linejoin="round" stroke-miterlimit="4" stroke-opacity="1" stroke-width="1.73" d="m -0.99999952,330.64999 a 8,8 0 0 1 8.00000022,-8 8,8 0 0 1 7.9999993,8 H 7.0000005 Z" opacity=".97" transform="translate(22.3125,-18.6875)"/><path id="path4614-7" fill="#fc9301" fill-opacity="1" stroke="none" stroke-linecap="butt" stroke-linejoin="miter" stroke-opacity="1" stroke-width="1" d="m 18,18 -6,9 h 3 l -0.5,3 h 1.75 L 20,25 h -3 z" transform="translate(13.312501,281.96249)"/></g></g></svg>