<svg xmlns="http://www.w3.org/2000/svg" xmlns:svg="http://www.w3.org/2000/svg" xmlns:xlink="http://www.w3.org/1999/xlink" id="svg8" width="32" height="32" version="1.1" viewBox="0 0 32 32"><title id="title7895">Antu icon Theme</title><defs id="defs2"><linearGradient id="linearGradient4536" x1="-3.653" x2="-3.653" y1="299.836" y2="296.661" gradientTransform="matrix(4.4094489,0,0,4.4094489,20.10977,-1015.4594)" gradientUnits="userSpaceOnUse" xlink:href="#linearGradient4534"/><linearGradient id="linearGradient4534"><stop id="stop4530" offset="0" stop-color="#f23f3f" stop-opacity="1"/><stop id="stop4532" offset="1" stop-color="#ff5151" stop-opacity="1"/></linearGradient><linearGradient id="linearGradient2237" x1="8.448" x2="8.448" y1="295.601" y2="288.987" gradientTransform="matrix(3.5095612,0,0,3.5095612,-33.647957,-716.78147)" gradientUnits="userSpaceOnUse" xlink:href="#linearGradient4582"/><linearGradient id="linearGradient4582"><stop id="stop4578" offset="0" stop-color="#e3e3e3" stop-opacity="1"/><stop id="stop4580" offset="1" stop-color="#fcfcfc" stop-opacity="1"/></linearGradient></defs><metadata id="metadata5"/><g id="layer1" transform="translate(0,-282.64999)"><g id="g1584" transform="translate(19,-8.000015)"><path id="rect843-0" fill="#7f9099" fill-opacity="1" stroke="none" stroke-dasharray="none" stroke-linecap="round" stroke-linejoin="round" stroke-miterlimit="4" stroke-opacity="1" stroke-width="2.234" d="M -16.133333,293.64998 H 8.1333319 c 1.034135,0 1.866668,0.83254 1.866668,1.86667 v 24.26665 c 0,1.03413 -0.832533,1.86668 -1.866668,1.86668 H -16.133333 C -17.167467,321.64998 -18,320.81743 -18,319.7833 v -24.26665 c 0,-1.03413 0.832533,-1.86667 1.866667,-1.86667 z" opacity="1"/><path id="rect843-3-9" fill="url(#linearGradient2237)" fill-opacity="1" stroke="none" stroke-dasharray="none" stroke-linecap="round" stroke-linejoin="round" stroke-miterlimit="4" stroke-opacity="1" stroke-width="2.074" d="M -16.071428,294.65 H 8.0714279 c 0.514429,0 0.928572,0.41412 0.928572,0.92855 v 24.14286 c 0,0.51441 -0.414143,0.92857 -0.928572,0.92857 H -16.071428 C -16.585857,320.64998 -17,320.23582 -17,319.72141 v -24.14286 c 0,-0.51443 0.414143,-0.92855 0.928572,-0.92855 z" opacity="1"/><path id="rect4496-3" fill="#b22c2c" fill-opacity="1" stroke="none" stroke-dasharray="none" stroke-linecap="round" stroke-linejoin="round" stroke-miterlimit="4" stroke-opacity="1" stroke-width=".784" d="m 3.9999999,291.65003 c 4.432,0 7.9999991,3.56791 7.9999991,7.99994 0,4.43198 -3.5679991,8.00001 -7.9999991,8.00001 -4.43199997,0 -8,-3.56803 -8,-8.00001 0,-4.43203 3.56800003,-7.99994 8,-7.99994 z"/><path id="rect4570-9-6-5" fill="url(#linearGradient4536)" fill-opacity="1" stroke="none" stroke-dasharray="none" stroke-linecap="round" stroke-linejoin="round" stroke-miterlimit="4" stroke-opacity="1" stroke-width=".701" d="m 3.9999999,292.64998 c 3.878,0 7.0000001,3.122 7.0000001,7.00002 0,3.87803 -3.1220001,7.00003 -7.0000001,7.00003 -3.87800097,0 -7,-3.122 -7,-7.00003 0,-3.87802 3.12199903,-7.00002 7,-7.00002 z"/><path id="rect899-3" fill="#b22c2c" fill-opacity="1" stroke="none" stroke-dasharray="none" stroke-linecap="round" stroke-linejoin="round" stroke-miterlimit="4" stroke-opacity="1" stroke-width="2" d="m 3.9999999,296.64998 c -0.554,0 -1,0.446 -1,1 v 3 c 0,0.554 0.446,1 1,1 0.554,0 1,-0.446 1,-1 v -3 c 0,-0.554 -0.446,-1 -1,-1 z m 0,6 c -0.554,0 -1,0.446 -1,1 0,0.554 0.446,1 1,1 0.554,0 1,-0.446 1,-1 0,-0.554 -0.446,-1 -1,-1 z" opacity="1"/><path id="rect899" fill="#fcfcfc" fill-opacity="1" stroke="none" stroke-dasharray="none" stroke-linecap="round" stroke-linejoin="round" stroke-miterlimit="4" stroke-opacity="1" stroke-width="2" d="m 3.9999999,295.64998 c -0.554,0 -1,0.446 -1,1 v 3 c 0,0.554 0.446,1 1,1 0.554,0 1,-0.446 1,-1 v -3 c 0,-0.554 -0.446,-1 -1,-1 z m 0,6 c -0.554,0 -1,0.446 -1,1 0,0.554 0.446,1 1,1 0.554,0 1,-0.446 1,-1 0,-0.554 -0.446,-1 -1,-1 z" opacity="1"/></g></g></svg>