<svg xmlns="http://www.w3.org/2000/svg" xmlns:svg="http://www.w3.org/2000/svg" xmlns:xlink="http://www.w3.org/1999/xlink" id="svg8" width="32" height="32" version="1.1" viewBox="0 0 32 32"><title id="title7895">Antu icon Theme</title><defs id="defs2"><linearGradient id="linearGradient1375" x1="143" x2="143" y1="282.65" y2="267.65" gradientTransform="translate(-140,36.999995)" gradientUnits="userSpaceOnUse" xlink:href="#linearGradient4846"/><linearGradient id="linearGradient4846"><stop id="stop4842" offset="0" stop-color="#e4efef" stop-opacity="1"/><stop id="stop4844" offset="1" stop-color="#fcfcfc" stop-opacity="1"/></linearGradient><linearGradient id="linearGradient1321" x1="143" x2="143" y1="282.65" y2="267.65" gradientTransform="translate(-141,35.999995)" gradientUnits="userSpaceOnUse" xlink:href="#linearGradient4506"/><linearGradient id="linearGradient4506"><stop id="stop4502" offset="0" stop-color="#252a34" stop-opacity="1"/><stop id="stop4504" offset="1" stop-color="#353d4b" stop-opacity="1"/></linearGradient><linearGradient id="linearGradient1272" x1="8.448" x2="8.448" y1="295.601" y2="288.987" gradientTransform="matrix(2.6996625,0,0,2.6996625,-29.806121,-486.37421)" gradientUnits="userSpaceOnUse" xlink:href="#linearGradient4846"/><linearGradient id="linearGradient1272-9" x1="8.448" x2="8.448" y1="290.416" y2="288.193" gradientTransform="matrix(2.6996625,0,0,2.6996625,-29.80612,-486.3742)" gradientUnits="userSpaceOnUse" xlink:href="#linearGradient4774"/><linearGradient id="linearGradient4774"><stop id="stop4770" offset="0" stop-color="#f41e3d" stop-opacity="1"/><stop id="stop4772" offset="1" stop-color="#fc3a56" stop-opacity="1"/></linearGradient></defs><metadata id="metadata5"/><g id="layer1" transform="translate(0,-282.64999)"><g id="g2075" transform="translate(19,-7)"><path id="rect843-0-0" fill="#90a4ae" fill-opacity="1" stroke="none" stroke-dasharray="none" stroke-linecap="round" stroke-linejoin="round" stroke-miterlimit="4" stroke-opacity="1" stroke-width="1.755" d="M -16.533333,290.64999 H 2.533332 C 3.345867,290.64999 4,291.30412 4,292.11664 v 19.06667 c 0,0.81252 -0.654133,1.46668 -1.466668,1.46668 H -16.533333 C -17.345867,312.64999 -18,311.99583 -18,311.1833 v -19.06665 c 0,-0.81253 0.654133,-1.46667 1.466667,-1.46666 z" opacity="1"/><path id="rect843-3-9-1-6" fill="url(#linearGradient1272)" fill-opacity="1" stroke="none" stroke-dasharray="none" stroke-linecap="round" stroke-linejoin="round" stroke-miterlimit="4" stroke-opacity="1" stroke-width="1.595" d="M -16.285714,291.64999 H 2.285714 C 2.681428,291.64999 3,291.96853 3,292.36426 v 18.57143 c 0,0.39569 -0.318572,0.71427 -0.714286,0.71427 H -16.285714 C -16.681428,311.64997 -17,311.33139 -17,310.93569 v -18.57143 c 0,-0.39572 0.318572,-0.71427 0.714286,-0.71427 z" opacity="1"/><path id="rect843-0-0-2" fill="#be011e" fill-opacity="1" stroke="none" stroke-dasharray="none" stroke-linecap="round" stroke-linejoin="round" stroke-miterlimit="4" stroke-opacity="1" stroke-width="1.755" d="m -16.5332,290.64998 c -0.81254,-2e-5 -1.4668,0.65427 -1.4668,1.46679 v 3.53321 1.5332 1.4668 H -16.5332 2.5332 4 v -1.4668 -1.5332 -3.53321 c 0,-0.81252 -0.65426,-1.46679 -1.4668,-1.46679 z" opacity="1"/><path id="rect843-3-9-1-6-3" fill="url(#linearGradient1272-9)" fill-opacity="1" stroke="none" stroke-dasharray="none" stroke-linecap="round" stroke-linejoin="round" stroke-miterlimit="4" stroke-opacity="1" stroke-width="1.595" d="m -16.28516,291.64998 c -0.39572,0 -0.71484,0.31912 -0.71484,0.71484 v 2.28516 2.28515 0.71485 H -16.28516 2.28516 3 v -0.71485 -2.28515 -2.28516 c 0,-0.39573 -0.31912,-0.71484 -0.71484,-0.71484 z" opacity="1"/><path id="rect1311" fill="#1f1f26" fill-opacity="1" stroke="none" stroke-dasharray="none" stroke-linecap="round" stroke-linejoin="round" stroke-miterlimit="4" stroke-opacity="1" stroke-width=".808" d="m 2.5,301.64999 c 5.263,0 9.5,4.237 9.5,9.5 0,5.263 -4.237,9.5 -9.5,9.5 -5.263,0 -9.5,-4.237 -9.5,-9.5 0,-5.263 4.237,-9.5 9.5,-9.5 z" opacity="1" paint-order="stroke markers fill"/><path id="rect1313" fill="url(#linearGradient1321)" fill-opacity="1" stroke="none" stroke-dasharray="none" stroke-linecap="round" stroke-linejoin="round" stroke-miterlimit="4" stroke-opacity="1" stroke-width=".808" d="m 2.5,302.64999 c 4.709,0 8.5,3.791 8.5,8.5 0,4.709 -3.791,8.5 -8.5,8.5 -4.709,0 -8.5,-3.791 -8.5,-8.5 0,-4.709 3.791,-8.5 8.5,-8.5 z" opacity="1" paint-order="stroke markers fill"/><path id="rect1313-2" fill="url(#linearGradient1375)" fill-opacity="1" stroke="none" stroke-dasharray="none" stroke-linecap="round" stroke-linejoin="round" stroke-miterlimit="4" stroke-opacity="1" stroke-width=".808" d="m 2.5,303.64999 v 0 c 4.155,0 7.5,3.345 7.5,7.5 0,4.155 -3.345,7.5 -7.5,7.5 v 0 c -4.155,0 -7.5,-3.345 -7.5,-7.5 0,-4.155 3.345,-7.5 7.5,-7.5 z" opacity="1" paint-order="stroke markers fill"/><path id="rect4633-2" fill="#f4203e" fill-opacity="1" stroke="none" stroke-dasharray="none" stroke-linecap="round" stroke-linejoin="round" stroke-miterlimit="4" stroke-opacity="1" stroke-width=".808" d="m 2.5,311.55817 c 0.277,0 0.5,0.22299 0.5,0.49999 v 4.00003 c 0,0.27704 -0.22299,0.49999 -0.5,0.49999 -0.277,0 -0.5,-0.22299 -0.5,-0.49999 v -4.00003 c 0,-0.27704 0.22299,-0.49999 0.5,-0.49999 z" opacity="1" paint-order="stroke markers fill"/><path id="rect4598-8" fill="#292e39" fill-opacity="1" stroke="none" stroke-dasharray="none" stroke-linecap="round" stroke-linejoin="round" stroke-miterlimit="4" stroke-opacity="1" stroke-width=".808" d="m 2.5,305.55819 c -0.277,0 -0.5,0.223 -0.5,0.5 v 3.5918 c -0.58192,0.206 -1,0.75396 -1,1.4082 0,0.831 0.669,1.5 1.5,1.5 0.6547,0 1.20254,-0.41743 1.4082,-1 H 6.59375 C 6.81882,311.55819 7,311.37701 7,311.15194 v -0.1875 c 0,-0.22507 -0.18118,-0.40625 -0.40625,-0.40625 H 3.9082 C 3.75785,310.13349 3.4247,309.80033 3,309.64999 v -3.5918 c 0,-0.277 -0.223,-0.5 -0.5,-0.5 z m 0,5 c 0.277,0 0.5,0.223 0.5,0.5 0,0.277 -0.223,0.5 -0.5,0.5 -0.277,0 -0.5,-0.223 -0.5,-0.5 0,-0.277 0.223,-0.5 0.5,-0.5 z" opacity="1" paint-order="stroke markers fill"/></g></g></svg>