<svg xmlns="http://www.w3.org/2000/svg" xmlns:svg="http://www.w3.org/2000/svg" xmlns:xlink="http://www.w3.org/1999/xlink" id="svg8" width="32" height="32" version="1.1" viewBox="0 0 32 32"><title id="title7895">Antu icon Theme</title><defs id="defs2"><linearGradient id="linearGradient14105" x1="15" x2="15" y1="30" y2="25" gradientTransform="translate(-18,288.64995)" gradientUnits="userSpaceOnUse" xlink:href="#linearGradient4562"/><linearGradient id="linearGradient4562"><stop id="stop4558" offset="0" stop-color="#e3e3e3" stop-opacity="1"/><stop id="stop4560" offset="1" stop-color="#fbfbfb" stop-opacity="1"/></linearGradient><linearGradient id="linearGradient14121" x1="6.35" x2="6.35" y1="293.825" y2="290.385" gradientTransform="matrix(3.7795275,0,0,3.7795275,-18,-801.86968)" gradientUnits="userSpaceOnUse" xlink:href="#linearGradient7100"/><linearGradient id="linearGradient7100"><stop id="stop7096" offset="0" stop-color="#02ca56" stop-opacity="1"/><stop id="stop7098" offset="1" stop-color="#75d97d" stop-opacity="1"/></linearGradient><linearGradient id="linearGradient14129" x1="4.233" x2="4.233" y1="293.825" y2="290.385" gradientTransform="matrix(3.7795275,0,0,3.7795275,-18,-801.86968)" gradientUnits="userSpaceOnUse" xlink:href="#linearGradient4902"/><linearGradient id="linearGradient4902"><stop id="stop4898" offset="0" stop-color="#0d72ec" stop-opacity="1"/><stop id="stop4900" offset="1" stop-color="#36b2fb" stop-opacity="1"/></linearGradient><linearGradient id="linearGradient14137" x1="2.117" x2="2.117" y1="293.825" y2="290.385" gradientTransform="matrix(3.7795275,0,0,3.7795275,-18,-801.86968)" gradientUnits="userSpaceOnUse" xlink:href="#linearGradient6408"/><linearGradient id="linearGradient6408"><stop id="stop6404" offset="0" stop-color="#f34242" stop-opacity="1"/><stop id="stop6406" offset="1" stop-color="#ff6767" stop-opacity="1"/></linearGradient><linearGradient id="linearGradient14113" x1="4.233" x2="4.233" y1="296.735" y2="289.592" gradientTransform="matrix(3.7795275,0,0,3.7795275,-18,-801.86968)" gradientUnits="userSpaceOnUse" xlink:href="#linearGradient14111"/><linearGradient id="linearGradient14111"><stop id="stop14107" offset="0" stop-color="#353c4b" stop-opacity="1"/><stop id="stop14109" offset="1" stop-color="#262626" stop-opacity="1"/></linearGradient></defs><metadata id="metadata5"/><g id="layer1" transform="translate(0,-282.64999)"><g id="g1614" transform="translate(18.000002,-6)"><path id="rect14071" fill="#8c8c8c" fill-opacity="1" stroke-width="1" d="m -6.0000013,312.64997 v 3.99999 h -2.0000005 c -0.5540062,0 -0.9999999,0.44598 -0.9999999,0.99998 v 1.00003 c 0,0.554 0.4459937,0.99999 0.9999999,0.99999 H 2.9999977 c 0.554006,0 1,-0.44599 1,-0.99999 v -1.00003 c 0,-0.554 -0.445994,-0.99998 -1,-0.99998 H 0.99999774 v -3.99999 z"/><path id="rect14065" fill="#040405" fill-opacity="1" stroke-width="1" d="m -16.000052,290.65002 h 28.0001 c 0.553972,0 0.999949,0.44598 0.999949,0.99995 v 21.00011 c 0,0.55397 -0.445977,0.99995 -0.999949,0.99995 h -28.0001 c -0.553973,0 -0.999949,-0.44598 -0.999949,-0.99995 v -21.00011 c 0,-0.55397 0.445976,-0.99995 0.999949,-0.99995 z"/><path id="rect14067" fill="url(#linearGradient14105)" fill-opacity="1" stroke-width="1" d="m -5.0000023,313.64996 v 3.99998 h -2.9999995 v 1.00003 H -5.0000023 -2.26e-6 2.9999977 v -1.00003 H -2.26e-6 v -3.99998 z"/><path id="rect14076" fill="url(#linearGradient14113)" fill-opacity="1" stroke-width="1" d="m -15.000002,292.64992 h 25.999999 v 19.00002 h -25.999999 z"/><path id="rect14078" fill="#b22c2c" fill-opacity="1" stroke-width="1" d="m -13.000002,294.64997 h 5.9999997 v 15 h -5.9999997 z"/><path id="rect14080" fill="#0c3996" fill-opacity="1" stroke-width="1" d="m -5.0000023,294.64997 h 6.00000004 v 15 H -5.0000023 Z"/><path id="rect14082" fill="#269334" fill-opacity="1" stroke-width="1" d="m 2.9999977,294.64997 h 6 v 15 h -6 z"/><path id="rect14084" fill="url(#linearGradient14137)" fill-opacity="1" stroke-width="1" d="m -12.000002,295.64999 h 4.0000002 v 12.99999 h -4.0000002 z"/><path id="rect14086" fill="url(#linearGradient14129)" fill-opacity="1" stroke-width="1" d="M -4.0000023,295.64999 H -3.26e-6 v 12.99999 H -4.0000023 Z"/><path id="rect14088" fill="url(#linearGradient14121)" fill-opacity="1" stroke-width="1" d="m 3.9999977,295.64999 h 3.999999 v 12.99999 h -3.999999 z"/></g></g></svg>