<svg xmlns="http://www.w3.org/2000/svg" xmlns:svg="http://www.w3.org/2000/svg" xmlns:xlink="http://www.w3.org/1999/xlink" id="svg8" width="32" height="32" version="1.1" viewBox="0 0 32 32"><title id="title7895">Antu icon Theme</title><defs id="defs2"><linearGradient id="linearGradient1532" x1="16" x2="16" y1="17" y2="13" gradientTransform="translate(-19,293.64999)" gradientUnits="userSpaceOnUse" xlink:href="#linearGradient4627"/><linearGradient id="linearGradient4627"><stop id="stop4623" offset="0" stop-color="#ffc900" stop-opacity="1"/><stop id="stop4625" offset="1" stop-color="#ffe200" stop-opacity="1"/></linearGradient><linearGradient id="linearGradient2237" x1="8.448" x2="8.448" y1="295.601" y2="288.987" gradientTransform="matrix(3.7795275,0,0,3.7795275,-34.928569,-793.58391)" gradientUnits="userSpaceOnUse" xlink:href="#linearGradient4582"/><linearGradient id="linearGradient4582"><stop id="stop4578" offset="0" stop-color="#cee3e3" stop-opacity="1"/><stop id="stop4580" offset="1" stop-color="#fcfcfc" stop-opacity="1"/></linearGradient><linearGradient id="linearGradient1044" x1="-18" x2="-18" y1="316.15" y2="300.15" gradientTransform="translate(15,2.5)" gradientUnits="userSpaceOnUse" xlink:href="#linearGradient4766-0"/><linearGradient id="linearGradient4766-0"><stop id="stop4762" offset="0" stop-color="#222731" stop-opacity="1"/><stop id="stop4828" offset=".5" stop-color="#15181e" stop-opacity="1"/><stop id="stop4764" offset="1" stop-color="#090a0c" stop-opacity="1"/></linearGradient></defs><metadata id="metadata5"/><g id="layer1" transform="translate(0,-282.64999)"><g id="g2206" transform="translate(19,-11)"><path id="rect843" fill="#90a4ae" fill-opacity="1" stroke="none" stroke-dasharray="none" stroke-linecap="round" stroke-linejoin="round" stroke-miterlimit="4" stroke-opacity="1" stroke-width="2.393" d="M -16,294.64999 H 9.999999 C 11.108,294.64999 12,295.542 12,296.65 v 25.99998 c 0,1.108 -0.892,2.00001 -2.000001,2.00001 H -16 c -1.108,0 -2,-0.89201 -2,-2.00001 V 296.65 c 0,-1.108 0.892,-2.00001 2,-2.00001 z" opacity="1"/><path id="rect843-3" fill="url(#linearGradient2237)" fill-opacity="1" stroke="none" stroke-dasharray="none" stroke-linecap="round" stroke-linejoin="round" stroke-miterlimit="4" stroke-opacity="1" stroke-width="2.234" d="M -16,295.65002 H 9.999999 C 10.554,295.65002 11,296.096 11,296.65 v 26.00001 C 11,323.20398 10.554,323.65 9.999999,323.65 H -16 c -0.554,0 -1,-0.44602 -1,-0.99999 V 296.65 c 0,-0.554 0.446,-0.99998 1,-0.99998 z" opacity="1"/><path id="rect6007-7-5" fill="url(#linearGradient1044)" fill-opacity="1" stroke="none" stroke-dasharray="none" stroke-linecap="round" stroke-linejoin="bevel" stroke-miterlimit="4" stroke-opacity="1" stroke-width="1" d="m -12,300.64999 c -0.554,0 -1,0.446 -1,1 v 2 c -0.554,0 -1,0.446 -1,1 v 1 c 0,0.554 0.446,1 1,1 v 3 c -0.554,0 -1,0.446 -1,1 v 1 c 0,0.554 0.446,1 1,1 v 4 c 0,0.554 0.446,1 1,1 h 4 v 1 c 0,0.554 0.446002,1 1,1 h 2 c 0,0.554 0.446,1 1,1 h 2 c 0.554,0 1,-0.446 1,-1 h 2 c 0.553998,0 1,-0.446 1,-1 v -1 h 4 c 0.554,0 1,-0.446 1,-1 v -4 c 0.554,0 1,-0.446 1,-1 v -1 c 0,-0.554 -0.446,-1 -1,-1 v -3 c 0.554,0 1,-0.446 1,-1 v -1 c 0,-0.554 -0.446,-1 -1,-1 v -2 c 0,-0.554 -0.446,-1 -1,-1 z" opacity="1"/><path id="rect1352" fill="url(#linearGradient1532)" fill-opacity="1" stroke="none" stroke-dasharray="none" stroke-linecap="round" stroke-linejoin="round" stroke-miterlimit="4" stroke-opacity="1" stroke-width="2" d="m -9,303.64999 c -0.554,0 -1,0.446 -1,1 v 5 c 0,0.554 0.446,1 1,1 0.554,0 1,-0.446 1,-1 v -5 c 0,-0.554 -0.446,-1 -1,-1 z m 4,0 c -0.554,0 -1,0.446 -1,1 v 5 c 0,0.554 0.446,1 1,1 0.554,0 1,-0.446 1,-1 v -5 c 0,-0.554 -0.446,-1 -1,-1 z m 4,0 c -0.554,0 -1,0.446 -1,1 v 5 c 0,0.554 0.446,1 1,1 0.554,0 1,-0.446 1,-1 v -5 c 0,-0.554 -0.446,-1 -1,-1 z m 4,0 c -0.554,0 -1,0.446 -1,1 v 5 c 0,0.554 0.446,1 1,1 0.554,0 1,-0.446 1,-1 v -5 c 0,-0.554 -0.446,-1 -1,-1 z" opacity="1"/></g></g></svg>