<svg xmlns="http://www.w3.org/2000/svg" xmlns:svg="http://www.w3.org/2000/svg" xmlns:xlink="http://www.w3.org/1999/xlink" id="svg8" width="32" height="32" version="1.1" viewBox="0 0 32 32"><title id="title7895">Antu icon Theme</title><defs id="defs2"><linearGradient id="linearGradient852-9" x1="8.448" x2="8.448" y1="295.601" y2="288.987" gradientTransform="matrix(3.7795275,0,0,3.7795275,-45.928569,-790.58391)" gradientUnits="userSpaceOnUse" xlink:href="#linearGradient4894"/><linearGradient id="linearGradient1866" x1="16" x2="16" y1="29" y2="3" gradientTransform="translate(-30,296.64999)" gradientUnits="userSpaceOnUse" xlink:href="#linearGradient4580"/><linearGradient id="linearGradient4580"><stop id="stop4576" offset="0" stop-color="#06111c" stop-opacity="1"/><stop id="stop4578" offset="1" stop-color="#15272f" stop-opacity="1"/></linearGradient><linearGradient id="linearGradient4894"><stop id="stop4890" offset="0" stop-color="#306dee" stop-opacity="1"/><stop id="stop4892" offset="1" stop-color="#5795fb" stop-opacity="1"/></linearGradient></defs><metadata id="metadata5"/><g id="layer1" transform="translate(0,-282.64999)"><g id="g2507" transform="translate(30,-14)"><path id="path1667" fill="url(#linearGradient852-9)" fill-opacity="1" stroke="none" stroke-dasharray="none" stroke-linecap="round" stroke-linejoin="round" stroke-miterlimit="4" stroke-opacity="1" stroke-width="2.234" d="m -27,298.64999 c -0.554,0 -1,0.446 -1,1 v 26 c 0,0.554 0.446,1 1,1 h 26 c 0.553999,0 1,-0.446 1,-1 v -26 c 0,-0.554 -0.446001,-1 -1,-1 z" opacity="1"/><path id="rect827-3" fill="#03080d" fill-opacity=".992" stroke="none" stroke-dasharray="none" stroke-dashoffset="0" stroke-linecap="round" stroke-linejoin="round" stroke-miterlimit="4" stroke-opacity="1" stroke-width="6" d="m -27,297.64999 c -1.107998,0 -2,0.892 -2,2 v 26 c 0,1.108 0.892002,2 2,2 h 1 3 1 16 1 3 1 c 1.107998,0 2,-0.892 2,-2 v -26 c 0,-1.108 -0.892002,-2 -2,-2 h -1 -3 -1 -16 -1 -3 z m 5,1 h 16 v 1 1 h 1 v 24 h -1 v 1 1 h -16 v -1 -1 h -1 v -24 h 1 v -1 z" opacity="1" paint-order="stroke markers fill"/><path id="rect832" fill="url(#linearGradient1866)" fill-opacity="1" stroke="none" stroke-dasharray="none" stroke-dashoffset="0" stroke-linecap="round" stroke-linejoin="round" stroke-miterlimit="4" stroke-opacity="1" stroke-width="6" d="m -27,298.64999 c -0.553998,0 -1,0.446 -1,1 v 26 c 0,0.554 0.446002,1 1,1 h 3 1 1 16 1 1 3 c 0.553998,0 1,-0.446 1,-1 v -26 c 0,-0.554 -0.446002,-1 -1,-1 h -3 -1 -1 -16 -1 -1 z m 4,2 h 1 16 1 v 11 h -18 z m 0,13 h 18 v 11 h -1 -16 -1 z" opacity="1" paint-order="stroke markers fill"/><path id="path1665-9-7" fill="#03080d" fill-opacity=".992" stroke="none" stroke-dasharray="none" stroke-linecap="round" stroke-linejoin="round" stroke-miterlimit="4" stroke-opacity="1" stroke-width="2.234" d="m -4,300.64999 v 4 h 3 v -4 z m 0,5 v 4 h 3 v -4 z m 0,5 v 4 h 3 v -4 z m 0,5 v 4 h 3 v -4 z m 0,5 v 4 h 3 v -4 z" opacity="1"/><path id="path1665-9" fill="#f1f2f3" fill-opacity="1" stroke="none" stroke-dasharray="none" stroke-linecap="round" stroke-linejoin="round" stroke-miterlimit="4" stroke-opacity="1" stroke-width="2.234" d="m -4,300.64999 v 3 h 3 v -3 z m 0,5 v 3 h 3 v -3 z m 0,5 v 3 h 3 v -3 z m 0,5 v 3 h 3 v -3 z m 0,5 v 3 h 3 v -3 z" opacity="1"/><path id="path1665-9-7-9" fill="#03080d" fill-opacity=".992" stroke="none" stroke-dasharray="none" stroke-linecap="round" stroke-linejoin="round" stroke-miterlimit="4" stroke-opacity="1" stroke-width="2.234" d="m -27,300.64999 v 4 h 3 v -4 z m 0,5 v 4 h 3 v -4 z m 0,5 v 4 h 3 v -4 z m 0,5 v 4 h 3 v -4 z m 0,5 v 4 h 3 v -4 z" opacity="1"/><path id="path1665-9-3" fill="#f1f2f3" fill-opacity="1" stroke="none" stroke-dasharray="none" stroke-linecap="round" stroke-linejoin="round" stroke-miterlimit="4" stroke-opacity="1" stroke-width="2.234" d="m -27,300.64999 v 3 h 3 v -3 z m 0,5 v 3 h 3 v -3 z m 0,5 v 3 h 3 v -3 z m 0,5 v 3 h 3 v -3 z m 0,5 v 3 h 3 v -3 z" opacity="1"/></g><g id="layer1-6"><g id="g5827" transform="translate(6.3749997,18)"><path id="rect4689-9-9-7" fill="#1664eb" fill-opacity="1" stroke="none" stroke-opacity="1" stroke-width="1" d="m 14.625001,273.64999 -5.0000004,2 v 3 1 2.5508 c -0.589552,-0.3417 -1.266971,-0.5508 -2,-0.5508 -2.216,0 -4,1.784 -4,4 0,2.216 1.784,4 4,4 2.216,0 4.0000004,-1.784 4.0000004,-4 v -5 -1.8008 l 3,-1.1992 z" opacity="1"/><path id="rect4689-9-9" fill="#f7faff" fill-opacity="1" stroke="none" stroke-opacity="1" stroke-width="1" d="m 14.625001,272.64999 -5.0000004,2 v 3 1 2.5508 c -0.589552,-0.3417 -1.266971,-0.5508 -2,-0.5508 -2.216,0 -4,1.784 -4,4 0,2.216 1.784,4 4,4 2.216,0 4.0000004,-1.784 4.0000004,-4 v -5 -1.8008 l 3,-1.1992 z" opacity="1"/></g></g></g></svg>