<svg xmlns="http://www.w3.org/2000/svg" xmlns:svg="http://www.w3.org/2000/svg" xmlns:xlink="http://www.w3.org/1999/xlink" id="svg8" width="32" height="32" version="1.1" viewBox="0 0 32 32"><title id="title7895">Antu icon Theme</title><defs id="defs2"><linearGradient id="linearGradient839"><stop id="stop835" offset="0" stop-color="#cbcccc" stop-opacity="1"/><stop id="stop837" offset="1" stop-color="#e5e6e6" stop-opacity="1"/></linearGradient><linearGradient id="linearGradient916" x1="3" x2="3" y1="313.65" y2="293.65" gradientTransform="translate(13,-289.64999)" gradientUnits="userSpaceOnUse" xlink:href="#linearGradient10231"/><style id="current-color-scheme" type="text/css"/><linearGradient id="linearGradient10231"><stop id="stop10227" offset="0" stop-color="#3e9ff4" stop-opacity="1"/><stop id="stop10229" offset="1" stop-color="#50c2f9" stop-opacity="1"/></linearGradient><linearGradient id="linearGradient841" x1="16" x2="16" y1="30" y2="27" gradientUnits="userSpaceOnUse" xlink:href="#linearGradient839"/></defs><metadata id="metadata5"/><g id="layer1" transform="translate(0,-282.64999)"><g id="g1645" transform="translate(13,-7)"><g id="g1176"><g id="g935"><path id="rect842" fill="#8b8c8c" fill-opacity="1" stroke="none" stroke-dasharray="none" stroke-dashoffset="0" stroke-linecap="round" stroke-linejoin="round" stroke-miterlimit="4" stroke-opacity="1" stroke-width="2" d="m -9,311.64999 h 24 c 1.108,0 2,0.892 2,2 v 5 c 0,1.108 -0.892,2 -2,2 H -9 c -1.108,0 -2,-0.892 -2,-2 v -5 c 0,-1.108 0.892,-2 2,-2 z" opacity=".93"/><path id="rect844" fill="url(#linearGradient841)" fill-opacity="1" stroke="none" stroke-dasharray="none" stroke-dashoffset="0" stroke-linecap="round" stroke-linejoin="round" stroke-miterlimit="4" stroke-opacity="1" stroke-width="2" d="m 4,23 c -0.554,0 -1,0.446 -1,1 v 5 c 0,0.554 0.446,1 1,1 h 24 c 0.554,0 1,-0.446 1,-1 v -5 c 0,-0.554 -0.446,-1 -1,-1 z m 1.4785156,5 H 26.521484 C 26.786243,28 27,28.213757 27,28.478516 v 0.04297 C 27,28.786243 26.786243,29 26.521484,29 H 5.4785156 C 5.2137574,29 5,28.786243 5,28.521484 v -0.04297 C 5,28.213757 5.2137574,28 5.4785156,28 Z" transform="translate(-13,289.64999)"/><path id="rect838" fill="#3182d9" fill-opacity="1" stroke="none" stroke-dasharray="none" stroke-dashoffset="0" stroke-linecap="round" stroke-linejoin="round" stroke-miterlimit="4" stroke-opacity="1" stroke-width="2" d="m -9,290.64999 h 24 c 1.108,0 2,0.892 2,2 v 22 c 0,1.108 -0.892,2 -2,2 H -9 c -1.108,0 -2,-0.892 -2,-2 v -22 c 0,-1.108 0.892,-2 2,-2 z"/><path id="rect840" fill="url(#linearGradient916)" fill-opacity="1" stroke="none" stroke-dasharray="none" stroke-dashoffset="0" stroke-linecap="round" stroke-linejoin="round" stroke-miterlimit="4" stroke-opacity="1" stroke-width="2" d="M 4,2 C 3.446,2 3,2.446 3,3 v 22 c 0,0.554 0.446,1 1,1 h 24 c 0.554,0 1,-0.446 1,-1 V 3 C 29,2.446 28.554,2 28,2 Z" transform="translate(-13,289.64999)"/></g><g id="layer1-9" transform="translate(37.750006,10.25)"><g id="g944" transform="translate(-25.188972,-23.77558)"><path id="rect4515-0-6" fill="#358bd9" fill-opacity="1" stroke="none" stroke-dasharray="none" stroke-miterlimit="4" stroke-opacity="1" stroke-width=".3" d="m -8.0337304,312.17556 c -2.1006886,0 -3.8393346,1.43301 -4.3398436,3.37308 -0.3273,-0.23357 -0.72565,-0.37304 -1.160156,-0.37304 -1.10798,0 -2,0.89205 -2,2.00002 0,0.0151 0.0054,0.034 0.0059,0.0488 -1.701102,0.24075 -3.005859,1.68155 -3.005859,3.45116 0,1.93901 1.561003,3.49999 3.5,3.49999 h 10.9999996 c 1.939,0 3.5,-1.56098 3.5,-3.49999 0,-1.78632 -1.329963,-3.23535 -3.054688,-3.45506 0.02192,-0.18066 0.05469,-0.35792 0.05469,-0.54493 0,-2.49297 -2.007014,-4.50002 -4.5,-4.50002 z" opacity="1"/><path id="rect4515-2" fill="#fffeff" fill-opacity="1" stroke="none" stroke-dasharray="none" stroke-miterlimit="4" stroke-opacity="1" stroke-width=".3" d="m -8.0884194,311.17556 c -2.1006886,0 -3.8393346,1.43301 -4.3398436,3.37308 -0.3273,-0.23357 -0.72565,-0.37304 -1.160156,-0.37304 -1.10798,0 -2,0.89205 -2,2.00002 0,0.0151 0.0054,0.034 0.0059,0.0488 -1.701101,0.24075 -3.005859,1.68155 -3.005859,3.45116 0,1.93901 1.561003,3.49999 3.5,3.49999 h 10.9999996 c 1.939,0 3.5,-1.56098 3.5,-3.49999 0,-1.78632 -1.329963,-3.23535 -3.054688,-3.45506 0.02192,-0.18066 0.05469,-0.35792 0.05469,-0.54493 0,-2.49297 -2.007014,-4.50002 -4.5,-4.50002 z" opacity="1"/></g></g></g></g></g></svg>