<svg xmlns="http://www.w3.org/2000/svg" xmlns:svg="http://www.w3.org/2000/svg" xmlns:xlink="http://www.w3.org/1999/xlink" id="svg8" width="32" height="32" version="1.1" viewBox="0 0 32 32"><title id="title7895">Antu icon Theme</title><defs id="defs2"><linearGradient id="linearGradient4759" x1="4.762" x2="4.762" y1="7.408" y2="1.058" gradientTransform="matrix(3.7795275,0,0,3.7795275,43.000002,319.64994)" gradientUnits="userSpaceOnUse" xlink:href="#linearGradient4902"/><linearGradient id="linearGradient4902"><stop id="stop4898" offset="0" stop-color="#5563b2" stop-opacity="1"/><stop id="stop4900" offset="1" stop-color="#7986cb" stop-opacity="1"/></linearGradient></defs><metadata id="metadata5"/><g id="layer1" transform="translate(0,-282.64999)"><g id="g4150" transform="translate(1,-5)"><g id="g858" transform="translate(-44,-32)"><path id="path12329" fill="#4a5599" fill-opacity="1" stroke-width="1" d="m 44,321.64999 c -0.55401,0 -1,0.446 -1,1 v 26 c 0,0.554 0.44599,1 1,1 h 30 c 0.554009,0 1,-0.446 1,-1 v -26 c 0,-0.554 -0.445992,-1 -1,-1 H 60 57 Z"/><path id="path13-5-2-9-4-2-6-6" fill="url(#linearGradient4759)" fill-opacity="1" stroke-width="1" d="m 44,322.64999 v 26 h 30 v -26 H 59 57 Z"/><path id="rect3441-6" fill="#4a5599" fill-opacity="1" stroke="none" stroke-dasharray="none" stroke-dashoffset="0" stroke-linecap="round" stroke-linejoin="round" stroke-miterlimit="4" stroke-opacity="1" stroke-width="6" d="m 45,324.64999 v 2 2 h 2 v -2 h 2 v -2 h -2 z m 24,0 v 2 h 2 v 2 h 2 v -2 -2 h -2 z m -14.445312,4.05859 c -1.384359,0 -2.498047,1.115 -2.498047,2.5 0,1.38497 1.105875,2.5 2.490234,2.5 1.384359,0 2.505859,-1.11503 2.505859,-2.5 0,-1.385 -1.113687,-2.5 -2.498046,-2.5 z m 6.4375,6 c -0.304186,0.0189 -0.583763,0.1712 -0.759766,0.41993 L 57,339.64999 55.845703,338.10897 c -0.183027,-0.24454 -0.468136,-0.39207 -0.773437,-0.40039 -0.324532,-0.008 -0.631615,0.1402 -0.826172,0.40039 l -3,4 c -0.493687,0.65949 -0.0228,1.59988 0.800781,1.59961 h 5.998047 c 0.0048,4e-5 0.0089,-0.002 0.01367,-0.002 h 7.980468 c 0.814161,0.004 1.292183,-0.91631 0.820313,-1.58008 l -5.003906,-6.99804 c -0.197175,-0.27855 -0.522617,-0.43617 -0.863281,-0.41992 z M 45,344.64999 v 2 2 h 2 2 v -2 h -2 v -2 z m 26,0 v 2 h -2 v 2 h 2 2 v -2 -2 z" opacity="1" paint-order="stroke markers fill"/><path id="rect3441" fill="#ebecf4" fill-opacity="1" stroke="none" stroke-dasharray="none" stroke-dashoffset="0" stroke-linecap="round" stroke-linejoin="round" stroke-miterlimit="4" stroke-opacity="1" stroke-width="6" d="m 45,323.64999 v 2 2 h 2 v -2 h 2 v -2 h -2 z m 24,0 v 2 h 2 v 2 h 2 v -2 -2 h -2 z m -14.4375,4 c -1.384359,0 -2.498047,1.115 -2.498047,2.5 0,1.38497 1.105876,2.5 2.490235,2.5 1.384358,0 2.505859,-1.11503 2.505859,-2.5 0,-1.385 -1.113688,-2.5 -2.498047,-2.5 z m 6.4375,6 c -0.304185,0.0189 -0.583763,0.17119 -0.759766,0.41992 l -3.232422,4.52149 -1.154296,-1.54102 c -0.183027,-0.24454 -0.468137,-0.39207 -0.773438,-0.40039 -0.324532,-0.008 -0.631615,0.1402 -0.826172,0.40039 l -3,4 c -0.493686,0.65949 -0.0228,1.59988 0.800781,1.59961 h 5.998047 c 0.0048,4e-5 0.0089,-0.002 0.01367,-0.002 h 7.980469 c 0.81416,0.004 1.292182,-0.91632 0.820313,-1.58008 l -5.003905,-6.998 C 61.666106,333.79136 61.340666,333.63374 61,333.64999 Z m -16,10 v 2 2 h 2 2 v -2 h -2 v -2 z m 26,0 v 2 h -2 v 2 h 2 2 v -2 -2 z" opacity="1" paint-order="stroke markers fill"/></g></g></g></svg>