<svg xmlns="http://www.w3.org/2000/svg" xmlns:svg="http://www.w3.org/2000/svg" xmlns:xlink="http://www.w3.org/1999/xlink" id="svg8" width="32" height="32" version="1.1" viewBox="0 0 8.467 8.467"><defs id="defs2"><linearGradient id="linearGradient4581-2-3" x1="9.525" x2="9.525" y1="290.915" y2="285.623" gradientTransform="matrix(1.3999999,0,0,1.3999999,-7.68898,-106.59991)" gradientUnits="userSpaceOnUse" xlink:href="#linearGradient4587"/><linearGradient id="linearGradient4587"><stop id="stop4583" offset="0" stop-color="#29d465" stop-opacity="1"/><stop id="stop4585" offset="1" stop-color="#5bfb93" stop-opacity="1"/></linearGradient></defs><metadata id="metadata5"/><g id="layer1" transform="translate(0,-288.53332)"><g id="g8953" transform="translate(-1.4126861,-4.2097067)"><path id="rect4496" fill="#1a9946" fill-opacity="1" stroke="none" stroke-dasharray="none" stroke-linecap="round" stroke-linejoin="round" stroke-miterlimit="4" stroke-opacity="1" stroke-width=".389" d="m 5.6460194,293.00762 c 2.1986875,0 3.96875,1.77002 3.96875,3.96873 0,2.19867 -1.7700625,3.96875 -3.96875,3.96875 -2.1986873,0 -3.96875,-1.77008 -3.96875,-3.96875 0,-2.19871 1.7700627,-3.96873 3.96875,-3.96873 z"/><path id="rect4570-9-6" fill="url(#linearGradient4581-2-3)" fill-opacity="1" stroke="none" stroke-dasharray="none" stroke-linecap="round" stroke-linejoin="round" stroke-miterlimit="4" stroke-opacity="1" stroke-width=".371" d="m 5.6460197,293.27219 c 2.0521081,0 3.7041664,1.65204 3.7041664,3.70416 0,2.05212 -1.6520583,3.70419 -3.7041664,3.70419 -2.0521086,0 -3.7041669,-1.65207 -3.7041669,-3.70419 0,-2.05212 1.6520583,-3.70416 3.7041669,-3.70416 z"/><path id="rect4510" fill="#253a40" fill-opacity="1" stroke="none" stroke-dasharray="none" stroke-linecap="round" stroke-linejoin="round" stroke-miterlimit="4" stroke-opacity="1" stroke-width=".265" d="m 3.9262278,295.38886 c -0.2198688,0 -0.396875,0.17701 -0.396875,0.39688 0,0.21987 0.1770062,0.39687 0.396875,0.39687 h 3.4395833 c 0.2198687,0 0.396875,-0.177 0.396875,-0.39687 0,-0.21987 -0.1770063,-0.39688 -0.396875,-0.39688 z m 0.2645833,1.32292 c -0.2198687,0 -0.396875,0.177 -0.396875,0.39687 0,0.21987 0.1770063,0.39688 0.396875,0.39688 h 2.9104167 c 0.2198687,0 0.396875,-0.17701 0.396875,-0.39688 0,-0.21987 -0.1770063,-0.39687 -0.396875,-0.39687 z m 0.2645833,1.32292 c -0.2198687,0 -0.396875,0.177 -0.396875,0.39687 0,0.21987 0.1770063,0.39688 0.396875,0.39688 h 2.38125 c 0.2198688,0 0.396875,-0.17701 0.396875,-0.39688 0,-0.21987 -0.1770062,-0.39687 -0.396875,-0.39687 z" opacity="1"/><path id="rect4511" fill="#3b5c66" fill-opacity="1" stroke="none" stroke-dasharray="none" stroke-linecap="round" stroke-linejoin="round" stroke-miterlimit="4" stroke-opacity="1" stroke-width=".265" d="m 3.7939361,295.65345 v 0.26458 h 3.7041667 v -0.26458 z m 0.2645833,1.32291 v 0.26459 h 3.175 v -0.26459 z m 0.2645833,1.32292 v 0.26458 h 2.6458334 v -0.26458 z" opacity="1"/></g></g></svg>