<svg xmlns="http://www.w3.org/2000/svg" xmlns:svg="http://www.w3.org/2000/svg" xmlns:xlink="http://www.w3.org/1999/xlink" id="svg8" width="32" height="32" version="1.1" viewBox="0 0 32 32"><title id="title7895">Antu icon Theme</title><defs id="defs2"><linearGradient id="linearGradient956" x1="16" x2="16" y1="312.65" y2="285.65" gradientTransform="translate(-18,7)" gradientUnits="userSpaceOnUse" xlink:href="#linearGradient979"/><linearGradient id="linearGradient979"><stop id="stop975" offset="0" stop-color="#44c367" stop-opacity="1"/><stop id="stop977" offset="1" stop-color="#6ce073" stop-opacity="1"/></linearGradient></defs><metadata id="metadata5"/><g id="layer1" transform="translate(0,-282.64999)"><g id="g1528" transform="translate(18,-7)"><path id="rect903" fill="#2aa65a" fill-opacity="1" stroke="none" stroke-dasharray="none" stroke-linecap="round" stroke-linejoin="round" stroke-miterlimit="4" stroke-opacity="1" stroke-width="1.977" d="m -2,290.64999 c 8.31,0 15,6.69 15,15 0,8.31 -6.69,15 -15,15 -8.31,0 -15,-6.69 -15,-15 0,-8.31 6.69,-15 15,-15 z" opacity="1"/><path id="rect903-2" fill="url(#linearGradient956)" fill-opacity="1" stroke="none" stroke-dasharray="none" stroke-linecap="round" stroke-linejoin="round" stroke-miterlimit="4" stroke-opacity="1" stroke-width="1.845" d="m -2,291.64999 c 7.756,0 14,6.244 14,14 0,7.756 -6.244,14 -14,14 -7.756,0 -14,-6.244 -14,-14 0,-7.756 6.244,-14 14,-14 z" opacity="1"/><path id="rect860-7" fill="#2aa65a" fill-opacity="1" stroke="none" stroke-dasharray="none" stroke-linecap="round" stroke-linejoin="round" stroke-miterlimit="4" stroke-opacity="1" stroke-width="2" d="m -2,298.64999 c -2.77,0 -5,2.23 -5,5 v 1 c -0.553998,0 -1,0.446 -1,1 v 8 c 0,0.554 0.446002,1 1,1 H 3 c 0.553998,0 1,-0.446 1,-1 v -8 c 0,-0.554 -0.446002,-1 -1,-1 v -1 c 0,-2.77 -2.23,-5 -5,-5 z m 0,2 c 1.662,0 3,1.338 3,3 v 1 h -6 v -1 c 0,-1.662 1.338,-3 3,-3 z m 0,6 c 1.108,0 2,0.892 2,2 0,0.74107 -0.404201,1.37905 -1,1.72461 v 2.27539 h -2 v -2.27539 c -0.595799,-0.34556 -1,-0.98354 -1,-1.72461 0,-1.108 0.892,-2 2,-2 z" opacity="1" paint-order="stroke markers fill"/><path id="rect860" fill="#e8ffee" fill-opacity="1" stroke="none" stroke-dasharray="none" stroke-linecap="round" stroke-linejoin="round" stroke-miterlimit="4" stroke-opacity="1" stroke-width="2" d="m -2,297.64999 c -2.77,0 -5,2.23 -5,5 v 1 c -0.553998,0 -1,0.446 -1,1 v 8 c 0,0.554 0.446002,1 1,1 H 3 c 0.553998,0 1,-0.446 1,-1 v -8 c 0,-0.554 -0.446002,-1 -1,-1 v -1 c 0,-2.77 -2.23,-5 -5,-5 z m 0,2 c 1.662,0 3,1.338 3,3 v 1 h -6 v -1 c 0,-1.662 1.338,-3 3,-3 z m 0,6 c 1.108,0 2,0.892 2,2 0,0.74107 -0.404201,1.37905 -1,1.72461 v 2.27539 h -2 v -2.27539 c -0.595799,-0.34556 -1,-0.98354 -1,-1.72461 0,-1.108 0.892,-2 2,-2 z" opacity="1" paint-order="stroke markers fill"/></g></g></svg>