<svg xmlns="http://www.w3.org/2000/svg" xmlns:svg="http://www.w3.org/2000/svg" xmlns:xlink="http://www.w3.org/1999/xlink" id="svg8" width="32" height="32" version="1.1" viewBox="0 0 32 32"><title id="title7895">Antu icon Theme</title><defs id="defs2"><linearGradient id="linearGradient10233" x1="4.763" x2="4.763" y1="7.673" y2="1.587" gradientTransform="matrix(3.7795275,0,0,3.7795275,20,274.64993)" gradientUnits="userSpaceOnUse" xlink:href="#linearGradient5837-3-1-6-3-9-6"/><linearGradient id="linearGradient5837-3-1-6-3-9-6" x2="0" y1="545.14" y2="518.14" gradientUnits="userSpaceOnUse"><stop id="stop5833-6-2-3-1-0" stop-color="#0d89fc" stop-opacity="1"/><stop id="stop5835-7-5-6-3-2-6" offset="1" stop-color="#02bdff" stop-opacity="1"/></linearGradient><linearGradient id="linearGradient13069" x1="5.457" x2="5.457" y1="295.521" y2="293.934" gradientTransform="matrix(3.7795275,0,0,3.7795275,15.375,-818.28051)" gradientUnits="userSpaceOnUse" xlink:href="#d-8-2"/><linearGradient id="d-8-2" x2="0" y1="545.62" y2="517.62" gradientUnits="userSpaceOnUse"><stop id="stop9-5-9" offset="0" stop-color="#e3e3e3"/><stop id="stop11-8-1" offset="1" stop-color="#fcf9f9"/></linearGradient><linearGradient id="linearGradient10241" x1="1.852" x2="1.852" y1="2.381" y2=".794" gradientTransform="matrix(3.7795275,0,0,3.7795275,20,274.64993)" gradientUnits="userSpaceOnUse" xlink:href="#d-8-2"/><linearGradient id="linearGradient1616" x2="0" y1="545.62" y2="517.62" gradientUnits="userSpaceOnUse"><stop id="stop1612" offset="0" stop-color="#e3e3e3"/><stop id="stop1614" offset="1" stop-color="#fcf9f9"/></linearGradient></defs><metadata id="metadata5"/><g id="layer1" transform="translate(0,-282.64999)"><g id="g1670" transform="translate(-20,8)"><path id="path13-6-7-64-1-3-02-8-0" fill="url(#linearGradient10241)" fill-opacity="1" stroke-width="1" d="m 21,277.64999 h 12 l 3,6 h 15.000001 v 20 H 21 Z"/><path id="path13-6-3-1-3-0-7-7" fill="#636e8c" fill-opacity="1" stroke-width="1" d="m 21,276.64999 c -0.55401,0 -1,0.44598 -1,1 v 26 c 0,0.554 0.44599,1 1,1 h 30.000001 c 0.554009,0 0.999999,-0.446 0.999999,-1 v -20 c 0,-0.55402 -0.450268,-1.0687 -0.999999,-1 H 37 l -3,-6 z m 0,1 h 12 l 3,6 h 15.000001 v 20 H 21 Z"/><path id="path13-0-0-9-9-8" fill="#1466b2" fill-opacity="1" stroke-width="1" d="m 21.000051,283.64999 c -0.55401,0 -0.999998,0.44601 -1,1.00002 L 20,303.64999 c -2e-6,0.554 0.44599,1 1,1 h 30.000001 c 0.554009,0 0.999999,-0.446 0.999999,-1 v -23 c 0,0 0,-1 -0.999999,-1 H 35 l -1.999948,4.00003 z m 0,1.00002 H 34.000052 L 36,280.64999 h 15.000001 v 23 H 21 Z"/><path id="path13-5-2-9-4-2-6-9" fill="url(#linearGradient10233)" fill-opacity="1" stroke-width="1" d="m 21.00005,284.65 h 13.000001 l 1.999948,-4.00002 H 51 v 23.00001 H 20.999999 Z"/><path id="Triangle-1" fill="#1466b2" fill-opacity="1" fill-rule="nonzero" stroke="none" stroke-dasharray="none" stroke-dashoffset="0" stroke-linecap="butt" stroke-linejoin="miter" stroke-miterlimit="4" stroke-opacity="1" stroke-width="2" d="m 35.978081,288.64999 c -0.288252,0.007 -0.559496,0.1379 -0.74414,0.35937 l -5,6 c -0.543022,0.65114 -0.08028,1.64022 0.767578,1.64063 v 4 c 0,0.55403 0.445967,1 1,1 h 8 c 0.554033,0 1,-0.44597 1,-1 v -4 c 0.847862,-4.3e-4 1.310601,-0.98949 0.767578,-1.64063 l -0.767578,-0.92187 v -2.4375 c 0,-0.55399 -0.446,-1 -1,-1 -0.554,0 -1,0.44601 -1,1 v 0.0391 l -2.232422,-2.67968 c -0.195151,-0.23404 -0.486363,-0.36636 -0.791016,-0.35938 z" baseline-shift="baseline" clip-rule="nonzero" color="#000" color-interpolation="sRGB" color-interpolation-filters="linearRGB" color-rendering="auto" direction="ltr" display="inline" dominant-baseline="auto" enable-background="accumulate" font-family="sans-serif" font-size="medium" font-stretch="normal" font-style="normal" font-variant="normal" font-weight="normal" image-rendering="auto" letter-spacing="normal" opacity="1" overflow="visible" shape-rendering="auto" text-anchor="start" text-decoration="none" text-rendering="auto" vector-effect="none" visibility="visible" word-spacing="normal" writing-mode="lr-tb" style="line-height:normal;font-variant-ligatures:normal;font-variant-position:normal;font-variant-caps:normal;font-variant-numeric:normal;font-variant-alternates:normal;font-feature-settings:normal;text-indent:0;text-align:start;text-decoration-line:none;text-decoration-style:solid;text-decoration-color:#000;text-transform:none;text-orientation:mixed;white-space:normal;shape-padding:0;isolation:auto;mix-blend-mode:normal;solid-color:#000;solid-opacity:1"/><path id="Triangle-1-1" fill="url(#linearGradient13069)" fill-opacity="1" fill-rule="nonzero" stroke="none" stroke-dasharray="none" stroke-dashoffset="0" stroke-linecap="butt" stroke-linejoin="miter" stroke-miterlimit="4" stroke-opacity="1" stroke-width="2" d="m 35.978081,287.64988 c -0.288253,0.008 -0.559496,0.13795 -0.74414,0.35943 l -4.999999,6 c -0.543023,0.65114 -0.08028,1.6402 0.767577,1.64062 v 3.99999 c 0,0.55404 0.445968,0.99998 1,0.99998 h 8 c 0.554033,0 1,-0.44594 1,-0.99998 v -3.99999 c 0.847862,-4.2e-4 1.310601,-0.98948 0.767578,-1.64062 l -0.767578,-0.9219 v -2.43749 c 0,-0.55401 -0.446,-0.99999 -1,-0.99999 -0.554,0 -1,0.44598 -1,0.99999 v 0.0389 l -2.232422,-2.67969 c -0.195152,-0.23395 -0.486363,-0.36622 -0.791016,-0.35942 z" baseline-shift="baseline" clip-rule="nonzero" color="#000" color-interpolation="sRGB" color-interpolation-filters="linearRGB" color-rendering="auto" direction="ltr" display="inline" dominant-baseline="auto" enable-background="accumulate" font-family="sans-serif" font-size="medium" font-stretch="normal" font-style="normal" font-variant="normal" font-weight="normal" image-rendering="auto" letter-spacing="normal" opacity="1" overflow="visible" shape-rendering="auto" text-anchor="start" text-decoration="none" text-rendering="auto" vector-effect="none" visibility="visible" word-spacing="normal" writing-mode="lr-tb" style="line-height:normal;font-variant-ligatures:normal;font-variant-position:normal;font-variant-caps:normal;font-variant-numeric:normal;font-variant-alternates:normal;font-feature-settings:normal;text-indent:0;text-align:start;text-decoration-line:none;text-decoration-style:solid;text-decoration-color:#000;text-transform:none;text-orientation:mixed;white-space:normal;shape-padding:0;isolation:auto;mix-blend-mode:normal;solid-color:#000;solid-opacity:1"/></g></g></svg>