<svg xmlns="http://www.w3.org/2000/svg" xmlns:svg="http://www.w3.org/2000/svg" id="svg8" width="32" height="32" version="1.1" viewBox="0 0 8.467 8.467"><defs id="defs2"><linearGradient id="a" x1="16" x2="16" y1="1049.362" y2="1024.362" gradientTransform="matrix(0.26458333,0,0,0.26458333,-8.414695,17.882162)" gradientUnits="userSpaceOnUse"><stop id="stop2" offset="0" stop-color="#4d4d4d"/><stop id="stop4" offset="1" stop-color="#1f1f1f"/></linearGradient></defs><metadata id="metadata5"/><g id="layer1" transform="translate(0,-288.53332)"><g id="g12628" transform="translate(8.414695,0.68035835)"><path id="path7" fill="url(#a)" stroke-width=".265" d="m -8.1501117,288.64671 h 7.93750013 v 6.87917 H -8.1501117 Z"/><path id="path13" fill="#030303" stroke-width=".265" d="m -8.1501117,288.38213 c -0.1465817,0 -0.2645833,0.118 -0.2645833,0.26458 v 6.87917 c 0,0.14658 0.1180016,0.26458 0.2645833,0.26458 h 7.93750013 c 0.1465818,0 0.2645833,-0.118 0.2645833,-0.26458 v -6.87917 c 0,-0.14658 -0.1180015,-0.26458 -0.2645833,-0.26458 z m 0.2645833,0.52917 h 7.40833343 v 6.35 H -7.8855284 Z"/><path id="rect6299-1-1-0-5" fill="#0f0f0f" fill-opacity=".392" stroke="none" stroke-dasharray="none" stroke-dashoffset="0" stroke-linecap="round" stroke-linejoin="bevel" stroke-miterlimit="4" stroke-opacity=".392" stroke-width=".2" d="m -7.8855284,289.70504 v 1.05834 h 7.40833343 v -1.05834 z m 0,1.85209 v 1.05833 h 7.40833343 v -1.05833 z m 0,1.85208 v 1.05833 h 7.40833343 v -1.05833 z" opacity="1" paint-order="stroke fill markers" vector-effect="none"/><path id="rect6570-7" fill="#32ff3f" fill-opacity="1" stroke="none" stroke-dasharray="none" stroke-dashoffset="0" stroke-linecap="round" stroke-linejoin="bevel" stroke-miterlimit="4" stroke-opacity=".392" stroke-width=".2" d="m -7.0917783,289.44046 v 0.26459 h -0.2645833 v 0.26458 h 0.2645833 v 0.52917 h -0.2645833 v 0.26458 h 0.2645833 v 0.26458 h 0.2645834 v -0.26458 h 0.5291666 v 0.26458 h 0.2645833 v -0.26458 h 0.2645833 V 290.4988 H -6.033445 v -0.52917 h 0.2645833 v -0.26458 H -6.033445 v -0.26459 h -0.2645833 v 0.26459 h -0.5291666 v -0.26459 z m 0.2645834,0.52917 h 0.5291666 v 0.52917 h -0.5291666 z" opacity="1" paint-order="stroke fill markers" vector-effect="none"/></g></g></svg>