<svg xmlns="http://www.w3.org/2000/svg" xmlns:svg="http://www.w3.org/2000/svg" xmlns:xlink="http://www.w3.org/1999/xlink" id="svg8" width="32" height="32" version="1.1" viewBox="0 0 32 32"><title id="title7895">Antu icon Theme</title><defs id="defs2"><linearGradient id="linearGradient956" x1="16" x2="16" y1="312.65" y2="285.65" gradientTransform="translate(-17,7)" gradientUnits="userSpaceOnUse" xlink:href="#linearGradient979"/><linearGradient id="linearGradient979"><stop id="stop975" offset="0" stop-color="#858888" stop-opacity="1"/><stop id="stop977" offset="1" stop-color="#a1abae" stop-opacity="1"/></linearGradient></defs><metadata id="metadata5"/><g id="layer1" transform="translate(0,-282.64999)"><g id="g1561" transform="translate(17,-7)"><path id="rect903" fill="#717373" fill-opacity="1" stroke="none" stroke-dasharray="none" stroke-linecap="round" stroke-linejoin="round" stroke-miterlimit="4" stroke-opacity="1" stroke-width="1.977" d="m -1,290.64999 c 8.31,0 15,6.69 15,15 0,8.31 -6.69,15 -15,15 -8.31,0 -15,-6.69 -15,-15 0,-8.31 6.69,-15 15,-15 z" opacity="1"/><path id="rect903-2" fill="url(#linearGradient956)" fill-opacity="1" stroke="none" stroke-dasharray="none" stroke-linecap="round" stroke-linejoin="round" stroke-miterlimit="4" stroke-opacity="1" stroke-width="1.845" d="m -1,291.64999 c 7.756,0 14,6.244 14,14 0,7.756 -6.244,14 -14,14 -7.756,0 -14,-6.244 -14,-14 0,-7.756 6.244,-14 14,-14 z" opacity="1"/><path id="Triangle-1-2" fill="#717373" fill-opacity="1" fill-rule="nonzero" stroke="none" stroke-dasharray="none" stroke-dashoffset="0" stroke-linecap="butt" stroke-linejoin="miter" stroke-miterlimit="4" stroke-opacity="1" stroke-width="2" d="m 3.033203,314.65006 c 0.539254,-0.018 0.967042,-0.46045 0.966797,-1 v -14 c 4.4e-5,-0.78924 -0.871301,-1.26754 -1.537109,-0.84375 l -11,7 c -0.61757,0.39299 -0.61757,1.29451 0,1.6875 l 11,7 c 0.170008,0.10838 0.368804,0.16284 0.570312,0.15625 z" baseline-shift="baseline" clip-rule="nonzero" color="#000" color-interpolation="sRGB" color-interpolation-filters="linearRGB" color-rendering="auto" direction="ltr" display="inline" dominant-baseline="auto" enable-background="accumulate" font-family="sans-serif" font-size="medium" font-stretch="normal" font-style="normal" font-variant="normal" font-weight="normal" image-rendering="auto" letter-spacing="normal" opacity="1" overflow="visible" shape-rendering="auto" text-anchor="start" text-decoration="none" text-rendering="auto" vector-effect="none" visibility="visible" word-spacing="normal" writing-mode="lr-tb" style="line-height:normal;font-variant-ligatures:normal;font-variant-position:normal;font-variant-caps:normal;font-variant-numeric:normal;font-variant-alternates:normal;font-feature-settings:normal;text-indent:0;text-align:start;text-decoration-line:none;text-decoration-style:solid;text-decoration-color:#000;text-transform:none;text-orientation:mixed;white-space:normal;shape-padding:0;isolation:auto;mix-blend-mode:normal;solid-color:#000;solid-opacity:1"/><path id="Triangle-1" fill="#f6f6f6" fill-opacity="1" fill-rule="nonzero" stroke="none" stroke-dasharray="none" stroke-dashoffset="0" stroke-linecap="butt" stroke-linejoin="miter" stroke-miterlimit="4" stroke-opacity="1" stroke-width="2" d="m 3.033203,313.64998 c 0.539254,-0.018 0.967042,-0.46045 0.966797,-1 v -14 c 4.4e-5,-0.78924 -0.871301,-1.26753 -1.537109,-0.84375 l -11,7 c -0.61757,0.39299 -0.61757,1.29451 0,1.6875 l 11,7 c 0.170008,0.10838 0.368804,0.16284 0.570312,0.15625 z" baseline-shift="baseline" clip-rule="nonzero" color="#000" color-interpolation="sRGB" color-interpolation-filters="linearRGB" color-rendering="auto" direction="ltr" display="inline" dominant-baseline="auto" enable-background="accumulate" font-family="sans-serif" font-size="medium" font-stretch="normal" font-style="normal" font-variant="normal" font-weight="normal" image-rendering="auto" letter-spacing="normal" opacity="1" overflow="visible" shape-rendering="auto" text-anchor="start" text-decoration="none" text-rendering="auto" vector-effect="none" visibility="visible" word-spacing="normal" writing-mode="lr-tb" style="line-height:normal;font-variant-ligatures:normal;font-variant-position:normal;font-variant-caps:normal;font-variant-numeric:normal;font-variant-alternates:normal;font-feature-settings:normal;text-indent:0;text-align:start;text-decoration-line:none;text-decoration-style:solid;text-decoration-color:#000;text-transform:none;text-orientation:mixed;white-space:normal;shape-padding:0;isolation:auto;mix-blend-mode:normal;solid-color:#000;solid-opacity:1"/></g></g></svg>