<svg xmlns="http://www.w3.org/2000/svg" xmlns:svg="http://www.w3.org/2000/svg" xmlns:xlink="http://www.w3.org/1999/xlink" id="svg8" width="32" height="32" version="1.1" viewBox="0 0 32 32"><title id="title7895">Antu icon Theme</title><defs id="defs2"><linearGradient id="linearGradient1460" x1="16" x2="16" y1="312.65" y2="285.65" gradientTransform="translate(-18,6)" gradientUnits="userSpaceOnUse" xlink:href="#linearGradient4774"/><linearGradient id="linearGradient4774"><stop id="stop4770" offset="0" stop-color="#f41e3d" stop-opacity="1"/><stop id="stop4772" offset="1" stop-color="#fc3a56" stop-opacity="1"/></linearGradient></defs><metadata id="metadata5"/><g id="layer1" transform="translate(0,-282.64999)"><g id="g1483" transform="translate(18,-6)"><path id="rect903-5" fill="#cc0120" fill-opacity="1" stroke="none" stroke-dasharray="none" stroke-linecap="round" stroke-linejoin="round" stroke-miterlimit="4" stroke-opacity="1" stroke-width="1.977" d="m -2,289.64999 c 8.31,0 15,6.69 15,15 0,8.31 -6.69,15 -15,15 -8.31,0 -15,-6.69 -15,-15 0,-8.31 6.69,-15 15,-15 z" opacity="1"/><path id="rect903-2-4" fill="url(#linearGradient1460)" fill-opacity="1" stroke="none" stroke-dasharray="none" stroke-linecap="round" stroke-linejoin="round" stroke-miterlimit="4" stroke-opacity="1" stroke-width="1.845" d="m -2,290.64999 c 7.756,0 14,6.244 14,14 0,7.756 -6.244,14 -14,14 -7.756,0 -14,-6.244 -14,-14 0,-7.756 6.244,-14 14,-14 z" opacity="1"/><path id="path4614-7-2" fill="#cc0120" fill-opacity="1" stroke="none" stroke-linecap="butt" stroke-linejoin="miter" stroke-opacity="1" stroke-width="1" d="M -4,315.65003 4,305.65 l -5,-3 1,-6.99995 L -7.9999993,305.65 -3,308.65 Z"/><path id="path4614-7" fill="#fee3e7" fill-opacity="1" stroke="none" stroke-linecap="butt" stroke-linejoin="miter" stroke-opacity="1" stroke-width="1" d="m -4.000001,314.65003 8,-10.00003 -5,-3 1,-6.99995 -7.9999993,9.99995 4.9999993,3 z"/></g></g></svg>