<svg xmlns="http://www.w3.org/2000/svg" xmlns:svg="http://www.w3.org/2000/svg" xmlns:xlink="http://www.w3.org/1999/xlink" id="svg8" width="32" height="32" version="1.1" viewBox="0 0 32 32"><title id="title7895">Antu icon Theme</title><defs id="defs2"><linearGradient id="linearGradient832"><stop id="stop828" offset="0" stop-color="#fff2ed" stop-opacity="1"/><stop id="stop830" offset="1" stop-color="#fff" stop-opacity=".95"/></linearGradient><linearGradient id="linearGradient956" x1="16" x2="16" y1="312.65" y2="285.65" gradientTransform="translate(-18,19)" gradientUnits="userSpaceOnUse" xlink:href="#linearGradient4622"/><linearGradient id="linearGradient4622"><stop id="stop4618" offset="0" stop-color="#ff6a3e" stop-opacity="1"/><stop id="stop4620" offset="1" stop-color="#ff9065" stop-opacity="1"/></linearGradient><linearGradient id="linearGradient834" x1="-2" x2="-2" y1="327.65" y2="314.65" gradientUnits="userSpaceOnUse" xlink:href="#linearGradient832"/></defs><metadata id="metadata5"/><g id="layer1" transform="translate(0,-282.64999)"><g id="g1596" transform="translate(18,-19)"><path id="rect903" fill="#eb5227" fill-opacity="1" stroke="none" stroke-dasharray="none" stroke-linecap="round" stroke-linejoin="round" stroke-miterlimit="4" stroke-opacity="1" stroke-width="1.977" d="m -2,302.64999 c 8.31,0 15,6.69 15,15 0,8.31 -6.69,15 -15,15 -8.31,0 -15,-6.69 -15,-15 0,-8.31 6.69,-15 15,-15 z" opacity="1"/><path id="rect903-2" fill="url(#linearGradient956)" fill-opacity="1" stroke="none" stroke-dasharray="none" stroke-linecap="round" stroke-linejoin="round" stroke-miterlimit="4" stroke-opacity="1" stroke-width="1.845" d="m -2,303.64999 c 7.756,0 14,6.244 14,14 0,7.756 -6.244,14 -14,14 -7.756,0 -14,-6.244 -14,-14 0,-7.756 6.244,-14 14,-14 z" opacity="1"/><path id="path906-7" fill="#f55529" fill-opacity="1" stroke="none" stroke-dasharray="none" stroke-linecap="round" stroke-linejoin="round" stroke-miterlimit="4" stroke-opacity="1" stroke-width="1.845" d="m -2,311.64999 c -2.77,0 -5,2.23 -5,5 0,2.77 2.23,5 5,5 2.77,0 5,-2.23 5,-5 0,-2.77 -2.23,-5 -5,-5 z m 0,12 c -3.676863,0 -6.818991,2.18622 -8.21875,5.33203 2.306591,1.67252 5.139236,2.66797 8.21875,2.66797 3.079514,0 5.912159,-0.99545 8.21875,-2.66797 C 4.818991,325.83621 1.676863,323.64999 -2,323.64999 Z" opacity="1"/><path id="path906" fill="url(#linearGradient834)" fill-opacity="1" stroke="none" stroke-dasharray="none" stroke-linecap="round" stroke-linejoin="round" stroke-miterlimit="4" stroke-opacity="1" stroke-width="1.845" d="m -2,310.64999 c -2.77,0 -5,2.23 -5,5 0,2.77 2.23,5 5,5 2.77,0 5,-2.23 5,-5 0,-2.77 -2.23,-5 -5,-5 z m 0,12 c -3.676863,0 -6.8189911,2.18622 -8.21875,5.33203 2.306591,1.67252 5.139236,2.66797 8.21875,2.66797 3.079514,0 5.912159,-0.99545 8.21875,-2.66797 C 4.818991,324.83621 1.676863,322.64999 -2,322.64999 Z" opacity="1"/></g></g></svg>