<svg xmlns="http://www.w3.org/2000/svg" xmlns:svg="http://www.w3.org/2000/svg" xmlns:xlink="http://www.w3.org/1999/xlink" id="svg8" width="32" height="32" version="1.1" viewBox="0 0 32 32"><title id="title7895">Antu icon Theme</title><defs id="defs2"><linearGradient id="linearGradient956" x1="16" x2="16" y1="312.65" y2="285.65" gradientTransform="translate(-17,4)" gradientUnits="userSpaceOnUse" xlink:href="#linearGradient979"/><linearGradient id="linearGradient979"><stop id="stop975" offset="0" stop-color="#858888" stop-opacity="1"/><stop id="stop977" offset="1" stop-color="#a1abae" stop-opacity="1"/></linearGradient></defs><metadata id="metadata5"/><g id="layer1" transform="translate(0,-282.64999)"><g id="g1698" transform="translate(17,-4)"><path id="rect903" fill="#717373" fill-opacity="1" stroke="none" stroke-dasharray="none" stroke-linecap="round" stroke-linejoin="round" stroke-miterlimit="4" stroke-opacity="1" stroke-width="1.977" d="m -1,287.64999 c 8.31,0 15,6.69 15,15 0,8.31 -6.69,15 -15,15 -8.31,0 -15,-6.69 -15,-15 0,-8.31 6.69,-15 15,-15 z" opacity="1"/><path id="rect903-2" fill="url(#linearGradient956)" fill-opacity="1" stroke="none" stroke-dasharray="none" stroke-linecap="round" stroke-linejoin="round" stroke-miterlimit="4" stroke-opacity="1" stroke-width="1.845" d="m -1,288.64999 c 7.756,0 14,6.244 14,14 0,7.756 -6.244,14 -14,14 -7.756,0 -14,-6.244 -14,-14 0,-7.756 6.244,-14 14,-14 z" opacity="1"/><path id="rect946-9" fill="#717373" fill-opacity="1" stroke="none" stroke-dasharray="none" stroke-linecap="round" stroke-linejoin="round" stroke-miterlimit="4" stroke-opacity="1" stroke-width="2.511" d="m -1.050781,293.64999 c -5.54,0 -10,4.46 -10,10 0,5.54 4.46,10 10,10 h 0.101562 c 5.54,0 10,-4.46 10,-10 0,-5.54 -4.46,-10 -10,-10 z m 0.05078,3 c 3.878,0 7,3.122 7,7 0,0.34078 -0.03151,0.6725 -0.07813,1 H -7.921875 c -0.04661,-0.3275 -0.07813,-0.65922 -0.07813,-1 0,-3.878 3.122,-7 7,-7 z m -5.748046,11 H 4.748047 c -1.262307,1.81454 -3.360554,3 -5.748047,3 -2.387493,0 -4.48574,-1.18546 -5.748047,-3 z" opacity="1" paint-order="stroke markers fill"/><path id="rect946" fill="#f6f6f6" fill-opacity="1" stroke="none" stroke-dasharray="none" stroke-linecap="round" stroke-linejoin="round" stroke-miterlimit="4" stroke-opacity="1" stroke-width="2.511" d="m -1.050781,292.64999 c -5.54,0 -10,4.46 -10,10 0,5.54 4.46,10 10,10 h 0.101562 c 5.54,0 10,-4.46 10,-10 0,-5.54 -4.46,-10 -10,-10 z m 0.05078,3 c 3.878,0 7,3.122 7,7 0,0.34078 -0.03151,0.6725 -0.07813,1 H -7.921875 C -7.968487,303.32249 -8,302.99077 -8,302.64999 c 0,-3.878 3.122,-7 6.999999,-7 z m -5.748047,11 H 4.748046 c -1.262307,1.81454 -3.360554,3 -5.748047,3 -2.387493,0 -4.48574,-1.18546 -5.748047,-3 z" opacity="1" paint-order="stroke markers fill"/></g></g></svg>