<svg xmlns="http://www.w3.org/2000/svg" xmlns:svg="http://www.w3.org/2000/svg" xmlns:xlink="http://www.w3.org/1999/xlink" id="svg8" width="32" height="32" version="1.1" viewBox="0 0 8.467 8.467"><defs id="defs2"><linearGradient id="linearGradient4567" x1=".307" x2=".307" y1="298.621" y2="291.741" gradientTransform="translate(3.9262274,-2.4143247)" gradientUnits="userSpaceOnUse" xlink:href="#linearGradient4565"/><linearGradient id="linearGradient4565"><stop id="stop4561" offset="0" stop-color="#1780f2" stop-opacity="1"/><stop id="stop4563" offset="1" stop-color="#02b3fe" stop-opacity="1"/></linearGradient></defs><metadata id="metadata5"/><g id="layer1" transform="translate(0,-288.53332)"><path id="rect4496" fill="#1463bf" fill-opacity="1" stroke="none" stroke-dasharray="none" stroke-linecap="round" stroke-linejoin="round" stroke-miterlimit="4" stroke-opacity="1" stroke-width=".389" d="m 4.2333333,288.79791 c 2.1986875,0 3.96875,1.77002 3.96875,3.96873 0,2.19867 -1.7700625,3.96875 -3.96875,3.96875 -2.1986873,0 -3.96875,-1.77008 -3.96875,-3.96875 0,-2.19871 1.7700627,-3.96873 3.96875,-3.96873 z"/><path id="rect4570-9-6" fill="url(#linearGradient4567)" fill-opacity="1" stroke="none" stroke-dasharray="none" stroke-linecap="round" stroke-linejoin="round" stroke-miterlimit="4" stroke-opacity="1" stroke-width=".371" d="m 4.2333336,289.06248 c 2.0521081,0 3.7041664,1.65204 3.7041664,3.70416 0,2.05212 -1.6520583,3.70419 -3.7041664,3.70419 -2.0521086,0 -3.704167,-1.65207 -3.704167,-3.70419 0,-2.05212 1.6520584,-3.70416 3.704167,-3.70416 z"/><path id="path4503-3" fill="#1669cc" fill-opacity="1" stroke="none" stroke-linecap="butt" stroke-linejoin="miter" stroke-opacity="1" stroke-width=".265" d="m 2.1166667,294.35414 h 1.3229166 l 0.79375,0.79375 0.7937501,-0.79375 H 6.35 l -2.1166667,-3.70415 z"/><path id="path4503" fill="#f1f9ff" fill-opacity="1" stroke="none" stroke-linecap="butt" stroke-linejoin="miter" stroke-opacity="1" stroke-width=".265" d="m 2.1166667,294.08954 h 1.3229166 l 0.79375,0.79375 0.79375,-0.79375 H 6.35 l -2.1166667,-3.70415 z"/><path id="path4505" fill="#b6daff" fill-opacity="1" stroke="none" stroke-linecap="butt" stroke-linejoin="miter" stroke-opacity="1" stroke-width=".265" d="m 4.2333333,294.88329 v -3.43956 l -0.79375,2.64581 z"/><path id="path4505-3" fill="#77baff" fill-opacity="1" stroke="none" stroke-linecap="butt" stroke-linejoin="miter" stroke-opacity="1" stroke-width=".265" d="m 4.2333336,294.88329 -3e-7,-3.43956 0.7937503,2.64581 z"/></g></svg>