<svg xmlns="http://www.w3.org/2000/svg" xmlns:svg="http://www.w3.org/2000/svg" xmlns:xlink="http://www.w3.org/1999/xlink" id="svg8" width="32" height="32" version="1.1" viewBox="0 0 32 32"><title id="title7895">Antu icon Theme</title><defs id="defs2"><linearGradient id="linearGradient856"><stop id="stop852" offset="0" stop-color="#fd685d" stop-opacity="1"/><stop id="stop854" offset="1" stop-color="#e73b3f" stop-opacity="1"/></linearGradient><linearGradient id="linearGradient858" x1="-1" x2="-1" y1="315.65" y2="291.65" gradientUnits="userSpaceOnUse" xlink:href="#linearGradient856"/></defs><metadata id="metadata5"/><g id="layer1" transform="translate(0,-282.64999)"><g id="g1491" transform="translate(17,-5.000005)"><path id="rect849" fill="url(#linearGradient858)" fill-opacity="1" stroke="none" stroke-dasharray="none" stroke-dashoffset="0" stroke-linecap="round" stroke-linejoin="round" stroke-miterlimit="4" stroke-opacity="1" stroke-width="6" d="m -16,290.64999 h 30 v 26 h -30 z" opacity="1" paint-order="stroke markers fill"/><path id="path13" fill="#03080d" fill-opacity=".992" stroke-width="1" d="m -16,289.65 c -0.55401,0 -1,0.44598 -1,0.99999 V 316.65 c 0,0.554 0.44599,0.99999 1,0.99999 h 30 c 0.55401,0 1,-0.44599 1,-0.99999 V 290.64999 C 15,290.09598 14.55401,289.65 14,289.65 Z m 1,2.00001 h 28 v 24 h -28 z"/><path id="rect6299-1-1-0-5" fill="#fff" fill-opacity=".149" stroke="none" stroke-dasharray="none" stroke-dashoffset="0" stroke-linecap="round" stroke-linejoin="bevel" stroke-miterlimit="4" stroke-opacity=".392" stroke-width=".756" d="M -15,294.64997 V 298.65 h 28 v -4.00003 z m 0,7.00003 v 3.99999 H 13 V 301.65 Z m 0,6.99999 v 3.99998 h 28 v -3.99998 z" opacity="1" paint-order="stroke fill markers" vector-effect="none"/><path id="rect6570-7" fill="#fff" fill-opacity="1" stroke="none" stroke-dasharray="none" stroke-dashoffset="0" stroke-linecap="round" stroke-linejoin="bevel" stroke-miterlimit="4" stroke-opacity=".392" stroke-width=".756" d="m -12,293.64999 v 1.00002 h -1 V 295.65 h 1 v 2.00001 h -1 V 298.65 h 1 v 0.99999 h 1 V 298.65 h 2 v 0.99999 h 0.9999999 V 298.65 h 0.9999998 v -0.99999 H -8.0000001 V 295.65 h 0.9999998 v -0.99999 h -0.9999998 v -1.00002 H -9 v 1.00002 h -2 v -1.00002 z m 1,2.00001 h 2 v 2.00001 h -2 z" opacity="1" paint-order="stroke fill markers" vector-effect="none"/></g></g></svg>