<svg xmlns="http://www.w3.org/2000/svg" xmlns:svg="http://www.w3.org/2000/svg" xmlns:xlink="http://www.w3.org/1999/xlink" id="svg8" width="32" height="32" version="1.1" viewBox="0 0 32 32"><title id="title7895">Antu icon Theme</title><defs id="defs2"><linearGradient id="linearGradient852" x1="8.448" x2="8.448" y1="295.072" y2="288.722" gradientTransform="matrix(3.7795275,0,0,3.7795275,-28.928569,-799.58391)" gradientUnits="userSpaceOnUse" xlink:href="#linearGradient4784"/><linearGradient id="linearGradient4784"><stop id="stop4780" offset="0" stop-color="#09a8e9" stop-opacity="1"/><stop id="stop4782" offset="1" stop-color="#1cb9f5" stop-opacity="1"/></linearGradient></defs><metadata id="metadata5"/><g id="layer1" transform="translate(0,-282.64999)"><g id="g4445" transform="translate(13,-5)"><path id="rect843" fill="#097fb2" fill-opacity="1" stroke="none" stroke-dasharray="none" stroke-linecap="round" stroke-linejoin="round" stroke-miterlimit="4" stroke-opacity="1" stroke-width="2.393" d="m -10,288.64999 h 26 c 1.108,0 2,0.892 2,2 v 26 c 0,1.108 -0.892,2 -2,2 h -26 c -1.108,0 -2,-0.892 -2,-2 v -26 c 0,-1.108 0.892,-2 2,-2 z" opacity="1"/><path id="rect843-3" fill="url(#linearGradient852)" fill-opacity="1" stroke="none" stroke-dasharray="none" stroke-linecap="round" stroke-linejoin="round" stroke-miterlimit="4" stroke-opacity="1" stroke-width="2.234" d="m -10,289.64999 h 26 c 0.553999,0 1,0.446 1,1 v 26 c 0,0.554 -0.446001,1 -1,1 h -26 c -0.554,0 -1,-0.446 -1,-1 v -26 c 0,-0.554 0.446,-1 1,-1 z" opacity="1"/><path id="path4556-3-5" fill="#0a92cc" fill-opacity="1" stroke="none" stroke-linecap="butt" stroke-linejoin="miter" stroke-opacity="1" stroke-width=".997" d="M -7.0000001,310.6485 -2,308.64852 C -6.0000002,306.64851 -7.0000001,300.64851 -5.9999983,296.86603 -4.0000001,298.64849 -1,300.64851 3.000002,301.83777 2.000003,297.86035 6.000005,294.87732 10,297.86035 l 3,-0.99432 -2.000001,3.97739 C 11,313.6485 2,314.64852 -7.0000001,310.6485 Z"/><path id="path4556-3" fill="#fff" fill-opacity=".989" stroke="none" stroke-linecap="butt" stroke-linejoin="miter" stroke-opacity="1" stroke-width=".997" d="m -7.0000002,309.6512 5,-1.99998 c -4.0000002,-2.00001 -5,-8.00001 -3.9999983,-11.78249 C -4.0000003,297.65119 -1,299.65121 3.000001,300.84047 2.000003,296.86305 6.000005,293.88002 10,296.86305 l 3,-0.99432 -2.000001,3.97739 c 0,12.80508 -8.999999,13.8051 -17.9999992,9.80508 z"/></g></g></svg>