<svg xmlns="http://www.w3.org/2000/svg" xmlns:svg="http://www.w3.org/2000/svg" id="svg8" width="32" height="32" version="1.1" viewBox="0 0 8.467 8.467"><defs id="defs2"><linearGradient id="a-7" x1="16" x2="16" y1="1049.362" y2="1023.362" gradientTransform="matrix(0.26458333,0,0,0.26458333,5.5704241,21.236701)" gradientUnits="userSpaceOnUse"><stop id="stop2-5" offset="0" stop-color="#4d4d4d"/><stop id="stop4-3" offset="1" stop-color="#1f1f1f"/></linearGradient></defs><metadata id="metadata5"/><g id="layer1" transform="translate(0,-288.53332)"><g id="g5126" transform="translate(-5.5704242,-2.6741817)"><path id="path7-9" fill="url(#a-7)" stroke-width=".265" d="m 5.8350074,292.00125 h 7.9375006 v 6.87917 H 5.8350074 Z"/><path id="rect6299-1-1-0-5" fill="#0f0f0f" fill-opacity=".392" stroke="none" stroke-dasharray="none" stroke-dashoffset="0" stroke-linecap="round" stroke-linejoin="bevel" stroke-miterlimit="4" stroke-opacity=".392" stroke-width=".2" d="m 6.099591,293.05957 v 1.05834 h 7.408333 v -1.05834 z m 0,1.85209 v 1.05833 h 7.408333 v -1.05833 z m 0,1.85208 v 1.05833 h 7.408333 v -1.05833 z" opacity="1" paint-order="stroke fill markers" vector-effect="none"/><path id="path9" fill="#004d8f" fill-rule="evenodd" stroke="#0084f7" stroke-linejoin="round" stroke-width=".265" d="m 5.8350074,297.29292 0.79375,-0.79375 0.2645834,0.26458 0.2645833,-0.26458 0.2645833,-0.79375 0.5291667,-0.52917 0.5291667,1.85209 0.5291666,-0.52917 0.5291667,0.26458 0.2645833,-0.26458 0.2645836,-0.52917 0.264583,-2.91041 0.529167,1.85208 0.79375,1.5875 0.264583,-0.26458 0.264584,0.52916 0.79375,0.52917 h 0.264583 l 0.529167,-0.26458 v 1.85208 H 5.8350074 Z"/><path id="path11" fill="#afb1b4" fill-rule="evenodd" stroke="#e3e5ea" stroke-linecap="round" stroke-linejoin="round" stroke-width=".265" d="m 5.8350074,298.08667 0.79375,-0.26458 0.5291667,0.26458 0.2645833,-0.26458 0.2645834,-0.52917 0.2645833,0.26458 0.2645833,0.26459 0.5291667,0.26458 h 0.2645833 l 0.2645834,-0.26458 0.5291666,-0.26459 0.5291666,-0.52916 0.529167,0.52916 0.529167,0.26459 h 0.264583 l 0.529167,-0.26459 0.264583,0.26459 0.529167,0.26458 0.79375,-0.52917 v 1.32292 H 5.8350074 Z"/><path id="path13-1" fill="#030303" stroke-width=".265" d="m 5.8350074,291.73667 c -0.1465817,0 -0.2645833,0.118 -0.2645833,0.26458 v 6.87917 c 0,0.14658 0.1180016,0.26458 0.2645833,0.26458 h 7.9375006 c 0.146581,0 0.264583,-0.118 0.264583,-0.26458 v -6.87917 c 0,-0.14658 -0.118002,-0.26458 -0.264583,-0.26458 z m 0.2645833,0.52917 h 7.4083333 v 6.35 H 6.0995907 Z"/></g></g></svg>