<svg xmlns="http://www.w3.org/2000/svg" xmlns:svg="http://www.w3.org/2000/svg" xmlns:xlink="http://www.w3.org/1999/xlink" id="svg8" width="32" height="32" version="1.1" viewBox="0 0 32 32"><title id="title7895">Antu icon Theme</title><defs id="defs2"><linearGradient id="linearGradient4902"><stop id="stop4898" offset="0" stop-color="#0d72ec" stop-opacity="1"/><stop id="stop4900" offset="1" stop-color="#36b2fb" stop-opacity="1"/></linearGradient><linearGradient id="linearGradient4846"><stop id="stop4842" offset="0" stop-color="#e4efef" stop-opacity="1"/><stop id="stop4844" offset="1" stop-color="#fcfcfc" stop-opacity="1"/></linearGradient><linearGradient id="linearGradient2126"><stop id="stop2122" offset="0" stop-color="#475057" stop-opacity="1"/><stop id="stop2124" offset="1" stop-color="#5e6a73" stop-opacity="1"/></linearGradient><linearGradient id="linearGradient966-8" x1="14" x2="14" y1="305.65" y2="288.65" gradientTransform="translate(-10,21.000008)" gradientUnits="userSpaceOnUse" xlink:href="#linearGradient4846"/><linearGradient id="linearGradient974-9-7" x1="14" x2="14" y1="288.65" y2="283.65" gradientTransform="translate(-10,21.000008)" gradientUnits="userSpaceOnUse" xlink:href="#linearGradient4902"/><linearGradient id="linearGradient966-5" x1="14" x2="14" y1="305.65" y2="288.65" gradientTransform="translate(-14,13.000008)" gradientUnits="userSpaceOnUse" xlink:href="#linearGradient4846"/><linearGradient id="linearGradient974-6" x1="14" x2="14" y1="288.65" y2="283.65" gradientTransform="translate(-14,13.000008)" gradientUnits="userSpaceOnUse" xlink:href="#linearGradient2126"/></defs><metadata id="metadata5"/><g id="layer1" transform="translate(0,-282.64999)"><g id="g2167" transform="translate(26,-5.0000039)"><g id="g923" transform="translate(-12,-7.9999961)"><path id="rect932-1" fill="#90a4ae" fill-opacity="1" stroke="none" stroke-dasharray="none" stroke-dashoffset="0" stroke-linecap="round" stroke-linejoin="round" stroke-miterlimit="4" stroke-opacity="1" stroke-width="2" d="m -13,295.64999 h 26 c 0.554,0 1,0.446 1,1 v 22 c 0,0.554 -0.446,1 -1,1 h -26 c -0.554,0 -1,-0.446 -1,-1 v -22 c 0,-0.554 0.446,-1 1,-1 z" opacity="1"/><path id="rect934-2" fill="url(#linearGradient966-5)" fill-opacity="1" stroke="none" stroke-dasharray="none" stroke-dashoffset="0" stroke-linecap="round" stroke-linejoin="round" stroke-miterlimit="4" stroke-opacity="1" stroke-width="2" d="m -13,296.64999 h 26 v 22 h -26 z" opacity="1"/><path id="rect932-8-7" fill="#343b40" fill-opacity="1" stroke="none" stroke-dasharray="none" stroke-dashoffset="0" stroke-linecap="round" stroke-linejoin="round" stroke-miterlimit="4" stroke-opacity="1" stroke-width="2" d="m -13,295.64999 c -0.554,0 -1,0.446 -1,1 v 4 1 h 1 26 1 v -1 -4 c 0,-0.554 -0.446,-1 -1,-1 z" opacity="1"/><path id="rect934-7-0" fill="url(#linearGradient974-6)" fill-opacity="1" stroke="none" stroke-dasharray="none" stroke-dashoffset="0" stroke-linecap="round" stroke-linejoin="round" stroke-miterlimit="4" stroke-opacity="1" stroke-width="2" d="m -13,296.64999 h 26 v 4 h -26 z" opacity="1"/><path id="rect932-3-9" fill="#90a4ae" fill-opacity="1" stroke="none" stroke-dasharray="none" stroke-dashoffset="0" stroke-linecap="round" stroke-linejoin="round" stroke-miterlimit="4" stroke-opacity="1" stroke-width="2" d="m -9,303.64999 h 26 c 0.554,0 1,0.446 1,1 v 22 c 0,0.554 -0.446,1 -1,1 H -9 c -0.554,0 -1,-0.446 -1,-1 v -22 c 0,-0.554 0.446,-1 1,-1 z" opacity="1"/><path id="rect934-6" fill="url(#linearGradient966-8)" fill-opacity="1" stroke="none" stroke-dasharray="none" stroke-dashoffset="0" stroke-linecap="round" stroke-linejoin="round" stroke-miterlimit="4" stroke-opacity="1" stroke-width="2" d="m -9,304.64999 h 26 v 22 H -9 Z" opacity="1"/><path id="rect932-8-1-3" fill="#115799" fill-opacity="1" stroke="none" stroke-dasharray="none" stroke-dashoffset="0" stroke-linecap="round" stroke-linejoin="round" stroke-miterlimit="4" stroke-opacity="1" stroke-width="2" d="m -9,303.64999 c -0.554,0 -1,0.446 -1,1 v 4 1 h 1 26 1 v -1 -4 c 0,-0.554 -0.446,-1 -1,-1 z" opacity="1"/><path id="rect934-7-2-6" fill="url(#linearGradient974-9-7)" fill-opacity="1" stroke="none" stroke-dasharray="none" stroke-dashoffset="0" stroke-linecap="round" stroke-linejoin="round" stroke-miterlimit="4" stroke-opacity="1" stroke-width="2" d="m -9,304.64999 h 26 v 4 H -9 Z" opacity="1"/></g></g></g></svg>