<svg xmlns="http://www.w3.org/2000/svg" xmlns:svg="http://www.w3.org/2000/svg" xmlns:xlink="http://www.w3.org/1999/xlink" id="svg8" width="32" height="32" version="1.1" viewBox="0 0 32 32"><title id="title7895">Antu icon Theme</title><defs id="defs2"><linearGradient id="linearGradient852" x1="8.448" x2="8.448" y1="295.601" y2="288.987" gradientTransform="matrix(3.7795275,0,0,3.7795275,-41.928569,-799.58392)" gradientUnits="userSpaceOnUse" xlink:href="#linearGradient6408"/><linearGradient id="linearGradient6408"><stop id="stop6404" offset="0" stop-color="#f34242" stop-opacity="1"/><stop id="stop6406" offset="1" stop-color="#ff6767" stop-opacity="1"/></linearGradient></defs><metadata id="metadata5"/><g id="layer1" transform="translate(0,-282.64999)"><g id="g2167" transform="translate(26,-5.0000039)"><path id="rect843" fill="#b22c2c" fill-opacity="1" stroke="none" stroke-dasharray="none" stroke-linecap="round" stroke-linejoin="round" stroke-miterlimit="4" stroke-opacity="1" stroke-width="2.393" d="M -23,288.64999 H 3 c 1.108,0 2,0.892 2,2 v 26 c 0,1.108 -0.892,2 -2,2 h -26 c -1.108,0 -2,-0.892 -2,-2 v -26 c 0,-1.108 0.892,-2 2,-2 z" opacity="1"/><path id="rect843-3" fill="url(#linearGradient852)" fill-opacity="1" stroke="none" stroke-dasharray="none" stroke-linecap="round" stroke-linejoin="round" stroke-miterlimit="4" stroke-opacity="1" stroke-width="2.234" d="M -23,289.64999 H 3 c 0.554,0 1,0.446 1,1 v 26 c 0,0.554 -0.446,1 -1,1 h -26 c -0.554,0 -1,-0.446 -1,-1 v -26 c 0,-0.554 0.446,-1 1,-1 z" opacity="1"/><path id="rect4665-4-3" fill="#cc3232" fill-opacity="1" stroke="none" stroke-opacity="1" stroke-width="1" d="m -19,294.65013 v 19.99998 h 4.999999 v -6 h 7.9999993 2.000001 2.999999 V 294.65013 H -14.000001 -15 Z m 4.999999,4.99998 h 7.9999993 v 4.00002 h -7.9999993 z" opacity="1"/><path id="rect4665-4" fill="#fdbbbb" fill-opacity="1" stroke="none" stroke-opacity="1" stroke-width="1" d="m -15,302.65011 h 10.9999993 v 4.99997 H -15 Z" opacity="1"/><path id="rect4645-7" fill="#fff6f6" fill-opacity="1" stroke="none" stroke-opacity="1" stroke-width="1" d="m -19,293.65003 v 20.00001 h 4.999999 v -15 h 8.0000003 v 9 h 5 V 293.65003 H -14.000001 -15 Z" opacity="1"/></g></g></svg>