<svg xmlns="http://www.w3.org/2000/svg" xmlns:svg="http://www.w3.org/2000/svg" xmlns:xlink="http://www.w3.org/1999/xlink" id="svg8" width="32" height="32" version="1.1" viewBox="0 0 32 32"><title id="title7895">Antu icon Theme</title><defs id="defs2"><linearGradient id="linearGradient852" x1="8.448" x2="8.448" y1="295.601" y2="288.987" gradientTransform="matrix(3.7795275,0,0,3.7795275,-24.928569,-786.58392)" gradientUnits="userSpaceOnUse" xlink:href="#linearGradient5716"/><linearGradient id="linearGradient5716"><stop id="stop5712" offset="0" stop-color="#1980f1" stop-opacity="1"/><stop id="stop5714" offset="1" stop-color="#1fb5f9" stop-opacity="1"/></linearGradient></defs><metadata id="metadata5"/><g id="layer1" transform="translate(0,-282.64999)"><g id="g1469" transform="translate(8.9999995,-18.000004)"><path id="rect843" fill="#1466b2" fill-opacity="1" stroke="none" stroke-dasharray="none" stroke-linecap="round" stroke-linejoin="round" stroke-miterlimit="4" stroke-opacity="1" stroke-width="2.393" d="M -5.9999995,301.64999 H 20 c 1.108,0 2,0.892 2,2 v 26 c 0,1.108 -0.892,2 -2,2 H -5.9999995 c -1.108,0 -2,-0.892 -2,-2 v -26 c 0,-1.108 0.892,-2 2,-2 z" opacity="1"/><path id="rect843-3" fill="url(#linearGradient852)" fill-opacity="1" stroke="none" stroke-dasharray="none" stroke-linecap="round" stroke-linejoin="round" stroke-miterlimit="4" stroke-opacity="1" stroke-width="2.234" d="M -5.9999995,302.64999 H 20 c 0.554,0 1,0.446 1,1 v 26 c 0,0.554 -0.446,1 -1,1 H -5.9999995 c -0.554,0 -1,-0.446 -1,-1 v -26 c 0,-0.554 0.446,-1 1,-1 z" opacity="1"/><path id="path5356-3-6-3" fill="#1670d9" fill-opacity="1" stroke="none" stroke-linecap="butt" stroke-linejoin="miter" stroke-opacity="1" stroke-width="1" d="m -3.0000009,307.65006 v 20.00001 h 3.9999998 2.0000004 l 4,-4.0001 3.9999987,4.0001 h 2 4 v -20.00001 h -6 v 11.33401 l -3.9999987,-3.334 -4,3.334 v -11.33401 z"/><path id="path5356-3-6" fill="#a7d5fb" fill-opacity="1" stroke="none" stroke-linecap="butt" stroke-linejoin="miter" stroke-opacity="1" stroke-width="1" d="m 2.9999983,326.65001 4.000001,-4.00002 3.9999987,4.00002 h 2 v -7.00002 l -5.9999987,-4.99998 -6.0000007,4.99998 v 7.00002 z"/><path id="rect5339-6-9" fill="#f0f7fc" fill-opacity="1" stroke="none" stroke-opacity="1" stroke-width="1" d="m -3.0000009,306.65 v 20.00001 H 2.9999983 V 306.65 Z m 13.9999989,0 v 20.00001 h 6 V 306.65 Z" opacity="1"/></g></g></svg>