<svg xmlns="http://www.w3.org/2000/svg" xmlns:svg="http://www.w3.org/2000/svg" xmlns:xlink="http://www.w3.org/1999/xlink" id="svg8" width="32" height="32" version="1.1" viewBox="0 0 32 32"><title id="title7895">Antu icon Theme</title><defs id="defs2"><linearGradient id="linearGradient2237" x1="8.448" x2="8.448" y1="295.601" y2="288.987" gradientTransform="matrix(3.7795275,0,0,3.7795275,-32.928569,-793.58391)" gradientUnits="userSpaceOnUse" xlink:href="#linearGradient7100"/><linearGradient id="linearGradient7100"><stop id="stop7096" offset="0" stop-color="#02ca56" stop-opacity="1"/><stop id="stop7098" offset="1" stop-color="#75d97d" stop-opacity="1"/></linearGradient></defs><metadata id="metadata5"/><g id="layer1" transform="translate(0,-282.64999)"><g id="g2852" transform="translate(17,-11)"><path id="rect843" fill="#269334" fill-opacity="1" stroke="none" stroke-dasharray="none" stroke-linecap="round" stroke-linejoin="round" stroke-miterlimit="4" stroke-opacity="1" stroke-width="2.393" d="M -14,294.64999 H 11.999999 C 13.108,294.64999 14,295.542 14,296.65 v 25.99998 c 0,1.108 -0.892,2.00001 -2.000001,2.00001 H -14 c -1.108,0 -2,-0.89201 -2,-2.00001 V 296.65 c 0,-1.108 0.892,-2.00001 2,-2.00001 z" opacity="1"/><path id="rect843-3" fill="url(#linearGradient2237)" fill-opacity="1" stroke="none" stroke-dasharray="none" stroke-linecap="round" stroke-linejoin="round" stroke-miterlimit="4" stroke-opacity="1" stroke-width="2.234" d="M -14,295.65002 H 11.999999 C 12.554,295.65002 13,296.096 13,296.65 v 26.00001 c 0,0.55397 -0.446,0.99999 -1.000001,0.99999 H -14 c -0.554,0 -1,-0.44602 -1,-0.99999 V 296.65 c 0,-0.554 0.446,-0.99998 1,-0.99998 z" opacity="1"/><path id="rect5516-8-3" fill="#2eb23f" fill-opacity="1" stroke="none" stroke-opacity="1" stroke-width="1" d="m -10.000003,300.65006 v 1.99997 3 7.00002 h 3.0000001 2.0000001 7.999999 v 3 H -10.000003 v 4.99998 H 7.9999962 v -1.99998 -3 -7.00002 h -2.999999 -2.000001 -7.999999 v -3 h 12.999999 v -4.99997 z" opacity="1"/><path id="rect5516-8" fill="#afedc3" fill-opacity="1" stroke="none" stroke-opacity="1" stroke-width="1" d="M -7.0000036,307.64996 H 4.9999962 l 3e-6,3.99999 H -7.0000005 Z" opacity="1"/><path id="rect5496-4" fill="#f3fcf6" fill-opacity="1" stroke="none" stroke-opacity="1" stroke-width="1" d="m -10.000003,299.64995 v 2.00001 3 l 3e-6,6.99999 h 4.9999992 l -3e-6,-6.99999 h 13 v -5.00001 z m 12.9999992,8.00001 v 6.99999 H -10.000003 v 5.00001 H 7.9999962 v -2.00001 -3 -6.99999 z" opacity="1"/></g></g></svg>