<svg xmlns="http://www.w3.org/2000/svg" xmlns:svg="http://www.w3.org/2000/svg" xmlns:xlink="http://www.w3.org/1999/xlink" id="svg8" width="32" height="32" version="1.1" viewBox="0 0 32 32"><title id="title7895">Antu icon Theme</title><defs id="defs2"><linearGradient id="linearGradient864"><stop id="stop860" offset="0" stop-color="#1076ed" stop-opacity="1"/><stop id="stop862" offset="1" stop-color="#34b0fa" stop-opacity="1"/></linearGradient><linearGradient id="linearGradient866" x1="5" x2="5" y1="314.65" y2="290.65" gradientUnits="userSpaceOnUse" xlink:href="#linearGradient864"/></defs><metadata id="metadata5"/><g id="layer1" transform="translate(0,-282.64999)"><g id="g2176" transform="translate(11,-4.000005)"><path id="rect858" fill="url(#linearGradient866)" fill-opacity="1" stroke="none" stroke-dasharray="none" stroke-dashoffset="0" stroke-linecap="round" stroke-linejoin="round" stroke-miterlimit="4" stroke-opacity="1" stroke-width="6" d="M -10,289.64999 H 20 V 315.65 h -30 z" opacity="1" paint-order="stroke markers fill"/><path id="path13" fill="#03080d" fill-opacity=".992" stroke-width="1" d="m -10,288.65 c -0.55401,0 -1,0.44598 -1,0.99999 V 315.65 c 0,0.554 0.44599,0.99999 1,0.99999 h 30 c 0.55401,0 1,-0.44599 1,-0.99999 V 289.64999 C 21,289.09598 20.55401,288.65 20,288.65 Z m 0.9999997,2.00001 H 19 v 24 H -9.0000003 Z"/><path id="rect6299-1-1-0-5" fill="#fff" fill-opacity=".232" stroke="none" stroke-dasharray="none" stroke-dashoffset="0" stroke-linecap="round" stroke-linejoin="bevel" stroke-miterlimit="4" stroke-opacity=".392" stroke-width=".756" d="M -9.0000003,293.64997 V 297.65 H 19 v -4.00003 z m 0,7.00003 v 3.99999 H 19 V 300.65 Z m 0,6.99999 v 3.99998 H 19 v -3.99998 z" opacity="1" paint-order="stroke fill markers" vector-effect="none"/><path id="rect6570-7" fill="#fffeff" fill-opacity="1" stroke="none" stroke-dasharray="none" stroke-dashoffset="0" stroke-linecap="round" stroke-linejoin="bevel" stroke-miterlimit="4" stroke-opacity=".392" stroke-width=".756" d="m -6,292.64999 v 1.00002 H -6.9999998 V 294.65 H -6 v 2.00001 H -6.9999998 V 297.65 H -6 v 0.99999 h 1.0000003 V 297.65 H -3 v 0.99999 h 0.9999999 V 297.65 h 0.9999998 v -0.99999 H -2.0000001 V 294.65 h 0.9999998 v -0.99999 h -0.9999998 v -1.00002 H -3 v 1.00002 h -1.9999997 v -1.00002 z M -4.9999997,294.65 H -3 v 2.00001 h -1.9999997 z" opacity="1" paint-order="stroke fill markers" vector-effect="none"/></g></g></svg>