<svg xmlns="http://www.w3.org/2000/svg" xmlns:svg="http://www.w3.org/2000/svg" xmlns:xlink="http://www.w3.org/1999/xlink" id="svg8" width="64" height="64" version="1.1" viewBox="0 0 16.933 16.933"><defs id="defs2"><linearGradient id="linearGradient4533" x1="1.83" x2="1.83" y1="289.05" y2="285.081" gradientTransform="translate(-2.3051997,3.3742635)" gradientUnits="userSpaceOnUse" xlink:href="#linearGradient10239-6"/><linearGradient id="linearGradient10239-6"><stop id="stop10235-1" offset="0" stop-color="#d94c41" stop-opacity="1"/><stop id="stop10237-2" offset="1" stop-color="#fa584b" stop-opacity="1"/></linearGradient><linearGradient id="linearGradient4543" x1="8.444" x2="8.444" y1="299.634" y2="287.727" gradientTransform="translate(-2.3051997,3.3742635)" gradientUnits="userSpaceOnUse" xlink:href="#linearGradient10231-8"/><linearGradient id="linearGradient10231-8"><stop id="stop10227-9" offset="0" stop-color="#e85145" stop-opacity="1"/><stop id="stop10229-7" offset="1" stop-color="#fe756a" stop-opacity="1"/></linearGradient></defs><metadata id="metadata5"/><g id="layer1" transform="translate(0,-280.06665)"><g id="g5296" transform="translate(3.1212759,-7.3307733)"><path id="rect9319-4" fill="#e53737" fill-opacity="1" stroke="none" stroke-opacity="1" stroke-width=".265" d="m -2.3275244,288.45575 5.8208302,2e-5 1.3229199,1.85208 h 8.2020803 c 0.43974,0 0.79375,0.35401 0.79375,0.79375 v 2.38125 c 0,0.43974 -0.35401,0.79375 -0.79375,0.79375 H -2.3275244 c -0.43974,0 -0.79375,-0.35401 -0.79375,-0.79375 v -4.23335 c 0,-0.43974 0.35401,-0.79375 0.79375,-0.79375 z" opacity="1"/><path id="rect9322-9" fill="url(#linearGradient4533)" fill-opacity="1" stroke="none" stroke-opacity="1" stroke-width=".265" d="m -2.3275344,288.72034 5.5562601,10e-6 1.8520799,2.64583 -1.3229199,1.85209 h -6.0854201 c -0.29316,0 -0.52917,-0.23601 -0.52917,-0.52917 v -3.4396 c 0,-0.29315 0.23601,-0.52916 0.52917,-0.52916 z" opacity="1"/><path id="rect9313-2" fill="#e53737" fill-opacity="1" stroke="none" stroke-opacity="1" stroke-width=".265" d="m -2.3275244,292.4245 5.5562501,2e-5 1.32291,-2.11669 h 8.4666703 c 0.43974,0 0.79375,0.35401 0.79375,0.79375 v 11.3771 c 0,0.43974 -0.35401,0.79375 -0.79375,0.79375 H -2.3275244 c -0.43974,0 -0.79375,-0.35401 -0.79375,-0.79375 v -9.26043 c 0,-0.43974 0.35401,-0.79375 0.79375,-0.79375 z" opacity="1"/><path id="rect9315-0" fill="url(#linearGradient4543)" fill-opacity="1" stroke="none" stroke-opacity="1" stroke-width=".265" d="m -2.3275344,292.68909 5.8208402,10e-6 1.3229199,-2.11667 8.2020803,-10e-6 c 0.293159,0 0.52917,0.23601 0.52917,0.52917 v 11.37709 c 0,0.29316 -0.236011,0.52917 -0.52917,0.52917 H -2.3275344 c -0.29316,0 -0.52917,-0.23601 -0.52917,-0.52917 v -9.26042 c 0,-0.29316 0.23601,-0.52917 0.52917,-0.52917 z" opacity="1"/></g></g></svg>