<svg xmlns="http://www.w3.org/2000/svg" xmlns:svg="http://www.w3.org/2000/svg" xmlns:xlink="http://www.w3.org/1999/xlink" id="svg8" width="64" height="64" version="1.1" viewBox="0 0 64 64"><title id="title7895">Antu icon Theme</title><defs id="defs2"><linearGradient id="linearGradient8212" x1="-3.724" x2="-3.724" y1="285.075" y2="281.37" gradientTransform="matrix(3.7795275,0,0,3.7795275,3.0755063,-795.79743)" gradientUnits="userSpaceOnUse" xlink:href="#linearGradient8210"/><linearGradient id="linearGradient8210"><stop id="stop8206" offset="0" stop-color="#3489e5" stop-opacity="1"/><stop id="stop8208" offset="1" stop-color="#3a98f2" stop-opacity="1"/></linearGradient><linearGradient id="linearGradient8204" x1="2.097" x2="2.097" y1="295.658" y2="283.223" gradientTransform="matrix(3.7795275,0,0,3.7795275,3.0755063,-795.79743)" gradientUnits="userSpaceOnUse" xlink:href="#linearGradient8202"/><linearGradient id="linearGradient8202"><stop id="stop8198" offset="0" stop-color="#3c9af3" stop-opacity="1"/><stop id="stop8200" offset="1" stop-color="#51c5f9" stop-opacity="1"/></linearGradient><linearGradient id="linearGradient6997" x1="14.023" x2="14.023" y1="294.619" y2="290.915" gradientTransform="matrix(3.7795275,0,0,3.7795275,-20.999999,-1063.5196)" gradientUnits="userSpaceOnUse" xlink:href="#linearGradient4627"/><linearGradient id="linearGradient4627"><stop id="stop4623" offset="0" stop-color="#c2f7f9" stop-opacity="1"/><stop id="stop4625" offset="1" stop-color="#e5fafb" stop-opacity="1"/></linearGradient></defs><metadata id="metadata5"/><g id="layer1" transform="translate(0,-250.64999)"><g id="g7637" transform="translate(24.000001,-11.999995)"><path id="rect9319-4" fill="#3182d9" fill-opacity="1" stroke="none" stroke-opacity="1" stroke-width="1" d="m -20.999993,266.64996 21.99998826,8e-5 5.00001204,6.99999 H 36.999992 c 1.66201,0 3,1.33799 3,3 v 9 c 0,1.66201 -1.33799,3 -3,3 h -57.999985 c -1.662009,0 -3,-1.33799 -3,-3 v -16.00006 c 0,-1.66201 1.337991,-3 3,-3.00001 z" opacity="1"/><path id="rect9322-9" fill="url(#linearGradient8212)" fill-opacity="1" stroke="none" stroke-opacity="1" stroke-width="1" d="M -21.000031,267.64999 7.2566928e-6,267.65003 6.9999943,277.65001 1.9999823,284.65003 H -21.000031 c -1.108006,0 -2.000012,-0.892 -2.000012,-2 v -13.00006 c 0,-1.10797 0.892006,-1.99997 2.000012,-1.99998 z" opacity="1"/><path id="rect9313-2" fill="#3182d9" fill-opacity="1" stroke="none" stroke-opacity="1" stroke-width="1" d="M -20.999993,281.64996 7.2566928e-6,281.65003 4.9999823,273.64995 H 36.999992 c 1.66201,0 3,1.33799 3,3 v 43.00006 c 0,1.66201 -1.33799,3 -3,3 h -57.999985 c -1.662009,0 -3,-1.33799 -3,-3 v -35.00005 c 0,-1.66201 1.337991,-3 3,-3 z" opacity="1"/><path id="rect9315-0" fill="url(#linearGradient8204)" fill-opacity="1" stroke="none" stroke-opacity="1" stroke-width="1" d="m -21.000031,282.64999 22.00002626,4e-5 5.00001204,-8.00002 30.9999847,-4e-5 c 1.108006,0 2.000013,0.89201 2.000013,2.00001 v 43.00003 c 0,1.10801 -0.892007,2.00001 -2.000013,2.00001 h -58.000023 c -1.108006,0 -2.000012,-0.892 -2.000012,-2.00001 V 284.65 c 0,-1.10801 0.892006,-2.00002 2.000012,-2.00001 z" opacity="1"/><path id="rect6965-6-4" fill="#358bd9" fill-opacity="1" stroke="none" stroke-dasharray="none" stroke-linecap="round" stroke-linejoin="round" stroke-miterlimit="4" stroke-opacity="1" stroke-width="2" d="m -1e-6,290.64999 c -1.108025,0 -2,0.89195 -2,2 v 20 c 0,1.10804 0.891975,2 2,2 h 4 v -2 h 2 v -2 h -2 v -2 h 2 v 2 h 2 v -2 h 2 v 2 h 2 v -2 h 2 v -2 h -2 v -2 h 2 v -2 h -2 v -2 h 2 v 2 h 2 v -2 h 2 v -3 l -6,-7 z m 16,12 v 2 h 2 v -2 z m 0,2 h -2 v 2 h 2 z m 0,2 v 2 h 2 v -2 z m 0,2 h -2 v 2 h 2 z m 0,2 v 2 l 2,0 c 0,0 0,-2 0,-2 z m 0,4 v -2 h -2 v 2 z m -2,-2 v -2 h -2 v 2 z m -2,0 h -2 v 2 h 2 z m -2,0 v -2 h -2 v 2 z m -2,0 h -2 v 2 h 2 z" opacity="1"/><path id="rect6965-6" fill="url(#linearGradient6997)" fill-opacity="1" stroke="none" stroke-dasharray="none" stroke-linecap="round" stroke-linejoin="round" stroke-miterlimit="4" stroke-opacity="1" stroke-width="2" d="m 24,27 c -1.108025,0 -2,0.89195 -2,2 v 20 c 0,1.10805 0.891975,1.99999 2,2 h 4 v -2 h 2 v -2 h -2 v -2 h 2 v 2 h 2 v -2 h 2 v 2 h 2 v -2 h 2 v -2 h -2 v -2 h 2 v -2 h -2 v -2 h 2 v 2 h 2 v -2 h 2 v -3 l -6,-7 z m 16,12 v 2 h 2 v -2 z m 0,2 h -2 v 2 h 2 z m 0,2 v 2 h 2 v -2 z m 0,2 h -2 v 2 h 2 z m 0,2 v 2 l 2,-5e-6 c 0,0 0,-2 0,-1.999995 z m 0,3.999995 V 49 h -2 v 2 z M 38,49 v -2 h -2 v 2 z m -2,0 h -2 v 2 h 2 z m -2,0 v -2 h -2 v 2 z m -2,0 h -2 v 2 h 2 z" opacity="1" transform="translate(-24.000001,262.64999)"/></g></g></svg>