<svg xmlns="http://www.w3.org/2000/svg" xmlns:svg="http://www.w3.org/2000/svg" xmlns:xlink="http://www.w3.org/1999/xlink" id="svg8" width="64" height="64" version="1.1" viewBox="0 0 64 64"><title id="title7895">Antu icon Theme</title><defs id="defs2"><linearGradient id="linearGradient8212" x1="-3.724" x2="-3.724" y1="285.075" y2="281.37" gradientTransform="matrix(3.7795275,0,0,3.7795275,-24.924494,-799.79743)" gradientUnits="userSpaceOnUse" xlink:href="#linearGradient8210"/><linearGradient id="linearGradient8210"><stop id="stop8206" offset="0" stop-color="#3489e5" stop-opacity="1"/><stop id="stop8208" offset="1" stop-color="#3a98f2" stop-opacity="1"/></linearGradient><linearGradient id="linearGradient8204" x1="2.097" x2="2.097" y1="295.658" y2="283.223" gradientTransform="matrix(3.7795275,0,0,3.7795275,-24.924494,-799.79743)" gradientUnits="userSpaceOnUse" xlink:href="#linearGradient8202"/><linearGradient id="linearGradient8202"><stop id="stop8198" offset="0" stop-color="#3c9af3" stop-opacity="1"/><stop id="stop8200" offset="1" stop-color="#51c5f9" stop-opacity="1"/></linearGradient></defs><metadata id="metadata5"/><g id="layer1" transform="translate(0,-250.64999)"><g id="g5204" transform="translate(52.000001,-7.999995)"><path id="rect9319-4" fill="#3182d9" fill-opacity="1" stroke="none" stroke-opacity="1" stroke-width="1" d="m -48.999993,262.64996 21.999988,8e-5 5.000012,6.99999 H 8.9999923 c 1.6620097,0 2.9999997,1.33799 2.9999997,3 v 9 c 0,1.66201 -1.33799,3 -2.9999997,3 H -48.999993 c -1.662009,0 -3,-1.33799 -3,-3 v -16.00006 c 0,-1.66201 1.337991,-3 3,-3.00001 z" opacity="1"/><path id="rect9322-9" fill="url(#linearGradient8212)" fill-opacity="1" stroke="none" stroke-opacity="1" stroke-width="1" d="m -49.000031,263.64999 21.000038,4e-5 6.999987,9.99998 -5.000012,7.00002 h -23.000013 c -1.108006,0 -2.000012,-0.892 -2.000012,-2 v -13.00006 c 0,-1.10797 0.892006,-1.99997 2.000012,-1.99998 z" opacity="1"/><path id="rect9313-2" fill="#3182d9" fill-opacity="1" stroke="none" stroke-opacity="1" stroke-width="1" d="m -48.999993,277.64996 21,7e-5 4.999975,-8.00008 H 8.9999923 c 1.6620097,0 2.9999997,1.33799 2.9999997,3 v 43.00006 c 0,1.66201 -1.33799,3 -2.9999997,3 H -48.999993 c -1.662009,0 -3,-1.33799 -3,-3 v -35.00005 c 0,-1.66201 1.337991,-3 3,-3 z" opacity="1"/><path id="rect9315-0" fill="url(#linearGradient8204)" fill-opacity="1" stroke="none" stroke-opacity="1" stroke-width="1" d="m -49.000031,278.64999 22.000026,4e-5 5.000012,-8.00002 30.9999853,-4e-5 c 1.1080057,0 2.0000127,0.89201 2.0000127,2.00001 v 43.00003 c 0,1.10801 -0.892007,2.00001 -2.0000127,2.00001 H -49.000031 c -1.108006,0 -2.000012,-0.892 -2.000012,-2.00001 V 280.65 c 0,-1.10801 0.892006,-2.00002 2.000012,-2.00001 z" opacity="1"/></g></g></svg>