<svg xmlns="http://www.w3.org/2000/svg" xmlns:svg="http://www.w3.org/2000/svg" xmlns:xlink="http://www.w3.org/1999/xlink" id="svg8" width="64" height="64" version="1.1" viewBox="0 0 64 64"><title id="title7895">Antu icon Theme</title><defs id="defs2"><linearGradient id="linearGradient6075" x1="1.835" x2="1.835" y1="294.117" y2="291.471" gradientTransform="matrix(3.7795275,0,0,3.7795275,46.065355,-817.97364)" gradientUnits="userSpaceOnUse" xlink:href="#linearGradient4627"/><linearGradient id="linearGradient4627"><stop id="stop4623" offset="0" stop-color="#c2f7f9" stop-opacity="1"/><stop id="stop4625" offset="1" stop-color="#e5fafb" stop-opacity="1"/></linearGradient><linearGradient id="linearGradient8204" x1="2.097" x2="2.097" y1="295.658" y2="283.223" gradientTransform="matrix(3.7795275,0,0,3.7795275,47.075506,-811.79743)" gradientUnits="userSpaceOnUse" xlink:href="#linearGradient8202"/><linearGradient id="linearGradient8202"><stop id="stop8198" offset="0" stop-color="#3c9af3" stop-opacity="1"/><stop id="stop8200" offset="1" stop-color="#51c5f9" stop-opacity="1"/></linearGradient><linearGradient id="linearGradient8212" x1="-3.724" x2="-3.724" y1="285.075" y2="281.37" gradientTransform="matrix(3.7795275,0,0,3.7795275,47.075506,-811.79743)" gradientUnits="userSpaceOnUse" xlink:href="#linearGradient8210"/><linearGradient id="linearGradient8210"><stop id="stop8206" offset="0" stop-color="#3489e5" stop-opacity="1"/><stop id="stop8208" offset="1" stop-color="#3a98f2" stop-opacity="1"/></linearGradient></defs><metadata id="metadata5"/><g id="layer1" transform="translate(0,-250.64999)"><g id="g6840" transform="translate(-19.999999,4.000005)"><path id="rect9319-4" fill="#3182d9" fill-opacity="1" stroke="none" stroke-opacity="1" stroke-width="1" d="m 23.000007,250.64996 21.999988,8e-5 5.000012,6.99999 h 30.999985 c 1.66201,0 3,1.33799 3,3 v 9 c 0,1.66201 -1.33799,3 -3,3 H 23.000007 c -1.662009,0 -3,-1.33799 -3,-3 v -16.00006 c 0,-1.66201 1.337991,-3 3,-3.00001 z" opacity="1"/><path id="rect9322-9" fill="url(#linearGradient8212)" fill-opacity="1" stroke="none" stroke-opacity="1" stroke-width="1" d="m 22.999969,251.65 21.000038,2e-5 6.999987,9.99999 -5.000012,7.00002 H 22.999969 c -1.108006,0 -2.000012,-0.892 -2.000012,-2 v -13.00006 c 0,-1.10797 0.892006,-1.99997 2.000012,-1.99997 z" opacity="1"/><path id="rect9313-2" fill="#3182d9" fill-opacity="1" stroke="none" stroke-opacity="1" stroke-width="1" d="m 23.000007,265.64996 21,7e-5 4.999975,-8.00008 h 32.00001 c 1.66201,0 3,1.33799 3,3 v 43.00006 c 0,1.66201 -1.33799,3 -3,3 H 23.000007 c -1.662009,0 -3,-1.33799 -3,-3 v -35.00005 c 0,-1.66201 1.337991,-3 3,-3 z" opacity="1"/><path id="rect9315-0" fill="url(#linearGradient8204)" fill-opacity="1" stroke="none" stroke-opacity="1" stroke-width="1" d="m 22.999969,266.64999 22.000026,4e-5 5.000012,-8.00002 30.999985,-4e-5 c 1.108006,0 2.000013,0.89201 2.000013,2.00001 v 43.00003 c 0,1.10801 -0.892007,2.00001 -2.000013,2.00001 H 22.999969 c -1.108006,0 -2.000012,-0.892 -2.000012,-2.00001 V 268.65 c 0,-1.10801 0.892006,-2.00002 2.000012,-2.00001 z" opacity="1"/><path id="rect4546-2" fill="#358bd9" fill-opacity="1" stroke="none" stroke-dasharray="none" stroke-miterlimit="4" stroke-opacity="1" stroke-width=".3" d="m 55,275.67342 c -3.65034,0 -6.708468,2.4219 -7.675781,5.75196 -0.655271,-0.46875 -1.453597,-0.75193 -2.324219,-0.75193 -2.216,0 -4,1.78397 -4,3.99997 0,0.008 0.0019,0.0151 0.002,0.0227 -2.811786,0.25021 -5.002,2.5976 -5.002,5.47658 0,3.04699 2.453,5.5 5.5,5.5 0.168681,0 0.335278,-0.008 0.5,-0.0227 v 0.0227 h 19.999999 c 3.324,0 6,-2.67601 6,-6 0,-2.9839 -2.15811,-5.43961 -5.003906,-5.91212 3.22e-4,-0.0302 0.0038,-0.0582 0.0038,-0.0881 -2e-5,-4.43203 -3.568019,-8.00002 -8.00002,-8.00002 z" opacity="1"/><path id="rect4546" fill="url(#linearGradient6075)" fill-opacity="1" stroke="none" stroke-dasharray="none" stroke-miterlimit="4" stroke-opacity="1" stroke-width=".3" d="m 55,274.65073 c -3.650339,0 -6.708467,2.42187 -7.67578,5.75195 -0.655271,-0.46874 -1.453598,-0.75194 -2.32422,-0.75194 -2.215999,0 -3.999999,1.78398 -3.999999,3.99999 0,0.008 0.0019,0.0151 0.002,0.0227 -2.811787,0.2502 -5.002,2.59759 -5.002,5.47657 0,3.04698 2.452999,5.50001 5.5,5.50001 0.16868,0 0.335278,-0.008 0.499999,-0.0227 v 0.0227 h 19.999999 c 3.324,0 6,-2.67602 6,-6 0,-2.9839 -2.15811,-5.43962 -5.003905,-5.91213 3.21e-4,-0.0302 0.0038,-0.0582 0.0038,-0.0881 0,-4.43203 -3.567998,-8.00001 -8,-8.00001 z" opacity="1"/></g></g></svg>