<svg xmlns="http://www.w3.org/2000/svg" xmlns:svg="http://www.w3.org/2000/svg" xmlns:xlink="http://www.w3.org/1999/xlink" id="svg8" width="64" height="64" version="1.1" viewBox="0 0 64 64"><title id="title7895">Antu icon Theme</title><defs id="defs2"><linearGradient id="linearGradient6216" x1="33.001" x2="33.001" y1="50" y2="38.661" gradientTransform="translate(-32.001007,260.30037)" gradientUnits="userSpaceOnUse" xlink:href="#linearGradient4631"/><linearGradient id="linearGradient4631"><stop id="stop4627" offset="0" stop-color="#c2f0f2" stop-opacity="1"/><stop id="stop4629" offset="1" stop-color="#f2feff" stop-opacity="1"/></linearGradient><linearGradient id="linearGradient8212" x1="-3.724" x2="-3.724" y1="285.075" y2="281.37" gradientTransform="matrix(3.7795275,0,0,3.7795275,-4.924493,-798.14706)" gradientUnits="userSpaceOnUse" xlink:href="#linearGradient8210"/><linearGradient id="linearGradient8210"><stop id="stop8206" offset="0" stop-color="#3489e5" stop-opacity="1"/><stop id="stop8208" offset="1" stop-color="#3a98f2" stop-opacity="1"/></linearGradient><linearGradient id="linearGradient8204" x1="2.097" x2="2.097" y1="295.658" y2="283.223" gradientTransform="matrix(3.7795275,0,0,3.7795275,-4.924493,-798.14706)" gradientUnits="userSpaceOnUse" xlink:href="#linearGradient8202"/><linearGradient id="linearGradient8202"><stop id="stop8198" offset="0" stop-color="#3c9af3" stop-opacity="1"/><stop id="stop8200" offset="1" stop-color="#51c5f9" stop-opacity="1"/></linearGradient></defs><metadata id="metadata5"/><g id="layer1" transform="translate(0,-250.64999)"><g id="g6907" transform="translate(32,-9.650375)"><path id="rect9319-4" fill="#3182d9" fill-opacity="1" stroke="none" stroke-opacity="1" stroke-width="1" d="m -28.999992,264.30034 21.999988,8e-5 5.000012,6.99999 h 30.999985 c 1.66201,0 3,1.33799 3,3 v 9 c 0,1.66201 -1.33799,3 -3,3 h -57.999985 c -1.662009,0 -3,-1.33799 -3,-3 v -16.00006 c 0,-1.66201 1.337991,-3 3,-3.00001 z" opacity="1"/><path id="rect9322-9" fill="url(#linearGradient8212)" fill-opacity="1" stroke="none" stroke-opacity="1" stroke-width="1" d="m -29.00003,265.30037 21.000038,4e-5 6.999987,9.99998 -5.000012,7.00002 H -29.00003 c -1.108006,0 -2.000012,-0.892 -2.000012,-2 v -13.00006 c 0,-1.10797 0.892006,-1.99997 2.000012,-1.99998 z" opacity="1"/><path id="rect9313-2" fill="#3182d9" fill-opacity="1" stroke="none" stroke-opacity="1" stroke-width="1" d="m -28.999992,279.30034 21,7e-5 4.999975,-8.00008 h 32.00001 c 1.66201,0 3,1.33799 3,3 v 43.00006 c 0,1.66201 -1.33799,3 -3,3 h -57.999985 c -1.662009,0 -3,-1.33799 -3,-3 v -35.00005 c 0,-1.66201 1.337991,-3 3,-3 z" opacity="1"/><path id="rect9315-0" fill="url(#linearGradient8204)" fill-opacity="1" stroke="none" stroke-opacity="1" stroke-width="1" d="m -29.00003,280.30037 22.000026,4e-5 5.000012,-8.00002 30.999985,-4e-5 c 1.108006,0 2.000013,0.89201 2.000013,2.00001 v 43.00003 c 0,1.10801 -0.892007,2.00001 -2.000013,2.00001 H -29.00003 c -1.108006,0 -2.000012,-0.892 -2.000012,-2.00001 v -35.00001 c 0,-1.10801 0.892006,-2.00002 2.000012,-2.00001 z" opacity="1"/><path id="path6165" fill="#358bd9" fill-opacity="1" fill-rule="nonzero" stroke="none" stroke-dasharray="none" stroke-dashoffset="0" stroke-linecap="butt" stroke-linejoin="miter" stroke-miterlimit="4" stroke-opacity="1" stroke-width="2" d="m -8,288.30037 c -2.216,0 -4,1.784 -4,4 0,2.216 1.784,4 4,4 2.216,0 4,-1.784 4,-4 0,-2.216 -1.784,-4 -4,-4 z m 13.983368,11 c -0.2762174,0.004 -0.5384858,0.12204 -0.724609,0.32617 l -6.699219,7.36914 -3.808594,-4.35351 c -0.2010995,-0.22952 -0.4959844,-0.35467 -0.800781,-0.33985 -0.2707471,0.0133 -0.5244932,0.13596 -0.703125,0.33985 l -7,8 c -0.564875,0.64638 -0.106473,1.65725 0.751953,1.6582 h 14 14 c 0.842851,-9.1e-4 1.306666,-0.98007 0.773438,-1.63281 l -9,-11 c -0.193184,-0.23642 -0.4837821,-0.37165 -0.789063,-0.36719 z" baseline-shift="baseline" clip-rule="nonzero" color="#000" color-interpolation="sRGB" color-interpolation-filters="linearRGB" color-rendering="auto" direction="ltr" display="inline" dominant-baseline="auto" enable-background="accumulate" font-family="sans-serif" font-size="medium" font-stretch="normal" font-style="normal" font-variant="normal" font-weight="normal" image-rendering="auto" letter-spacing="normal" opacity="1" overflow="visible" shape-rendering="auto" text-anchor="start" text-decoration="none" text-rendering="auto" vector-effect="none" visibility="visible" word-spacing="normal" writing-mode="lr-tb" style="line-height:normal;font-variant-ligatures:normal;font-variant-position:normal;font-variant-caps:normal;font-variant-numeric:normal;font-variant-alternates:normal;font-feature-settings:normal;text-indent:0;text-align:start;text-decoration-line:none;text-decoration-style:solid;text-decoration-color:#000;text-transform:none;text-orientation:mixed;white-space:normal;shape-padding:0;isolation:auto;mix-blend-mode:normal;solid-color:#000;solid-opacity:1"/><path id="path6165-9" fill="url(#linearGradient6216)" fill-opacity="1" fill-rule="nonzero" stroke="none" stroke-dasharray="none" stroke-dashoffset="0" stroke-linecap="butt" stroke-linejoin="miter" stroke-miterlimit="4" stroke-opacity="1" stroke-width="2" d="m -8,287.30037 c -2.216,0 -4,1.784 -4,4 0,2.216 1.784,4 4,4 2.216,0 4,-1.784 4,-4 0,-2.216 -1.784,-4 -4,-4 z m 13.983368,11 c -0.2762174,0.004 -0.5384858,0.12204 -0.724609,0.32617 l -6.699219,7.36914 -3.808594,-4.35351 c -0.2010995,-0.22952 -0.4959844,-0.35467 -0.800781,-0.33985 -0.2707471,0.0133 -0.5244932,0.13596 -0.703125,0.33985 l -7,8 c -0.564875,0.64638 -0.106473,1.65725 0.751953,1.6582 h 14 14 c 0.842851,-9.1e-4 1.306666,-0.98007 0.773438,-1.63281 l -9,-11 c -0.193184,-0.23642 -0.4837821,-0.37165 -0.789063,-0.36719 z" baseline-shift="baseline" clip-rule="nonzero" color="#000" color-interpolation="sRGB" color-interpolation-filters="linearRGB" color-rendering="auto" direction="ltr" display="inline" dominant-baseline="auto" enable-background="accumulate" font-family="sans-serif" font-size="medium" font-stretch="normal" font-style="normal" font-variant="normal" font-weight="normal" image-rendering="auto" letter-spacing="normal" opacity="1" overflow="visible" shape-rendering="auto" text-anchor="start" text-decoration="none" text-rendering="auto" vector-effect="none" visibility="visible" word-spacing="normal" writing-mode="lr-tb" style="line-height:normal;font-variant-ligatures:normal;font-variant-position:normal;font-variant-caps:normal;font-variant-numeric:normal;font-variant-alternates:normal;font-feature-settings:normal;text-indent:0;text-align:start;text-decoration-line:none;text-decoration-style:solid;text-decoration-color:#000;text-transform:none;text-orientation:mixed;white-space:normal;shape-padding:0;isolation:auto;mix-blend-mode:normal;solid-color:#000;solid-opacity:1"/></g></g></svg>