<svg xmlns="http://www.w3.org/2000/svg" xmlns:svg="http://www.w3.org/2000/svg" xmlns:xlink="http://www.w3.org/1999/xlink" id="svg8" width="64" height="64" version="1.1" viewBox="0 0 64 64"><title id="title7895">Antu icon Theme</title><defs id="defs2"><linearGradient id="linearGradient8212" x1="-3.724" x2="-3.724" y1="285.075" y2="281.37" gradientTransform="matrix(3.7795275,0,0,3.7795275,3.0755063,-806.22818)" gradientUnits="userSpaceOnUse" xlink:href="#linearGradient8210"/><linearGradient id="linearGradient8210"><stop id="stop8206" offset="0" stop-color="#3489e5" stop-opacity="1"/><stop id="stop8208" offset="1" stop-color="#3a98f2" stop-opacity="1"/></linearGradient><linearGradient id="linearGradient8204" x1="2.097" x2="2.097" y1="295.658" y2="283.223" gradientTransform="matrix(3.7795275,0,0,3.7795275,3.0755063,-806.22818)" gradientUnits="userSpaceOnUse" xlink:href="#linearGradient8202"/><linearGradient id="linearGradient8202"><stop id="stop8198" offset="0" stop-color="#3c9af3" stop-opacity="1"/><stop id="stop8200" offset="1" stop-color="#51c5f9" stop-opacity="1"/></linearGradient><linearGradient id="linearGradient8037" x1="6.615" x2="6.615" y1="294.09" y2="290.385" gradientTransform="matrix(3.7795275,0,0,3.7795275,-24,-807.30068)" gradientUnits="userSpaceOnUse" xlink:href="#linearGradient4627"/><linearGradient id="linearGradient4627"><stop id="stop4623" offset="0" stop-color="#c2f7f9" stop-opacity="1"/><stop id="stop4625" offset="1" stop-color="#ecfafb" stop-opacity="1"/></linearGradient></defs><metadata id="metadata5"/><g id="layer1" transform="translate(0,-250.64999)"><g id="g9421" transform="translate(23.999999,-1.569155)"><path id="rect9319-4" fill="#3182d9" fill-opacity="1" stroke="none" stroke-opacity="1" stroke-width="1" d="m -20.999993,256.21912 21.99998826,8e-5 5.00001204,6.99998 H 36.999994 c 1.662009,0 3,1.33799 3,3 v 9 c 0,1.66201 -1.337991,3 -3,3 h -57.999987 c -1.662009,0 -3,-1.33799 -3,-3 v -16.00006 c 0,-1.66201 1.337991,-3 3,-3 z" opacity="1"/><path id="rect9322-9" fill="url(#linearGradient8212)" fill-opacity="1" stroke="none" stroke-opacity="1" stroke-width="1" d="M -21.000031,257.21915 7.2566928e-6,257.21918 6.9999953,267.21917 1.9999823,274.21919 H -21.000031 c -1.108006,0 -2.000012,-0.892 -2.000012,-2.00001 v -13.00006 c 0,-1.10797 0.892006,-1.99997 2.000012,-1.99997 z" opacity="1"/><path id="rect9313-2" fill="#3182d9" fill-opacity="1" stroke="none" stroke-opacity="1" stroke-width="1" d="M -20.999993,271.21912 7.2566928e-6,271.21919 4.9999823,263.21911 H 36.999994 c 1.662009,0 3,1.33799 3,3 v 43.00006 c 0,1.66201 -1.337991,3 -3,3 h -57.999987 c -1.662009,0 -3,-1.33799 -3,-3 v -35.00005 c 0,-1.66201 1.337991,-3 3,-3 z" opacity="1"/><path id="rect9315-0" fill="url(#linearGradient8204)" fill-opacity="1" stroke="none" stroke-opacity="1" stroke-width="1" d="m -21.000031,272.21914 22.00002626,4e-5 5.00001204,-8.00001 30.9999867,-4e-5 c 1.108006,0 2.000012,0.89201 2.000012,2.00001 v 43.00003 c 0,1.10801 -0.892006,2.00001 -2.000012,2.00001 h -58.000025 c -1.108006,0 -2.000012,-0.892 -2.000012,-2.00001 v -35.00001 c 0,-1.10801 0.892006,-2.00002 2.000012,-2.00002 z" opacity="1"/><path id="rect4545" fill="#358bd9" fill-opacity="1" stroke="none" stroke-opacity="1" stroke-width="1" d="m 4.0000003,277.21923 -5.00000004,2.00002 v 2.00001 1.99997 2.34573 c -0.45556196,-0.21619 -0.96038596,-0.34583 -1.49999996,-0.34583 -1.939,0 -3.500001,1.56098 -3.500001,3.5 0,1.93901 1.561001,3.49999 3.500001,3.49999 1.93900296,0 3.621779,-1.5648 3.5,-3.49999 v -6.30078 l 3,-1.19921 z m 8.9999987,2.99989 -6.9999997,3 v 11.02344 c -1.009822,-0.64493 -2.207938,-1.02342 -3.5,-1.02342 -3.600998,0 -6.5,2.89898 -6.5,6.5 0,3.60098 2.899002,6.49999 6.5,6.49999 3.601002,0 6.5,-2.89901 6.5,-6.49999 0,-0.034 -0.0047,-0.0688 -0.0059,-0.10356 l 0.0059,0.004 v -9.40037 -2.00001 l 3.0000017,-1.99982 z m 8,8.0002 -5.000001,2.00001 v 1.99998 2.00001 2.34569 c -0.455562,-0.21619 -0.960386,-0.34583 -1.5,-0.34583 -1.938997,0 -3.499997,1.56099 -3.499997,3.5 0,1.93901 1.561,3.49999 3.499997,3.49999 1.939003,0 3.558845,-1.56189 3.500001,-3.49999 v -6.30078 l 3,-1.19924 z" opacity="1"/><path id="rect4545-5" fill="url(#linearGradient8037)" fill-opacity="1" stroke="none" stroke-opacity="1" stroke-width="1" d="m 4.0000003,276.21928 -5.00000004,2.00002 v 2.00001 1.99997 2.34573 c -0.45556196,-0.21619 -0.96038596,-0.34583 -1.49999996,-0.34583 -1.939,0 -3.5,1.56099 -3.5,3.5 0,1.93901 1.561,3.49999 3.5,3.49999 1.93900296,0 3.5,-1.56098 3.5,-3.49999 v -6.30078 l 3,-1.1992 z M 13,279.21902 l -7.0000007,3 v 11.02344 c -1.009822,-0.64493 -2.207938,-1.02341 -3.5,-1.02341 -3.600998,0 -6.5,2.89897 -6.5,6.49999 0,3.60098 2.899002,6.49999 6.5,6.49999 3.601003,0 6.5,-2.89901 6.5,-6.49999 0,-0.034 -0.0047,-0.0688 -0.0059,-0.10356 l 0.0059,0.004 v -9.40037 -2.00001 L 13,285.21909 Z m 7.999999,8.00016 -5.000001,2.00002 v 1.99997 2.00001 2.34569 c -0.455562,-0.21619 -0.960386,-0.34582 -1.5,-0.34582 -1.938997,0 -3.499997,1.56098 -3.499997,3.49999 0,1.93901 1.561,3.49999 3.499997,3.49999 1.939003,0 3.540049,-1.5614 3.500001,-3.49999 v -6.30078 l 3,-1.19924 z" opacity="1"/></g></g></svg>