<svg xmlns="http://www.w3.org/2000/svg" xmlns:svg="http://www.w3.org/2000/svg" xmlns:xlink="http://www.w3.org/1999/xlink" id="svg8" width="64" height="64" version="1.1" viewBox="0 0 64 64"><title id="title7895">Antu icon Theme</title><defs id="defs2"><linearGradient id="linearGradient8212" x1="-3.724" x2="-3.724" y1="285.075" y2="281.37" gradientTransform="matrix(3.7795275,0,0,3.7795275,4.7982247,-793.60137)" gradientUnits="userSpaceOnUse" xlink:href="#linearGradient8210"/><linearGradient id="linearGradient8210"><stop id="stop8206" offset="0" stop-color="#3489e5" stop-opacity="1"/><stop id="stop8208" offset="1" stop-color="#3a98f2" stop-opacity="1"/></linearGradient><linearGradient id="linearGradient8204" x1="2.097" x2="2.097" y1="295.658" y2="283.223" gradientTransform="matrix(3.7795275,0,0,3.7795275,4.7982247,-793.60137)" gradientUnits="userSpaceOnUse" xlink:href="#linearGradient8202"/><linearGradient id="linearGradient8202"><stop id="stop8198" offset="0" stop-color="#3c9af3" stop-opacity="1"/><stop id="stop8200" offset="1" stop-color="#51c5f9" stop-opacity="1"/></linearGradient><linearGradient id="linearGradient8193" x1="32" x2="32" y1="299.65" y2="284.65" gradientTransform="translate(-22.277282,12.704722)" gradientUnits="userSpaceOnUse" xlink:href="#linearGradient4627"/><linearGradient id="linearGradient4627"><stop id="stop4623" offset="0" stop-color="#c2f7f9" stop-opacity="1"/><stop id="stop4625" offset="1" stop-color="#e5fafb" stop-opacity="1"/></linearGradient></defs><metadata id="metadata5"/><g id="layer1" transform="translate(0,-250.64999)"><g id="g8833" transform="translate(22.277282,-14.196065)"><path id="rect9319-4" fill="#3182d9" fill-opacity="1" stroke="none" stroke-opacity="1" stroke-width="1" d="m -19.277274,268.84603 21.9999877,8e-5 5.000012,6.99999 H 38.722711 c 1.66201,0 3,1.33799 3,3 v 9 c 0,1.66201 -1.33799,3 -3,3 h -57.999985 c -1.662009,0 -3,-1.33799 -3,-3 v -16.00006 c 0,-1.66201 1.337991,-3 3,-3.00001 z" opacity="1"/><path id="rect9322-9" fill="url(#linearGradient8212)" fill-opacity="1" stroke="none" stroke-opacity="1" stroke-width="1" d="m -19.277312,269.84606 21.0000377,4e-5 6.999987,9.99998 -5.000012,7.00002 H -19.277312 c -1.108006,0 -2.000012,-0.892 -2.000012,-2 v -13.00006 c 0,-1.10797 0.892006,-1.99997 2.000012,-1.99998 z" opacity="1"/><path id="rect9313-2" fill="#3182d9" fill-opacity="1" stroke="none" stroke-opacity="1" stroke-width="1" d="m -19.277274,283.84603 20.9999997,7e-5 4.999975,-8.00008 H 38.722711 c 1.66201,0 3,1.33799 3,3 v 43.00006 c 0,1.66201 -1.33799,3 -3,3 h -57.999985 c -1.662009,0 -3,-1.33799 -3,-3 v -35.00005 c 0,-1.66201 1.337991,-3 3,-3 z" opacity="1"/><path id="rect9315-0" fill="url(#linearGradient8204)" fill-opacity="1" stroke="none" stroke-opacity="1" stroke-width="1" d="m -19.277312,284.84606 22.0000257,4e-5 5.000012,-8.00002 30.9999853,-4e-5 c 1.108006,0 2.000013,0.89201 2.000013,2.00001 v 43.00003 c 0,1.10801 -0.892007,2.00001 -2.000013,2.00001 h -58.000023 c -1.108006,0 -2.000012,-0.892 -2.000012,-2.00001 v -35.00001 c 0,-1.10801 0.892006,-2.00002 2.000012,-2.00001 z" opacity="1"/><path id="rect8142" fill="#358bd9" fill-opacity="1" stroke="none" stroke-dasharray="none" stroke-linecap="round" stroke-linejoin="round" stroke-miterlimit="4" stroke-opacity="1" stroke-width="2" d="m 9.7051397,292.84605 a 1.0001,1.0001 0 0 0 -0.814453,0.44531 l -4,6 a 1.0001,1.0001 0 0 0 0.832031,1.55469 h 2 v 3 c 0,1.108 0.892,2 2,2 1.1080003,0 2.0000003,-0.892 2.0000003,-2 v -3 h 2 a 1.0001,1.0001 0 0 0 0.832031,-1.55469 l -4,-6 a 1.0001,1.0001 0 0 0 -0.8496093,-0.44531 z m -6.982422,10 c -1.107998,0 -2.00000002,0.892 -2.00000002,2 v 9 c 0,1.108 0.89200202,2 2.00000002,2 H 16.722718 c 1.107998,0 2,-0.892 2,-2 v -9 c 0,-1.108 -0.892002,-2 -2,-2 h -3 v 3 h 2 v 7 H 3.7227177 v -7 h 2 v -3 z" opacity="1"/><path id="rect8142-7" fill="url(#linearGradient8193)" fill-opacity="1" stroke="none" stroke-dasharray="none" stroke-linecap="round" stroke-linejoin="round" stroke-miterlimit="4" stroke-opacity="1" stroke-width="2" d="m 9.7051397,291.84605 a 1.0001,1.0001 0 0 0 -0.814453,0.44531 l -4,6 a 1.0001,1.0001 0 0 0 0.832031,1.55469 h 2 v 3 c 0,1.108 0.892,2 2,2 1.1080003,0 2.0000003,-0.892 2.0000003,-2 v -3 h 2 a 1.0001,1.0001 0 0 0 0.832031,-1.55469 l -4,-6 a 1.0001,1.0001 0 0 0 -0.8496093,-0.44531 z m -6.982422,10 c -1.107998,0 -2.00000002,0.892 -2.00000002,2 v 9 c 0,1.108 0.89200202,2 2.00000002,2 H 16.722718 c 1.107998,0 2,-0.892 2,-2 v -9 c 0,-1.108 -0.892002,-2 -2,-2 h -3 v 3 h 2 v 7 H 3.7227177 v -7 h 2 v -3 z" opacity="1"/></g></g></svg>