<svg xmlns="http://www.w3.org/2000/svg" xmlns:svg="http://www.w3.org/2000/svg" xmlns:xlink="http://www.w3.org/1999/xlink" id="svg8" width="64" height="64" version="1.1" viewBox="0 0 64 64"><title id="title7895">Antu icon Theme</title><defs id="defs2"><linearGradient id="linearGradient8212" x1="-3.724" x2="-3.724" y1="285.075" y2="281.37" gradientTransform="matrix(3.7795275,0,0,3.7795275,41.668792,-803.79743)" gradientUnits="userSpaceOnUse" xlink:href="#linearGradient8210"/><linearGradient id="linearGradient8210"><stop id="stop8206" offset="0" stop-color="#3489e5" stop-opacity="1"/><stop id="stop8208" offset="1" stop-color="#3a98f2" stop-opacity="1"/></linearGradient><linearGradient id="linearGradient8204" x1="2.097" x2="2.097" y1="295.658" y2="283.223" gradientTransform="matrix(3.7795275,0,0,3.7795275,41.668792,-803.79743)" gradientUnits="userSpaceOnUse" xlink:href="#linearGradient8202"/><linearGradient id="linearGradient8202"><stop id="stop8198" offset="0" stop-color="#3c9af3" stop-opacity="1"/><stop id="stop8200" offset="1" stop-color="#51c5f9" stop-opacity="1"/></linearGradient><linearGradient id="linearGradient7258" x1="32" x2="32" y1="300.65" y2="286.65" gradientTransform="translate(14.593285,3.000005)" gradientUnits="userSpaceOnUse" xlink:href="#linearGradient4627"/><linearGradient id="linearGradient4627"><stop id="stop4623" offset="0" stop-color="#c2f7f9" stop-opacity="1"/><stop id="stop4625" offset="1" stop-color="#e5fafb" stop-opacity="1"/></linearGradient></defs><metadata id="metadata5"/><g id="layer1" transform="translate(0,-250.64999)"><g id="g7898" transform="translate(-14.593286,-3.999995)"><path id="rect9319-4" fill="#3182d9" fill-opacity="1" stroke="none" stroke-opacity="1" stroke-width="1" d="m 17.593293,258.64996 21.999988,8e-5 5.000012,6.99999 h 30.999985 c 1.66201,0 3,1.33799 3,3 v 9 c 0,1.66201 -1.33799,3 -3,3 H 17.593293 c -1.662009,0 -3,-1.33799 -3,-3 v -16.00005 c 0,-1.66201 1.337991,-3 3,-3.00002 z" opacity="1"/><path id="rect9322-9" fill="url(#linearGradient8212)" fill-opacity="1" stroke="none" stroke-opacity="1" stroke-width="1" d="m 17.593255,259.64999 21.000038,4e-5 6.999987,9.99999 -5.000012,7.00002 H 17.593255 c -1.108006,0 -2.000012,-0.892 -2.000012,-2 v -13.00006 c 0,-1.10797 0.892006,-1.99997 2.000012,-1.99999 z" opacity="1"/><path id="rect9313-2" fill="#3182d9" fill-opacity="1" stroke="none" stroke-opacity="1" stroke-width="1" d="m 17.593293,273.64996 21,7e-5 4.999975,-8.00008 h 32.00001 c 1.66201,0 3,1.33799 3,3 v 43.00006 c 0,1.66201 -1.33799,3 -3,3 H 17.593293 c -1.662009,0 -3,-1.33799 -3,-3 v -35.00005 c 0,-1.66201 1.337991,-3 3,-3 z" opacity="1"/><path id="rect9315-0" fill="url(#linearGradient8204)" fill-opacity="1" stroke="none" stroke-opacity="1" stroke-width="1" d="m 17.593255,274.64999 22.000026,4e-5 5.000012,-8.00002 30.999985,-4e-5 c 1.108006,0 2.000013,0.89201 2.000013,2.00001 v 43.00003 c 0,1.10801 -0.892007,2.00001 -2.000013,2.00001 H 17.593255 c -1.108006,0 -2.000012,-0.892 -2.000012,-2.00001 V 276.65 c 0,-1.10801 0.892006,-2.00002 2.000012,-2.00001 z" opacity="1"/><path id="rect7071-4" fill="#358bd9" fill-opacity="1" stroke="none" stroke-dasharray="none" stroke-linecap="round" stroke-linejoin="round" stroke-miterlimit="4" stroke-opacity="1" stroke-width="2" d="m 35.593285,283.64999 c -0.554,0 -1,0.44601 -1,1 v 18 c 0,0.554 0.446,1 1,1 h 5 v 1 c 0,0.554 0.446,1 1,1 h 10 c 0.554,0 1,-0.446 1,-1 v -1 h 5 c 0.554,0 1,-0.446 1,-1 v -18 c 0,-0.55399 -0.446,-1 -1,-1 z m 2,3 h 18 v 14 h -6 v 2 h -6 v -2 h -6 z m 1,1 v 12 h 6 v 2 h 4 v -2 h 6 v -12 z m 3.000001,3 h 2 l -10e-7,4 h -2 z m 4,0 h 2 l -10e-7,4 h -2 z m 4,0 h 2 l -10e-7,4 h -2 z" opacity="1"/><path id="rect7071" fill="url(#linearGradient7258)" fill-opacity="1" stroke="none" stroke-dasharray="none" stroke-linecap="round" stroke-linejoin="round" stroke-miterlimit="4" stroke-opacity="1" stroke-width="2" d="m 35.593285,282.64999 c -0.554,0 -1,0.44601 -1,1 v 18 c 0,0.554 0.446,1 1,1 h 5 v 1 c 0,0.554 0.446,1 1,1 h 10 c 0.554,0 1,-0.446 1,-1 v -1 h 5 c 0.554,0 1,-0.446 1,-1 v -18 c 0,-0.55399 -0.446,-1 -1,-1 z m 2,3 h 18 v 14 h -6 v 2 h -6 v -2 h -6 z m 1,1 v 12 h 6 v 2 h 4 v -2 h 6 v -12 z m 3.000001,3 h 2 l -10e-7,4 h -2 z m 4,0 h 2 l -10e-7,4 h -2 z m 4,0 h 2 l -10e-7,4 h -2 z" opacity="1"/></g></g></svg>