<svg xmlns="http://www.w3.org/2000/svg" xmlns:svg="http://www.w3.org/2000/svg" xmlns:xlink="http://www.w3.org/1999/xlink" id="svg8" width="64" height="64" version="1.1" viewBox="0 0 64 64"><title id="title7895">Antu icon Theme</title><defs id="defs2"><linearGradient id="linearGradient6870" x1="13.297" x2="13.297" y1="294.164" y2="287.814" gradientTransform="matrix(3.7795275,0,0,3.7795275,-34.255089,-810.15131)" gradientUnits="userSpaceOnUse" xlink:href="#linearGradient4547"/><linearGradient id="linearGradient4547"><stop id="stop4543" offset="0" stop-color="#c3f7f9" stop-opacity="1"/><stop id="stop4545" offset="1" stop-color="#e5fafb" stop-opacity="1"/></linearGradient><linearGradient id="linearGradient4616" x1="7.408" x2="7.408" y1="295.148" y2="283.506" gradientTransform="matrix(3.7795275,0,0,3.7795275,-16,-799.86971)" gradientUnits="userSpaceOnUse" xlink:href="#linearGradient10231"/><linearGradient id="linearGradient10231"><stop id="stop10227" offset="0" stop-color="#3e9ff4" stop-opacity="1"/><stop id="stop10229" offset="1" stop-color="#50c2f9" stop-opacity="1"/></linearGradient></defs><metadata id="metadata5"/><g id="layer1" transform="translate(0,-250.64999)"><g id="g1527" transform="translate(16,-8)"><path id="rect4593" fill="#3182d9" fill-opacity="1" stroke="none" stroke-dasharray="none" stroke-miterlimit="4" stroke-opacity="1" stroke-width=".45" d="m 16,260.64999 c 16.62,0 29.999999,13.37998 29.999999,30 0,16.61998 -13.379999,30 -29.999999,30 -16.619999,0 -29.999999,-13.38002 -29.999999,-30 0,-16.62002 13.38,-30 29.999999,-30 z" opacity="1"/><path id="rect4593-5" fill="url(#linearGradient4616)" fill-opacity="1" stroke="none" stroke-dasharray="none" stroke-miterlimit="4" stroke-opacity="1" stroke-width=".435" d="m 16,261.64998 c 16.066,0 29.000001,12.93399 29.000001,29.00001 C 45.000001,306.716 32.066,319.65 16,319.65 c -16.066,0 -29,-12.934 -29,-29.00001 0,-16.06602 12.934,-29.00001 29,-29.00001 z" opacity="1"/><path id="rect4618-2" fill="#358bd9" fill-opacity="1" stroke="none" stroke-dasharray="none" stroke-miterlimit="4" stroke-opacity="1" stroke-width=".3" d="m 5,276.64999 c -2.215999,0 -4,1.78399 -4,4 0,2.21601 1.784001,4 4,4 2.215998,0 4,-1.78399 4,-4 0,-2.21601 -1.784002,-4 -4,-4 z m 11,0 c -2.215993,0 -4,1.78402 -4,4 0,2.21601 1.784007,4 4,4 2.215994,0 4,-1.78399 4,-4 0,-2.21598 -1.784006,-4 -4,-4 z m 11,0 c -2.215994,0 -4,1.78402 -4,4 0,2.21601 1.784006,4 4,4 2.21599,0 4,-1.78399 4,-4 0,-2.21598 -1.78401,-4 -4,-4 z m -22,11 c -2.215991,0 -4,1.78403 -4,4 0,2.21601 1.784009,4 4,4 2.215989,0 4,-1.78399 4,-4 0,-2.21597 -1.784011,-4 -4,-4 z m 11,0 c -2.215993,0 -4,1.78403 -4,4 0,2.21601 1.784007,4 4,4 2.215994,0 4,-1.78399 4,-4 0,-2.21597 -1.784006,-4 -4,-4 z m 11,0 c -2.215994,0 -4,1.78403 -4,4 0,2.21601 1.784006,4 4,4 2.21599,0 4,-1.78399 4,-4 0,-2.21597 -1.78401,-4 -4,-4 z m -22,11 c -2.215991,0 -4,1.78399 -4,4 0,2.21601 1.784009,4 4,4 2.215989,0 4,-1.78399 4,-4 0,-2.21601 -1.784011,-4 -4,-4 z m 11,0 c -2.215993,0 -4,1.78399 -4,4 0,2.21601 1.784007,4 4,4 2.215994,0 4,-1.78399 4,-4 0,-2.21601 -1.784006,-4 -4,-4 z m 11,0 c -2.215994,0 -4,1.78399 -4,4 0,2.21601 1.784006,4 4,4 2.21599,0 4,-1.78399 4,-4 0,-2.21601 -1.78401,-4 -4,-4 z" opacity="1"/><path id="rect4618" fill="url(#linearGradient6870)" fill-opacity="1" stroke="none" stroke-dasharray="none" stroke-miterlimit="4" stroke-opacity="1" stroke-width=".3" d="m 5,275.64999 c -2.215999,0 -4,1.78399 -4,4 0,2.21601 1.784001,4 4,4 2.215998,0 4,-1.78399 4,-4 0,-2.21601 -1.784002,-4 -4,-4 z m 11,0 c -2.215993,0 -4,1.78402 -4,4 0,2.21601 1.784007,4 4,4 2.215994,0 4,-1.78399 4,-4 0,-2.21598 -1.784006,-4 -4,-4 z m 11,0 c -2.215994,0 -4,1.78402 -4,4 0,2.21601 1.784006,4 4,4 2.21599,0 4,-1.78399 4,-4 0,-2.21598 -1.78401,-4 -4,-4 z m -22,11 c -2.215991,0 -4,1.78403 -4,4 0,2.21601 1.784009,4 4,4 2.215989,0 4,-1.78399 4,-4 0,-2.21597 -1.784011,-4 -4,-4 z m 11,0 c -2.215993,0 -4,1.78403 -4,4 0,2.21601 1.784007,4 4,4 2.215994,0 4,-1.78399 4,-4 0,-2.21597 -1.784006,-4 -4,-4 z m 11,0 c -2.215994,0 -4,1.78403 -4,4 0,2.21601 1.784006,4 4,4 2.21599,0 4,-1.78399 4,-4 0,-2.21597 -1.78401,-4 -4,-4 z m -22,11 c -2.215991,0 -4,1.78399 -4,4 0,2.21601 1.784009,4 4,4 2.215989,0 4,-1.78399 4,-4 0,-2.21601 -1.784011,-4 -4,-4 z m 11,0 c -2.215993,0 -4,1.78399 -4,4 0,2.21601 1.784007,4 4,4 2.215994,0 4,-1.78399 4,-4 0,-2.21601 -1.784006,-4 -4,-4 z m 11,0 c -2.215994,0 -4,1.78399 -4,4 0,2.21601 1.784006,4 4,4 2.21599,0 4,-1.78399 4,-4 0,-2.21601 -1.78401,-4 -4,-4 z" opacity="1"/></g></g></svg>