<svg xmlns="http://www.w3.org/2000/svg" xmlns:svg="http://www.w3.org/2000/svg" xmlns:xlink="http://www.w3.org/1999/xlink" id="svg8" width="64" height="64" version="1.1" viewBox="0 0 64 64"><title id="title7895">Antu icon Theme</title><defs id="defs2"><linearGradient id="linearGradient5302" x1="90" x2="90" y1="83" y2="79" gradientTransform="translate(-96.000001,237.18424)" gradientUnits="userSpaceOnUse" xlink:href="#linearGradient4627"/><linearGradient id="linearGradient4627"><stop id="stop4623" offset="0" stop-color="#c2f7f9" stop-opacity="1"/><stop id="stop4625" offset="1" stop-color="#e5fafb" stop-opacity="1"/></linearGradient><linearGradient id="linearGradient8204-2" x1="2.097" x2="2.097" y1="295.658" y2="283.223" gradientTransform="matrix(3.7795275,0,0,3.7795275,1.075508,-797.26328)" gradientUnits="userSpaceOnUse" xlink:href="#linearGradient8202-9"/><linearGradient id="linearGradient8202-9"><stop id="stop8198-1" offset="0" stop-color="#3d9cf3" stop-opacity="1"/><stop id="stop8200-2" offset="1" stop-color="#50c3f9" stop-opacity="1"/></linearGradient></defs><metadata id="metadata5"/><g id="layer1" transform="translate(0,-250.64999)"><g id="g5918" transform="translate(25.999998,-10.534255)"><path id="rect9313-2-3" fill="#3182d9" fill-opacity="1" stroke="none" stroke-opacity="1" stroke-width="1" d="m -22.999991,265.18426 21,7e-5 4.999975,-1.1e-4 h 32.000011 c 1.662009,0 3,1.33799 3,3 v 50.00005 c 0,1.66201 -1.337991,3 -3,3 h -57.999986 c -1.662009,0 -3,-1.33799 -3,-3 v -50.00001 c 0,-1.66201 1.338009,-3.0079 3,-3 z" opacity="1"/><path id="rect9315-0-6" fill="url(#linearGradient8204-2)" fill-opacity="1" stroke="none" stroke-opacity="1" stroke-width="1" d="m -22.999998,266.18425 c -1.108006,0 -2,0.892 -2,2.00001 v 43.99997 H 37 v -43.99997 c 0,-1.10801 -0.891995,-2.00001 -1.999998,-2.00001 h -31 -5 z" opacity="1"/><path id="rect4532" fill="url(#linearGradient5302)" fill-opacity="1" stroke="none" stroke-dasharray="none" stroke-miterlimit="4" stroke-opacity="1" stroke-width=".3" d="m -25.000001,313.18424 v 2 3 c 0,1.10801 0.892003,2 2,2 h 58 c 1.108,0 2,-0.89199 2,-2 v -3 -2 h -2 -58 z m 3,1 c 0.554,0 1,0.446 1,1 0,0.554 -0.446,1 -1,1 -0.554,0 -1,-0.446 -1,-1 0,-0.554 0.446,-1 1,-1 z m 3,0 c 0.554,0 1,0.446 1,1 0,0.554 -0.446,1 -1,1 -0.554,0 -1,-0.446 -1,-1 0,-0.554 0.446,-1 1,-1 z m 36.5,0 c 0.277,0 0.5,0.223 0.5,0.5 v 4 c 0,0.27704 -0.22299,0.5 -0.5,0.5 -0.277,0 -0.5,-0.22299 -0.5,-0.5 v -4 c 0,-0.27704 0.22299,-0.5 0.5,-0.5 z m 3.5,0 c 1.108,0 2,0.89204 2,2 v 1 c 0,1.10801 -0.892,2 -2,2 -1.108,0 -2,-0.89199 -2,-2 v -1 c 0,-1.10796 0.892,-2 2,-2 z m 7,0 c 1.108,0 2,0.892 2,2 v 1 c 0,1.10801 -0.892,2 -2,2 -1.108,0 -2,-0.89199 -2,-2 v -1 c 0,-1.108 0.892,-2 2,-2 z m 5,0 c 1.108,0 2,0.892 2,2 v 1 c 0,1.10801 -0.892,2 -2,2 -1.108,0 -2,-0.89199 -2,-2 v -1 c 0,-1.108 0.892,-2 2,-2 z m -12,1 c -0.554,0 -1,0.446 -1,1 v 1 c 0,0.55401 0.446,1 1,1 0.554,0 1,-0.44599 1,-1 v -1 c 0,-0.554 -0.446,-1 -1,-1 z m 3,0 h 1 v 1 h -1 z m 4,0 c -0.554,0 -1,0.446 -1,1 v 1 c 0,0.55401 0.446,1 1,1 0.554,0 1,-0.44599 1,-1 v -1 c 0,-0.554 -0.446,-1 -1,-1 z m 5,0 c -0.554,0 -1,0.446 -1,1 v 1 c 0,0.55401 0.446,1 1,1 0.554,0 1,-0.44599 1,-1 v -1 c 0,-0.554 -0.446,-1 -1,-1 z m -55,2 c 0.554,0 1,0.446 1,1 0,0.554 -0.446,1 -1,1 -0.554,0 -1,-0.446 -1,-1 0,-0.554 0.446,-1 1,-1 z m 3,0 c 0.554,0 1,0.446 1,1 0,0.554 -0.446,1 -1,1 -0.554,0 -1,-0.446 -1,-1 0,-0.554 0.446,-1 1,-1 z m 43,0 h 1 v 1 h -1 z" opacity="1"/></g></g></svg>