<svg xmlns="http://www.w3.org/2000/svg" xmlns:svg="http://www.w3.org/2000/svg" xmlns:xlink="http://www.w3.org/1999/xlink" id="svg8" width="48" height="48" version="1.1" viewBox="0 0 48 48"><title id="title7895">Antu icon Theme</title><defs id="defs2"><linearGradient id="linearGradient9540" x1="78.846" x2="78.846" y1="277.156" y2="274.775" gradientTransform="matrix(3.7795276,0,0,3.7795276,-341.00004,-754.86971)" gradientUnits="userSpaceOnUse" xlink:href="#linearGradient9538"/><linearGradient id="linearGradient9538"><stop id="stop9534" offset="0" stop-color="#348ae6" stop-opacity="1"/><stop id="stop9536" offset="1" stop-color="#3a98f2" stop-opacity="1"/></linearGradient><linearGradient id="linearGradient9532" x1="82.815" x2="82.815" y1="285.358" y2="276.098" gradientTransform="matrix(3.7795276,0,0,3.7795276,-341.00004,-754.86971)" gradientUnits="userSpaceOnUse" xlink:href="#linearGradient9530"/><linearGradient id="linearGradient9530"><stop id="stop9526" offset="0" stop-color="#3c9bf3" stop-opacity="1"/><stop id="stop9528" offset="1" stop-color="#51c4f9" stop-opacity="1"/></linearGradient></defs><metadata id="metadata5"/><g id="layer1" transform="translate(0,-266.64999)"><g id="g6914" transform="translate(53.000007,-13)"><path id="rect9183-4" fill="#3182d9" fill-opacity="1" stroke="none" stroke-opacity="1" stroke-width="1" d="m -50.999987,282.64999 h 17.975773 l 5.024224,9 h 21.000001 c 1.107968,0 1.999974,0.89197 1.999974,1.99997 v 28.99998 c 0,1.10801 -0.892006,2.00001 -2.000012,2.00001 h -43.99996 c -1.108007,0 -2.000013,-0.892 -2.000013,-2.00001 v -37.99998 c 0,-1.108 0.892006,-1.99997 2.000013,-1.99997 z" opacity="1"/><path id="rect9186-7" fill="url(#linearGradient9540)" fill-opacity="1" stroke="none" stroke-opacity="1" stroke-width="1" d="m -50.999987,283.64994 h 17.000012 l 4.99996,9.00004 h 22.000026 c 0.554003,-4e-5 0.999987,0.44602 0.999987,0.99998 v 28.99998 c 0,0.554 -0.445984,1.00002 -0.999987,1.00002 h -43.999998 c -0.554003,0 -0.999988,-0.44602 -0.999988,-1.00002 v -37.99998 c 0,-0.554 0.445985,-1.00002 0.999988,-1.00002 z" opacity="1"/><path id="rect9175-4" fill="#3182d9" fill-opacity="1" stroke="none" stroke-opacity="1" stroke-width="1" d="m -50.999987,293.65 17.000012,-4e-5 3.999988,-6 22.999998,4e-5 c 1.107968,0 1.999974,0.89201 1.999974,2.00002 v 32.99996 c 0,1.108 -0.892006,2.00001 -1.999974,2.00001 H -50.999987 C -52.107994,324.64999 -53,323.75798 -53,322.64998 v -26.99997 c 0,-1.108 0.892006,-2.00001 2.000013,-2.00001 z" opacity="1"/><path id="rect9179-4" fill="url(#linearGradient9532)" fill-opacity="1" stroke="none" stroke-opacity="1" stroke-width="1" d="m -50.999987,294.65003 18,-4e-5 3.999972,-6.00004 22.000026,8e-5 c 0.554003,0 0.999987,0.44602 0.999987,0.99999 v 33 c 0,0.554 -0.445984,1.00002 -0.999987,1.00002 h -43.999998 c -0.554003,0 -0.999988,-0.44602 -0.999988,-1.00002 v -27.00001 c 0,-0.55396 0.445985,-0.99998 0.999988,-0.99998 z" opacity=".99"/></g></g></svg>