<svg xmlns="http://www.w3.org/2000/svg" xmlns:svg="http://www.w3.org/2000/svg" xmlns:xlink="http://www.w3.org/1999/xlink" id="svg8" width="32" height="32" version="1.1" viewBox="0 0 32 32"><title id="title7895">Antu icon Theme</title><defs id="defs2"><linearGradient id="linearGradient837" x1="4.233" x2="4.233" y1="296.206" y2="289.592" gradientTransform="matrix(3.7795275,0,0,3.7795275,-24,-810.34743)" gradientUnits="userSpaceOnUse" xlink:href="#linearGradient6408-4"/><linearGradient id="linearGradient6408-4"><stop id="stop6404-7" offset="0" stop-color="#f34242" stop-opacity="1"/><stop id="stop6406-6" offset="1" stop-color="#ff6767" stop-opacity="1"/></linearGradient></defs><metadata id="metadata5"/><g id="layer1" transform="translate(0,-282.64999)"><g id="g13348" transform="translate(24,2.47772)"><path id="rect827" fill="#b62e2e" fill-opacity="1" stroke="none" stroke-dasharray="none" stroke-linecap="round" stroke-linejoin="round" stroke-miterlimit="4" stroke-opacity="1" stroke-width="2" d="M -19,281.17227 H 2.999999 c 1.108,0 2,0.892 2,2 v 26 c 0,1.108 -0.892,2 -2,2 H -19 c -1.108,0 -2,-0.892 -2,-2 v -26 c 0,-1.108 0.892,-2 2,-2 z" opacity="1"/><path id="rect829" fill="url(#linearGradient837)" fill-opacity="1" stroke="none" stroke-dasharray="none" stroke-linecap="round" stroke-linejoin="round" stroke-miterlimit="4" stroke-opacity="1" stroke-width="2" d="M -19,282.17227 H 2.999999 c 0.554,0 1,0.446 1,1 v 26 c 0,0.554 -0.446,1 -1,1 H -19 c -0.554,0 -1,-0.446 -1,-1 v -26 c 0,-0.554 0.446,-1 1,-1 z" opacity="1"/><path id="rect4665-4-3" fill="#cc3232" fill-opacity="1" stroke="none" stroke-opacity="1" stroke-width=".667" d="m -14,290.17227 v 13 h 3 v -4 h 6 3 v -9 h -8.666016 -0.667968 z m 3,3 h 6 v 3 h -6 z" opacity="1"/><path id="rect4665-4" fill="#fdbbbb" fill-opacity="1" stroke="none" stroke-opacity="1" stroke-width=".667" d="m -11,295.17228 h 6 v 2.99999 h -6 z" opacity="1"/><path id="rect4645-7" fill="#fff6f6" fill-opacity="1" stroke="none" stroke-opacity="1" stroke-width=".667" d="M -13.999976,289.17227 -14,302.17228 h 3 v -10.00001 h 6 v 6 h 3 l -2.3e-5,-9 h -8.666633 -0.666664 z" opacity="1"/></g></g></svg>