<svg xmlns="http://www.w3.org/2000/svg" xmlns:svg="http://www.w3.org/2000/svg" xmlns:xlink="http://www.w3.org/1999/xlink" id="svg8" width="32" height="32" version="1.1" viewBox="0 0 32 32"><title id="title7895">Antu icon Theme</title><defs id="defs2"><linearGradient id="linearGradient837" x1="4.233" x2="4.233" y1="296.206" y2="289.592" gradientTransform="matrix(3.7795275,0,0,3.7795275,-16,-795.86971)" gradientUnits="userSpaceOnUse" xlink:href="#linearGradient7100"/><linearGradient id="linearGradient7100"><stop id="stop7096" offset="0" stop-color="#02ca56" stop-opacity="1"/><stop id="stop7098" offset="1" stop-color="#75d97d" stop-opacity="1"/></linearGradient></defs><metadata id="metadata5"/><g id="layer1" transform="translate(0,-282.64999)"><g id="g14349" transform="translate(16,-12)"><path id="rect827" fill="#269334" fill-opacity="1" stroke="none" stroke-dasharray="none" stroke-linecap="round" stroke-linejoin="round" stroke-miterlimit="4" stroke-opacity="1" stroke-width="2" d="m -11,295.64999 h 21.999999 c 1.108,0 2,0.892 2,2 v 26 c 0,1.108 -0.892,2 -2,2 H -11 c -1.108,0 -2,-0.892 -2,-2 v -26 c 0,-1.108 0.892,-2 2,-2 z" opacity="1"/><path id="rect829" fill="url(#linearGradient837)" fill-opacity="1" stroke="none" stroke-dasharray="none" stroke-linecap="round" stroke-linejoin="round" stroke-miterlimit="4" stroke-opacity="1" stroke-width="2" d="m -11,296.64999 h 21.999999 c 0.554,0 1,0.446 1,1 v 26 c 0,0.554 -0.446,1 -1,1 H -11 c -0.554,0 -1,-0.446 -1,-1 v -26 c 0,-0.554 0.446,-1 1,-1 z" opacity="1"/><path id="rect5516-8-7" fill="#269334" fill-opacity="1" stroke="none" stroke-opacity="1" stroke-width=".7" d="m -6,304.64999 v 1.40039 2.09961 4.5 h 2 1 6 v 2 h -9 v 3 H 6 v -1.40039 -1.59961 -5 H 4 3 -3 v -2 h 9 v -3 z" opacity="1"/><path id="rect5516-8-7-8" fill="#afedc3" fill-opacity="1" stroke="none" stroke-opacity="1" stroke-width=".7" d="m -4,308.64999 h 8 v 3 h -8 z" opacity="1"/><path id="rect5496-4-6" fill="#f3fcf6" fill-opacity="1" stroke="none" stroke-opacity="1" stroke-width=".7" d="m -6,303.64999 v 1.4 2.1 4.5 h 3 v -5 h 9 v -3 z m 9,5 v 5 h -9 v 3 H 6 v -1.4 -1.6 -5 z" opacity="1"/></g></g></svg>