<svg xmlns="http://www.w3.org/2000/svg" xmlns:svg="http://www.w3.org/2000/svg" xmlns:xlink="http://www.w3.org/1999/xlink" id="svg8" width="32" height="32" version="1.1" viewBox="0 0 32 32"><title id="title7895">Antu icon Theme</title><defs id="defs2"><linearGradient id="linearGradient837-3" x1="4.233" x2="4.233" y1="296.206" y2="289.592" gradientTransform="matrix(3.7795275,0,0,3.7795275,-27.999999,-807.86969)" gradientUnits="userSpaceOnUse" xlink:href="#a"/><linearGradient id="a" x1="16" x2="16" y1="1049.362" y2="1024.362" gradientTransform="matrix(0.26458333,0,0,0.26458333,-8.414695,17.882162)" gradientUnits="userSpaceOnUse"><stop id="stop2" offset="0" stop-color="#4d4d4d"/><stop id="stop4" offset="1" stop-color="#1f1f1f"/></linearGradient></defs><metadata id="metadata5"/><g id="layer1" transform="translate(0,-282.64999)"><g id="g9832" transform="translate(28,-2e-5)"><path id="rect827-8" fill="#030303" fill-opacity="1" stroke="none" stroke-dasharray="none" stroke-linecap="round" stroke-linejoin="round" stroke-miterlimit="4" stroke-opacity="1" stroke-width="2" d="m -22.999999,283.65001 h 21.9999988 c 1.108,0 2,0.89202 2,2.00001 v 26.00001 c 0,1.10797 -0.892,1.99998 -2,1.99998 H -22.999999 c -1.108,0 -2,-0.89201 -2,-1.99998 v -26 c 0,-1.108 0.892,-2 2,-2.00002 z" opacity="1"/><path id="rect829-6" fill="url(#linearGradient837-3)" fill-opacity="1" stroke="none" stroke-dasharray="none" stroke-linecap="round" stroke-linejoin="round" stroke-miterlimit="4" stroke-opacity="1" stroke-width="2" d="m -22.999999,284.65003 h 21.9999988 c 0.554,0 1,0.44599 1,1 v 26 c 0,0.55401 -0.446,1 -1,1 H -22.999999 c -0.554,0 -1,-0.44599 -1,-1 v -26 c 0,-0.55399 0.446,-1 1,-1 z" opacity="1"/><path id="rect6299-1-1-0-5" fill="#0f0f0f" fill-opacity=".392" stroke="none" stroke-dasharray="none" stroke-dashoffset="0" stroke-linecap="round" stroke-linejoin="bevel" stroke-miterlimit="4" stroke-opacity=".392" stroke-width=".756" d="m -24,286.64997 v 4 H -2e-7 v -4 z m 0,7 v 4 H -2e-7 v -4 z m 0,7 v 4 H -2e-7 v -4 z m 0,6 v 4 H -2e-7 v -4 z" opacity="1" paint-order="stroke fill markers" vector-effect="none"/><path id="rect6570-7" fill="#fff" fill-opacity="1" stroke="none" stroke-dasharray="none" stroke-dashoffset="0" stroke-linecap="round" stroke-linejoin="bevel" stroke-miterlimit="4" stroke-opacity=".392" stroke-width=".756" d="m -21,286.64999 v 1.00002 h -1 v 1 h 1 v 2 h -1 v 1 h 1 v 0.99998 h 1 v -0.99998 h 2 v 0.99998 h 0.999999 v -0.99998 h 1 v -1 h -1 v -2 h 1 v -1 h -1 v -1.00002 H -18 v 1.00002 h -2 v -1.00002 z m 1,2.00002 h 2 v 2 h -2 z" opacity="1" paint-order="stroke fill markers" vector-effect="none"/></g></g></svg>