<svg xmlns="http://www.w3.org/2000/svg" xmlns:svg="http://www.w3.org/2000/svg" xmlns:xlink="http://www.w3.org/1999/xlink" id="svg8" width="32" height="32" version="1.1" viewBox="0 0 32 32"><title id="title7895">Antu icon Theme</title><defs id="defs2"><linearGradient id="linearGradient837" x1="4.233" x2="4.233" y1="296.206" y2="289.592" gradientTransform="matrix(3.7795275,0,0,3.7795275,-32,-811.86971)" gradientUnits="userSpaceOnUse" xlink:href="#linearGradient4602"/><linearGradient id="linearGradient4602"><stop id="stop4598" offset="0" stop-color="#228ee9" stop-opacity="1"/><stop id="stop4600" offset="1" stop-color="#2eb5fd" stop-opacity="1"/></linearGradient></defs><metadata id="metadata5"/><g id="layer1" transform="translate(0,-282.64999)"><g id="g15078" transform="translate(32,4)"><path id="rect827" fill="#1466b2" fill-opacity="1" stroke="none" stroke-dasharray="none" stroke-linecap="round" stroke-linejoin="round" stroke-miterlimit="4" stroke-opacity="1" stroke-width="2" d="m -27,279.64999 h 21.999999 c 1.108,0 2,0.892 2,2 v 26 c 0,1.108 -0.892,2 -2,2 H -27 c -1.108,0 -2,-0.892 -2,-2 v -26 c 0,-1.108 0.892,-2 2,-2 z" opacity="1"/><path id="rect829" fill="url(#linearGradient837)" fill-opacity="1" stroke="none" stroke-dasharray="none" stroke-linecap="round" stroke-linejoin="round" stroke-miterlimit="4" stroke-opacity="1" stroke-width="2" d="m -27,280.64999 h 21.999999 c 0.554,0 1,0.446 1,1 v 26 c 0,0.554 -0.446,1 -1,1 H -27 c -0.554,0 -1,-0.446 -1,-1 v -26 c 0,-0.554 0.446,-1 1,-1 z" opacity="1"/><path id="path5356-3-6-8-0-8" fill="#1466b2" fill-opacity="1" stroke="none" stroke-linecap="butt" stroke-linejoin="miter" stroke-opacity="1" stroke-width=".7" d="m -23,288.64999 v 14 h 3 1 l 3,-2 3,2 h 1 3 v -14 h -4 v 8.5 l -3,-1.5 -3,1.5 v -8.5 z"/><path id="path5356-3-6-8-0" fill="#a7d5fb" fill-opacity="1" stroke="none" stroke-linecap="butt" stroke-linejoin="miter" stroke-opacity="1" stroke-width=".7" d="m -19,301.64999 3,-2 3,2 h 1 v -5 l -4,-2 -4,2 v 5 z"/><path id="rect5339-6-9-8-6" fill="#f0f7fc" fill-opacity="1" stroke="none" stroke-opacity="1" stroke-width=".7" d="m -23,287.64999 v 14 h 4 v -14 z m 10,0 v 14 h 3.999992 v -14 z" opacity="1"/></g></g></svg>