<svg xmlns="http://www.w3.org/2000/svg" xmlns:svg="http://www.w3.org/2000/svg" xmlns:xlink="http://www.w3.org/1999/xlink" id="svg8" width="32" height="32" version="1.1" viewBox="0 0 32 32"><title id="title7895">Antu icon Theme</title><defs id="defs2"><linearGradient id="linearGradient837" x1="4.233" x2="4.233" y1="296.206" y2="289.592" gradientTransform="matrix(3.7795275,0,0,3.7795275,-8,-787.86971)" gradientUnits="userSpaceOnUse" xlink:href="#linearGradient6408-4"/><linearGradient id="linearGradient6408-4"><stop id="stop6404-7" offset="0" stop-color="#f34242" stop-opacity="1"/><stop id="stop6406-6" offset="1" stop-color="#ff6767" stop-opacity="1"/></linearGradient></defs><metadata id="metadata5"/><g id="layer1" transform="translate(0,-282.64999)"><g id="g2446" transform="translate(8.0000005,-20)"><path id="rect827" fill="#b52d2d" fill-opacity="1" stroke="none" stroke-dasharray="none" stroke-linecap="round" stroke-linejoin="round" stroke-miterlimit="4" stroke-opacity="1" stroke-width="2" d="m -3,303.64999 h 21.999999 c 1.108,0 2,0.892 2,2 v 26 c 0,1.108 -0.892,2 -2,2 H -3 c -1.108,0 -2,-0.892 -2,-2 v -26 c 0,-1.108 0.892,-2 2,-2 z" opacity="1"/><path id="rect829" fill="url(#linearGradient837)" fill-opacity="1" stroke="none" stroke-dasharray="none" stroke-linecap="round" stroke-linejoin="round" stroke-miterlimit="4" stroke-opacity="1" stroke-width="2" d="m -3,304.64999 h 21.999999 c 0.554,0 1,0.446 1,1 v 26 c 0,0.554 -0.446,1 -1,1 H -3 c -0.554,0 -1,-0.446 -1,-1 v -26 c 0,-0.554 0.446,-1 1,-1 z" opacity="1"/><path id="path1376-6" fill="#b52d2d" fill-opacity="1" stroke="none" stroke-linecap="round" stroke-linejoin="round" stroke-opacity="1" stroke-width="1" d="m 1,333.64999 h 2 c 0.0462,-3.1498 -1.80267,-6.6359 -4,-9 2,0 8,-3 9,-4 -1.11259,3.8416 -2.2384,7.2233 -2,13 h 9 c -3.68675,-8.9095 -3.52521,-16.9256 5,-23 v -2 l -4,3 c 0,-1 2,-5 4,-7 h -3 c -3.09877,9.7223 -12.03523,15.6327 -21,18 v 3 c 1,0 4.89991,3.6442 5,8 z"/><path id="path1376" fill="#fff" fill-opacity="1" stroke="none" stroke-linecap="round" stroke-linejoin="round" stroke-opacity="1" stroke-width="1" d="m 1,332.64999 h 2 c 0.0462,-3.1498 -1.80267,-6.6359 -4,-9 2,0 8,-3 9,-4 -1.11259,3.8416 -2.2384,7.2233 -2,13 h 9 c -3.68675,-8.9095 -3.52521,-16.9256 5,-23 v -2 l -4,3 c 0,-1 1,-4 3,-6 h -3 c -3.09877,9.7223 -11.03523,14.6327 -20,17 v 3 c 1,0 4.89991,3.6442 5,8 z"/></g></g></svg>