<svg xmlns="http://www.w3.org/2000/svg" xmlns:svg="http://www.w3.org/2000/svg" xmlns:xlink="http://www.w3.org/1999/xlink" id="svg8" width="32" height="32" version="1.1" viewBox="0 0 32 32"><title id="title7895">Antu icon Theme</title><defs id="defs2"><linearGradient id="linearGradient837" x1="4.233" x2="4.233" y1="296.206" y2="289.592" gradientTransform="matrix(3.7795275,0,0,3.7795275,-8,-805.86971)" gradientUnits="userSpaceOnUse" xlink:href="#linearGradient7100"/><linearGradient id="linearGradient7100"><stop id="stop7096" offset="0" stop-color="#02ca56" stop-opacity="1"/><stop id="stop7098" offset="1" stop-color="#75d97d" stop-opacity="1"/></linearGradient></defs><metadata id="metadata5"/><g id="layer1" transform="translate(0,-282.64999)"><g id="g11229" transform="translate(8.0000005,-2)"><path id="rect827" fill="#269435" fill-opacity="1" stroke="none" stroke-dasharray="none" stroke-linecap="round" stroke-linejoin="round" stroke-miterlimit="4" stroke-opacity="1" stroke-width="2" d="m -3,285.64999 h 21.999999 c 1.108,0 2,0.892 2,2 v 26 c 0,1.108 -0.892,2 -2,2 H -3 c -1.108,0 -2,-0.892 -2,-2 v -26 c 0,-1.108 0.892,-2 2,-2 z" opacity="1"/><path id="rect829" fill="url(#linearGradient837)" fill-opacity="1" stroke="none" stroke-dasharray="none" stroke-linecap="round" stroke-linejoin="round" stroke-miterlimit="4" stroke-opacity="1" stroke-width="2" d="m -3,286.64999 h 21.999999 c 0.554,0 1,0.446 1,1 v 26 c 0,0.554 -0.446,1 -1,1 H -3 c -0.554,0 -1,-0.446 -1,-1 v -26 c 0,-0.554 0.446,-1 1,-1 z" opacity="1"/><path font-size="40" style="line-height:125%;-inkscape-font-specification:'Segoe UI'" id="path3025-0-9" fill="#269435" fill-opacity="1" stroke="none" stroke-width=".298" d="m 2.000001,305.64999 v -8 l 7.999999,-3 4,2 v 11 l -4,1 -7.999999,-3 6.999995,1 v -9 l -4,1 v 6 z" font-family="Segoe UI" font-stretch="normal" font-style="normal" font-variant="normal" font-weight="normal" letter-spacing="0" word-spacing="0"/><path font-size="40" style="line-height:125%;-inkscape-font-specification:'Segoe UI'" id="path3025-0" fill="#f8faf8" fill-opacity="1" stroke="none" stroke-width=".298" d="m 2.000001,304.64999 v -8 l 7.999999,-3 4,2 v 11 l -4,1 -8,-2 h 6.999995 v -9 l -3.999999,1 v 6 z" font-family="Segoe UI" font-stretch="normal" font-style="normal" font-variant="normal" font-weight="normal" letter-spacing="0" word-spacing="0"/></g></g></svg>