<svg xmlns="http://www.w3.org/2000/svg" xmlns:svg="http://www.w3.org/2000/svg" xmlns:xlink="http://www.w3.org/1999/xlink" id="svg8" width="32" height="32" version="1.1" viewBox="0 0 32 32"><title id="title7895">Antu icon Theme</title><defs id="defs2"><linearGradient id="linearGradient4928-5" x1="16" x2="16" y1="18" y2="3" gradientTransform="translate(-5e-7,296.66089)" gradientUnits="userSpaceOnUse" xlink:href="#linearGradient4926"/><linearGradient id="linearGradient4926"><stop id="stop4922" offset="0" stop-color="#212121" stop-opacity="1"/><stop id="stop4924" offset="1" stop-color="#2c2c2c" stop-opacity="1"/></linearGradient><linearGradient id="linearGradient837" x1="4.233" x2="4.233" y1="296.206" y2="289.592" gradientTransform="matrix(3.7795275,0,0,3.7795275,5e-7,-807.85867)" gradientUnits="userSpaceOnUse" xlink:href="#linearGradient4656"/><linearGradient id="linearGradient2042" x1="16" x2="16" y1="17" y2="6" gradientTransform="translate(-5e-7,282.66094)" gradientUnits="userSpaceOnUse" xlink:href="#linearGradient4619"/><linearGradient id="linearGradient4619"><stop id="stop4615" offset="0" stop-color="#67d924" stop-opacity="1"/><stop id="stop4617" offset="1" stop-color="#a3eb1e" stop-opacity="1"/></linearGradient><linearGradient id="linearGradient4656"><stop id="stop4652" offset="0" stop-color="#e4e4e4" stop-opacity="1"/><stop id="stop4654" offset="1" stop-color="#fbfbfb" stop-opacity="1"/></linearGradient></defs><metadata id="metadata5"/><g id="layer1" transform="translate(0,-282.64999)"><g id="g928"><path id="rect1899" fill="#33691e" fill-opacity="1" stroke="none" stroke-dasharray="none" stroke-linecap="round" stroke-linejoin="round" stroke-miterlimit="4" stroke-opacity="1" stroke-width="2.098" d="m 5.9628901,283.63946 a 2.0002,2.0002 0 0 0 -1.5,3.30078 l 3.0722656,3.68554 c -1.5831304,1.90472 -2.5351562,4.35357 -2.5351562,7.03516 0,6.094 4.9060011,11 11.0000005,11 6.093999,0 11,-4.906 11,-11 0,-2.96115 -1.164533,-5.63579 -3.054688,-7.60937 l 2.591797,-3.11133 a 2.0002,2.0002 0 0 0 -1.560547,-3.30078 2.0002,2.0002 0 0 0 -1.513671,0.74023 l -2.777344,3.33398 C 19.263728,287.04552 17.680454,286.66094 16,286.66094 c -1.962055,0 -3.797006,0.51517 -5.388672,1.4082 l -3.0742191,-3.68945 a 2.0002,2.0002 0 0 0 -1.5742188,-0.74023 z"/><path id="rect1899-6" fill="url(#linearGradient2042)" fill-opacity="1" stroke="none" stroke-dasharray="none" stroke-linecap="round" stroke-linejoin="round" stroke-miterlimit="4" stroke-opacity="1" stroke-width="1.907" d="m 5.9804683,284.64922 a 1.0001,1.0001 0 0 0 -0.7480469,1.65235 l 3.6269531,4.35156 c -1.7685249,1.80205 -2.859375,4.27175 -2.859375,7.00781 0,5.54 4.4600015,10 10.0000005,10 5.539999,0 10,-4.46 10,-10 0,-3.01347 -1.326616,-5.70086 -3.421875,-7.53125 l 3.189453,-3.82812 a 1.0001,1.0001 0 0 0 -0.779297,-1.65235 1.0001,1.0001 0 0 0 -0.75586,0.3711 l -3.289062,3.94726 C 19.485883,288.13965 17.802589,287.66094 16,287.66094 c -2.081028,0 -4.010329,0.6295 -5.607422,1.70898 l -3.6250004,-4.3496 a 1.0001,1.0001 0 0 0 -0.7871093,-0.3711 z"/><path id="rect827" fill="#535e66" fill-opacity="1" stroke="none" stroke-dasharray="none" stroke-linecap="round" stroke-linejoin="round" stroke-miterlimit="4" stroke-opacity="1" stroke-width="2" d="M 5.0000005,297.66094 H 27 c 1.108,0 2,0.892 2,2 v 12 c 0,1.108 -0.892,2 -2,2 H 5.0000005 c -1.108,0 -2,-0.892 -2,-2 v -12 c 0,-1.108 0.892,-2 2,-2 z" opacity="1"/><path id="rect829" fill="url(#linearGradient837)" fill-opacity="1" stroke="none" stroke-dasharray="none" stroke-linecap="round" stroke-linejoin="round" stroke-miterlimit="4" stroke-opacity="1" stroke-width="2" d="M 5.0000005,298.66094 H 27 c 0.553999,0 1,0.446 1,1 v 12 c 0,0.554 -0.446001,1 -1,1 H 5.0000005 c -0.554,0 -1,-0.446 -1,-1 v -12 c 0,-0.554 0.446,-1 1,-1 z" opacity="1"/><path id="rect4856-4" fill="#010102" fill-opacity="1" stroke="none" stroke-dasharray="none" stroke-linecap="round" stroke-linejoin="round" stroke-miterlimit="4" stroke-opacity="1" stroke-width="1.002" d="m 13,297.66097 v 5 1 2 c 0,1.66202 1.338,3 3,3 1.661999,0 3,-1.33798 3,-3 v -2 -1 -5 h -1 -2 -2 z"/><path id="rect4917-7" fill="url(#linearGradient4928-5)" fill-opacity="1" stroke="none" stroke-dasharray="none" stroke-linecap="round" stroke-linejoin="round" stroke-miterlimit="4" stroke-opacity="1" stroke-width="1.002" d="m 14,298.66094 v 2.99997 4 c 0,1.108 0.891999,2.00002 2,2.00002 1.108,0 2,-0.89202 2,-2.00002 v -4 -2.99997 h -2 z"/><path id="path1476" fill="#fefefe" fill-opacity="1" stroke="none" stroke-dasharray="none" stroke-linecap="round" stroke-linejoin="round" stroke-miterlimit="4" stroke-opacity="1" stroke-width="1.002" d="m 16,298.66102 v 1 h 1 v -1 z"/><path id="path1474" fill="#fefefe" fill-opacity="1" stroke="none" stroke-dasharray="none" stroke-linecap="round" stroke-linejoin="round" stroke-miterlimit="4" stroke-opacity="1" stroke-width="1.002" d="m 16,299.66102 h -1 v 1 h 1 z"/><path id="path1472" fill="#fefefe" fill-opacity="1" stroke="none" stroke-dasharray="none" stroke-linecap="round" stroke-linejoin="round" stroke-miterlimit="4" stroke-opacity="1" stroke-width="1.002" d="m 16,300.66102 v 1 h 1 v -1 z"/><path id="path1470" fill="#fefefe" fill-opacity="1" stroke="none" stroke-dasharray="none" stroke-linecap="round" stroke-linejoin="round" stroke-miterlimit="4" stroke-opacity="1" stroke-width="1.002" d="m 16,301.66102 h -1 v 1 h 1 z"/><path id="path1468" fill="#fefefe" fill-opacity="1" stroke="none" stroke-dasharray="none" stroke-linecap="round" stroke-linejoin="round" stroke-miterlimit="4" stroke-opacity="1" stroke-width="1.002" d="m 16,302.66102 v 1 h 1 v -1 z"/><path id="path1466" fill="#fefefe" fill-opacity="1" stroke="none" stroke-dasharray="none" stroke-linecap="round" stroke-linejoin="round" stroke-miterlimit="4" stroke-opacity="1" stroke-width="1.002" d="m 16,303.66102 h -1 v 1 h 1 z"/><path id="path1464" fill="#fefefe" fill-opacity="1" stroke="none" stroke-dasharray="none" stroke-linecap="round" stroke-linejoin="round" stroke-miterlimit="4" stroke-opacity="1" stroke-width="1.002" d="m 16,304.66102 v 1 h 1 v -1 z"/><path id="path1462" fill="#fefefe" fill-opacity="1" stroke="none" stroke-dasharray="none" stroke-linecap="round" stroke-linejoin="round" stroke-miterlimit="4" stroke-opacity="1" stroke-width="1.002" d="m 16,305.66102 h -1 v 1 h 1 z"/><path id="rect2019" fill="#33691e" fill-opacity="1" stroke="none" stroke-dasharray="none" stroke-linecap="round" stroke-linejoin="round" stroke-miterlimit="4" stroke-opacity="1" stroke-width="2" d="M 12.5 9.0117188 C 11.669001 9.0117188 11 9.6807187 11 10.511719 C 11 11.342719 11.669001 12.011719 12.5 12.011719 C 13.330999 12.011719 14 11.342719 14 10.511719 C 14 9.6807187 13.330999 9.0117188 12.5 9.0117188 z M 19.5 9.0117188 C 18.669 9.0117188 18 9.6807187 18 10.511719 C 18 11.342719 18.669001 12.011719 19.5 12.011719 C 20.330999 12.011719 21 11.342719 21 10.511719 C 21 9.6807187 20.330999 9.0117188 19.5 9.0117188 z" transform="translate(0,282.64999)"/></g></g></svg>