<svg xmlns="http://www.w3.org/2000/svg" xmlns:svg="http://www.w3.org/2000/svg" xmlns:xlink="http://www.w3.org/1999/xlink" id="svg8" width="32" height="32" version="1.1" viewBox="0 0 32 32"><title id="title7895">Antu icon Theme</title><defs id="defs2"><linearGradient id="linearGradient837" x1="4.233" x2="4.233" y1="296.206" y2="289.592" gradientTransform="matrix(3.7795275,0,0,3.7795275,-12,-802.11971)" gradientUnits="userSpaceOnUse" xlink:href="#linearGradient4902"/><linearGradient id="linearGradient4902"><stop id="stop4898" offset="0" stop-color="#5563b2" stop-opacity="1"/><stop id="stop4900" offset="1" stop-color="#7986cb" stop-opacity="1"/></linearGradient></defs><metadata id="metadata5"/><g id="layer1" transform="translate(0,-282.64999)"><g id="g3958" transform="translate(12,-5.75)"><path id="rect827" fill="#4a5599" fill-opacity="1" stroke="none" stroke-dasharray="none" stroke-linecap="round" stroke-linejoin="round" stroke-miterlimit="4" stroke-opacity="1" stroke-width="2" d="M -6.9999995,289.39999 H 15 c 1.107999,0 2,0.892 2,2 v 26 c 0,1.108 -0.892001,2 -2,2 H -6.9999995 c -1.108,0 -2,-0.892 -2,-2 v -26 c 0,-1.108 0.892,-2 2,-2 z" opacity="1"/><path id="rect829" fill="url(#linearGradient837)" fill-opacity="1" stroke="none" stroke-dasharray="none" stroke-linecap="round" stroke-linejoin="round" stroke-miterlimit="4" stroke-opacity="1" stroke-width="2" d="M -6.9999995,290.39999 H 15 c 0.553999,0 1,0.446 1,1 v 26 c 0,0.554 -0.446001,1 -1,1 H -6.9999995 c -0.554,0 -1,-0.446 -1,-1 v -26 c 0,-0.554 0.446,-1 1,-1 z" opacity="1"/><path id="rect7658" fill="#4a5599" fill-opacity="1" stroke="none" stroke-dasharray="none" stroke-linecap="round" stroke-linejoin="round" stroke-miterlimit="4" stroke-opacity="1" stroke-width="2.333" d="m 4.0000005,298.39999 c -3.878,0 -7,3.122 -7,7 0,3.878 3.122,7 7,7 3.878,0 7.0000005,-3.122 7.0000005,-7 0,-3.878 -3.1220005,-7 -7.0000005,-7 z m 0,3 c 0.553999,0 1,0.446 1,1 v 3 h 1 a 1.0001,1.0001 0 0 1 0.707031,1.70703 l -2,2 a 1.0001,1.0001 0 0 1 -1.414062,0 l -2,-2 a 1.0001,1.0001 0 0 1 0.707031,-1.70703 h 1 v -3 c 0,-0.554 0.446001,-1 1,-1 z" opacity="1"/><path id="rect7658-0" fill="#eff0f6" fill-opacity="1" stroke="none" stroke-dasharray="none" stroke-linecap="round" stroke-linejoin="round" stroke-miterlimit="4" stroke-opacity="1" stroke-width="2.333" d="m 4.0000005,297.39997 c -3.878,0 -7.0000001,3.12201 -7.0000001,6.99999 0,3.87802 3.1220001,7.00003 7.0000001,7.00003 3.878,0 7.0000005,-3.12201 7.0000005,-7.00003 0,-3.87798 -3.1220005,-6.99999 -7.0000005,-6.99999 z m 0,3 c 0.553999,0 1,0.44603 1,0.99999 v 3 h 1 a 1.0001,1.0001 0 0 1 0.707031,1.70706 l -2,1.99998 a 1.0001,1.0001 0 0 1 -1.414062,0 l -2,-1.99998 a 1.0001,1.0001 0 0 1 0.707031,-1.70706 h 1 v -3 c 0,-0.55396 0.446001,-0.99999 1,-0.99999 z" opacity="1"/></g></g></svg>