<svg xmlns="http://www.w3.org/2000/svg" xmlns:svg="http://www.w3.org/2000/svg" xmlns:xlink="http://www.w3.org/1999/xlink" id="svg8" width="32" height="32" version="1.1" viewBox="0 0 32 32"><title id="title7895">Antu icon Theme</title><defs id="defs2"><linearGradient id="linearGradient4928" x1="16" x2="16" y1="18" y2="3" gradientTransform="translate(-15.999999,274.64988)" gradientUnits="userSpaceOnUse" xlink:href="#linearGradient4926"/><linearGradient id="linearGradient4926"><stop id="stop4922" offset="0" stop-color="#212121" stop-opacity="1"/><stop id="stop4924" offset="1" stop-color="#2c2c2c" stop-opacity="1"/></linearGradient><linearGradient id="linearGradient837-3" x1="4.233" x2="4.233" y1="296.206" y2="289.592" gradientTransform="matrix(3.7795275,0,0,3.7795275,-15.999999,-815.86964)" gradientUnits="userSpaceOnUse" xlink:href="#linearGradient4627"/><linearGradient id="linearGradient4627"><stop id="stop4623" offset="0" stop-color="#ffc900" stop-opacity="1"/><stop id="stop4625" offset="1" stop-color="#ffe200" stop-opacity="1"/></linearGradient></defs><metadata id="metadata5"/><g id="layer1" transform="translate(0,-282.64999)"><g id="g9127" transform="translate(16,8.000005)"><path id="rect827-8" fill="#ff9600" fill-opacity=".961" stroke="none" stroke-dasharray="none" stroke-linecap="round" stroke-linejoin="round" stroke-miterlimit="4" stroke-opacity="1" stroke-width="2" d="M -10.999999,275.65001 H 11 c 1.108,0 2,0.89202 2,2.00001 v 26.00001 c 0,1.10797 -0.892,1.99998 -2,1.99998 h -21.999999 c -1.108,0 -2,-0.892 -2,-1.99998 v -26 c 0,-1.108 0.892,-2 2,-2.00002 z" opacity="1"/><path id="rect829-6" fill="url(#linearGradient837-3)" fill-opacity="1" stroke="none" stroke-dasharray="none" stroke-linecap="round" stroke-linejoin="round" stroke-miterlimit="4" stroke-opacity="1" stroke-width="2" d="M -10.999999,276.65003 H 11 c 0.554,0 1,0.44599 1,1 v 26 c 0,0.55401 -0.446,1 -1,1 h -21.999999 c -0.554,0 -1,-0.44599 -1,-1 v -26 c 0,-0.55399 0.446,-1 1,-1 z" opacity="1"/><path id="rect4856" fill="#010102" fill-opacity="1" stroke="none" stroke-dasharray="none" stroke-linecap="round" stroke-linejoin="round" stroke-miterlimit="4" stroke-opacity="1" stroke-width="1.002" d="m -2.9999992,275.64996 v 5 1 13.00009 c 0,1.66202 1.338,3 3,3 1.662,0 3,-1.33798 3,-3 v -13.00009 -1 -5 h -1 -2 -2 z"/><path id="rect4917" fill="url(#linearGradient4928)" fill-opacity="1" stroke="none" stroke-dasharray="none" stroke-linecap="round" stroke-linejoin="round" stroke-miterlimit="4" stroke-opacity="1" stroke-width="1.002" d="m -1.9999992,276.64994 v 2.99997 15.00008 c 0,1.108 0.892,2.00002 2,2.00002 1.108,0 2,-0.89202 2,-2.00002 v -15.00008 -2.99997 h -2 z"/><path id="path904" fill="#fefefe" fill-opacity="1" stroke="none" stroke-dasharray="none" stroke-linecap="round" stroke-linejoin="round" stroke-miterlimit="4" stroke-opacity="1" stroke-width="1.002" d="m 8e-7,276.65001 v 1 h 1 v -1 z m 0,1 h -1 v 1 h 1 z m 0,1 v 1 h 1 v -1 z m 0,1 h -1 v 1 h 1 z m 0,1 v 1 h 1 v -1 z m 0,1 h -1 v 1 h 1 z m 0,1 v 1 h 1 v -1 z m 0,1 h -1 v 1 h 1 z m 0,1 v 1 h 1 v -1 z m 0,1 h -1 v 1 h 1 z m 0,1 v 1 h 1 v -1 z m 0,1 h -1 v 1 h 1 z m 0,1 v 1 h 1 v -1 z m 0,1 h -1 v 1 h 1 z m 0,1 v 1 h 1 v -1 z m 0,1 h -1 v 1 h 1 z m 0,1 v 1 h 1 v -1 z m 0,1 h -1 v 1 h 1 z m 0,1 v 1 h 1 v -1 z"/></g></g></svg>