<svg xmlns="http://www.w3.org/2000/svg" xmlns:svg="http://www.w3.org/2000/svg" xmlns:xlink="http://www.w3.org/1999/xlink" id="svg8" width="32" height="32" version="1.1" viewBox="0 0 32 32"><title id="title7895">Antu icon Theme</title><defs id="defs2"><linearGradient id="linearGradient4928" x1="16" x2="16" y1="18" y2="3" gradientTransform="translate(-26.125,265.14988)" gradientUnits="userSpaceOnUse" xlink:href="#linearGradient4926"/><linearGradient id="linearGradient4926"><stop id="stop4922" offset="0" stop-color="#212121" stop-opacity="1"/><stop id="stop4924" offset="1" stop-color="#2c2c2c" stop-opacity="1"/></linearGradient><linearGradient id="linearGradient837-3" x1="4.233" x2="4.233" y1="296.206" y2="289.592" gradientTransform="matrix(3.7795275,0,0,3.7795275,-26.125,-825.36964)" gradientUnits="userSpaceOnUse" xlink:href="#linearGradient4622"/><linearGradient id="linearGradient4622"><stop id="stop4618" offset="0" stop-color="#ff6a3e" stop-opacity="1"/><stop id="stop4620" offset="1" stop-color="#ff9065" stop-opacity="1"/></linearGradient></defs><metadata id="metadata5"/><g id="layer1" transform="translate(0,-282.64999)"><g id="g5515" transform="translate(26.125,17.500005)"><path id="rect827-8" fill="#dd4d25" fill-opacity="1" stroke="none" stroke-dasharray="none" stroke-linecap="round" stroke-linejoin="round" stroke-miterlimit="4" stroke-opacity="1" stroke-width="2" d="M -21.125,266.15001 H 0.87499937 c 1.10800003,0 2.00000003,0.89202 2.00000003,2.00001 v 26.00001 c 0,1.10797 -0.892,1.99998 -2.00000003,1.99998 H -21.125 c -1.108,0 -2,-0.89201 -2,-1.99998 v -26 c 0,-1.108 0.892,-2.00001 2,-2.00002 z" opacity="1"/><path id="rect829-6" fill="url(#linearGradient837-3)" fill-opacity="1" stroke="none" stroke-dasharray="none" stroke-linecap="round" stroke-linejoin="round" stroke-miterlimit="4" stroke-opacity="1" stroke-width="2" d="M -21.125,267.15003 H 0.87499937 c 0.55400003,0 1.00000003,0.44599 1.00000003,1 v 26 c 0,0.55401 -0.446,1 -1.00000003,1 H -21.125 c -0.554,0 -1,-0.44599 -1,-1 v -26 c 0,-0.554 0.446,-1 1,-1 z" opacity="1"/><path id="rect4856" fill="#010102" fill-opacity="1" stroke="none" stroke-dasharray="none" stroke-linecap="round" stroke-linejoin="round" stroke-miterlimit="4" stroke-opacity="1" stroke-width="1.002" d="m -13.125,266.14996 v 5 1 13.00008 c 0,1.66202 1.338,3 3,3 1.6620004,0 3.0000004,-1.33798 3.0000004,-3 v -13.00008 -1 -5 h -1 -2.0000004 -2 z"/><path id="rect4917" fill="url(#linearGradient4928)" fill-opacity="1" stroke="none" stroke-dasharray="none" stroke-linecap="round" stroke-linejoin="round" stroke-miterlimit="4" stroke-opacity="1" stroke-width="1.002" d="m -12.125,267.14993 v 2.99997 15.00008 c 0,1.108 0.892,2.00002 2,2.00002 1.1080004,0 2.0000004,-0.89202 2.0000004,-2.00002 V 270.1499 267.14993 H -10.125 Z"/><path id="path904" fill="#fefefe" fill-opacity="1" stroke="none" stroke-dasharray="none" stroke-linecap="round" stroke-linejoin="round" stroke-miterlimit="4" stroke-opacity="1" stroke-width="1.002" d="m -10.125,267.15001 v 1 h 1.0000004 v -1 z m 0,1 h -1 v 1 h 1 z m 0,1 v 1 h 1.0000004 v -1 z m 0,1 h -1 v 1 h 1 z m 0,1 v 1 h 1.0000004 v -1 z m 0,1 h -1 v 1 h 1 z m 0,1 v 1 h 1.0000004 v -1 z m 0,1 h -1 v 1 h 1 z m 0,1 v 1 h 1.0000004 v -1 z m 0,1 h -1 v 1 h 1 z m 0,1 v 1 h 1.0000004 v -1 z m 0,1 h -1 v 1 h 1 z m 0,1 v 1 h 1.0000004 v -1 z m 0,1 h -1 v 1 h 1 z m 0,1 v 1 h 1.0000004 v -1 z m 0,1 h -1 v 1 h 1 z m 0,1 v 1 h 1.0000004 v -1 z m 0,1 h -1 v 1 h 1 z m 0,1 v 1 h 1.0000004 v -1 z"/></g></g></svg>