<svg xmlns="http://www.w3.org/2000/svg" xmlns:svg="http://www.w3.org/2000/svg" xmlns:xlink="http://www.w3.org/1999/xlink" id="svg8" width="32" height="32" version="1.1" viewBox="0 0 32 32"><title id="title7895">Antu icon Theme</title><defs id="defs2"><linearGradient id="linearGradient837" x1="4.233" x2="4.233" y1="296.206" y2="289.592" gradientTransform="matrix(3.7795275,0,0,3.7795275,-6.3749994,-825.86971)" gradientUnits="userSpaceOnUse" xlink:href="#linearGradient4894"/><linearGradient id="linearGradient4894"><stop id="stop4890" offset="0" stop-color="#306dee" stop-opacity="1"/><stop id="stop4892" offset="1" stop-color="#5795fb" stop-opacity="1"/></linearGradient></defs><metadata id="metadata5"/><g id="layer1" transform="translate(0,-282.64999)"><g id="g5827" transform="translate(6.3749997,18)"><path id="rect827" fill="#145cd8" fill-opacity="1" stroke="none" stroke-dasharray="none" stroke-linecap="round" stroke-linejoin="round" stroke-miterlimit="4" stroke-opacity="1" stroke-width="2" d="M -1.3749994,265.64999 H 20.625 c 1.108,0 2,0.892 2,2 v 26 c 0,1.108 -0.892,2 -2,2 H -1.3749994 c -1.108,0 -2,-0.892 -2,-2 v -26 c 0,-1.108 0.892,-2 2,-2 z" opacity="1"/><path id="rect829" fill="url(#linearGradient837)" fill-opacity="1" stroke="none" stroke-dasharray="none" stroke-linecap="round" stroke-linejoin="round" stroke-miterlimit="4" stroke-opacity="1" stroke-width="2" d="M -1.3749994,266.64999 H 20.625 c 0.554,0 1,0.446 1,1 v 26 c 0,0.554 -0.446,1 -1,1 H -1.3749994 c -0.554,0 -1,-0.446 -1,-1 v -26 c 0,-0.554 0.446,-1 1,-1 z" opacity="1"/><path id="rect4689-9-9-7" fill="#1664eb" fill-opacity="1" stroke="none" stroke-opacity="1" stroke-width="1" d="m 4.6250006,272.64999 c -0.554,0 -1,0.446 -1,1 0,0.554 0.446,1 1,1 0.554,0 1,-0.446 1,-1 0,-0.554 -0.446,-1 -1,-1 z m 10.0000004,1 -5.0000004,2 v 3 1 2.5508 c -0.589552,-0.3417 -1.266971,-0.5508 -2,-0.5508 -2.216,0 -4,1.784 -4,4 0,2.216 1.784,4 4,4 2.216,0 4.0000004,-1.784 4.0000004,-4 v -5 -1.8008 l 3,-1.1992 z m -14.00000038,1 c -0.554,0 -1,0.446 -1,1 0,0.554 0.446,1 1,1 0.55399998,0 0.99999998,-0.446 0.99999998,-1 0,-0.554 -0.446,-1 -0.99999998,-1 z m 3.99999998,2 c -0.554,0 -1,0.446 -1,1 0,0.554 0.446,1 1,1 0.554,0 1,-0.446 1,-1 0,-0.554 -0.446,-1 -1,-1 z m -3.99999998,2 c -0.554,0 -1,0.446 -1,1 0,0.554 0.446,1 1,1 0.55399998,0 0.99999998,-0.446 0.99999998,-1 0,-0.554 -0.446,-1 -0.99999998,-1 z m 18.00000038,1 c -0.554,0 -1,0.446 -1,1 0,0.554 0.446,1 1,1 0.554,0 1,-0.446 1,-1 0,-0.554 -0.446,-1 -1,-1 z m -18.00000038,3 c -0.554,0 -1,0.446 -1,1 0,0.554 0.446,1 1,1 0.55399998,0 0.99999998,-0.446 0.99999998,-1 0,-0.554 -0.446,-1 -0.99999998,-1 z m 18.00000038,1 c -0.554,0 -1,0.446 -1,1 0,0.554 0.446,1 1,1 0.554,0 1,-0.446 1,-1 0,-0.554 -0.446,-1 -1,-1 z m -4,2 c -0.554,0 -1,0.446 -1,1 0,0.554 0.446,1 1,1 0.554,0 1,-0.446 1,-1 0,-0.554 -0.446,-1 -1,-1 z m 4,2 c -0.554,0 -1,0.446 -1,1 0,0.554 0.446,1 1,1 0.554,0 1,-0.446 1,-1 0,-0.554 -0.446,-1 -1,-1 z m -4,2 c -0.554,0 -1,0.446 -1,1 0,0.554 0.446,1 1,1 0.554,0 1,-0.446 1,-1 0,-0.554 -0.446,-1 -1,-1 z" opacity="1"/><path id="rect4689-9-9" fill="#f7faff" fill-opacity="1" stroke="none" stroke-opacity="1" stroke-width="1" d="m 4.6250006,271.64999 c -0.554,0 -1,0.446 -1,1 0,0.554 0.446,1 1,1 0.554,0 1,-0.446 1,-1 0,-0.554 -0.446,-1 -1,-1 z m 10.0000004,1 -5.0000004,2 v 3 1 2.5508 c -0.589552,-0.3417 -1.266971,-0.5508 -2,-0.5508 -2.216,0 -4,1.784 -4,4 0,2.216 1.784,4 4,4 2.216,0 4.0000004,-1.784 4.0000004,-4 v -5 -1.8008 l 3,-1.1992 z m -14.00000038,1 c -0.554,0 -1,0.446 -1,1 0,0.554 0.446,1 1,1 0.55399998,0 0.99999998,-0.446 0.99999998,-1 0,-0.554 -0.446,-1 -0.99999998,-1 z m 3.99999998,2 c -0.554,0 -1,0.446 -1,1 0,0.554 0.446,1 1,1 0.554,0 1,-0.446 1,-1 0,-0.554 -0.446,-1 -1,-1 z m -3.99999998,2 c -0.554,0 -1,0.446 -1,1 0,0.554 0.446,1 1,1 0.55399998,0 0.99999998,-0.446 0.99999998,-1 0,-0.554 -0.446,-1 -0.99999998,-1 z m 18.00000038,1 c -0.554,0 -1,0.446 -1,1 0,0.554 0.446,1 1,1 0.554,0 1,-0.446 1,-1 0,-0.554 -0.446,-1 -1,-1 z m -18.00000038,3 c -0.554,0 -1,0.446 -1,1 0,0.554 0.446,1 1,1 0.55399998,0 0.99999998,-0.446 0.99999998,-1 0,-0.554 -0.446,-1 -0.99999998,-1 z m 18.00000038,1 c -0.554,0 -1,0.446 -1,1 0,0.554 0.446,1 1,1 0.554,0 1,-0.446 1,-1 0,-0.554 -0.446,-1 -1,-1 z m -4,2 c -0.554,0 -1,0.446 -1,1 0,0.554 0.446,1 1,1 0.554,0 1,-0.446 1,-1 0,-0.554 -0.446,-1 -1,-1 z m 4,2 c -0.554,0 -1,0.446 -1,1 0,0.554 0.446,1 1,1 0.554,0 1,-0.446 1,-1 0,-0.554 -0.446,-1 -1,-1 z m -4,2 c -0.554,0 -1,0.446 -1,1 0,0.554 0.446,1 1,1 0.554,0 1,-0.446 1,-1 0,-0.554 -0.446,-1 -1,-1 z" opacity="1"/></g></g></svg>