<svg xmlns="http://www.w3.org/2000/svg" xmlns:svg="http://www.w3.org/2000/svg" xmlns:xlink="http://www.w3.org/1999/xlink" id="svg8" width="32" height="32" version="1.1" viewBox="0 0 32 32"><title id="title7895">Antu icon Theme</title><defs id="defs2"><linearGradient id="linearGradient837" x1="4.233" x2="4.233" y1="296.206" y2="289.592" gradientTransform="matrix(3.7795275,0,0,3.7795275,-26,-70.15745)" gradientUnits="userSpaceOnUse" xlink:href="#linearGradient4846"/><linearGradient id="linearGradient4846"><stop id="stop4842" offset="0" stop-color="#e4efef" stop-opacity="1"/><stop id="stop4844" offset="1" stop-color="#fcfcfc" stop-opacity="1"/></linearGradient><linearGradient id="linearGradient6798" x1="-9" x2="-9" y1="1042.362" y2="1028.362" gradientUnits="userSpaceOnUse" xlink:href="#linearGradient4520"/><linearGradient id="linearGradient4520"><stop id="stop4516" offset="0" stop-color="#01ace5" stop-opacity="1"/><stop id="stop4518" offset="1" stop-color="#172559" stop-opacity="1"/></linearGradient><linearGradient id="linearGradient8714-6" x1="8.75" x2="8" y1="295.65" y2="291.9" gradientTransform="matrix(1.3333333,0,0,1.3333333,-15.666662,-89.550012)" gradientUnits="userSpaceOnUse" xlink:href="#linearGradient6815"/><linearGradient id="linearGradient6815"><stop id="stop6811" offset="0" stop-color="#f1e1e9" stop-opacity=".149"/><stop id="stop6813" offset="1" stop-color="#e4eeff" stop-opacity="1"/></linearGradient><linearGradient id="linearGradient3084-0" x1="-8" x2="-10" y1="308.65" y2="305.65" gradientTransform="matrix(-1,0,0,1,-47.406249,2.0000001)" gradientUnits="userSpaceOnUse" xlink:href="#linearGradient3082"/><linearGradient id="linearGradient3082"><stop id="stop3078" offset="0" stop-color="#f2e7ed" stop-opacity="1"/><stop id="stop3080" offset="1" stop-color="#e5c6d2" stop-opacity="0"/></linearGradient><linearGradient id="linearGradient4632-9-2" x1="24" x2="26" y1="11.454" y2="8.813" gradientTransform="translate(-57.406249,299.19551)" gradientUnits="userSpaceOnUse" xlink:href="#linearGradient4630"/><linearGradient id="linearGradient4630"><stop id="stop4626" offset="0" stop-color="#cacaca" stop-opacity="1"/><stop id="stop4628" offset="1" stop-color="#cacaca" stop-opacity="0"/></linearGradient><linearGradient id="linearGradient4666-9-4" x1="25.646" x2="28.354" y1="15" y2="15" gradientTransform="translate(-58.999999,297.19553)" gradientUnits="userSpaceOnUse" xlink:href="#linearGradient4646"/><linearGradient id="linearGradient4646"><stop id="stop4642" offset="0" stop-color="#fff" stop-opacity="1"/><stop id="stop4644" offset="1" stop-color="#fff" stop-opacity="0"/></linearGradient><linearGradient id="linearGradient4666-9-4-0" x1="25.646" x2="28.354" y1="15" y2="15" gradientTransform="translate(-61.406249,290.65001)" gradientUnits="userSpaceOnUse" xlink:href="#linearGradient4646"/><linearGradient id="linearGradient4666-9-4-0-6" x1="25.646" x2="28.354" y1="15" y2="15" gradientTransform="translate(-61.406249,286.65001)" gradientUnits="userSpaceOnUse" xlink:href="#linearGradient4646"/></defs><metadata id="metadata5"/><g id="layer1" transform="translate(0,-282.64999)"><g id="g7287" transform="translate(55.40625,-11)"><path id="rect827" fill="#90a4ae" fill-opacity="1" stroke="none" stroke-dasharray="none" stroke-linecap="round" stroke-linejoin="round" stroke-miterlimit="4" stroke-opacity="1" stroke-width="2" d="M -21,1021.3622 H 0.999999 c 1.108,0 2,0.892 2,2 v 26 c 0,1.108 -0.892,2 -2,2 H -21 c -1.108,0 -2,-0.892 -2,-2 v -26 c 0,-1.108 0.892,-2 2,-2 z" opacity="1" transform="translate(-29.406249,-726.71221)"/><path id="rect829" fill="url(#linearGradient837)" fill-opacity="1" stroke="none" stroke-dasharray="none" stroke-linecap="round" stroke-linejoin="round" stroke-miterlimit="4" stroke-opacity="1" stroke-width="2" d="M -21,1022.3622 H 0.999999 c 0.554,0 1,0.446 1,1 v 26 c 0,0.554 -0.446,1 -1,1 H -21 c -0.554,0 -1,-0.446 -1,-1 v -26 c 0,-0.554 0.446,-1 1,-1 z" opacity="1" transform="translate(-29.406249,-726.71221)"/><path id="rect6732" fill="url(#linearGradient6798)" fill-opacity="1" stroke="none" stroke-dasharray="none" stroke-linecap="round" stroke-linejoin="round" stroke-miterlimit="4" stroke-opacity="1" stroke-width=".8" d="M -20,1024.3622 H 0 v 24 h -20 z" transform="translate(-29.406249,-726.71221)"/><path id="rect8647-6" fill="#131427" fill-opacity="1" stroke="none" stroke-dasharray="none" stroke-dashoffset="0" stroke-linecap="round" stroke-linejoin="round" stroke-miterlimit="4" stroke-opacity="1" stroke-width="2.554" d="m -12,311.64997 c 10.8314794,-6.14271 9.7933331,4.21971 20,0 v 6.00002 h -20 z" opacity="1" paint-order="stroke markers fill" transform="translate(-37.406249,4)" vector-effect="none"/><path id="rect8706-0" fill="url(#linearGradient8714-6)" fill-opacity="1" stroke="none" stroke-dasharray="none" stroke-dashoffset="0" stroke-linecap="round" stroke-linejoin="round" stroke-miterlimit="4" stroke-opacity="1" stroke-width="2.667" d="m -5,296.64999 h 6e-6 c 2.215998,0 3.9999971,1.78399 3.9999971,4 0,2.216 -1.7839991,4 -3.9999971,4 H -5 c -2.215998,0 -3.9999969,-1.784 -3.9999969,-4 0,-2.21601 1.7839989,-4 3.9999969,-4 z" opacity="1" paint-order="stroke markers fill" transform="translate(-37.406249,4)" vector-effect="none"/><path id="rect6800" fill="#131427" fill-opacity="1" stroke="none" stroke-dasharray="none" stroke-linecap="round" stroke-linejoin="round" stroke-miterlimit="4" stroke-opacity="1" stroke-width=".8" d="M 6,4 V 28 H 26 V 4 Z M 7,5 H 25 V 27 H 7 Z" transform="translate(-55.406249,293.64999)"/><path id="path4561-4-7" fill="none" fill-opacity="1" stroke="url(#linearGradient3084-0)" stroke-dasharray="none" stroke-linecap="round" stroke-linejoin="miter" stroke-miterlimit="4" stroke-opacity="1" stroke-width=".8" d="m -39.40625,310.64999 3.000001,-3"/><path id="path4563-7-7" fill="none" stroke="url(#linearGradient4632-9-2)" stroke-dasharray="none" stroke-linecap="round" stroke-linejoin="bevel" stroke-miterlimit="4" stroke-opacity=".677" stroke-width=".8" d="m -31.406249,306.64999 -4,4"/><path id="path4658-8-5" fill="none" stroke="url(#linearGradient4666-9-4)" stroke-dasharray="none" stroke-linecap="round" stroke-linejoin="miter" stroke-miterlimit="4" stroke-opacity="1" stroke-width=".8" d="m -32.999999,313.19551 2,-2"/><path id="path4658-8-5-1" fill="none" stroke="url(#linearGradient4666-9-4-0)" stroke-dasharray="none" stroke-linecap="round" stroke-linejoin="miter" stroke-miterlimit="4" stroke-opacity="1" stroke-width=".8" d="m -35.406249,306.64999 2,-2"/><path id="path4658-8-5-1-2" fill="none" stroke="url(#linearGradient4666-9-4-0-6)" stroke-dasharray="none" stroke-linecap="round" stroke-linejoin="miter" stroke-miterlimit="4" stroke-opacity="1" stroke-width=".8" d="m -35.406249,302.64999 2,-2"/></g></g></svg>