<svg xmlns="http://www.w3.org/2000/svg" xmlns:svg="http://www.w3.org/2000/svg" xmlns:xlink="http://www.w3.org/1999/xlink" id="svg8" width="32" height="32" version="1.1" viewBox="0 0 32 32"><title id="title7895">Antu icon Theme</title><defs id="defs2"><linearGradient id="linearGradient1050" x1="-16" x2="-16" y1="307.65" y2="289.65" gradientTransform="translate(156,98.62499)" gradientUnits="userSpaceOnUse" xlink:href="#linearGradient1048"/><linearGradient id="linearGradient1048"><stop id="stop1044" offset="0" stop-color="#084b91" stop-opacity="1"/><stop id="stop1046" offset="1" stop-color="#0956a6" stop-opacity="1"/></linearGradient><linearGradient id="linearGradient875" x1="-16" x2="-16" y1="310.65" y2="286.65" gradientTransform="translate(156,98.625)" gradientUnits="userSpaceOnUse" xlink:href="#linearGradient4846"/><linearGradient id="linearGradient4846"><stop id="stop4842" offset="0" stop-color="#e4efef" stop-opacity="1"/><stop id="stop4844" offset="1" stop-color="#fcfcfc" stop-opacity="1"/></linearGradient></defs><metadata id="metadata5"/><g id="layer1" transform="translate(0,-282.64999)"><g id="g9752" transform="translate(4.0000005,-2.625)"><g id="g927" transform="translate(-128,-96)"><path id="rect852" fill="#90a4ae" fill-opacity="1" stroke="none" stroke-dasharray="none" stroke-linecap="round" stroke-linejoin="round" stroke-miterlimit="4" stroke-opacity="1" stroke-width="2" d="m 127,384.27499 h 26 c 1.108,0 2,0.892 2,2 V 408.275 c 0,1.108 -0.892,1.99999 -2,1.99999 h -26 c -1.108,0 -2,-0.89199 -2,-1.99999 v -22.00001 c 0,-1.108 0.892,-2 2,-2 z"/><path id="rect852-3" fill="url(#linearGradient875)" fill-opacity="1" stroke="none" stroke-dasharray="none" stroke-linecap="round" stroke-linejoin="round" stroke-miterlimit="4" stroke-opacity="1" stroke-width="2" d="m 127,385.27499 h 26 c 0.554,0 1,0.446 1,1 v 22 c 0,0.554 -0.446,1 -1,1 h -26 c -0.554,0 -1,-0.446 -1,-1 v -22 c 0,-0.554 0.446,-1 1,-1 z"/><path id="rect877" fill="#063566" fill-opacity="1" stroke="none" stroke-dasharray="none" stroke-linecap="round" stroke-linejoin="round" stroke-miterlimit="4" stroke-opacity="1" stroke-width="2" d="m 127,386.27499 h 26 v 22 h -26 z"/><path id="rect1042" fill="url(#linearGradient1050)" fill-opacity="1" stroke="none" stroke-dasharray="none" stroke-linecap="round" stroke-linejoin="round" stroke-miterlimit="4" stroke-opacity="1" stroke-width="2" d="m 128,387.27499 h 24 v 20 h -24 z"/><path id="rect1052" fill="#fe0000" fill-opacity="1" stroke="none" stroke-dasharray="none" stroke-linecap="round" stroke-linejoin="round" stroke-miterlimit="4" stroke-opacity="1" stroke-width="2" d="m 133,394.27499 h 3 v 1 h -3 z"/><path id="rect1054" fill="#fe0000" fill-opacity="1" stroke="none" stroke-dasharray="none" stroke-linecap="round" stroke-linejoin="round" stroke-miterlimit="4" stroke-opacity="1" stroke-width="2" d="m 130,395.27499 h 3 v 1 h -3 z"/><path id="rect1056" fill="#fe0000" fill-opacity="1" stroke="none" stroke-dasharray="none" stroke-linecap="round" stroke-linejoin="round" stroke-miterlimit="4" stroke-opacity="1" stroke-width="2" d="m 127,394.27499 h 3 v 1 h -3 z"/><path id="rect1058" fill="#fd9c00" fill-opacity="1" stroke="none" stroke-dasharray="none" stroke-linecap="round" stroke-linejoin="round" stroke-miterlimit="4" stroke-opacity="1" stroke-width="2" d="m 127,395.27499 h 3 v 1 h -3 z"/><path id="rect1060" fill="#fd9c00" fill-opacity="1" stroke="none" stroke-dasharray="none" stroke-linecap="round" stroke-linejoin="round" stroke-miterlimit="4" stroke-opacity="1" stroke-width="2" d="m 130,396.27499 h 3 v 1 h -3 z"/><path id="rect1062" fill="#fd9c00" fill-opacity="1" stroke="none" stroke-dasharray="none" stroke-linecap="round" stroke-linejoin="round" stroke-miterlimit="4" stroke-opacity="1" stroke-width="2" d="m 133,395.27499 h 3 v 1 h -3 z"/><path id="rect1058-6" fill="#ff0" fill-opacity="1" stroke="none" stroke-dasharray="none" stroke-linecap="round" stroke-linejoin="round" stroke-miterlimit="4" stroke-opacity="1" stroke-width="2" d="m 127,396.27499 h 3 v 1 h -3 z"/><path id="rect1060-7" fill="#ff0" fill-opacity="1" stroke="none" stroke-dasharray="none" stroke-linecap="round" stroke-linejoin="round" stroke-miterlimit="4" stroke-opacity="1" stroke-width="2" d="m 130,397.27499 h 3 v 1 h -3 z"/><path id="rect1062-5" fill="#ff0" fill-opacity="1" stroke="none" stroke-dasharray="none" stroke-linecap="round" stroke-linejoin="round" stroke-miterlimit="4" stroke-opacity="1" stroke-width="2" d="m 132,396.27499 h 3 v 1 h -3 z"/><path id="rect1058-6-3" fill="#10ff00" fill-opacity="1" stroke="none" stroke-dasharray="none" stroke-linecap="round" stroke-linejoin="round" stroke-miterlimit="4" stroke-opacity="1" stroke-width="2" d="m 127,397.27499 h 3 v 1 h -3 z"/><path id="rect1060-7-5" fill="#10ff00" fill-opacity="1" stroke="none" stroke-dasharray="none" stroke-linecap="round" stroke-linejoin="round" stroke-miterlimit="4" stroke-opacity="1" stroke-width="2" d="m 130,398.27499 h 3 v 1 h -3 z"/><path id="rect1062-5-6" fill="#10ff00" fill-opacity="1" stroke="none" stroke-dasharray="none" stroke-linecap="round" stroke-linejoin="round" stroke-miterlimit="4" stroke-opacity="1" stroke-width="2" d="m 133,397.27499 h 2 v 1 h -2 z"/><path id="rect1058-6-3-2" fill="#0097fe" fill-opacity="1" stroke="none" stroke-dasharray="none" stroke-linecap="round" stroke-linejoin="round" stroke-miterlimit="4" stroke-opacity="1" stroke-width="2" d="m 127,398.27499 h 3 v 1 h -3 z"/><path id="rect1060-7-5-9" fill="#0097fe" fill-opacity="1" stroke="none" stroke-dasharray="none" stroke-linecap="round" stroke-linejoin="round" stroke-miterlimit="4" stroke-opacity="1" stroke-width="2" d="m 130,399.27499 h 3 v 1 h -3 z"/><path id="rect1062-5-6-1" fill="#0097fe" fill-opacity="1" stroke="none" stroke-dasharray="none" stroke-linecap="round" stroke-linejoin="round" stroke-miterlimit="4" stroke-opacity="1" stroke-width="2" d="m 133,398.27499 h 2 v 1 h -2 z"/><path id="rect1058-6-3-2-2" fill="#671ffd" fill-opacity="1" stroke="none" stroke-dasharray="none" stroke-linecap="round" stroke-linejoin="round" stroke-miterlimit="4" stroke-opacity="1" stroke-width="2" d="m 127,399.27499 h 3 v 1 h -3 z"/><path id="rect1060-7-5-9-7" fill="#671ffd" fill-opacity="1" stroke="none" stroke-dasharray="none" stroke-linecap="round" stroke-linejoin="round" stroke-miterlimit="4" stroke-opacity="1" stroke-width="2" d="m 130,400.27499 h 3 v 1 h -3 z"/><path id="rect1062-5-6-1-0" fill="#671ffd" fill-opacity="1" stroke="none" stroke-dasharray="none" stroke-linecap="round" stroke-linejoin="round" stroke-miterlimit="4" stroke-opacity="1" stroke-width="2" d="m 133,399.27499 h 3 v 1 h -3 z"/><g id="g1029" transform="translate(188,44.625)"><path id="path998" fill="#000" fill-opacity="1" stroke="none" stroke-dasharray="none" stroke-linecap="round" stroke-linejoin="round" stroke-miterlimit="4" stroke-opacity="1" stroke-width="2" d="m -50,64 v 1 h 10 v -1 z" transform="translate(0,282.64999)"/><path id="path996" fill="#000" fill-opacity="1" stroke="none" stroke-dasharray="none" stroke-linecap="round" stroke-linejoin="round" stroke-miterlimit="4" stroke-opacity="1" stroke-width="2" d="m -40,65 v 4 h -1 v 1 h 2 v -1 h 1 v -1 h -1 v -3 z" transform="translate(0,282.64999)"/><path id="path994" fill="#000" fill-opacity="1" stroke="none" stroke-dasharray="none" stroke-linecap="round" stroke-linejoin="round" stroke-miterlimit="4" stroke-opacity="1" stroke-width="2" d="m -38,68 h 1 v -1 h -1 z" transform="translate(0,282.64999)"/><path id="path992" fill="#000" fill-opacity="1" stroke="none" stroke-dasharray="none" stroke-linecap="round" stroke-linejoin="round" stroke-miterlimit="4" stroke-opacity="1" stroke-width="2" d="m -37,68 v 2 h 1 v -2 z" transform="translate(0,282.64999)"/><path id="path990" fill="#000" fill-opacity="1" stroke="none" stroke-dasharray="none" stroke-linecap="round" stroke-linejoin="round" stroke-miterlimit="4" stroke-opacity="1" stroke-width="2" d="m -36,70 v 3 h 1 v -3 z" transform="translate(0,282.64999)"/><path id="path988" fill="#000" fill-opacity="1" stroke="none" stroke-dasharray="none" stroke-linecap="round" stroke-linejoin="round" stroke-miterlimit="4" stroke-opacity="1" stroke-width="2" d="m -36,73 h -1 v 1 h 1 z" transform="translate(0,282.64999)"/><path id="path986" fill="#000" fill-opacity="1" stroke="none" stroke-dasharray="none" stroke-linecap="round" stroke-linejoin="round" stroke-miterlimit="4" stroke-opacity="1" stroke-width="2" d="m -37,74 h -6 v -1 h -1 v 1 h -6 v 1 h 1 v 1 h 2 v -1 h 3 v 1 h 2 v -1 h 2 v 1 h 2 v -1 h 1 z" transform="translate(0,282.64999)"/><path id="path984" fill="#000" fill-opacity="1" stroke="none" stroke-dasharray="none" stroke-linecap="round" stroke-linejoin="round" stroke-miterlimit="4" stroke-opacity="1" stroke-width="2" d="m -50,75 h -2 v -1 h -1 v 1 1 h 3 z" transform="translate(0,282.64999)"/><path id="path982" fill="#000" fill-opacity="1" stroke="none" stroke-dasharray="none" stroke-linecap="round" stroke-linejoin="round" stroke-miterlimit="4" stroke-opacity="1" stroke-width="2" d="m -52,74 h 2 v -1 h -1 v -7 h -1 v 3 h -1 v 1 h 1 v 1 h -2 v 1 h 2 z" transform="translate(0,282.64999)"/><path id="path980" fill="#000" fill-opacity="1" stroke="none" stroke-dasharray="none" stroke-linecap="round" stroke-linejoin="round" stroke-miterlimit="4" stroke-opacity="1" stroke-width="2" d="m -54,71 v -1 h -1 v 1 z" transform="translate(0,282.64999)"/><path id="path978" fill="#000" fill-opacity="1" stroke="none" stroke-dasharray="none" stroke-linecap="round" stroke-linejoin="round" stroke-miterlimit="4" stroke-opacity="1" stroke-width="2" d="m -55,70 v -2 h 1 v -1 h -2 v 1 2 z" transform="translate(0,282.64999)"/><path id="path976" fill="#000" fill-opacity="1" stroke="none" stroke-dasharray="none" stroke-linecap="round" stroke-linejoin="round" stroke-miterlimit="4" stroke-opacity="1" stroke-width="2" d="m -54,68 v 1 h 1 v -1 z" transform="translate(0,282.64999)"/><path id="path974" fill="#000" fill-opacity="1" stroke="none" stroke-dasharray="none" stroke-linecap="round" stroke-linejoin="round" stroke-miterlimit="4" stroke-opacity="1" stroke-width="2" d="m -51,66 h 1 v -1 h -1 z" transform="translate(0,282.64999)"/><path id="path972" fill="#000" fill-opacity="1" stroke="none" stroke-dasharray="none" stroke-linecap="round" stroke-linejoin="round" stroke-miterlimit="4" stroke-opacity="1" stroke-width="2" d="m -44,73 v -3 h -1 v 3 z" transform="translate(0,282.64999)"/><path id="path970" fill="#000" fill-opacity="1" stroke="none" stroke-dasharray="none" stroke-linecap="round" stroke-linejoin="round" stroke-miterlimit="4" stroke-opacity="1" stroke-width="2" d="m -44,70 h 1 v -2 h -1 z" transform="translate(0,282.64999)"/><path id="path968" fill="#000" fill-opacity="1" stroke="none" stroke-dasharray="none" stroke-linecap="round" stroke-linejoin="round" stroke-miterlimit="4" stroke-opacity="1" stroke-width="2" d="m -43,68 h 1 v -1 h -1 z" transform="translate(0,282.64999)"/><path id="rect890" fill="#000" fill-opacity="1" stroke="none" stroke-dasharray="none" stroke-linecap="round" stroke-linejoin="round" stroke-miterlimit="4" stroke-opacity="1" stroke-width="2" d="m -42,68 v 1 h 1 v -1 z" transform="translate(0,282.64999)"/><path id="rect949" fill="#999" fill-opacity="1" stroke="none" stroke-dasharray="none" stroke-linecap="round" stroke-linejoin="round" stroke-miterlimit="4" stroke-opacity="1" stroke-width="2" d="m -55,68 v 2 h 1 v 1 h 1 1 v -1 h -1 v -1 h -1 v -1 z m 12,0 v 2 h -1 v 3 h 1 v 1 h 6 v -1 h 1 v -3 h -1 v -1 -1 h -1 v 1 h -1 v 1 h -2 v -1 h -1 v -1 z m -9,6 v 1 h 2 v -1 z" transform="translate(0,282.64999)"/><path id="rect969" fill="#fc9" fill-opacity="1" stroke="none" stroke-dasharray="none" stroke-linecap="round" stroke-linejoin="round" stroke-miterlimit="4" stroke-opacity="1" stroke-width="2" d="m -50,65 v 1 h -1 v 7 h 1 v 1 h 6 v -1 h -1 v -3 h 1 v -2 h 1 v -1 h 1 v 1 h 1 v 1 h 1 v -1 -1 -2 h -4 z" transform="translate(0,282.64999)"/><path id="rect984" fill="#f9f" fill-opacity="1" stroke="none" stroke-dasharray="none" stroke-linecap="round" stroke-linejoin="round" stroke-miterlimit="4" stroke-opacity="1" stroke-width="2" d="m -49,66 v 1 h -1 v 5 h 1 v 1 h 4 v -1 -2 h 1 v -2 h 1 v -1 h 1 v 1 h 1 v -1 -1 z" transform="translate(0,282.64999)"/><path id="rect1004" fill="#f39" fill-opacity="1" stroke="none" stroke-dasharray="none" stroke-linecap="round" stroke-linejoin="round" stroke-miterlimit="4" stroke-opacity="1" stroke-width="2" d="m -49,66 v 1 h 1 v -1 z m 6,0 v 1 h 1 v -1 z m -3,1 v 1 h 1 v -1 z m -2,1 v 1 h 1 v -1 z m 3,1 v 1 h 1 v -1 z m -4,1 v 1 h 1 v -1 z m 2,1 v 1 h 1 v -1 z m -2,1 v 1 h 1 v -1 z" transform="translate(0,282.64999)"/></g></g></g></g></svg>