<svg xmlns="http://www.w3.org/2000/svg" xmlns:svg="http://www.w3.org/2000/svg" xmlns:xlink="http://www.w3.org/1999/xlink" id="svg8" width="32" height="32" version="1.1" viewBox="0 0 32 32"><title id="title7895">Antu icon Theme</title><defs id="defs2"><linearGradient id="linearGradient4928" x1="16" x2="16" y1="18" y2="3" gradientTransform="translate(-27.999999,264.77488)" gradientUnits="userSpaceOnUse" xlink:href="#linearGradient4926"/><linearGradient id="linearGradient4926"><stop id="stop4922" offset="0" stop-color="#212121" stop-opacity="1"/><stop id="stop4924" offset="1" stop-color="#2c2c2c" stop-opacity="1"/></linearGradient><linearGradient id="linearGradient837-3" x1="4.233" x2="4.233" y1="296.206" y2="289.592" gradientTransform="matrix(3.7795275,0,0,3.7795275,-27.999999,-825.74464)" gradientUnits="userSpaceOnUse" xlink:href="#linearGradient4656"/><linearGradient id="linearGradient4656"><stop id="stop4652" offset="0" stop-color="#e4e4e4" stop-opacity="1"/><stop id="stop4654" offset="1" stop-color="#fbfbfb" stop-opacity="1"/></linearGradient></defs><metadata id="metadata5"/><g id="layer1" transform="translate(0,-282.64999)"><g id="g4720" transform="translate(28,17.875005)"><path id="rect827-8" fill="#535e66" fill-opacity="1" stroke="none" stroke-dasharray="none" stroke-linecap="round" stroke-linejoin="round" stroke-miterlimit="4" stroke-opacity="1" stroke-width="2" d="m -22.999999,265.77501 h 21.9999988 c 1.108,0 2,0.89202 2,2.00001 v 26.00001 c 0,1.10797 -0.892,1.99998 -2,1.99998 H -22.999999 c -1.108,0 -2,-0.89201 -2,-1.99998 v -26 c 0,-1.108 0.892,-2.00001 2,-2.00002 z" opacity="1"/><path id="rect829-6" fill="url(#linearGradient837-3)" fill-opacity="1" stroke="none" stroke-dasharray="none" stroke-linecap="round" stroke-linejoin="round" stroke-miterlimit="4" stroke-opacity="1" stroke-width="2" d="m -22.999999,266.77503 h 21.9999988 c 0.554,0 1,0.44599 1,1 v 26 c 0,0.55401 -0.446,1 -1,1 H -22.999999 c -0.554,0 -1,-0.44599 -1,-1 v -26 c 0,-0.554 0.446,-1 1,-1 z" opacity="1"/><path id="rect4856" fill="#010102" fill-opacity="1" stroke="none" stroke-dasharray="none" stroke-linecap="round" stroke-linejoin="round" stroke-miterlimit="4" stroke-opacity="1" stroke-width="1.002" d="m -14.999999,265.77496 v 5 1 13.00008 c 0,1.66202 1.338,3 3,3 1.662,0 2.9999998,-1.33798 2.9999998,-3 v -13.00008 -1 -5 h -1 -1.9999998 -2 z"/><path id="rect4917" fill="url(#linearGradient4928)" fill-opacity="1" stroke="none" stroke-dasharray="none" stroke-linecap="round" stroke-linejoin="round" stroke-miterlimit="4" stroke-opacity="1" stroke-width="1.002" d="m -13.999999,266.77493 v 2.99997 15.00008 c 0,1.108 0.892,2.00002 2,2.00002 1.108,0 1.9999998,-0.89202 1.9999998,-2.00002 v -15.00008 -2.99997 h -1.9999998 z"/><path id="path904" fill="#fefefe" fill-opacity="1" stroke="none" stroke-dasharray="none" stroke-linecap="round" stroke-linejoin="round" stroke-miterlimit="4" stroke-opacity="1" stroke-width="1.002" d="m -11.999999,266.77501 v 1 h 1 v -1 z m 0,1 h -1 v 1 h 1 z m 0,1 v 1 h 1 v -1 z m 0,1 h -1 v 1 h 1 z m 0,1 v 1 h 1 v -1 z m 0,1 h -1 v 1 h 1 z m 0,1 v 1 h 1 v -1 z m 0,1 h -1 v 1 h 1 z m 0,1 v 1 h 1 v -1 z m 0,1 h -1 v 1 h 1 z m 0,1 v 1 h 1 v -1 z m 0,1 h -1 v 1 h 1 z m 0,1 v 1 h 1 v -1 z m 0,1 h -1 v 1 h 1 z m 0,1 v 1 h 1 v -1 z m 0,1 h -1 v 1 h 1 z m 0,1 v 1 h 1 v -1 z m 0,1 h -1 v 1 h 1 z m 0,1 v 1 h 1 v -1 z"/></g></g></svg>