<svg xmlns="http://www.w3.org/2000/svg" xmlns:svg="http://www.w3.org/2000/svg" xmlns:xlink="http://www.w3.org/1999/xlink" id="svg8" width="32" height="32" version="1.1" viewBox="0 0 32 32"><title id="title7895">Antu icon Theme</title><defs id="defs2"><linearGradient id="linearGradient837" x1="4.233" x2="4.233" y1="296.206" y2="289.592" gradientTransform="matrix(3.7795275,0,0,3.7795275,-28,-825.61971)" gradientUnits="userSpaceOnUse" xlink:href="#linearGradient1143"/><linearGradient id="linearGradient1143"><stop id="stop1139" offset="0" stop-color="#f1efea" stop-opacity="1"/><stop id="stop1141" offset="1" stop-color="#fcfcfc" stop-opacity="1"/></linearGradient></defs><metadata id="metadata5"/><g id="layer1" transform="translate(0,-282.64999)"><g id="g1507" transform="translate(28,17.75)"><path id="rect827" fill="#90a4ae" fill-opacity="1" stroke="none" stroke-dasharray="none" stroke-linecap="round" stroke-linejoin="round" stroke-miterlimit="4" stroke-opacity="1" stroke-width="2" d="m -23,265.89999 h 21.9999995 c 1.108,0 2,0.892 2,2 v 26 c 0,1.108 -0.892,2 -2,2 H -23 c -1.108,0 -2,-0.892 -2,-2 v -26 c 0,-1.108 0.892,-2 2,-2 z" opacity="1"/><path id="rect829" fill="url(#linearGradient837)" fill-opacity="1" stroke="none" stroke-dasharray="none" stroke-linecap="round" stroke-linejoin="round" stroke-miterlimit="4" stroke-opacity="1" stroke-width="2" d="m -23,266.89999 h 21.9999995 c 0.554,0 1,0.446 1,1 v 26 c 0,0.554 -0.446,1 -1,1 H -23 c -0.553999,0 -1,-0.446 -1,-1 v -26 c 0,-0.554 0.446001,-1 1,-1 z" opacity="1"/><path id="rect1562-9-8-8-6" fill="#90a4ae" fill-opacity="1" stroke="none" stroke-dasharray="none" stroke-linecap="square" stroke-linejoin="miter" stroke-miterlimit="4" stroke-opacity="1" stroke-width="2" d="m -20,271.89999 v 2 h 6 v -2 z m 8,0 v 2 h 8.0000005 v -2 z m -8,4 v 2 h 16.0000005 v -2 z m 0,4 v 2 h 2 v -2 z m 4,0 v 2 h 6.0000005 6 v -2 h -6 z m -4,4 v 2 h 16.0000005 v -2 z m 0,4 v 2 h 9 v -2 z m 11.0000005,0 v 2 h 5 v -2 z" opacity=".98" paint-order="stroke markers fill"/></g></g></svg>