<svg xmlns="http://www.w3.org/2000/svg" xmlns:svg="http://www.w3.org/2000/svg" xmlns:xlink="http://www.w3.org/1999/xlink" id="svg8" width="32" height="32" version="1.1" viewBox="0 0 32 32"><title id="title7895">Antu icon Theme</title><defs id="defs2"><linearGradient id="linearGradient837" x1="4.233" x2="4.233" y1="296.206" y2="289.592" gradientTransform="matrix(3.7795275,0,0,3.7795275,-28,-826.24471)" gradientUnits="userSpaceOnUse" xlink:href="#linearGradient4580"/><linearGradient id="linearGradient4580"><stop id="stop4576" offset="0" stop-color="#06111c" stop-opacity="1"/><stop id="stop4578-6" offset="1" stop-color="#15272f" stop-opacity="1"/></linearGradient><linearGradient id="linearGradient3347" x1="43.959" x2="43.959" y1="317.65" y2="297.65" gradientTransform="translate(-55.958655,-27.37467)" gradientUnits="userSpaceOnUse" xlink:href="#linearGradient842"/><linearGradient id="linearGradient842"><stop id="stop838" offset="0" stop-color="#566066" stop-opacity="1"/><stop id="stop840" offset="1" stop-color="#6d7a81" stop-opacity="1"/></linearGradient></defs><metadata id="metadata5"/><g id="layer1" transform="translate(0,-282.64999)"><g id="g1515" transform="translate(28,18.375)"><path id="rect827" fill="#02070c" fill-opacity=".992" stroke="none" stroke-dasharray="none" stroke-linecap="round" stroke-linejoin="round" stroke-miterlimit="4" stroke-opacity="1" stroke-width="2" d="m -23,265.27499 h 21.9999995 c 1.108,0 2,0.892 2,2 v 26 c 0,1.108 -0.892,2 -2,2 H -23 c -1.108,0 -2,-0.892 -2,-2 v -26 c 0,-1.108 0.892,-2 2,-2 z" opacity="1"/><path id="rect829" fill="url(#linearGradient837)" fill-opacity="1" stroke="none" stroke-dasharray="none" stroke-linecap="round" stroke-linejoin="round" stroke-miterlimit="4" stroke-opacity="1" stroke-width="2" d="m -23,266.27499 h 21.9999995 c 0.554,0 1,0.446 1,1 v 26 c 0,0.554 -0.446,1 -1,1 H -23 c -0.553999,0 -1,-0.446 -1,-1 v -26 c 0,-0.554 0.446001,-1 1,-1 z" opacity="1"/><path id="path1665-9-7-9-7" fill="#03080d" fill-opacity=".992" stroke="none" stroke-dasharray="none" stroke-linecap="round" stroke-linejoin="round" stroke-miterlimit="4" stroke-opacity="1" stroke-width="2.234" d="m -23,268.27499 v 4 h 2 v -4 z m 0,5 v 4 h 2 v -4 z m 0,5 v 4 h 2 v -4 z m 0,5 v 4 h 2 v -4 z m 0,5 v 4 h 2 v -4 z" opacity="1"/><path id="path1665-9-3-9" fill="#f1f2f3" fill-opacity="1" stroke="none" stroke-dasharray="none" stroke-linecap="round" stroke-linejoin="round" stroke-miterlimit="4" stroke-opacity="1" stroke-width="2.234" d="m -23,268.27499 v 3 h 2 v -3 z m 0,5 v 3 h 2 v -3 z m 0,5 v 3 h 2 v -3 z m 0,5 v 3 h 2 v -3 z m 0,5 v 3 h 2 v -3 z" opacity="1"/><path id="path1665-9-7-9-7-2" fill="#03080d" fill-opacity=".992" stroke="none" stroke-dasharray="none" stroke-linecap="round" stroke-linejoin="round" stroke-miterlimit="4" stroke-opacity="1" stroke-width="2.234" d="m -2.9999995,268.27499 v 4 h 2 v -4 z m 0,5 v 4 h 2 v -4 z m 0,5 v 4 h 2 v -4 z m 0,5 v 4 h 2 v -4 z m 0,5 v 4 h 2 v -4 z" opacity="1"/><path id="path1665-9-3-9-0" fill="#f1f2f3" fill-opacity="1" stroke="none" stroke-dasharray="none" stroke-linecap="round" stroke-linejoin="round" stroke-miterlimit="4" stroke-opacity="1" stroke-width="2.234" d="m -2.9999995,268.27499 v 3 h 2 v -3 z m 0,5 v 3 h 2 v -3 z m 0,5 v 3 h 2 v -3 z m 0,5 v 3 h 2 v -3 z m 0,5 v 3 h 2 v -3 z" opacity="1"/><path id="rect3210" fill="url(#linearGradient3347)" fill-opacity="1" stroke="none" stroke-dasharray="none" stroke-linecap="round" stroke-linejoin="round" stroke-miterlimit="4" stroke-opacity="1" stroke-width=".8" d="m -18.000001,268.27499 h 12.0000025 c 0.553999,0 0.999999,0.446 0.999999,1 v 22 c 0,0.554 -0.446,1 -0.999999,1 H -18.000001 c -0.553999,0 -0.999999,-0.446 -0.999999,-1 v -22 c 0,-0.554 0.446,-1 0.999999,-1 z"/><path id="Triangle-1-28-9" fill="#394349" fill-opacity="1" fill-rule="nonzero" stroke="none" stroke-dasharray="none" stroke-dashoffset="0" stroke-linecap="butt" stroke-linejoin="miter" stroke-miterlimit="4" stroke-opacity="1" stroke-width="2" d="m -15,276.27499 c -0.54768,0.01 -0.988264,0.4522 -0.988281,1 v 8 c 1.71e-4,0.7986 0.890134,1.2748 1.554688,0.832 l 6.0000005,-4 c 0.593588,-0.3959 0.593588,-1.2682 0,-1.6641 l -6.0000005,-4 c -0.16758,-0.1117 -0.364998,-0.1703 -0.566407,-0.1679 z" baseline-shift="baseline" clip-rule="nonzero" color="#000" color-interpolation="sRGB" color-interpolation-filters="linearRGB" color-rendering="auto" direction="ltr" display="inline" dominant-baseline="auto" enable-background="accumulate" font-family="sans-serif" font-size="medium" font-stretch="normal" font-style="normal" font-variant="normal" font-weight="normal" image-rendering="auto" letter-spacing="normal" opacity="1" overflow="visible" shape-rendering="auto" text-anchor="start" text-decoration="none" text-rendering="auto" vector-effect="none" visibility="visible" word-spacing="normal" writing-mode="lr-tb" style="line-height:normal;font-variant-ligatures:normal;font-variant-position:normal;font-variant-caps:normal;font-variant-numeric:normal;font-variant-alternates:normal;font-feature-settings:normal;text-indent:0;text-align:start;text-decoration-line:none;text-decoration-style:solid;text-decoration-color:#000;text-transform:none;text-orientation:mixed;white-space:normal;shape-padding:0;isolation:auto;mix-blend-mode:normal;solid-color:#000;solid-opacity:1"/><path id="Triangle-1-28" fill="#fff" fill-opacity="1" fill-rule="nonzero" stroke="none" stroke-dasharray="none" stroke-dashoffset="0" stroke-linecap="butt" stroke-linejoin="miter" stroke-miterlimit="4" stroke-opacity="1" stroke-width="2" d="m -15.011718,275.27429 c -0.54768,0.006 -0.988264,0.45228 -0.988281,1 v 8 c 1.71e-4,0.79859 0.890134,1.27487 1.554687,0.83203 l 6.0000005,-4 c 0.593588,-0.39588 0.593588,-1.26818 0,-1.66406 l -6.0000005,-4 c -0.167579,-0.11175 -0.364998,-0.1703 -0.566406,-0.16797 z" baseline-shift="baseline" clip-rule="nonzero" color="#000" color-interpolation="sRGB" color-interpolation-filters="linearRGB" color-rendering="auto" direction="ltr" display="inline" dominant-baseline="auto" enable-background="accumulate" font-family="sans-serif" font-size="medium" font-stretch="normal" font-style="normal" font-variant="normal" font-weight="normal" image-rendering="auto" letter-spacing="normal" opacity="1" overflow="visible" shape-rendering="auto" text-anchor="start" text-decoration="none" text-rendering="auto" vector-effect="none" visibility="visible" word-spacing="normal" writing-mode="lr-tb" style="line-height:normal;font-variant-ligatures:normal;font-variant-position:normal;font-variant-caps:normal;font-variant-numeric:normal;font-variant-alternates:normal;font-feature-settings:normal;text-indent:0;text-align:start;text-decoration-line:none;text-decoration-style:solid;text-decoration-color:#000;text-transform:none;text-orientation:mixed;white-space:normal;shape-padding:0;isolation:auto;mix-blend-mode:normal;solid-color:#000;solid-opacity:1"/></g><path id="rect868" fill="#394349" fill-opacity="1" stroke="none" stroke-dasharray="none" stroke-linecap="round" stroke-linejoin="round" stroke-miterlimit="4" stroke-opacity="1" stroke-width=".8" d="m 17,305.64999 v 2 h 2 v -2 z m 3,0 v 2 h 2 v -2 z m -3,3 v 2 h 2 v -2 z m 3,0 v 2 h 2 v -2 z"/><path id="rect868-0" fill="#fff" fill-opacity="1" stroke="none" stroke-dasharray="none" stroke-linecap="round" stroke-linejoin="round" stroke-miterlimit="4" stroke-opacity="1" stroke-width=".8" d="m 17,304.64999 v 2 h 2 v -2 z m 3,0 v 2 h 2 v -2 z m -3,3 v 2 h 2 v -2 z m 3,0 v 2 h 2 v -2 z"/></g></svg>