<svg xmlns="http://www.w3.org/2000/svg" xmlns:svg="http://www.w3.org/2000/svg" xmlns:xlink="http://www.w3.org/1999/xlink" id="svg8" width="32" height="32" version="1.1" viewBox="0 0 32 32"><title id="title7895">Antu icon Theme</title><defs id="defs2"><linearGradient id="linearGradient837" x1="4.233" x2="4.233" y1="296.206" y2="289.592" gradientTransform="matrix(3.7795275,0,0,3.7795275,-26,-70.15745)" gradientUnits="userSpaceOnUse" xlink:href="#linearGradient4580"/><linearGradient id="linearGradient4580"><stop id="stop4576" offset="0" stop-color="#06111c" stop-opacity="1"/><stop id="stop4578-6" offset="1" stop-color="#15272f" stop-opacity="1"/></linearGradient><linearGradient id="linearGradient3347" x1="43.959" x2="43.959" y1="317.65" y2="297.65" gradientTransform="translate(-53.958655,728.71254)" gradientUnits="userSpaceOnUse" xlink:href="#linearGradient4565"/><linearGradient id="linearGradient4565"><stop id="stop4561" offset="0" stop-color="#1780f2" stop-opacity="1"/><stop id="stop4563" offset="1" stop-color="#02b3fe" stop-opacity="1"/></linearGradient></defs><metadata id="metadata5"/><g id="layer1" transform="translate(0,-282.64999)"><g id="g4154" transform="translate(18.25,1.25)"><g id="g3498" transform="translate(7.7500005,-738.96221)"><path id="rect827" fill="#02070c" fill-opacity=".992" stroke="none" stroke-dasharray="none" stroke-linecap="round" stroke-linejoin="round" stroke-miterlimit="4" stroke-opacity="1" stroke-width="2" d="M -21,1021.3622 H 0.999999 c 1.108,0 2,0.892 2,2 v 26 c 0,1.108 -0.892,2 -2,2 H -21 c -1.108,0 -2,-0.892 -2,-2 v -26 c 0,-1.108 0.892,-2 2,-2 z" opacity="1"/><path id="rect829" fill="url(#linearGradient837)" fill-opacity="1" stroke="none" stroke-dasharray="none" stroke-linecap="round" stroke-linejoin="round" stroke-miterlimit="4" stroke-opacity="1" stroke-width="2" d="M -21,1022.3622 H 0.999999 c 0.554,0 1,0.446 1,1 v 26 c 0,0.554 -0.446,1 -1,1 H -21 c -0.554,0 -1,-0.446 -1,-1 v -26 c 0,-0.554 0.446,-1 1,-1 z" opacity="1"/><path id="path1665-9-7-9-7" fill="#03080d" fill-opacity=".992" stroke="none" stroke-dasharray="none" stroke-linecap="round" stroke-linejoin="round" stroke-miterlimit="4" stroke-opacity="1" stroke-width="2.234" d="m -21,1024.3622 v 4 h 2 v -4 z m 0,5 v 4 h 2 v -4 z m 0,5 v 4 h 2 v -4 z m 0,5 v 4 h 2 v -4 z m 0,5 v 4 h 2 v -4 z" opacity="1"/><path id="path1665-9-3-9" fill="#f1f2f3" fill-opacity="1" stroke="none" stroke-dasharray="none" stroke-linecap="round" stroke-linejoin="round" stroke-miterlimit="4" stroke-opacity="1" stroke-width="2.234" d="m -21,1024.3622 v 3 h 2 v -3 z m 0,5 v 3 h 2 v -3 z m 0,5 v 3 h 2 v -3 z m 0,5 v 3 h 2 v -3 z m 0,5 v 3 h 2 v -3 z" opacity="1"/><path id="path1665-9-7-9-7-2" fill="#03080d" fill-opacity=".992" stroke="none" stroke-dasharray="none" stroke-linecap="round" stroke-linejoin="round" stroke-miterlimit="4" stroke-opacity="1" stroke-width="2.234" d="m -1,1024.3622 v 4 h 2 v -4 z m 0,5 v 4 h 2 v -4 z m 0,5 v 4 h 2 v -4 z m 0,5 v 4 h 2 v -4 z m 0,5 v 4 h 2 v -4 z" opacity="1"/><path id="path1665-9-3-9-0" fill="#f1f2f3" fill-opacity="1" stroke="none" stroke-dasharray="none" stroke-linecap="round" stroke-linejoin="round" stroke-miterlimit="4" stroke-opacity="1" stroke-width="2.234" d="m -1,1024.3622 v 3 h 2 v -3 z m 0,5 v 3 h 2 v -3 z m 0,5 v 3 h 2 v -3 z m 0,5 v 3 h 2 v -3 z m 0,5 v 3 h 2 v -3 z" opacity="1"/><path id="rect3210" fill="url(#linearGradient3347)" fill-opacity="1" stroke="none" stroke-dasharray="none" stroke-linecap="round" stroke-linejoin="round" stroke-miterlimit="4" stroke-opacity="1" stroke-width=".8" d="m -16.000001,1024.3622 h 12.0000017 c 0.5539996,0 0.9999993,0.446 0.9999993,1 v 22 c 0,0.554 -0.4459997,1 -0.9999993,1 H -16.000001 c -0.553999,0 -0.999999,-0.446 -0.999999,-1 v -22 c 0,-0.554 0.446,-1 0.999999,-1 z"/><path id="Triangle-1-28-9" fill="#0f49bf" fill-opacity="1" fill-rule="nonzero" stroke="none" stroke-dasharray="none" stroke-dashoffset="0" stroke-linecap="butt" stroke-linejoin="miter" stroke-miterlimit="4" stroke-opacity="1" stroke-width="2" d="m -13,1032.3622 c -0.54768,0.01 -0.988264,0.4522 -0.988281,1 v 8 c 1.71e-4,0.7986 0.890134,1.2748 1.554688,0.832 l 6,-4 c 0.593588,-0.3959 0.593588,-1.2682 0,-1.6641 l -6,-4 c -0.16758,-0.1117 -0.364998,-0.1703 -0.566407,-0.1679 z" baseline-shift="baseline" clip-rule="nonzero" color="#000" color-interpolation="sRGB" color-interpolation-filters="linearRGB" color-rendering="auto" direction="ltr" display="inline" dominant-baseline="auto" enable-background="accumulate" font-family="sans-serif" font-size="medium" font-stretch="normal" font-style="normal" font-variant="normal" font-weight="normal" image-rendering="auto" letter-spacing="normal" opacity="1" overflow="visible" shape-rendering="auto" text-anchor="start" text-decoration="none" text-rendering="auto" vector-effect="none" visibility="visible" word-spacing="normal" writing-mode="lr-tb" style="line-height:normal;font-variant-ligatures:normal;font-variant-position:normal;font-variant-caps:normal;font-variant-numeric:normal;font-variant-alternates:normal;font-feature-settings:normal;text-indent:0;text-align:start;text-decoration-line:none;text-decoration-style:solid;text-decoration-color:#000;text-transform:none;text-orientation:mixed;white-space:normal;shape-padding:0;isolation:auto;mix-blend-mode:normal;solid-color:#000;solid-opacity:1"/><g id="Page-1" fill="none" fill-rule="evenodd" stroke="none" stroke-linejoin="round" stroke-width="1" transform="translate(-32,1031.3615)"><g id="Artboard-4" stroke="#333" stroke-width="2" transform="translate(-532,-115)"><g id="12" transform="translate(532,115)"><path id="Triangle-1-28" fill="#fff" fill-opacity="1" fill-rule="nonzero" stroke="none" stroke-dasharray="none" stroke-dashoffset="0" stroke-linecap="butt" stroke-linejoin="miter" stroke-miterlimit="4" stroke-opacity="1" stroke-width="2" d="M 18.988281,0 C 18.440601,0.00647283 18.000017,0.45228186 18,1 v 8 c 1.71e-4,0.798587 0.890134,1.274874 1.554688,0.8320312 l 6,-4 c 0.593588,-0.3958834 0.593588,-1.268179 0,-1.6640624 l -6,-4.00000005 C 19.387108,0.05621879 19.18969,-0.00232579 18.988281,0 Z" baseline-shift="baseline" clip-rule="nonzero" color="#000" color-interpolation="sRGB" color-interpolation-filters="linearRGB" color-rendering="auto" direction="ltr" display="inline" dominant-baseline="auto" enable-background="accumulate" font-family="sans-serif" font-size="medium" font-stretch="normal" font-style="normal" font-variant="normal" font-weight="normal" image-rendering="auto" letter-spacing="normal" opacity="1" overflow="visible" shape-rendering="auto" text-anchor="start" text-decoration="none" text-rendering="auto" vector-effect="none" visibility="visible" word-spacing="normal" writing-mode="lr-tb" style="line-height:normal;font-variant-ligatures:normal;font-variant-position:normal;font-variant-caps:normal;font-variant-numeric:normal;font-variant-alternates:normal;font-feature-settings:normal;text-indent:0;text-align:start;text-decoration-line:none;text-decoration-style:solid;text-decoration-color:#000;text-transform:none;text-orientation:mixed;white-space:normal;shape-padding:0;isolation:auto;mix-blend-mode:normal;solid-color:#000;solid-opacity:1"/></g></g></g></g></g></g></svg>