<svg xmlns="http://www.w3.org/2000/svg" xmlns:svg="http://www.w3.org/2000/svg" xmlns:xlink="http://www.w3.org/1999/xlink" id="svg8" width="32" height="32" version="1.1" viewBox="0 0 32 32"><title id="title7895">Antu icon Theme</title><defs id="defs2"><linearGradient id="linearGradient837" x1="4.233" x2="4.233" y1="296.206" y2="289.592" gradientTransform="matrix(3.7795275,0,0,3.7795275,-4,-805.24471)" gradientUnits="userSpaceOnUse" xlink:href="#linearGradient5716"/><linearGradient id="linearGradient5716"><stop id="stop5712" offset="0" stop-color="#1980f1" stop-opacity="1"/><stop id="stop5714" offset="1" stop-color="#1fb5f9" stop-opacity="1"/></linearGradient></defs><metadata id="metadata5"/><g id="layer1" transform="translate(0,-282.64999)"><g id="g9752" transform="translate(4.0000005,-2.625)"><path id="rect827" fill="#1568b4" fill-opacity="1" stroke="none" stroke-dasharray="none" stroke-linecap="round" stroke-linejoin="round" stroke-miterlimit="4" stroke-opacity="1" stroke-width="2" d="m 1,286.27499 h 21.999999 c 1.108,0 2,0.892 2,2 v 26 c 0,1.108 -0.892,2 -2,2 H 1 c -1.108,0 -2,-0.892 -2,-2 v -26 c 0,-1.108 0.892,-2 2,-2 z" opacity="1"/><path id="rect829" fill="url(#linearGradient837)" fill-opacity="1" stroke="none" stroke-dasharray="none" stroke-linecap="round" stroke-linejoin="round" stroke-miterlimit="4" stroke-opacity="1" stroke-width="2" d="m 1,287.27499 h 21.999999 c 0.554,0 1,0.446 1,1 v 26 c 0,0.554 -0.446,1 -1,1 H 1 c -0.554,0 -1,-0.446 -1,-1 v -26 c 0,-0.554 0.446,-1 1,-1 z" opacity="1"/><path id="rect1562-9-8-8-6-3" fill="#1568b4" fill-opacity="1" stroke="none" stroke-dasharray="none" stroke-linecap="square" stroke-linejoin="miter" stroke-miterlimit="4" stroke-opacity="1" stroke-width="2" d="m 3.9999995,295.27499 v 2 H 20.000001 v -2 z m 0,4 v 2 H 20.000001 v -2 z m 0,4 v 2 H 14 v -2 z m 0,4 v 2 H 20.000001 v -2 z" opacity=".98" paint-order="stroke markers fill"/><path id="rect1562-9-8-8-6" fill="#f8fbfc" fill-opacity="1" stroke="none" stroke-dasharray="none" stroke-linecap="square" stroke-linejoin="miter" stroke-miterlimit="4" stroke-opacity="1" stroke-width="2" d="m 4,294.27499 v 2 h 16 v -2 z m 0,4 v 2 h 16 v -2 z m 0,4 v 2 h 10 v -2 z m 0,4 v 2 h 16 v -2 z" opacity=".98" paint-order="stroke markers fill"/></g></g></svg>