<svg xmlns="http://www.w3.org/2000/svg" xmlns:svg="http://www.w3.org/2000/svg" xmlns:xlink="http://www.w3.org/1999/xlink" id="svg8" width="32" height="32" version="1.1" viewBox="0 0 32 32"><title id="title7895">Antu icon Theme</title><defs id="defs2"><linearGradient id="linearGradient837" x1="4.233" x2="4.233" y1="296.206" y2="289.592" gradientTransform="matrix(3.7795275,0,0,3.7795275,-12,-811.86971)" gradientUnits="userSpaceOnUse" xlink:href="#linearGradient6408"/><linearGradient id="linearGradient6408"><stop id="stop6404" offset="0" stop-color="#f34242" stop-opacity="1"/><stop id="stop6406" offset="1" stop-color="#ff6767" stop-opacity="1"/></linearGradient></defs><metadata id="metadata5"/><g id="layer1" transform="translate(0,-282.64999)"><g id="g8781" transform="translate(12.000001,4)"><path id="rect827" fill="#b52d2d" fill-opacity="1" stroke="none" stroke-dasharray="none" stroke-linecap="round" stroke-linejoin="round" stroke-miterlimit="4" stroke-opacity="1" stroke-width="2" d="m -7,279.64999 h 21.999999 c 1.108,0 2,0.892 2,2 v 26 c 0,1.108 -0.892,2 -2,2 H -7 c -1.108,0 -2,-0.892 -2,-2 v -26 c 0,-1.108 0.892,-2 2,-2 z" opacity="1"/><path id="rect829" fill="url(#linearGradient837)" fill-opacity="1" stroke="none" stroke-dasharray="none" stroke-linecap="round" stroke-linejoin="round" stroke-miterlimit="4" stroke-opacity="1" stroke-width="2" d="m -7,280.64999 h 21.999999 c 0.554,0 1,0.446 1,1 v 26 c 0,0.554 -0.446,1 -1,1 H -7 c -0.554,0 -1,-0.446 -1,-1 v -26 c 0,-0.554 0.446,-1 1,-1 z" opacity="1"/><path id="path2316-3-4-0" fill="#b52d2d" fill-opacity="1" stroke="none" stroke-dasharray="none" stroke-linecap="square" stroke-linejoin="miter" stroke-miterlimit="4" stroke-opacity="1" stroke-width="1.778" d="m 1,290.64999 v 4 h 4 c 0,-2.20914 -1.790861,-4 -4,-4 z m -1,1 c -1.617649,0 -3.076056,0.97432 -3.695313,2.46875 -0.619196,1.49478 -0.276928,3.21537 0.867188,4.35937 1.14401,1.14412 2.864599,1.48639 4.359375,0.86719 C 3.025676,298.72605 4.000003,297.26764 4,295.64999 H 0 Z m 6,0 v 2 h 6 v -2 z m 2,3 v 2 h 4 v -2 z m -3,3 v 2 h 7 v -2 z" opacity=".98" paint-order="stroke markers fill"/><path id="path2316-3-4" fill="#fbf8f8" fill-opacity="1" stroke="none" stroke-dasharray="none" stroke-linecap="square" stroke-linejoin="miter" stroke-miterlimit="4" stroke-opacity="1" stroke-width="1.778" d="m 1,289.64999 v 4 h 4 c 0,-2.20914 -1.790861,-4 -4,-4 z m -1,1 c -1.617649,0 -3.076056,0.97432 -3.695313,2.46875 -0.619196,1.49478 -0.276928,3.21537 0.867188,4.35937 1.14401,1.14412 2.864599,1.48639 4.359375,0.86719 C 3.025676,297.72605 4.000003,296.26764 4,294.64999 H 0 Z m 6,0 v 2 h 6 v -2 z m 2,3 v 2 h 4 v -2 z m -3,3 v 2 h 7 v -2 z" opacity=".98" paint-order="stroke markers fill"/></g></g></svg>