<svg xmlns="http://www.w3.org/2000/svg" xmlns:svg="http://www.w3.org/2000/svg" xmlns:xlink="http://www.w3.org/1999/xlink" id="svg8" width="48" height="48" version="1.1" viewBox="0 0 48 48"><title id="title7895">Antu icon Theme</title><defs id="defs2"><linearGradient id="linearGradient9532" x1="82.815" x2="82.815" y1="285.358" y2="276.098" gradientTransform="matrix(3.7795276,0,0,3.7795276,-328.00004,-751.86971)" gradientUnits="userSpaceOnUse" xlink:href="#linearGradient5837-3-1-6-3-9-6"/><linearGradient id="linearGradient5837-3-1-6-3-9-6" x2="0" y1="545.14" y2="518.14" gradientUnits="userSpaceOnUse"><stop id="stop5833-6-2-3-1-0" stop-color="#0d89fc" stop-opacity="1"/><stop id="stop5835-7-5-6-3-2-6" offset="1" stop-color="#02bdff" stop-opacity="1"/></linearGradient><linearGradient id="linearGradient4594" x1="24" x2="24" y1="302.65" y2="292.65" gradientTransform="translate(-40.000008,16)" gradientUnits="userSpaceOnUse" xlink:href="#d-8-2"/><linearGradient id="d-8-2" x2="0" y1="545.62" y2="517.62" gradientUnits="userSpaceOnUse"><stop id="stop9-5-9" offset="0" stop-color="#e3e3e3"/><stop id="stop11-8-1" offset="1" stop-color="#fcf9f9"/></linearGradient><linearGradient id="linearGradient9540" x1="78.846" x2="78.846" y1="277.156" y2="274.775" gradientTransform="matrix(3.7795276,0,0,3.7795276,-328.00004,-751.86971)" gradientUnits="userSpaceOnUse" xlink:href="#d-8-2"/><linearGradient id="linearGradient1739" x2="0" y1="545.62" y2="517.62" gradientUnits="userSpaceOnUse"><stop id="stop1735" offset="0" stop-color="#e3e3e3"/><stop id="stop1737" offset="1" stop-color="#fcf9f9"/></linearGradient></defs><metadata id="metadata5"/><g id="layer1" transform="translate(0,-266.64999)"><g id="g2362" transform="translate(40.000008,-16)"><path id="rect9183-4" fill="#636e8c" fill-opacity="1" stroke="none" stroke-opacity="1" stroke-width="1" d="m -37.999987,285.64999 h 17.975773 l 5.024224,9 H 6.000011 c 1.107968,0 1.999974,0.89197 1.999974,1.99997 v 28.99998 c 0,1.10801 -0.892006,2.00001 -2.000012,2.00001 h -43.99996 c -1.108007,0 -2.000013,-0.892 -2.000013,-2.00001 v -37.99998 c 0,-1.108 0.892006,-1.99997 2.000013,-1.99997 z" opacity="1"/><path id="rect9186-7" fill="url(#linearGradient9540)" fill-opacity="1" stroke="none" stroke-opacity="1" stroke-width="1" d="m -37.999987,286.64994 h 17.000012 l 4.99996,9.00004 H 6.000011 c 0.554003,-4e-5 0.999987,0.44602 0.999987,0.99998 v 28.99998 c 0,0.554 -0.445984,1.00002 -0.999987,1.00002 h -43.999998 c -0.554003,0 -0.999988,-0.44602 -0.999988,-1.00002 v -37.99998 c 0,-0.554 0.445985,-1.00002 0.999988,-1.00002 z" opacity="1"/><path id="rect9175-4" fill="#1466b2" fill-opacity="1" stroke="none" stroke-opacity="1" stroke-width="1" d="m -37.999987,296.65 17.000012,-4e-5 3.999988,-6 22.999998,4e-5 c 1.107968,0 1.999974,0.89201 1.999974,2.00002 v 32.99996 c 0,1.108 -0.892006,2.00001 -1.999974,2.00001 H -37.999987 C -39.107994,327.64999 -40,326.75798 -40,325.64998 v -26.99997 c 0,-1.108 0.892006,-2.00001 2.000013,-2.00001 z" opacity="1"/><path id="rect9179-4" fill="url(#linearGradient9532)" fill-opacity="1" stroke="none" stroke-opacity="1" stroke-width="1" d="m -37.999987,297.65003 18,-4e-5 3.999972,-6.00004 22.000026,8e-5 c 0.554003,0 0.999987,0.44602 0.999987,0.99999 v 33 c 0,0.554 -0.445984,1.00002 -0.999987,1.00002 h -43.999998 c -0.554003,0 -0.999988,-0.44602 -0.999988,-1.00002 v -27.00001 c 0,-0.55396 0.445985,-0.99998 0.999988,-0.99998 z" opacity=".99"/><path id="path4570" fill="#1466b2" fill-opacity="1" fill-rule="nonzero" stroke="none" stroke-dasharray="none" stroke-dashoffset="0" stroke-linecap="butt" stroke-linejoin="miter" stroke-miterlimit="4" stroke-opacity="1" stroke-width="2" d="m -16.056649,302.65194 a 1.0001,1.0001 0 0 0 -0.691406,0.33399 l -8,9 a 1.0001,1.0001 0 0 0 0.748047,1.66406 h 1 v 7 c 0,0.554 0.446,1 1,1 h 12 c 0.554,0 1,-0.446 1,-1 v -7 h 1 a 1.0001,1.0001 0 0 0 0.748047,-1.66406 l -1.748047,-1.9668 v -3.36914 c 0,-0.554 -0.446,-1 -1,-1 -0.554,0 -1,0.446 -1,1 v 1.11914 l -4.251953,-4.7832 a 1.0001,1.0001 0 0 0 -0.804688,-0.33399 z" baseline-shift="baseline" clip-rule="nonzero" color="#000" color-interpolation="sRGB" color-interpolation-filters="linearRGB" color-rendering="auto" direction="ltr" display="inline" dominant-baseline="auto" enable-background="accumulate" font-family="sans-serif" font-size="medium" font-stretch="normal" font-style="normal" font-variant="normal" font-weight="normal" image-rendering="auto" letter-spacing="normal" opacity="1" overflow="visible" shape-rendering="auto" text-anchor="start" text-decoration="none" text-rendering="auto" vector-effect="none" visibility="visible" word-spacing="normal" writing-mode="lr-tb" style="line-height:normal;font-variant-ligatures:normal;font-variant-position:normal;font-variant-caps:normal;font-variant-numeric:normal;font-variant-alternates:normal;font-feature-settings:normal;text-indent:0;text-align:start;text-decoration-line:none;text-decoration-style:solid;text-decoration-color:#000;text-transform:none;text-orientation:mixed;white-space:normal;shape-padding:0;isolation:auto;mix-blend-mode:normal;solid-color:#000;solid-opacity:1"/><path id="path4570-2" fill="url(#linearGradient4594)" fill-opacity="1" fill-rule="nonzero" stroke="none" stroke-dasharray="none" stroke-dashoffset="0" stroke-linecap="butt" stroke-linejoin="miter" stroke-miterlimit="4" stroke-opacity="1" stroke-width="2" d="m -16.056649,301.65194 a 1.0001,1.0001 0 0 0 -0.691406,0.33398 l -8,9 a 1.0001,1.0001 0 0 0 0.748047,1.66407 h 1 v 7 c 0,0.554 0.446,1 1,1 h 12 c 0.554,0 1,-0.446 1,-1 v -7 h 1 a 1.0001,1.0001 0 0 0 0.748047,-1.66407 l -1.748047,-1.96679 v -3.36914 c 0,-0.554 -0.446,-1 -1,-1 -0.554,0 -1,0.446 -1,1 v 1.11914 l -4.251953,-4.78321 a 1.0001,1.0001 0 0 0 -0.804688,-0.33398 z" baseline-shift="baseline" clip-rule="nonzero" color="#000" color-interpolation="sRGB" color-interpolation-filters="linearRGB" color-rendering="auto" direction="ltr" display="inline" dominant-baseline="auto" enable-background="accumulate" font-family="sans-serif" font-size="medium" font-stretch="normal" font-style="normal" font-variant="normal" font-weight="normal" image-rendering="auto" letter-spacing="normal" opacity="1" overflow="visible" shape-rendering="auto" text-anchor="start" text-decoration="none" text-rendering="auto" vector-effect="none" visibility="visible" word-spacing="normal" writing-mode="lr-tb" style="line-height:normal;font-variant-ligatures:normal;font-variant-position:normal;font-variant-caps:normal;font-variant-numeric:normal;font-variant-alternates:normal;font-feature-settings:normal;text-indent:0;text-align:start;text-decoration-line:none;text-decoration-style:solid;text-decoration-color:#000;text-transform:none;text-orientation:mixed;white-space:normal;shape-padding:0;isolation:auto;mix-blend-mode:normal;solid-color:#000;solid-opacity:1"/></g></g></svg>