<svg xmlns="http://www.w3.org/2000/svg" xmlns:svg="http://www.w3.org/2000/svg" xmlns:xlink="http://www.w3.org/1999/xlink" id="svg8" width="64" height="64" version="1.1" viewBox="0 0 64 64"><title id="title7895">Antu icon Theme</title><defs id="defs2"><linearGradient id="linearGradient6058" x1="32" x2="32" y1="48" y2="34.047" gradientTransform="translate(-35.999998,250.65)" gradientUnits="userSpaceOnUse" xlink:href="#d-8-2"/><linearGradient id="d-8-2" x2="0" y1="545.62" y2="517.62" gradientUnits="userSpaceOnUse"><stop id="stop9-5-9" offset="0" stop-color="#e3e3e3"/><stop id="stop11-8-1" offset="1" stop-color="#fcf9f9"/></linearGradient><linearGradient id="linearGradient8212" x1="-3.724" x2="-3.724" y1="285.075" y2="281.37" gradientTransform="matrix(3.7795275,0,0,3.7795275,-8.924491,-807.79743)" gradientUnits="userSpaceOnUse" xlink:href="#d-8-2"/><linearGradient id="linearGradient2440" x2="0" y1="545.62" y2="517.62" gradientUnits="userSpaceOnUse"><stop id="stop2436" offset="0" stop-color="#e3e3e3"/><stop id="stop2438" offset="1" stop-color="#fcf9f9"/></linearGradient><linearGradient id="linearGradient8204" x1="2.097" x2="2.097" y1="295.658" y2="283.223" gradientTransform="matrix(3.7795275,0,0,3.7795275,-8.924491,-807.79743)" gradientUnits="userSpaceOnUse" xlink:href="#linearGradient5837-3-1-6-3-9-6"/><linearGradient id="linearGradient5837-3-1-6-3-9-6" x2="0" y1="545.14" y2="518.14" gradientUnits="userSpaceOnUse"><stop id="stop5833-6-2-3-1-0" stop-color="#0d89fc" stop-opacity="1"/><stop id="stop5835-7-5-6-3-2-6" offset="1" stop-color="#02bdff" stop-opacity="1"/></linearGradient></defs><metadata id="metadata5"/><g id="layer1" transform="translate(0,-250.64999)"><g id="g3067" transform="translate(35.999997,5e-6)"><path id="rect9319-4" fill="#636e8c" fill-opacity="1" stroke="none" stroke-opacity="1" stroke-width="1" d="m -32.99999,254.64996 21.999988,8e-5 5.000012,6.99999 h 30.999985 c 1.66201,0 3,1.33799 3,3 v 9 c 0,1.66201 -1.33799,3 -3,3 H -32.99999 c -1.662009,0 -3,-1.33799 -3,-3 v -16.00004 c 0,-1.66202 1.337991,-3 3,-3.00003 z" opacity="1"/><path id="rect9322-9" fill="url(#linearGradient8212)" fill-opacity="1" stroke="none" stroke-opacity="1" stroke-width="1" d="m -33.000028,255.65 21.000038,3e-5 6.999987,9.99998 -5.000012,7.00002 h -23.000013 c -1.108006,0 -2.000012,-0.892 -2.000012,-2 v -13.00004 c 0,-1.10798 0.892006,-1.99997 2.000012,-1.99999 z" opacity="1"/><path id="rect9313-2" fill="#1466b2" fill-opacity="1" stroke="none" stroke-opacity="1" stroke-width="1" d="m -32.99999,269.64996 21,7e-5 4.999975,-8.00008 h 32.00001 c 1.66201,0 3,1.33799 3,3 v 43.00006 c 0,1.66201 -1.33799,3 -3,3 H -32.99999 c -1.662009,0 -3,-1.33799 -3,-3 v -35.00005 c 0,-1.66201 1.337991,-3 3,-3 z" opacity="1"/><path id="rect9315-0" fill="url(#linearGradient8204)" fill-opacity="1" stroke="none" stroke-opacity="1" stroke-width="1" d="m -33.000028,270.64999 22.000026,4e-5 5.000012,-8.00002 30.999985,-4e-5 c 1.108006,0 2.000013,0.89201 2.000013,2.00001 v 43.00003 c 0,1.10801 -0.892007,2.00001 -2.000013,2.00001 h -58.000023 c -1.108006,0 -2.000012,-0.892 -2.000012,-2.00001 V 272.65 c 0,-1.10801 0.892006,-2.00002 2.000012,-2.00001 z" opacity="1"/><path id="path6023-9" fill="#1466b2" fill-opacity="1" fill-rule="nonzero" stroke="none" stroke-dasharray="none" stroke-dashoffset="0" stroke-linecap="butt" stroke-linejoin="miter" stroke-miterlimit="4" stroke-opacity="1" stroke-width="2" d="m -4.023436,277.64999 a 1.0001,1.0001 0 0 0 -0.71289,0.32423 l -11,12 a 1.0001,1.0001 0 0 0 0.736328,1.67577 h 2 v 9 c 0,0.554 0.446,1 1,1 h 15 c 0.554,0 1,-0.446 1,-1 v -9 h 2 A 1.0001,1.0001 0 0 0 6.76758,290.00936 L 4.96094,287.8414 C 4.97372,287.7773 5,287.71791 5,287.64999 v -5 c 0,-0.55399 -0.446,-1 -1,-1 H 3 c -0.554,0 -1,0.44601 -1,1 v 1.63867 l -5.23242,-6.2793 a 1.0001,1.0001 0 0 0 -0.791016,-0.35937 z" baseline-shift="baseline" clip-rule="nonzero" color="#000" color-interpolation="sRGB" color-interpolation-filters="linearRGB" color-rendering="auto" direction="ltr" display="inline" dominant-baseline="auto" enable-background="accumulate" font-family="sans-serif" font-size="medium" font-stretch="normal" font-style="normal" font-variant="normal" font-weight="normal" image-rendering="auto" letter-spacing="normal" opacity="1" overflow="visible" shape-rendering="auto" text-anchor="start" text-decoration="none" text-rendering="auto" vector-effect="none" visibility="visible" word-spacing="normal" writing-mode="lr-tb" style="line-height:normal;font-variant-ligatures:normal;font-variant-position:normal;font-variant-caps:normal;font-variant-numeric:normal;font-variant-alternates:normal;font-feature-settings:normal;text-indent:0;text-align:start;text-decoration-line:none;text-decoration-style:solid;text-decoration-color:#000;text-transform:none;text-orientation:mixed;white-space:normal;shape-padding:0;isolation:auto;mix-blend-mode:normal;solid-color:#000;solid-opacity:1"/><path id="path6023" fill="url(#linearGradient6058)" fill-opacity="1" fill-rule="nonzero" stroke="none" stroke-dasharray="none" stroke-dashoffset="0" stroke-linecap="butt" stroke-linejoin="miter" stroke-miterlimit="4" stroke-opacity="1" stroke-width="2" d="m -4.023436,276.64999 a 1.0001,1.0001 0 0 0 -0.71289,0.32423 l -11,12 a 1.0001,1.0001 0 0 0 0.736328,1.67577 h 2 v 9 c 0,0.554 0.446,1 1,1 h 15 c 0.554,0 1,-0.446 1,-1 v -9 h 2 A 1.0001,1.0001 0 0 0 6.76758,289.00936 L 4.96094,286.8414 C 4.97372,286.7773 5,286.71791 5,286.64999 v -5 c 0,-0.55399 -0.446,-1 -1,-1 H 3 c -0.554,0 -1,0.44601 -1,1 v 1.63867 l -5.23242,-6.2793 a 1.0001,1.0001 0 0 0 -0.791016,-0.35937 z" baseline-shift="baseline" clip-rule="nonzero" color="#000" color-interpolation="sRGB" color-interpolation-filters="linearRGB" color-rendering="auto" direction="ltr" display="inline" dominant-baseline="auto" enable-background="accumulate" font-family="sans-serif" font-size="medium" font-stretch="normal" font-style="normal" font-variant="normal" font-weight="normal" image-rendering="auto" letter-spacing="normal" opacity="1" overflow="visible" shape-rendering="auto" text-anchor="start" text-decoration="none" text-rendering="auto" vector-effect="none" visibility="visible" word-spacing="normal" writing-mode="lr-tb" style="line-height:normal;font-variant-ligatures:normal;font-variant-position:normal;font-variant-caps:normal;font-variant-numeric:normal;font-variant-alternates:normal;font-feature-settings:normal;text-indent:0;text-align:start;text-decoration-line:none;text-decoration-style:solid;text-decoration-color:#000;text-transform:none;text-orientation:mixed;white-space:normal;shape-padding:0;isolation:auto;mix-blend-mode:normal;solid-color:#000;solid-opacity:1"/></g></g></svg>