<svg xmlns="http://www.w3.org/2000/svg" xmlns:svg="http://www.w3.org/2000/svg" xmlns:xlink="http://www.w3.org/1999/xlink" id="svg8" width="32" height="32" version="1.1" viewBox="0 0 32 32"><title id="title7895">Antu icon Theme</title><defs id="defs2"><linearGradient id="linearGradient837-7-3" x1="4.233" x2="4.233" y1="296.206" y2="289.592" gradientTransform="matrix(3.7795275,0,0,3.7795275,-17,-804.86973)" gradientUnits="userSpaceOnUse" xlink:href="#linearGradient1143"/><linearGradient id="linearGradient1143"><stop id="stop1139" offset="0" stop-color="#f1efea" stop-opacity="1"/><stop id="stop1141" offset="1" stop-color="#fcfcfc" stop-opacity="1"/></linearGradient><linearGradient id="linearGradient837-7" x1="4.233" x2="4.233" y1="296.206" y2="289.592" gradientTransform="matrix(3.7795275,0,0,3.7795275,-17,-802.86973)" gradientUnits="userSpaceOnUse" xlink:href="#linearGradient1143"/><linearGradient id="linearGradient837" x1="4.233" x2="4.134" y1="296.206" y2="290.203" gradientTransform="matrix(3.7795275,0,0,3.7795275,-17,-800.86963)" gradientUnits="userSpaceOnUse" xlink:href="#linearGradient1143"/><linearGradient id="linearGradient852" x1="8.712" x2="8.712" y1="295.601" y2="293.485" gradientTransform="matrix(3.7795275,0,0,3.7795275,-32.928569,-797.58393)" gradientUnits="userSpaceOnUse" xlink:href="#linearGradient4627"/><linearGradient id="linearGradient4627"><stop id="stop4623" offset="0" stop-color="#ffc900" stop-opacity="1"/><stop id="stop4625" offset="1" stop-color="#ffe200" stop-opacity="1"/></linearGradient></defs><metadata id="metadata5"/><g id="layer1" transform="translate(0,-282.64999)"><g id="g1933" transform="translate(17,-6.99999)"><path id="rect827-0-9" fill="#90a4ae" fill-opacity="1" stroke="none" stroke-dasharray="none" stroke-linecap="round" stroke-linejoin="round" stroke-miterlimit="4" stroke-opacity="1" stroke-width="2" d="M -7.9999999,290.64997 H 5.999998 c 1.108,0 2,0.89202 2,2.00001 v 22.00001 c 0,1.10797 -0.892,1.99998 -2,1.99998 H -7.9999999 C -9.108,316.64997 -10,315.75796 -10,314.64999 v -22 c 0,-1.108 0.892,-2.00001 2.0000001,-2.00002 z" opacity="1"/><path id="rect829-2-2" fill="url(#linearGradient837-7-3)" fill-opacity="1" stroke="none" stroke-dasharray="none" stroke-linecap="round" stroke-linejoin="round" stroke-miterlimit="4" stroke-opacity="1" stroke-width="2" d="M -8,291.64999 H 5.999998 c 0.554,0 1,0.44599 1,1 v 22 c 0,0.55401 -0.446,1 -1,1 H -8 c -0.554,0 -1,-0.44599 -1,-1 v -22 c 0,-0.554 0.446,-1 1,-1 z" opacity="1"/><path id="rect827-0" fill="#90a4ae" fill-opacity="1" stroke="none" stroke-dasharray="none" stroke-linecap="round" stroke-linejoin="round" stroke-miterlimit="4" stroke-opacity="1" stroke-width="2" d="M -9.9999999,292.64997 H 7.999998 c 1.108,0 2,0.89202 2,2.00001 v 22.00001 c 0,1.10797 -0.892,1.99998 -2,1.99998 H -9.9999999 C -11.108,318.64997 -12,317.75796 -12,316.64999 v -22 c 0,-1.108 0.892,-2.00001 2.0000001,-2.00002 z" opacity="1"/><path id="rect829-2" fill="url(#linearGradient837-7)" fill-opacity="1" stroke="none" stroke-dasharray="none" stroke-linecap="round" stroke-linejoin="round" stroke-miterlimit="4" stroke-opacity="1" stroke-width="2" d="M -10,293.64999 H 7.999998 c 0.554,0 1,0.44599 1,1 v 22 c 0,0.55401 -0.446,1 -1,1 H -10 c -0.554,0 -1,-0.44599 -1,-1 v -22 c 0,-0.554 0.446,-1 1,-1 z" opacity="1"/><path id="rect827" fill="#90a4ae" fill-opacity="1" stroke="none" stroke-dasharray="none" stroke-linecap="round" stroke-linejoin="round" stroke-miterlimit="4" stroke-opacity="1" stroke-width="2" d="M -11.999999,294.64999 H 9.999999 c 1.108,0 2,0.89202 2,2.00001 v 22.00001 c 0,1.10797 -0.892,1.99998 -2,1.99998 H -11.999999 C -13.108,320.64999 -14,319.75798 -14,318.65001 v -22 c 0,-1.108 0.892,-2.00001 2.000001,-2.00002 z" opacity="1"/><path id="rect829" fill="url(#linearGradient837)" fill-opacity="1" stroke="none" stroke-dasharray="none" stroke-linecap="round" stroke-linejoin="round" stroke-miterlimit="4" stroke-opacity="1" stroke-width="2" d="M -12,295.65001 H 9.999999 c 0.554,0 1,0.44599 1,1 v 22 c 0,0.55401 -0.446,1 -1,1 H -12 c -0.554,0 -1,-0.44599 -1,-1 v -22 c 0,-0.554 0.446,-1 1,-1 z" opacity="1"/><path id="rect843" fill="#ff9a0a" fill-opacity="1" stroke="none" stroke-dasharray="none" stroke-linecap="round" stroke-linejoin="round" stroke-miterlimit="4" stroke-opacity="1" stroke-width="2.393" d="m -14,310.64999 2,-10e-6 1,2 H 9 l 1,-2 2,10e-6 c 1.108,10e-6 2,0.892 2,2 v 6 c 0,1.108 -0.892,2 -2,2 h -26 c -1.108,0 -2,-0.892 -2,-2 v -6 c 0,-1.108 0.892,-2 2,-2 z" opacity="1"/><path id="rect843-3" fill="url(#linearGradient852)" fill-opacity="1" stroke="none" stroke-dasharray="none" stroke-linecap="round" stroke-linejoin="round" stroke-miterlimit="4" stroke-opacity="1" stroke-width="2.234" d="m -14,311.64999 1,-10e-6 1,2 h 22 l 1,-2 1,10e-6 c 0.553999,10e-6 1,0.446 1,1 v 6 c 0,0.554 -0.446001,1 -1,1 h -26 c -0.554,0 -1,-0.446 -1,-1 v -6 c 0,0 0,-1 1,-1 z" opacity="1"/><path id="path1137" fill="#90a4ae" fill-opacity="1" stroke="none" stroke-dasharray="none" stroke-dashoffset="0" stroke-linecap="round" stroke-linejoin="round" stroke-miterlimit="4" stroke-opacity=".989" stroke-width="1.1" d="m -9,298.64999 c -0.5539979,0 -1,0.446 -1,1 v 3 c 0,0.554 0.4460021,1 1,1 h 3 c 0.553998,0 1,-0.446 1,-1 v -3 c 0,-0.554 -0.446002,-1 -1,-1 z" opacity="1" paint-order="stroke markers fill"/><path id="path1135" fill="#90a4ae" fill-opacity="1" stroke="none" stroke-dasharray="none" stroke-dashoffset="0" stroke-linecap="round" stroke-linejoin="round" stroke-miterlimit="4" stroke-opacity=".989" stroke-width="1.1" d="m -3,298.64999 v 1 h 9 v -1 z" opacity="1" paint-order="stroke markers fill"/><path id="path1133" fill="#90a4ae" fill-opacity="1" stroke="none" stroke-dasharray="none" stroke-dashoffset="0" stroke-linecap="round" stroke-linejoin="round" stroke-miterlimit="4" stroke-opacity=".989" stroke-width="1.1" d="m -3,300.64999 v 1 h 9 v -1 z" opacity="1" paint-order="stroke markers fill"/><path id="path1131" fill="#90a4ae" fill-opacity="1" stroke="none" stroke-dasharray="none" stroke-dashoffset="0" stroke-linecap="round" stroke-linejoin="round" stroke-miterlimit="4" stroke-opacity=".989" stroke-width="1.1" d="m -3,302.64999 v 1 h 5 v -1 z" opacity="1" paint-order="stroke markers fill"/><path id="path1129" fill="#90a4ae" fill-opacity="1" stroke="none" stroke-dasharray="none" stroke-dashoffset="0" stroke-linecap="round" stroke-linejoin="round" stroke-miterlimit="4" stroke-opacity=".989" stroke-width="1.1" d="m -10,304.64999 v 1 H 8 v -1 z" opacity="1" paint-order="stroke markers fill"/><path id="rect999" fill="#90a4ae" fill-opacity="1" stroke="none" stroke-dasharray="none" stroke-dashoffset="0" stroke-linecap="round" stroke-linejoin="round" stroke-miterlimit="4" stroke-opacity=".989" stroke-width="1.1" d="m -10,306.64999 v 1 H 8 v -1 z" opacity="1" paint-order="stroke markers fill"/><path id="rect999-0" fill="#90a4ae" fill-opacity="1" stroke="none" stroke-dasharray="none" stroke-dashoffset="0" stroke-linecap="round" stroke-linejoin="round" stroke-miterlimit="4" stroke-opacity=".989" stroke-width="1.1" d="m -10,308.64999 v 1 H 8 v -1 z" opacity="1" paint-order="stroke markers fill"/></g></g></svg>