<svg xmlns="http://www.w3.org/2000/svg" xmlns:svg="http://www.w3.org/2000/svg" xmlns:xlink="http://www.w3.org/1999/xlink" id="svg8" width="32" height="32" version="1.1" viewBox="0 0 32 32"><title id="title7895">Antu icon Theme</title><defs id="defs2"><linearGradient id="linearGradient1866" x1="16" x2="16" y1="29" y2="3" gradientTransform="translate(-17,292.64999)" gradientUnits="userSpaceOnUse" xlink:href="#linearGradient4580"/><linearGradient id="linearGradient4580"><stop id="stop4576" offset="0" stop-color="#06111c" stop-opacity="1"/><stop id="stop4578" offset="1" stop-color="#15272f" stop-opacity="1"/></linearGradient><linearGradient id="linearGradient852-9" x1="8.448" x2="8.448" y1="295.601" y2="288.987" gradientTransform="matrix(3.7795275,0,0,3.7795275,-32.928569,-794.58391)" gradientUnits="userSpaceOnUse" xlink:href="#linearGradient4565"/><linearGradient id="linearGradient4565"><stop id="stop4561" offset="0" stop-color="#1780f2" stop-opacity="1"/><stop id="stop4563" offset="1" stop-color="#02b3fe" stop-opacity="1"/></linearGradient></defs><metadata id="metadata5"/><g id="layer1" transform="translate(0,-282.64999)"><g id="g1528" transform="translate(17,-10)"><path id="path1667" fill="url(#linearGradient852-9)" fill-opacity="1" stroke="none" stroke-dasharray="none" stroke-linecap="round" stroke-linejoin="round" stroke-miterlimit="4" stroke-opacity="1" stroke-width="2.234" d="m -14,294.64999 c -0.554,0 -1,0.446 -1,1 v 26 c 0,0.554 0.446,1 1,1 h 26 c 0.553999,0 1,-0.446 1,-1 v -26 c 0,-0.554 -0.446001,-1 -1,-1 z" opacity="1"/><path id="rect827-3" fill="#03080d" fill-opacity=".992" stroke="none" stroke-dasharray="none" stroke-dashoffset="0" stroke-linecap="round" stroke-linejoin="round" stroke-miterlimit="4" stroke-opacity="1" stroke-width="6" d="m -14,293.64999 c -1.107998,0 -2,0.892 -2,2 v 26 c 0,1.108 0.892002,2 2,2 h 1 3 1 16 1 3 1 c 1.107998,0 2,-0.892 2,-2 v -26 c 0,-1.108 -0.892002,-2 -2,-2 H 11 8 7 -9 h -1 -3 z m 5,1 H 7 v 1 1 h 1 v 24 H 7 v 1 1 H -9 v -1 -1 h -1 v -24 h 1 v -1 z" opacity="1" paint-order="stroke markers fill"/><path id="rect832" fill="url(#linearGradient1866)" fill-opacity="1" stroke="none" stroke-dasharray="none" stroke-dashoffset="0" stroke-linecap="round" stroke-linejoin="round" stroke-miterlimit="4" stroke-opacity="1" stroke-width="6" d="m -14,294.64999 c -0.553998,0 -1,0.446 -1,1 v 26 c 0,0.554 0.446002,1 1,1 h 3 1 1 16 1 1 3 c 0.553998,0 1,-0.446 1,-1 v -26 c 0,-0.554 -0.446002,-1 -1,-1 H 9 8 7 -9 h -1 -1 z m 4,2 h 1 16 1 v 11 h -18 z m 0,13 H 8 v 11 H 7 -9 -10 Z" opacity="1" paint-order="stroke markers fill"/><path id="Triangle-1-0" fill="#1770d9" fill-opacity=".98" fill-rule="nonzero" stroke="none" stroke-dasharray="none" stroke-dashoffset="0" stroke-linecap="round" stroke-linejoin="round" stroke-miterlimit="4" stroke-opacity="1" stroke-width="2" d="m -5.041345,303.64964 c -0.536181,0.0221 -0.959384,0.46337 -0.958984,1 v 10 c -2e-4,0.78621 0.865086,1.2652 1.53125,0.84765 l 8,-5 c 0.625818,-0.39184 0.625818,-1.30347 0,-1.69531 l -8,-5 c -0.171002,-0.10739 -0.370506,-0.1605 -0.572266,-0.15234 z" baseline-shift="baseline" clip-rule="nonzero" color="#000" color-interpolation="sRGB" color-interpolation-filters="linearRGB" color-rendering="auto" direction="ltr" display="inline" dominant-baseline="auto" enable-background="accumulate" font-family="sans-serif" font-size="medium" font-stretch="normal" font-style="normal" font-variant="normal" font-weight="normal" image-rendering="auto" letter-spacing="normal" opacity="1" overflow="visible" shape-rendering="auto" text-anchor="start" text-decoration="none" text-rendering="auto" vector-effect="none" visibility="visible" word-spacing="normal" writing-mode="lr-tb" style="line-height:normal;font-variant-ligatures:normal;font-variant-position:normal;font-variant-caps:normal;font-variant-numeric:normal;font-variant-alternates:normal;font-feature-settings:normal;text-indent:0;text-align:start;text-decoration-line:none;text-decoration-style:solid;text-decoration-color:#000;text-transform:none;text-orientation:mixed;white-space:normal;shape-padding:0;isolation:auto;mix-blend-mode:normal;solid-color:#000;solid-opacity:1"/><path id="path1665-9-7" fill="#03080d" fill-opacity=".992" stroke="none" stroke-dasharray="none" stroke-linecap="round" stroke-linejoin="round" stroke-miterlimit="4" stroke-opacity="1" stroke-width="2.234" d="m 9,296.64999 v 4 h 3 v -4 z m 0,5 v 4 h 3 v -4 z m 0,5 v 4 h 3 v -4 z m 0,5 v 4 h 3 v -4 z m 0,5 v 4 h 3 v -4 z" opacity="1"/><path id="path1665-9" fill="#f1f2f3" fill-opacity="1" stroke="none" stroke-dasharray="none" stroke-linecap="round" stroke-linejoin="round" stroke-miterlimit="4" stroke-opacity="1" stroke-width="2.234" d="m 9,296.64999 v 3 h 3 v -3 z m 0,5 v 3 h 3 v -3 z m 0,5 v 3 h 3 v -3 z m 0,5 v 3 h 3 v -3 z m 0,5 v 3 h 3 v -3 z" opacity="1"/><path id="path1665-9-7-9" fill="#03080d" fill-opacity=".992" stroke="none" stroke-dasharray="none" stroke-linecap="round" stroke-linejoin="round" stroke-miterlimit="4" stroke-opacity="1" stroke-width="2.234" d="m -14,296.64999 v 4 h 3 v -4 z m 0,5 v 4 h 3 v -4 z m 0,5 v 4 h 3 v -4 z m 0,5 v 4 h 3 v -4 z m 0,5 v 4 h 3 v -4 z" opacity="1"/><path id="path1665-9-3" fill="#f1f2f3" fill-opacity="1" stroke="none" stroke-dasharray="none" stroke-linecap="round" stroke-linejoin="round" stroke-miterlimit="4" stroke-opacity="1" stroke-width="2.234" d="m -14,296.64999 v 3 h 3 v -3 z m 0,5 v 3 h 3 v -3 z m 0,5 v 3 h 3 v -3 z m 0,5 v 3 h 3 v -3 z m 0,5 v 3 h 3 v -3 z" opacity="1"/><path id="Triangle-1" fill="#fff" fill-opacity="1" fill-rule="nonzero" stroke="none" stroke-dasharray="none" stroke-dashoffset="0" stroke-linecap="round" stroke-linejoin="round" stroke-miterlimit="4" stroke-opacity="1" stroke-width="2" d="m -5.041344,302.64999 c -0.536182,0.0221 -0.959385,0.46337 -0.958985,1 v 10 c -2.04e-4,0.78621 0.865083,1.26521 1.53125,0.84766 l 8,-5 c 0.62582,-0.39184 0.62582,-1.30348 0,-1.69532 l -8,-5 c -0.171001,-0.10738 -0.370505,-0.16049 -0.572265,-0.15234 z" baseline-shift="baseline" clip-rule="nonzero" color="#000" color-interpolation="sRGB" color-interpolation-filters="linearRGB" color-rendering="auto" direction="ltr" display="inline" dominant-baseline="auto" enable-background="accumulate" font-family="sans-serif" font-size="medium" font-stretch="normal" font-style="normal" font-variant="normal" font-weight="normal" image-rendering="auto" letter-spacing="normal" opacity="1" overflow="visible" shape-rendering="auto" text-anchor="start" text-decoration="none" text-rendering="auto" vector-effect="none" visibility="visible" word-spacing="normal" writing-mode="lr-tb" style="line-height:normal;font-variant-ligatures:normal;font-variant-position:normal;font-variant-caps:normal;font-variant-numeric:normal;font-variant-alternates:normal;font-feature-settings:normal;text-indent:0;text-align:start;text-decoration-line:none;text-decoration-style:solid;text-decoration-color:#000;text-transform:none;text-orientation:mixed;white-space:normal;shape-padding:0;isolation:auto;mix-blend-mode:normal;solid-color:#000;solid-opacity:1"/></g></g></svg>