<svg xmlns="http://www.w3.org/2000/svg" xmlns:svg="http://www.w3.org/2000/svg" xmlns:xlink="http://www.w3.org/1999/xlink" id="svg8" width="32" height="32" version="1.1" viewBox="0 0 32 32"><title id="title7895">Antu icon Theme</title><defs id="defs2"><linearGradient id="linearGradient846"><stop id="stop842" offset="0" stop-color="#94a8b2" stop-opacity="1"/><stop id="stop844" offset="1" stop-color="#a9c0cc" stop-opacity="1"/></linearGradient><linearGradient id="linearGradient2237" x1="8.448" x2="8.448" y1="295.601" y2="288.987" gradientTransform="matrix(3.7795275,0,0,3.7795275,-34.928569,-797.58391)" gradientUnits="userSpaceOnUse" xlink:href="#linearGradient4846"/><linearGradient id="linearGradient4846"><stop id="stop4842" offset="0" stop-color="#e4efef" stop-opacity="1"/><stop id="stop4844" offset="1" stop-color="#fcfcfc" stop-opacity="1"/></linearGradient><linearGradient id="linearGradient1316" x1="16" x2="16" y1="296.65" y2="289.65" gradientTransform="translate(-19,7)" gradientUnits="userSpaceOnUse" xlink:href="#linearGradient846"/><linearGradient id="linearGradient1300" x1="12" x2="12" y1="293.65" y2="291.65" gradientTransform="translate(-19,7)" gradientUnits="userSpaceOnUse" xlink:href="#linearGradient4582"/><linearGradient id="linearGradient4582"><stop id="stop4578" offset="0" stop-color="#e3e3e3" stop-opacity="1"/><stop id="stop4580" offset="1" stop-color="#fcfcfc" stop-opacity="1"/></linearGradient><linearGradient id="linearGradient1308" x1="20" x2="20" y1="305.65" y2="303.65" gradientTransform="translate(-19,7)" gradientUnits="userSpaceOnUse" xlink:href="#linearGradient4582"/><linearGradient id="linearGradient1324" x1="16" x2="16" y1="309.65" y2="300.65" gradientTransform="translate(-19,7)" gradientUnits="userSpaceOnUse" xlink:href="#linearGradient979"/><linearGradient id="linearGradient979"><stop id="stop975" offset="0" stop-color="#44c367" stop-opacity="1"/><stop id="stop977" offset="1" stop-color="#6ce073" stop-opacity="1"/></linearGradient></defs><metadata id="metadata5"/><g id="layer1" transform="translate(0,-282.64999)"><g id="g2004" transform="translate(19,-7)"><path id="rect843" fill="#7f9099" fill-opacity="1" stroke="none" stroke-dasharray="none" stroke-linecap="round" stroke-linejoin="round" stroke-miterlimit="4" stroke-opacity="1" stroke-width="2.393" d="M -16,290.64999 H 9.999999 C 11.108,290.64999 12,291.542 12,292.65 v 25.99998 c 0,1.108 -0.892,2.00001 -2.000001,2.00001 H -16 c -1.108,0 -2,-0.89201 -2,-2.00001 V 292.65 c 0,-1.108 0.892,-2.00001 2,-2.00001 z" opacity="1"/><path id="rect843-3" fill="url(#linearGradient2237)" fill-opacity="1" stroke="none" stroke-dasharray="none" stroke-linecap="round" stroke-linejoin="round" stroke-miterlimit="4" stroke-opacity="1" stroke-width="2.234" d="M -16,291.65002 H 9.999999 C 10.554,291.65002 11,292.096 11,292.65 v 26.00001 C 11,319.20398 10.554,319.65 9.999999,319.65 H -16 c -0.554,0 -1,-0.44602 -1,-0.99999 V 292.65 c 0,-0.554 0.446,-0.99998 1,-0.99998 z" opacity="1"/><path id="rect1187" fill="#7f9099" fill-opacity="1" stroke="none" stroke-dasharray="none" stroke-dashoffset="0" stroke-linecap="round" stroke-linejoin="round" stroke-miterlimit="4" stroke-opacity=".989" stroke-width="1.1" d="m -7,294.64999 h 8 c 2.77,0 5,2.23 5,5 0,2.77 -2.23,5 -5,5 h -8 c -2.77,0 -5,-2.23 -5,-5 0,-2.77 2.23,-5 5,-5 z" opacity="1" paint-order="stroke markers fill"/><path id="rect1189" fill="url(#linearGradient1316)" fill-opacity="1" stroke="none" stroke-dasharray="none" stroke-dashoffset="0" stroke-linecap="round" stroke-linejoin="round" stroke-miterlimit="4" stroke-opacity=".989" stroke-width="1.1" d="m -7,295.64999 h 8 c 2.216,0 4,1.784 4,4 0,2.216 -1.784,4 -4,4 h -8 c -2.216,0 -4,-1.784 -4,-4 0,-2.216 1.784,-4 4,-4 z" opacity="1" paint-order="stroke markers fill"/><path id="rect1192" fill="#7f9099" fill-opacity="1" stroke="none" stroke-dasharray="none" stroke-dashoffset="0" stroke-linecap="round" stroke-linejoin="round" stroke-miterlimit="4" stroke-opacity=".989" stroke-width="1.1" d="m -7,296.64999 c 1.662,0 3,1.338 3,3 0,1.662 -1.338,3 -3,3 -1.662,0 -3,-1.338 -3,-3 0,-1.662 1.338,-3 3,-3 z" opacity="1" paint-order="stroke markers fill"/><path id="rect1194" fill="url(#linearGradient1300)" fill-opacity="1" stroke="none" stroke-dasharray="none" stroke-dashoffset="0" stroke-linecap="round" stroke-linejoin="round" stroke-miterlimit="4" stroke-opacity=".989" stroke-width="1.1" d="m -7,297.64999 c 1.108,0 2,0.892 2,2 0,1.108 -0.892,2 -2,2 -1.108,0 -2,-0.892 -2,-2 0,-1.108 0.892,-2 2,-2 z" opacity="1" paint-order="stroke markers fill"/><path id="rect1187-4" fill="#2aa65a" fill-opacity="1" stroke="none" stroke-dasharray="none" stroke-dashoffset="0" stroke-linecap="round" stroke-linejoin="round" stroke-miterlimit="4" stroke-opacity=".989" stroke-width="1.1" d="m 1,306.64999 h -8 c -2.77,0 -5,2.23 -5,5 0,2.77 2.23,5 5,5 h 8 c 2.77,0 5,-2.23 5,-5 0,-2.77 -2.23,-5 -5,-5 z" opacity="1" paint-order="stroke markers fill"/><path id="rect1189-3" fill="url(#linearGradient1324)" fill-opacity="1" stroke="none" stroke-dasharray="none" stroke-dashoffset="0" stroke-linecap="round" stroke-linejoin="round" stroke-miterlimit="4" stroke-opacity=".989" stroke-width="1.1" d="m 1,307.64999 h -8 c -2.216,0 -4,1.784 -4,4 0,2.216 1.784,4 4,4 h 8 c 2.216,0 4,-1.784 4,-4 0,-2.216 -1.784,-4 -4,-4 z" opacity="1" paint-order="stroke markers fill"/><path id="rect1192-1" fill="#2aa65a" fill-opacity="1" stroke="none" stroke-dasharray="none" stroke-dashoffset="0" stroke-linecap="round" stroke-linejoin="round" stroke-miterlimit="4" stroke-opacity=".989" stroke-width="1.1" d="m 1,308.64999 c -1.662,0 -3,1.338 -3,3 0,1.662 1.338,3 3,3 1.662,0 3,-1.338 3,-3 0,-1.662 -1.338,-3 -3,-3 z" opacity="1" paint-order="stroke markers fill"/><path id="rect1194-4" fill="url(#linearGradient1308)" fill-opacity="1" stroke="none" stroke-dasharray="none" stroke-dashoffset="0" stroke-linecap="round" stroke-linejoin="round" stroke-miterlimit="4" stroke-opacity=".989" stroke-width="1.1" d="m 1,309.64999 c -1.108,0 -2,0.892 -2,2 0,1.108 0.892,2 2,2 1.108,0 2,-0.892 2,-2 0,-1.108 -0.892,-2 -2,-2 z" opacity="1" paint-order="stroke markers fill"/></g></g></svg>