<svg xmlns="http://www.w3.org/2000/svg" xmlns:svg="http://www.w3.org/2000/svg" xmlns:xlink="http://www.w3.org/1999/xlink" id="svg8" width="32" height="32" version="1.1" viewBox="0 0 32 32"><title id="title7895">Antu icon Theme</title><defs id="defs2"><linearGradient id="linearGradient1463" x1="13" x2="13" y1="306.65" y2="301.65" gradientTransform="translate(-24)" gradientUnits="userSpaceOnUse" xlink:href="#linearGradient4619"/><linearGradient id="linearGradient4619"><stop id="stop4615" offset="0" stop-color="#67d924" stop-opacity="1"/><stop id="stop4617" offset="1" stop-color="#a3eb1e" stop-opacity="1"/></linearGradient><linearGradient id="linearGradient1471" x1="20" x2="20" y1="304.65" y2="301.65" gradientTransform="translate(-24)" gradientUnits="userSpaceOnUse" xlink:href="#linearGradient4717"/><linearGradient id="linearGradient4717"><stop id="stop4713" offset="0" stop-color="#1a86f2" stop-opacity="1"/><stop id="stop4715" offset="1" stop-color="#31bbfc" stop-opacity="1"/></linearGradient><linearGradient id="linearGradient1264" x1="16" x2="16" y1="309.65" y2="294.65" gradientTransform="translate(-24)" gradientUnits="userSpaceOnUse" xlink:href="#linearGradient4582-8"/><linearGradient id="linearGradient4582-8"><stop id="stop4578-9" offset="0" stop-color="#cee3e3" stop-opacity="1"/><stop id="stop4580-7" offset="1" stop-color="#fcfcfc" stop-opacity="1"/></linearGradient><linearGradient id="linearGradient1387" x1="9" x2="9" y1="297.65" y2="294.65" gradientTransform="translate(-24)" gradientUnits="userSpaceOnUse" xlink:href="#linearGradient4627"/><linearGradient id="linearGradient4627"><stop id="stop4623" offset="0" stop-color="#ffc900" stop-opacity="1"/><stop id="stop4625" offset="1" stop-color="#ffe200" stop-opacity="1"/></linearGradient><linearGradient id="linearGradient1479" x1="20" x2="20" y1="295.65" y2="292.65" gradientTransform="translate(-24)" gradientUnits="userSpaceOnUse" xlink:href="#linearGradient4534"/><linearGradient id="linearGradient4534"><stop id="stop4530" offset="0" stop-color="#d43434" stop-opacity="1"/><stop id="stop4532" offset="1" stop-color="#f84f4f" stop-opacity="1"/></linearGradient><linearGradient id="linearGradient1273" x1="16" x2="16" y1="301.65" y2="298.65" gradientTransform="translate(-24)" gradientUnits="userSpaceOnUse" xlink:href="#linearGradient4582-8"/></defs><metadata id="metadata5"/><g id="layer1" transform="translate(0,-282.64999)"><g id="g2393" transform="translate(24)"><path id="rect900" fill="#90a4ae" fill-opacity="1" stroke="none" stroke-dasharray="none" stroke-dashoffset="0" stroke-linecap="round" stroke-linejoin="round" stroke-miterlimit="4" stroke-opacity="1" stroke-width="6" d="m -18,286.64999 c -1.108,0 -2,0.892 -2,2 v 6 2 2 2 2 6 c 0,1.108 0.892,2 2,2 h 8 2 2 8 c 1.108,0 2,-0.892 2,-2 v -6 -2 -2 -2 -2 -6 c 0,-1.108 -0.892,-2 -2,-2 h -8 -2 -2 z" opacity="1" paint-order="stroke markers fill"/><path id="rect1256" fill="url(#linearGradient1264)" fill-opacity="1" stroke="none" stroke-dasharray="none" stroke-dashoffset="0" stroke-linecap="round" stroke-linejoin="round" stroke-miterlimit="4" stroke-opacity="1" stroke-width="11.489" d="M -18,287.64999 H 2 c 0.554,0 1,0.446 1,1 v 20 c 0,0.554 -0.446,1 -1,1 h -20 c -0.554,0 -1,-0.446 -1,-1 v -20 c 0,-0.554 0.446,-1 1,-1 z" opacity="1" paint-order="stroke markers fill"/><path id="path1114-6-1" fill="#ff9600" fill-opacity=".961" stroke="none" stroke-linecap="butt" stroke-linejoin="miter" stroke-opacity="1" stroke-width="1" d="m -24,298.64999 h 16 v -8 h -8 z"/><path id="path1161" fill="url(#linearGradient1387)" fill-opacity="1" stroke="none" stroke-linecap="butt" stroke-linejoin="miter" stroke-opacity="1" stroke-width="1" d="M -21.5,297.64999 H -9 v -6 h -6.5 z"/><path id="path1114-6-1-7" fill="#992626" fill-opacity="1" stroke="none" stroke-linecap="butt" stroke-linejoin="miter" stroke-opacity="1" stroke-width="1" d="m -8,282.64999 v 16 h 8 v -8 z"/><path id="path1161-9" fill="url(#linearGradient1479)" fill-opacity="1" stroke="none" stroke-linecap="butt" stroke-linejoin="miter" stroke-opacity="1" stroke-width="1" d="m -7,285.14999 v 12.5 h 6 v -6.5 z"/><path id="path1114-6-1-2" fill="#115799" fill-opacity="1" stroke="none" stroke-linecap="butt" stroke-linejoin="miter" stroke-opacity="1" stroke-width="1" d="M 8,298.64999 H -8 v 8 h 8 z"/><path id="path1161-0" fill="url(#linearGradient1471)" fill-opacity="1" stroke="none" stroke-linecap="butt" stroke-linejoin="miter" stroke-opacity="1" stroke-width="1" d="M 5.5,299.64999 H -7 v 6 h 6.5 z"/><path id="path1114-6-1-23" fill="#56b21d" fill-opacity="1" stroke="none" stroke-linecap="butt" stroke-linejoin="miter" stroke-opacity="1" stroke-width="1" d="m -8,314.64999 v -16 h -8 v 8 z"/><path id="path1161-7" fill="url(#linearGradient1463)" fill-opacity="1" stroke="none" stroke-linecap="butt" stroke-linejoin="miter" stroke-opacity="1" stroke-width="1" d="m -9,312.14999 v -12.5 h -6 v 6.5 z"/><path id="path1207" fill="#90a4ae" fill-opacity="1" stroke="none" stroke-linecap="butt" stroke-linejoin="miter" stroke-opacity="1" stroke-width="1" d="m -8,302.64999 4,-4 -4,-4 -4,4 z"/><path id="path1209" fill="url(#linearGradient1273)" fill-opacity="1" stroke="none" stroke-linecap="butt" stroke-linejoin="miter" stroke-opacity="1" stroke-width="1" d="m -8,301.64999 3,-3 -3,-3 -3,3 z"/></g></g></svg>