<svg xmlns="http://www.w3.org/2000/svg" xmlns:svg="http://www.w3.org/2000/svg" xmlns:xlink="http://www.w3.org/1999/xlink" id="svg8" width="48" height="48" version="1.1" viewBox="0 0 48 48"><title id="title7895">Antu icon Theme</title><defs id="defs2"><linearGradient id="linearGradient9540" x1="78.846" x2="78.846" y1="277.156" y2="274.775" gradientTransform="matrix(3.7795276,0,0,3.7795276,-290.40802,-783.86971)" gradientUnits="userSpaceOnUse" xlink:href="#linearGradient9538"/><linearGradient id="linearGradient9538"><stop id="stop9534" offset="0" stop-color="#348ae6" stop-opacity="1"/><stop id="stop9536" offset="1" stop-color="#3a98f2" stop-opacity="1"/></linearGradient><linearGradient id="linearGradient9532" x1="82.815" x2="82.815" y1="285.358" y2="276.098" gradientTransform="matrix(3.7795276,0,0,3.7795276,-290.40802,-783.86971)" gradientUnits="userSpaceOnUse" xlink:href="#linearGradient9530"/><linearGradient id="linearGradient9530"><stop id="stop9526" offset="0" stop-color="#3c9bf3" stop-opacity="1"/><stop id="stop9528" offset="1" stop-color="#51c4f9" stop-opacity="1"/></linearGradient><linearGradient id="linearGradient8432" x1="36" x2="36" y1="287.65" y2="279.65" gradientTransform="translate(-2.40799,-16)" gradientUnits="userSpaceOnUse" xlink:href="#linearGradient4547"/><linearGradient id="linearGradient4547"><stop id="stop4543" offset="0" stop-color="#c3f7f9" stop-opacity="1"/><stop id="stop4545" offset="1" stop-color="#e5fafb" stop-opacity="1"/></linearGradient></defs><metadata id="metadata5"/><g id="layer1" transform="translate(0,-266.64999)"><g id="g9072" transform="translate(2.4079895,16)"><path id="rect9183-4" fill="#3182d9" fill-opacity="1" stroke="none" stroke-opacity="1" stroke-width="1" d="M -0.40796901,253.64999 H 17.567804 l 5.024224,9 h 21.000001 c 1.107968,0 1.999974,0.89197 1.999974,1.99997 v 28.99998 c 0,1.10801 -0.892006,2.00001 -2.000012,2.00001 H -0.40796901 c -1.10800699,0 -2.00001299,-0.892 -2.00001299,-2.00001 v -37.99998 c 0,-1.108 0.892006,-1.99997 2.00001299,-1.99997 z" opacity="1"/><path id="rect9186-7" fill="url(#linearGradient9540)" fill-opacity="1" stroke="none" stroke-opacity="1" stroke-width="1" d="M -0.40796901,254.64994 H 16.592043 l 4.99996,9.00004 h 22.000026 c 0.554003,-4e-5 0.999987,0.44602 0.999987,0.99998 v 28.99998 c 0,0.554 -0.445984,1.00002 -0.999987,1.00002 H -0.40796901 c -0.554003,0 -0.99998799,-0.44602 -0.99998799,-1.00002 v -37.99998 c 0,-0.554 0.44598499,-1.00002 0.99998799,-1.00002 z" opacity="1"/><path id="rect9175-4" fill="#3182d9" fill-opacity="1" stroke="none" stroke-opacity="1" stroke-width="1" d="m -0.40796901,264.65 17.00001201,-4e-5 3.999988,-6 22.999998,4e-5 c 1.107968,0 1.999974,0.89201 1.999974,2.00002 v 32.99996 c 0,1.108 -0.892006,2.00001 -1.999974,2.00001 H -0.40796901 c -1.10800699,0 -2.00001299,-0.89201 -2.00001299,-2.00001 v -26.99997 c 0,-1.108 0.892006,-2.00001 2.00001299,-2.00001 z" opacity="1"/><path id="rect9179-4" fill="url(#linearGradient9532)" fill-opacity="1" stroke="none" stroke-opacity="1" stroke-width="1" d="m -0.40796901,265.65003 18.00000001,-4e-5 3.999972,-6.00004 22.000026,8e-5 c 0.554003,0 0.999987,0.44602 0.999987,0.99999 v 33 c 0,0.554 -0.445984,1.00002 -0.999987,1.00002 H -0.40796901 c -0.554003,0 -0.99998799,-0.44602 -0.99998799,-1.00002 v -27.00001 c 0,-0.55396 0.44598499,-0.99998 0.99998799,-0.99998 z" opacity=".99"/><path id="rect8406" fill="#358bd9" fill-opacity="1" stroke="none" stroke-dasharray="none" stroke-linecap="round" stroke-linejoin="round" stroke-miterlimit="4" stroke-opacity="1" stroke-width="2" d="m 29.59201,261.64999 c -0.554,0 -1,0.446 -1,1 v 9 1 6 l 5,-5 5,5 v -6 -1 -9 c 0,-0.554 -0.446,-1 -1,-1 z" opacity="1"/><path id="rect8406-1" fill="url(#linearGradient8432)" fill-opacity="1" stroke="none" stroke-dasharray="none" stroke-linecap="round" stroke-linejoin="round" stroke-miterlimit="4" stroke-opacity="1" stroke-width="2" d="m 29.59201,260.64999 c -0.554,0 -1,0.446 -1,1 v 9 1 6 l 5,-5 5,5 v -6 -1 -9 c 0,-0.554 -0.446,-1 -1,-1 z" opacity="1"/></g></g></svg>