<svg xmlns="http://www.w3.org/2000/svg" xmlns:svg="http://www.w3.org/2000/svg" xmlns:xlink="http://www.w3.org/1999/xlink" id="svg8" width="48" height="48" version="1.1" viewBox="0 0 48 48"><title id="title7895">Antu icon Theme</title><defs id="defs2"><linearGradient id="linearGradient9540" x1="78.846" x2="78.846" y1="277.156" y2="274.775" gradientTransform="matrix(3.7795276,0,0,3.7795276,-300.00004,-775.86971)" gradientUnits="userSpaceOnUse" xlink:href="#linearGradient9538"/><linearGradient id="linearGradient9538"><stop id="stop9534" offset="0" stop-color="#348ae6" stop-opacity="1"/><stop id="stop9536" offset="1" stop-color="#3a98f2" stop-opacity="1"/></linearGradient><linearGradient id="linearGradient9532" x1="82.815" x2="82.815" y1="285.358" y2="276.098" gradientTransform="matrix(3.7795276,0,0,3.7795276,-300.00004,-775.86971)" gradientUnits="userSpaceOnUse" xlink:href="#linearGradient9530"/><linearGradient id="linearGradient9530"><stop id="stop9526" offset="0" stop-color="#3c9bf3" stop-opacity="1"/><stop id="stop9528" offset="1" stop-color="#51c4f9" stop-opacity="1"/></linearGradient><linearGradient id="linearGradient5401" x1="6.35" x2="6.35" y1="293.031" y2="290.65" gradientTransform="matrix(3.7795276,0,0,3.7795276,-12,-813.86961)" gradientUnits="userSpaceOnUse" xlink:href="#linearGradient4547"/><linearGradient id="linearGradient4547"><stop id="stop4543" offset="0" stop-color="#c3f7f9" stop-opacity="1"/><stop id="stop4545" offset="1" stop-color="#e5fafb" stop-opacity="1"/></linearGradient></defs><metadata id="metadata5"/><g id="layer1" transform="translate(0,-266.64999)"><g id="g6041" transform="translate(12.000007,8)"><path id="rect9183-4" fill="#3182d9" fill-opacity="1" stroke="none" stroke-opacity="1" stroke-width="1" d="M -9.9999874,261.64999 H 7.975786 l 5.024224,9 h 21.000001 c 1.107968,0 1.999974,0.89197 1.999974,1.99997 v 28.99998 c 0,1.10801 -0.892006,2.00001 -2.000012,2.00001 H -9.9999874 C -11.107994,303.64995 -12,302.75795 -12,301.64994 v -37.99998 c 0,-1.108 0.892006,-1.99997 2.0000126,-1.99997 z" opacity="1"/><path id="rect9186-7" fill="url(#linearGradient9540)" fill-opacity="1" stroke="none" stroke-opacity="1" stroke-width="1" d="M -9.9999874,262.64994 H 7.000025 l 4.99996,9.00004 h 22.000026 c 0.554003,-4e-5 0.999987,0.44602 0.999987,0.99998 v 28.99998 c 0,0.554 -0.445984,1.00002 -0.999987,1.00002 H -9.9999874 c -0.5540036,0 -0.9999876,-0.44602 -0.9999876,-1.00002 v -37.99998 c 0,-0.554 0.445984,-1.00002 0.9999876,-1.00002 z" opacity="1"/><path id="rect9175-4" fill="#3182d9" fill-opacity="1" stroke="none" stroke-opacity="1" stroke-width="1" d="m -9.9999874,272.65 17.0000124,-4e-5 3.999988,-6 22.999998,4e-5 c 1.107968,0 1.999974,0.89201 1.999974,2.00002 v 32.99996 c 0,1.108 -0.892006,2.00001 -1.999974,2.00001 H -9.9999874 C -11.107994,303.64999 -12,302.75798 -12,301.64998 v -26.99997 c 0,-1.108 0.892006,-2.00001 2.0000126,-2.00001 z" opacity="1"/><path id="rect9179-4" fill="url(#linearGradient9532)" fill-opacity="1" stroke="none" stroke-opacity="1" stroke-width="1" d="m -9.9999874,273.65003 18.0000004,-4e-5 3.999972,-6.00004 22.000026,8e-5 c 0.554003,0 0.999987,0.44602 0.999987,0.99999 v 33 c 0,0.554 -0.445984,1.00002 -0.999987,1.00002 H -9.9999874 c -0.5540036,0 -0.9999876,-0.44602 -0.9999876,-1.00002 v -27.00001 c 0,-0.55396 0.445984,-0.99998 0.9999876,-0.99998 z" opacity=".99"/><path id="rect5377" fill="#358bd9" fill-opacity="1" stroke="none" stroke-dasharray="none" stroke-linecap="round" stroke-linejoin="round" stroke-miterlimit="4" stroke-opacity="1" stroke-width="2" d="m 6,280.64999 8,8e-5 5,4.99997 V 296.65 c 0,0.55401 -0.446,0.99999 -1,0.99999 H 6 c -0.554,0 -1,-0.44598 -1,-0.99999 v -14.99999 c 0,-0.554 0.446,-1.00002 1,-1.00002 z" opacity="1"/><path id="rect5377-3" fill="url(#linearGradient5401)" fill-opacity="1" stroke="none" stroke-dasharray="none" stroke-linecap="round" stroke-linejoin="round" stroke-miterlimit="4" stroke-opacity="1" stroke-width="2" d="m 6,279.64996 8,8e-5 5.000001,4.99997 v 10.99998 c 0,0.55399 -0.446001,0.99998 -1.000001,0.99998 H 6 c -0.554,0 -1,-0.44599 -1,-0.99998 v -15 c 0,-0.554 0.446,-1.00003 1,-1.00003 z" opacity="1"/></g></g></svg>