<svg xmlns="http://www.w3.org/2000/svg" xmlns:svg="http://www.w3.org/2000/svg" xmlns:xlink="http://www.w3.org/1999/xlink" id="svg8" width="48" height="48" version="1.1" viewBox="0 0 48 48"><title id="title7895">Antu icon Theme</title><defs id="defs2"><linearGradient id="linearGradient9540" x1="78.846" x2="78.846" y1="277.156" y2="274.775" gradientTransform="matrix(3.7795276,0,0,3.7795276,-288.00003,-767.86971)" gradientUnits="userSpaceOnUse" xlink:href="#linearGradient9538"/><linearGradient id="linearGradient9538"><stop id="stop9534" offset="0" stop-color="#348ae6" stop-opacity="1"/><stop id="stop9536" offset="1" stop-color="#3a98f2" stop-opacity="1"/></linearGradient><linearGradient id="linearGradient9532" x1="82.815" x2="82.815" y1="285.358" y2="276.098" gradientTransform="matrix(3.7795276,0,0,3.7795276,-288.00003,-767.86971)" gradientUnits="userSpaceOnUse" xlink:href="#linearGradient9530"/><linearGradient id="linearGradient9530"><stop id="stop9526" offset="0" stop-color="#3c9bf3" stop-opacity="1"/><stop id="stop9528" offset="1" stop-color="#51c4f9" stop-opacity="1"/></linearGradient><linearGradient id="linearGradient5401" x1="6.35" x2="6.35" y1="293.031" y2="290.65" gradientTransform="matrix(3.7795276,0,0,3.7795276,7e-6,-805.86961)" gradientUnits="userSpaceOnUse" xlink:href="#linearGradient4547"/><linearGradient id="linearGradient4547"><stop id="stop4543" offset="0" stop-color="#c3f7f9" stop-opacity="1"/><stop id="stop4545" offset="1" stop-color="#e5fafb" stop-opacity="1"/></linearGradient></defs><metadata id="metadata5"/><g id="layer1" transform="translate(0,-266.64999)"><path id="rect9183-4" fill="#3182d9" fill-opacity="1" stroke="none" stroke-opacity="1" stroke-width="1" d="M 2.0000196,269.64999 H 19.975793 l 5.024224,9 h 21.000001 c 1.107968,0 1.999974,0.89197 1.999974,1.99997 v 28.99998 c 0,1.10801 -0.892006,2.00001 -2.000012,2.00001 H 2.0000196 C 0.892013,311.64995 7e-6,310.75795 7e-6,309.64994 v -37.99998 c 0,-1.108 0.892006,-1.99997 2.0000126,-1.99997 z" opacity="1"/><path id="rect9186-7" fill="url(#linearGradient9540)" fill-opacity="1" stroke="none" stroke-opacity="1" stroke-width="1" d="M 2.0000196,270.64994 H 19.000032 l 4.99996,9.00004 h 22.000026 c 0.554003,-4e-5 0.999987,0.44602 0.999987,0.99998 v 28.99998 c 0,0.554 -0.445984,1.00002 -0.999987,1.00002 H 2.0000196 c -0.5540036,0 -0.9999876,-0.44602 -0.9999876,-1.00002 v -37.99998 c 0,-0.554 0.445984,-1.00002 0.9999876,-1.00002 z" opacity="1"/><path id="rect9175-4" fill="#3182d9" fill-opacity="1" stroke="none" stroke-opacity="1" stroke-width="1" d="m 2.0000196,280.65 17.0000124,-4e-5 3.999988,-6 22.999998,4e-5 c 1.107968,0 1.999974,0.89201 1.999974,2.00002 v 32.99996 c 0,1.108 -0.892006,2.00001 -1.999974,2.00001 H 2.0000196 C 0.892013,311.64999 7e-6,310.75798 7e-6,309.64998 v -26.99997 c 0,-1.108 0.892006,-2.00001 2.0000126,-2.00001 z" opacity="1"/><path id="rect9179-4" fill="url(#linearGradient9532)" fill-opacity="1" stroke="none" stroke-opacity="1" stroke-width="1" d="m 2.0000196,281.65003 18.0000004,-4e-5 3.999972,-6.00004 22.000026,8e-5 c 0.554003,0 0.999987,0.44602 0.999987,0.99999 v 33 c 0,0.554 -0.445984,1.00002 -0.999987,1.00002 H 2.0000196 c -0.5540036,0 -0.9999876,-0.44602 -0.9999876,-1.00002 v -27.00001 c 0,-0.55396 0.445984,-0.99998 0.9999876,-0.99998 z" opacity=".99"/><path id="rect5377-3-9" fill="#358bd9" fill-opacity="1" stroke="none" stroke-dasharray="none" stroke-linecap="round" stroke-linejoin="round" stroke-miterlimit="4" stroke-opacity="1" stroke-width="2" d="m 18,288.64999 c -0.554,0 -1,0.446 -1,1 v 15 c 0,0.55399 0.446,1 1,1 h 3 v -2 h 2 v -2 h -2 v -2 h 2 v 2 h 2 v -2 h 2 v -2 h -2 v -2 h 2 v 2 h 2 v -2 h 2 v -2 l -5,-5 z m 11,9 v 2 h 2 v -2 z m 0,2 h -2 v 2 h 2 z m 0,2 v 2 h 2 v -2 z m 0,2 h -2 v 2 h 2 z m -2,0 v -2 h -2 v 2 z m -2,0 h -2 v 2 h 2 z" opacity="1"/><path id="rect5377-3" fill="url(#linearGradient5401)" fill-opacity="1" stroke="none" stroke-dasharray="none" stroke-linecap="round" stroke-linejoin="round" stroke-miterlimit="4" stroke-opacity="1" stroke-width="2" d="m 18,287.64999 c -0.554,0 -1,0.446 -1,1 v 15 c 0,0.55399 0.446,1 1,1 h 3 v -2 h 2 v -2 h -2 v -2 h 2 v 2 h 2 v -2 h 2 v -2 h -2 v -2 h 2 v 2 h 2 v -2 h 2 v -2 l -5,-5 z m 11,9 v 2 h 2 v -2 z m 0,2 h -2 v 2 h 2 z m 0,2 v 2 h 2 v -2 z m 0,2 h -2 v 2 h 2 z m -2,0 v -2 h -2 v 2 z m -2,0 h -2 v 2 h 2 z" opacity="1"/></g></svg>