<svg xmlns="http://www.w3.org/2000/svg" xmlns:svg="http://www.w3.org/2000/svg" xmlns:xlink="http://www.w3.org/1999/xlink" id="svg8" width="48" height="48" version="1.1" viewBox="0 0 48 48"><title id="title7895">Antu icon Theme</title><defs id="defs2"><linearGradient id="linearGradient9532" x1="82.815" x2="82.815" y1="285.358" y2="276.098" gradientTransform="matrix(3.7795276,0,0,3.7795276,-304.00004,-763.86981)" gradientUnits="userSpaceOnUse" xlink:href="#linearGradient9530"/><linearGradient id="linearGradient9530"><stop id="stop9526" offset="0" stop-color="#3c9bf3" stop-opacity="1"/><stop id="stop9528" offset="1" stop-color="#51c4f9" stop-opacity="1"/></linearGradient><linearGradient id="linearGradient8030" x1="24" x2="24" y1="37" y2="30" gradientTransform="translate(-16,271.64992)" gradientUnits="userSpaceOnUse" xlink:href="#linearGradient4547"/><linearGradient id="linearGradient4547"><stop id="stop4543" offset="0" stop-color="#c3f7f9" stop-opacity="1"/><stop id="stop4545" offset="1" stop-color="#e5fafb" stop-opacity="1"/></linearGradient><linearGradient id="linearGradient9540" x1="78.846" x2="78.846" y1="277.156" y2="274.775" gradientTransform="matrix(3.7795276,0,0,3.7795276,-304.00004,-763.86971)" gradientUnits="userSpaceOnUse" xlink:href="#linearGradient9538"/><linearGradient id="linearGradient9538"><stop id="stop9534" offset="0" stop-color="#348ae6" stop-opacity="1"/><stop id="stop9536" offset="1" stop-color="#3a98f2" stop-opacity="1"/></linearGradient></defs><metadata id="metadata5"/><g id="layer1" transform="translate(0,-266.64999)"><g id="g8772" transform="translate(16.000007,-4)"><path id="rect9183-4" fill="#3182d9" fill-opacity="1" stroke="none" stroke-opacity="1" stroke-width="1" d="M -13.999987,273.64999 H 3.975786 l 5.024224,9 h 21.000001 c 1.107968,0 1.999974,0.89197 1.999974,1.99997 v 28.99998 c 0,1.10801 -0.892006,2.00001 -2.000012,2.00001 h -43.99996 c -1.108007,0 -2.000013,-0.892 -2.000013,-2.00001 v -37.99998 c 0,-1.108 0.892006,-1.99997 2.000013,-1.99997 z" opacity="1"/><path id="rect9186-7" fill="url(#linearGradient9540)" fill-opacity="1" stroke="none" stroke-opacity="1" stroke-width="1" d="M -13.999987,274.64994 H 3.000025 l 4.99996,9.00004 h 22.000026 c 0.554003,-4e-5 0.999987,0.44602 0.999987,0.99998 v 28.99998 c 0,0.554 -0.445984,1.00002 -0.999987,1.00002 h -43.999998 c -0.554004,0 -0.999988,-0.44602 -0.999988,-1.00002 v -37.99998 c 0,-0.554 0.445984,-1.00002 0.999988,-1.00002 z" opacity="1"/><path id="rect9175-4" fill="#3182d9" fill-opacity="1" stroke="none" stroke-opacity="1" stroke-width="1" d="m -13.999987,284.65 17.000012,-4e-5 3.999988,-6 22.999998,4e-5 c 1.107968,0 1.999974,0.89201 1.999974,2.00002 v 32.99996 c 0,1.108 -0.892006,2.00001 -1.999974,2.00001 H -13.999987 C -15.107994,315.64999 -16,314.75798 -16,313.64998 v -26.99997 c 0,-1.108 0.892006,-2.00001 2.000013,-2.00001 z" opacity="1"/><path id="path7214" fill="url(#linearGradient9532)" fill-opacity="1" stroke="none" stroke-opacity="1" stroke-width="1" d="m 8,279.64993 -4,6 h -18 c -0.554003,0 -1,0.44604 -1,1 v 27 c 0,0.554 0.445997,1 1,1 h 44 c 0.554003,0 1,-0.446 1,-1 v -33 c 0,-0.55396 -0.445997,-1 -1,-1 z" opacity=".99"/><path id="path7993-7" fill="#358bd9" fill-opacity="1" fill-rule="nonzero" stroke="none" stroke-dasharray="none" stroke-dashoffset="0" stroke-linecap="butt" stroke-linejoin="miter" stroke-miterlimit="4" stroke-opacity="1" stroke-width="2" d="m 1.992188,291.64994 c -1.662,0 -3,1.338 -3,3 0,1.662 1.338,3 3,3 1.662,0 3,-1.338 3,-3 0,-1.662 -1.338,-3 -3,-3 z M 12,299.64799 a 1.0001,1.0001 0 0 0 -0.798828,0.38476 l -4.552734,5.85938 -2.949219,-2.94922 a 1.0001,1.0001 0 0 0 -0.722656,-0.29297 1.0001,1.0001 0 0 0 -0.691406,0.29297 l -6,6 a 1.0001,1.0001 0 0 0 0.707031,1.70703 h 12 a 1.0001,1.0001 0 0 0 0.0332,-0.002 h 9.964844 a 1.0001,1.0001 0 0 0 0.789062,-1.60937 l -6.998047,-9.00586 a 1.0001,1.0001 0 0 0 -0.78125,-0.38477 z" baseline-shift="baseline" clip-rule="nonzero" color="#000" color-interpolation="sRGB" color-interpolation-filters="linearRGB" color-rendering="auto" direction="ltr" display="inline" dominant-baseline="auto" enable-background="accumulate" font-family="sans-serif" font-size="medium" font-stretch="normal" font-style="normal" font-variant="normal" font-weight="normal" image-rendering="auto" letter-spacing="normal" opacity="1" overflow="visible" shape-rendering="auto" text-anchor="start" text-decoration="none" text-rendering="auto" vector-effect="none" visibility="visible" word-spacing="normal" writing-mode="lr-tb" style="line-height:normal;font-variant-ligatures:normal;font-variant-position:normal;font-variant-caps:normal;font-variant-numeric:normal;font-variant-alternates:normal;font-feature-settings:normal;text-indent:0;text-align:start;text-decoration-line:none;text-decoration-style:solid;text-decoration-color:#000;text-transform:none;text-orientation:mixed;white-space:normal;shape-padding:0;isolation:auto;mix-blend-mode:normal;solid-color:#000;solid-opacity:1"/><path id="path7993" fill="url(#linearGradient8030)" fill-opacity="1" fill-rule="nonzero" stroke="none" stroke-dasharray="none" stroke-dashoffset="0" stroke-linecap="butt" stroke-linejoin="miter" stroke-miterlimit="4" stroke-opacity="1" stroke-width="2" d="m 2,290.64992 c -1.662,0 -3,1.338 -3,3 0,1.662 1.338,3 3,3 1.662,0 3,-1.338 3,-3 0,-1.662 -1.338,-3 -3,-3 z m 10.007812,7.99804 a 1.0001,1.0001 0 0 0 -0.798828,0.38477 l -4.552734,5.85938 -2.949219,-2.94922 a 1.0001,1.0001 0 0 0 -0.722656,-0.29297 1.0001,1.0001 0 0 0 -0.691406,0.29297 l -6,6 A 1.0001,1.0001 0 0 0 -3,309.64992 H 9 a 1.0001,1.0001 0 0 0 0.0332,-0.002 h 9.964844 a 1.0001,1.0001 0 0 0 0.789062,-1.60938 l -6.998047,-9.00586 a 1.0001,1.0001 0 0 0 -0.78125,-0.38476 z" baseline-shift="baseline" clip-rule="nonzero" color="#000" color-interpolation="sRGB" color-interpolation-filters="linearRGB" color-rendering="auto" direction="ltr" display="inline" dominant-baseline="auto" enable-background="accumulate" font-family="sans-serif" font-size="medium" font-stretch="normal" font-style="normal" font-variant="normal" font-weight="normal" image-rendering="auto" letter-spacing="normal" opacity="1" overflow="visible" shape-rendering="auto" text-anchor="start" text-decoration="none" text-rendering="auto" vector-effect="none" visibility="visible" word-spacing="normal" writing-mode="lr-tb" style="line-height:normal;font-variant-ligatures:normal;font-variant-position:normal;font-variant-caps:normal;font-variant-numeric:normal;font-variant-alternates:normal;font-feature-settings:normal;text-indent:0;text-align:start;text-decoration-line:none;text-decoration-style:solid;text-decoration-color:#000;text-transform:none;text-orientation:mixed;white-space:normal;shape-padding:0;isolation:auto;mix-blend-mode:normal;solid-color:#000;solid-opacity:1"/></g></g></svg>