<svg xmlns="http://www.w3.org/2000/svg" xmlns:svg="http://www.w3.org/2000/svg" xmlns:xlink="http://www.w3.org/1999/xlink" id="svg8" width="48" height="48" version="1.1" viewBox="0 0 48 48"><title id="title7895">Antu icon Theme</title><defs id="defs2"><linearGradient id="linearGradient9540" x1="78.846" x2="78.846" y1="277.156" y2="274.775" gradientTransform="matrix(3.7795276,0,0,3.7795276,-260.00003,-771.86971)" gradientUnits="userSpaceOnUse" xlink:href="#linearGradient9538"/><linearGradient id="linearGradient9538"><stop id="stop9534" offset="0" stop-color="#348ae6" stop-opacity="1"/><stop id="stop9536" offset="1" stop-color="#3a98f2" stop-opacity="1"/></linearGradient><linearGradient id="linearGradient9532" x1="82.815" x2="82.815" y1="285.358" y2="276.098" gradientTransform="matrix(3.7795276,0,0,3.7795276,-260.00003,-771.86971)" gradientUnits="userSpaceOnUse" xlink:href="#linearGradient9530"/><linearGradient id="linearGradient9530"><stop id="stop9526" offset="0" stop-color="#3c9bf3" stop-opacity="1"/><stop id="stop9528" offset="1" stop-color="#51c4f9" stop-opacity="1"/></linearGradient><linearGradient id="linearGradient5471" x1="24" x2="24" y1="35" y2="26" gradientTransform="translate(28,262.64999)" gradientUnits="userSpaceOnUse" xlink:href="#linearGradient4547"/><linearGradient id="linearGradient4547"><stop id="stop4543" offset="0" stop-color="#c3f7f9" stop-opacity="1"/><stop id="stop4545" offset="1" stop-color="#e5fafb" stop-opacity="1"/></linearGradient></defs><metadata id="metadata5"/><g id="layer1" transform="translate(0,-266.64999)"><g id="g6886" transform="translate(-28,4)"><path id="rect9183-4" fill="#3182d9" fill-opacity="1" stroke="none" stroke-opacity="1" stroke-width="1" d="m 30.000021,265.64999 h 17.975773 l 5.024224,9 h 21.000001 c 1.107968,0 1.999974,0.89197 1.999974,1.99997 v 28.99998 c 0,1.10801 -0.892006,2.00001 -2.000012,2.00001 h -43.99996 c -1.108007,0 -2.000013,-0.892 -2.000013,-2.00001 v -37.99998 c 0,-1.108 0.892006,-1.99997 2.000013,-1.99997 z" opacity="1"/><path id="rect9186-7" fill="url(#linearGradient9540)" fill-opacity="1" stroke="none" stroke-opacity="1" stroke-width="1" d="m 30.000021,266.64994 h 17.000012 l 4.99996,9.00004 h 22.000026 c 0.554003,-4e-5 0.999987,0.44602 0.999987,0.99998 v 28.99998 c 0,0.554 -0.445984,1.00002 -0.999987,1.00002 H 30.000021 c -0.554003,0 -0.999988,-0.44602 -0.999988,-1.00002 v -37.99998 c 0,-0.554 0.445985,-1.00002 0.999988,-1.00002 z" opacity="1"/><path id="rect9175-4" fill="#3182d9" fill-opacity="1" stroke="none" stroke-opacity="1" stroke-width="1" d="m 30.000021,276.65 17.000012,-4e-5 3.999988,-6 22.999998,4e-5 c 1.107968,0 1.999974,0.89201 1.999974,2.00002 v 32.99996 c 0,1.108 -0.892006,2.00001 -1.999974,2.00001 H 30.000021 c -1.108007,0 -2.000013,-0.89201 -2.000013,-2.00001 v -26.99997 c 0,-1.108 0.892006,-2.00001 2.000013,-2.00001 z" opacity="1"/><path id="rect9179-4" fill="url(#linearGradient9532)" fill-opacity="1" stroke="none" stroke-opacity="1" stroke-width="1" d="m 30.000021,277.65003 18,-4e-5 3.999972,-6.00004 22.000026,8e-5 c 0.554003,0 0.999987,0.44602 0.999987,0.99999 v 33 c 0,0.554 -0.445984,1.00002 -0.999987,1.00002 H 30.000021 c -0.554003,0 -0.999988,-0.44602 -0.999988,-1.00002 v -27.00001 c 0,-0.55396 0.445985,-0.99998 0.999988,-0.99998 z" opacity=".99"/><path id="rect5424-6" fill="#358bd9" fill-opacity="1" stroke="none" stroke-dasharray="none" stroke-linecap="round" stroke-linejoin="round" stroke-miterlimit="4" stroke-opacity="1" stroke-width="2" d="m 52.029297,282.64999 c -0.3618,-0.0103 -0.700926,0.17571 -0.886719,0.48633 l -3,5 c -0.398766,0.66632 0.08089,1.51309 0.857422,1.51367 h 1 v 2 c 0,1.108 0.892,2 2,2 1.108,0 2,-0.892 2,-2 v -2 h 1 c 0.776534,-5.8e-4 1.256188,-0.84735 0.857422,-1.51367 l -3,-5 c -0.175057,-0.29271 -0.487216,-0.47603 -0.828125,-0.48633 z m -7.029297,9 c -0.553998,0 -1,0.446 -1,1 v 9 c 0,0.554 0.446002,1 1,1 h 14 c 0.553998,0 1,-0.446 1,-1 v -9 c 0,-0.554 -0.446002,-1 -1,-1 h -4 v 3 h 2 v 5 H 47 v -5 h 2 v -3 z" opacity="1"/><path id="rect5424" fill="url(#linearGradient5471)" fill-opacity="1" stroke="none" stroke-dasharray="none" stroke-linecap="round" stroke-linejoin="round" stroke-miterlimit="4" stroke-opacity="1" stroke-width="2" d="m 52.029297,281.64999 c -0.3618,-0.0103 -0.700926,0.17571 -0.886719,0.48633 l -3,5 c -0.398766,0.66632 0.08089,1.51309 0.857422,1.51367 h 1 v 2 c 0,1.108 0.892,2 2,2 1.108,0 2,-0.892 2,-2 v -2 h 1 c 0.776534,-5.8e-4 1.256188,-0.84735 0.857422,-1.51367 l -3,-5 c -0.175057,-0.29271 -0.487216,-0.47603 -0.828125,-0.48633 z m -7.029297,9 c -0.553998,0 -1,0.446 -1,1 v 9 c 0,0.554 0.446002,1 1,1 h 14 c 0.553998,0 1,-0.446 1,-1 v -9 c 0,-0.554 -0.446002,-1 -1,-1 h -4 v 3 h 2 v 5 H 47 v -5 h 2 v -3 z" opacity="1"/></g></g></svg>