<svg xmlns="http://www.w3.org/2000/svg" xmlns:svg="http://www.w3.org/2000/svg" xmlns:xlink="http://www.w3.org/1999/xlink" id="svg8" width="48" height="48" version="1.1" viewBox="0 0 48 48"><title id="title7895">Antu icon Theme</title><defs id="defs2"><linearGradient id="linearGradient9532" x1="82.815" x2="82.815" y1="285.358" y2="276.098" gradientTransform="matrix(3.7795276,0,0,3.7795276,-328.00004,-756.86971)" gradientUnits="userSpaceOnUse" xlink:href="#linearGradient9530"/><linearGradient id="linearGradient9530"><stop id="stop9526" offset="0" stop-color="#3c9bf3" stop-opacity="1"/><stop id="stop9528" offset="1" stop-color="#51c4f9" stop-opacity="1"/></linearGradient><linearGradient id="linearGradient4549" x1="26" x2="26" y1="36" y2="27" gradientTransform="translate(-40,277.64995)" gradientUnits="userSpaceOnUse" xlink:href="#linearGradient4547"/><linearGradient id="linearGradient4547"><stop id="stop4543" offset="0" stop-color="#c3f7f9" stop-opacity="1"/><stop id="stop4545" offset="1" stop-color="#e5fafb" stop-opacity="1"/></linearGradient><linearGradient id="linearGradient9540" x1="78.846" x2="78.846" y1="277.156" y2="274.775" gradientTransform="matrix(3.7795276,0,0,3.7795276,-328.00004,-756.86971)" gradientUnits="userSpaceOnUse" xlink:href="#linearGradient9538"/><linearGradient id="linearGradient9538"><stop id="stop9534" offset="0" stop-color="#348ae6" stop-opacity="1"/><stop id="stop9536" offset="1" stop-color="#3a98f2" stop-opacity="1"/></linearGradient></defs><metadata id="metadata5"/><g id="layer1" transform="translate(0,-266.64999)"><g id="g5276" transform="translate(40.000008,-11)"><path id="rect9183-4" fill="#3182d9" fill-opacity="1" stroke="none" stroke-opacity="1" stroke-width="1" d="m -37.999987,280.64999 h 17.975773 l 5.024224,9 H 6.000011 c 1.107968,0 1.999974,0.89197 1.999974,1.99997 v 28.99998 c 0,1.10801 -0.892006,2.00001 -2.000012,2.00001 h -43.99996 c -1.108007,0 -2.000013,-0.892 -2.000013,-2.00001 v -37.99998 c 0,-1.108 0.892006,-1.99997 2.000013,-1.99997 z" opacity="1"/><path id="rect9186-7" fill="url(#linearGradient9540)" fill-opacity="1" stroke="none" stroke-opacity="1" stroke-width="1" d="m -37.999987,281.64994 h 17.000012 l 4.99996,9.00004 H 6.000011 c 0.554003,-4e-5 0.999987,0.44602 0.999987,0.99998 v 28.99998 c 0,0.554 -0.445984,1.00002 -0.999987,1.00002 h -43.999998 c -0.554003,0 -0.999988,-0.44602 -0.999988,-1.00002 v -37.99998 c 0,-0.554 0.445985,-1.00002 0.999988,-1.00002 z" opacity="1"/><path id="rect9175-4" fill="#3182d9" fill-opacity="1" stroke="none" stroke-opacity="1" stroke-width="1" d="m -37.999987,291.65 17.000012,-4e-5 3.999988,-6 22.999998,4e-5 c 1.107968,0 1.999974,0.89201 1.999974,2.00002 v 32.99996 c 0,1.108 -0.892006,2.00001 -1.999974,2.00001 H -37.999987 C -39.107994,322.64999 -40,321.75798 -40,320.64998 v -26.99997 c 0,-1.108 0.892006,-2.00001 2.000013,-2.00001 z" opacity="1"/><path id="rect9179-4" fill="url(#linearGradient9532)" fill-opacity="1" stroke="none" stroke-opacity="1" stroke-width="1" d="m -37.999987,292.65003 18,-4e-5 3.999972,-6.00004 22.000026,8e-5 c 0.554003,0 0.999987,0.44602 0.999987,0.99999 v 33 c 0,0.554 -0.445984,1.00002 -0.999987,1.00002 h -43.999998 c -0.554003,0 -0.999988,-0.44602 -0.999988,-1.00002 v -27.00001 c 0,-0.55396 0.445985,-0.99998 0.999988,-0.99998 z" opacity=".99"/><path id="rect4545-9" fill="#358bd9" fill-opacity="1" stroke="none" stroke-dasharray="none" stroke-miterlimit="4" stroke-opacity="1" stroke-width=".3" d="m -13.470702,298.64999 c -2.907459,0 -5.355603,1.89033 -6.191407,4.51366 -0.528681,-0.32012 -1.142944,-0.51367 -1.808594,-0.51367 -1.939011,0 -3.5,1.56102 -3.5,3.50003 0,0.18671 0.02634,0.36624 0.05469,0.54489 -2.278944,0.22564 -4.05469,2.11488 -4.05469,4.45508 0,2.49298 2.006986,4.50002 4.5,4.50002 h 0.5 2.099609 13.900391 c 2.770002,0 5.000001,-2.22999 5.000001,-5.00001 0,-2.4373 -1.727554,-4.45444 -4.029298,-4.90432 0.01776,-0.19653 0.02929,-0.39443 0.02929,-0.59569 0,-3.60102 -2.899006,-6.49999 -6.5,-6.49999 z" opacity="1"/><path id="rect4545" fill="url(#linearGradient4549)" fill-opacity="1" stroke="none" stroke-dasharray="none" stroke-miterlimit="4" stroke-opacity="1" stroke-width=".3" d="m -13.5,297.65 c -2.907458,0 -5.355602,1.89033 -6.191406,4.51367 -0.528681,-0.32013 -1.142944,-0.51368 -1.808594,-0.51368 -1.939011,0 -3.5,1.56098 -3.5,3.49999 0,0.18671 0.02634,0.36624 0.05469,0.54494 C -27.224254,305.92055 -29,307.80979 -29,310.15 c 0,2.49297 2.006986,4.49998 4.5,4.49998 H -24 -21.900391 -8 c 2.770001,0 5,-2.22996 5,-4.99998 0,-2.4373 -1.727553,-4.45444 -4.029297,-4.90431 0.01776,-0.19654 0.02929,-0.39443 0.02929,-0.59569 0,-3.60102 -2.899006,-6.5 -6.5,-6.5 z" opacity="1"/></g></g></svg>