<svg xmlns="http://www.w3.org/2000/svg" xmlns:svg="http://www.w3.org/2000/svg" xmlns:xlink="http://www.w3.org/1999/xlink" id="svg8" width="48" height="48" version="1.1" viewBox="0 0 12.7 12.7"><defs id="defs2"><linearGradient id="linearGradient8900" x1="-184.377" x2="-184.377" y1="175.67" y2="173.024" gradientTransform="translate(181.42857,31.749996)" gradientUnits="userSpaceOnUse" xlink:href="#linearGradient10239-6"/><linearGradient id="linearGradient10239-6"><stop id="stop10235-1" offset="0" stop-color="#e55045" stop-opacity="1"/><stop id="stop10237-2" offset="1" stop-color="#fa584b" stop-opacity="1"/></linearGradient><linearGradient id="linearGradient8908" x1="-180.408" x2="-180.408" y1="183.607" y2="174.347" gradientTransform="translate(181.42857,31.749996)" gradientUnits="userSpaceOnUse" xlink:href="#linearGradient10231-8"/><linearGradient id="linearGradient10231-8"><stop id="stop10227-9" offset="0" stop-color="#e85145" stop-opacity="1"/><stop id="stop10229-7" offset="1" stop-color="#fe756a" stop-opacity="1"/></linearGradient></defs><metadata id="metadata5"/><g id="layer1" transform="translate(0,-284.29999)"><g id="g9526" transform="translate(5.5940476,80.58452)"><path id="rect9183-4" fill="#e53737" fill-opacity="1" stroke="none" stroke-opacity="1" stroke-width=".265" d="m -5.0648776,204.50922 h 4.75608998 l 1.32932992,2.38125 h 5.5562501 c 0.29315,0 0.52916,0.236 0.52916,0.52916 v 7.67291 c 0,0.29316 -0.23601,0.52917 -0.52917,0.52917 h -11.64166 c -0.29316,0 -0.52917,-0.23601 -0.52917,-0.52917 v -10.05416 c 0,-0.29316 0.23601,-0.52916 0.52917,-0.52916 z" opacity="1"/><path id="rect9186-7" fill="url(#linearGradient8900)" fill-opacity="1" stroke="none" stroke-opacity="1" stroke-width=".265" d="m -5.0648776,204.77379 h 4.49791988 l 1.3229101,2.38126 H 6.5767924 c 0.14658,-10e-6 0.26458,0.11801 0.26458,0.26458 v 7.67291 c 0,0.14658 -0.118,0.26459 -0.26458,0.26459 h -11.64167 c -0.14658,0 -0.26458,-0.11801 -0.26458,-0.26459 v -10.05416 c 0,-0.14658 0.118,-0.26459 0.26458,-0.26459 z" opacity="1"/><path id="rect9175-4" fill="#e53737" fill-opacity="1" stroke="none" stroke-opacity="1" stroke-width=".265" d="m -5.0648776,207.41964 4.49791988,-10e-6 1.0583302,-1.5875 6.08541992,1e-5 c 0.29315,0 0.52916,0.23601 0.52916,0.52917 v 8.73124 c 0,0.29316 -0.23601,0.52917 -0.52916,0.52917 h -11.64167 c -0.29316,0 -0.52917,-0.23601 -0.52917,-0.52917 v -7.14374 c 0,-0.29316 0.23601,-0.52917 0.52917,-0.52917 z" opacity="1"/><path id="rect9179-4" fill="url(#linearGradient8908)" fill-opacity="1" stroke="none" stroke-opacity="1" stroke-width=".265" d="m -5.0648776,207.68423 4.76250008,-1e-5 1.0583299,-1.58751 5.82084002,2e-5 c 0.14658,0 0.26458,0.11801 0.26458,0.26458 v 8.73125 c 0,0.14658 -0.118,0.26459 -0.26458,0.26459 h -11.64167 c -0.14658,0 -0.26458,-0.11801 -0.26458,-0.26459 v -7.14375 c 0,-0.14657 0.118,-0.26458 0.26458,-0.26458 z" opacity=".99"/></g></g></svg>