<svg xmlns="http://www.w3.org/2000/svg" xmlns:svg="http://www.w3.org/2000/svg" xmlns:xlink="http://www.w3.org/1999/xlink" id="svg8" width="48" height="48" version="1.1" viewBox="0 0 48 48"><title id="title7895">Antu icon Theme</title><defs id="defs2"><linearGradient id="linearGradient9540" x1="78.846" x2="78.846" y1="277.156" y2="274.775" gradientTransform="matrix(3.7795276,0,0,3.7795276,-330.00003,-756.86971)" gradientUnits="userSpaceOnUse" xlink:href="#linearGradient9538"/><linearGradient id="linearGradient9538"><stop id="stop9534" offset="0" stop-color="#348ae6" stop-opacity="1"/><stop id="stop9536" offset="1" stop-color="#3a98f2" stop-opacity="1"/></linearGradient><linearGradient id="linearGradient9532" x1="82.815" x2="82.815" y1="285.358" y2="276.098" gradientTransform="matrix(3.7795276,0,0,3.7795276,-330.00003,-756.86971)" gradientUnits="userSpaceOnUse" xlink:href="#linearGradient9530"/><linearGradient id="linearGradient9530"><stop id="stop9526" offset="0" stop-color="#3c9bf3" stop-opacity="1"/><stop id="stop9528" offset="1" stop-color="#51c4f9" stop-opacity="1"/></linearGradient><linearGradient id="linearGradient4563" x1="24" x2="24" y1="303.65" y2="292.65" gradientTransform="translate(-42,12.00003)" gradientUnits="userSpaceOnUse" xlink:href="#linearGradient4547"/><linearGradient id="linearGradient4547"><stop id="stop4543" offset="0" stop-color="#c3f7f9" stop-opacity="1"/><stop id="stop4545" offset="1" stop-color="#e5fafb" stop-opacity="1"/></linearGradient></defs><metadata id="metadata5"/><g id="layer1" transform="translate(0,-266.64999)"><g id="g5235" transform="translate(42,-11)"><path id="rect9183-4" fill="#3182d9" fill-opacity="1" stroke="none" stroke-opacity="1" stroke-width="1" d="m -39.999979,280.64999 h 17.975773 l 5.024224,9 H 4.000019 c 1.107968,0 1.999974,0.89197 1.999974,1.99997 v 28.99998 c 0,1.10801 -0.892006,2.00001 -2.000012,2.00001 h -43.99996 c -1.108007,0 -2.000013,-0.892 -2.000013,-2.00001 v -37.99998 c 0,-1.108 0.892006,-1.99997 2.000013,-1.99997 z" opacity="1"/><path id="rect9186-7" fill="url(#linearGradient9540)" fill-opacity="1" stroke="none" stroke-opacity="1" stroke-width="1" d="m -39.999979,281.64994 h 17.000012 l 4.99996,9.00004 H 4.000019 c 0.554003,-4e-5 0.999987,0.44602 0.999987,0.99998 v 28.99998 c 0,0.554 -0.445984,1.00002 -0.999987,1.00002 h -43.999998 c -0.554003,0 -0.999988,-0.44602 -0.999988,-1.00002 v -37.99998 c 0,-0.554 0.445985,-1.00002 0.999988,-1.00002 z" opacity="1"/><path id="rect9175-4" fill="#3182d9" fill-opacity="1" stroke="none" stroke-opacity="1" stroke-width="1" d="m -39.999979,291.65 17.000012,-4e-5 3.999988,-6 22.999998,4e-5 c 1.107968,0 1.999974,0.89201 1.999974,2.00002 v 32.99996 c 0,1.108 -0.892006,2.00001 -1.999974,2.00001 h -43.999998 c -1.108007,0 -2.000013,-0.89201 -2.000013,-2.00001 v -26.99997 c 0,-1.108 0.892006,-2.00001 2.000013,-2.00001 z" opacity="1"/><path id="rect9179-4" fill="url(#linearGradient9532)" fill-opacity="1" stroke="none" stroke-opacity="1" stroke-width="1" d="m -39.999979,292.65003 18,-4e-5 3.999972,-6.00004 22.000026,8e-5 c 0.554003,0 0.999987,0.44602 0.999987,0.99999 v 33 c 0,0.554 -0.445984,1.00002 -0.999987,1.00002 h -43.999998 c -0.554003,0 -0.999988,-0.44602 -0.999988,-1.00002 v -27.00001 c 0,-0.55396 0.445985,-0.99998 0.999988,-0.99998 z" opacity=".99"/><path id="rect6007-7-5" fill="#358bd9" fill-opacity="1" stroke="none" stroke-dasharray="none" stroke-linecap="round" stroke-linejoin="bevel" stroke-miterlimit="4" stroke-opacity="1" stroke-width="1" d="m -27,298.64999 c -0.554,0 -1,0.44599 -1,0.99999 v 15 c 0,0.554 0.446,1.00002 1,1.00002 h 4 v 0.99999 H -21.90039 -14 -13 V 315.65 h 4 c 0.554,0 1,-0.44602 1,-1.00002 v -15 c 0,-0.554 -0.446,-0.99999 -1,-0.99999 z m 2,2.99996 h 14 v 11.00002 h -3 v 1.00002 h -8 v -1.00002 h -3 z m 1,1.00003 v 9 h 3 V 312.65 h 6 v -1.00002 h 3 v -9 z m 2,2.00001 h 2 v 3 h -2 z m 3,0 h 2 v 3 h -2 z m 3,0 h 2 v 3 h -2 z" opacity="1"/><path id="rect6007-7-5-6" fill="url(#linearGradient4563)" fill-opacity="1" stroke="none" stroke-dasharray="none" stroke-linecap="round" stroke-linejoin="bevel" stroke-miterlimit="4" stroke-opacity="1" stroke-width="1" d="m -27,297.65005 c -0.554,0 -1,0.44598 -1,0.99999 v 15 c 0,0.554 0.446,1.00002 1,1.00002 h 4 v 0.99999 h 1.09961 7.90039 1 v -0.99999 h 4 c 0.554,0 1,-0.44602 1,-1.00002 v -15 c 0,-0.55401 -0.446,-0.99999 -1,-0.99999 z m 2,2.99996 h 14 v 11.00001 h -3 v 1.00003 h -8 v -1.00003 h -3 z m 1,1.00003 v 9 h 3 v 1.00002 h 6 v -1.00002 h 3 v -9 z m 2,2.00001 h 2 v 3 h -2 z m 3,0 h 2 v 3 h -2 z m 3,0 h 2 v 3 h -2 z" opacity="1"/></g></g></svg>