<svg xmlns="http://www.w3.org/2000/svg" xmlns:svg="http://www.w3.org/2000/svg" xmlns:xlink="http://www.w3.org/1999/xlink" id="svg8" width="48" height="48" version="1.1" viewBox="0 0 48 48"><title id="title7895">Antu icon Theme</title><defs id="defs2"><linearGradient id="linearGradient4836" x1="2102.834" x2="2102.834" y1="-4960.827" y2="-5114.236" gradientTransform="matrix(0.23466667,0,0,0.23466667,-469.46491,1472.7907)" gradientUnits="userSpaceOnUse" xlink:href="#linearGradient10231"/><linearGradient id="linearGradient10231"><stop id="stop10227" offset="0" stop-color="#3e9ff4" stop-opacity="1"/><stop id="stop10229" offset="1" stop-color="#50c2f9" stop-opacity="1"/></linearGradient><linearGradient id="linearGradient7801" x1="1781.25" x2="1781.25" y1="-5160.061" y2="-5232.504" gradientTransform="matrix(0.23466667,0,0,0.23466667,-394.00002,1509.5444)" gradientUnits="userSpaceOnUse" xlink:href="#linearGradient4547"/><linearGradient id="linearGradient4547"><stop id="stop4543" offset="0" stop-color="#c3f7f9" stop-opacity="1"/><stop id="stop4545" offset="1" stop-color="#e5fafb" stop-opacity="1"/></linearGradient></defs><metadata id="metadata5"/><g id="layer1" transform="translate(0,-266.64999)"><g id="g1535" transform="translate(35,-15.000005)"><g id="g911" transform="translate(-35,15)"><path id="rect4544" fill="#3182d9" fill-opacity="1" stroke="none" stroke-dasharray="none" stroke-miterlimit="4" stroke-opacity="1" stroke-width=".3" d="m 23.999976,268.65002 h 4.7e-5 C 36.187999,268.65002 46,278.462 46,290.65 c 0,12.18797 -9.812001,21.99997 -21.999977,21.99997 h -4.7e-5 c -12.188,0 -21.999977,-9.812 -21.999977,-21.99997 0,-12.188 9.811977,-21.99998 21.999977,-21.99998 z" opacity="1"/><path id="rect4544-5" fill="url(#linearGradient4836)" fill-opacity="1" stroke="none" stroke-dasharray="none" stroke-miterlimit="4" stroke-opacity="1" stroke-width=".3" d="m 23.999976,269.64998 h 2.3e-5 c 11.633999,0 20.999992,9.36599 20.999992,20.99999 0,11.634 -9.365993,21 -20.999992,21 h -2.3e-5 c -11.633999,0 -20.999992,-9.366 -20.999992,-21 0,-11.634 9.365993,-20.99999 20.999992,-20.99999 z" opacity="1"/><path id="rect4666-2" fill="#358bd9" fill-opacity="1" stroke="none" stroke-dasharray="none" stroke-miterlimit="4" stroke-opacity="1" stroke-width=".3" d="m 16,280.64999 c -1.662003,0 -3,1.338 -3,3 0,1.66201 1.337997,3 3,3 1.662003,0 3,-1.33799 3,-3 0,-1.662 -1.337997,-3 -3,-3 z m 8,0 c -1.662004,0 -3,1.338 -3,3 0,1.66201 1.337996,3 3,3 1.662003,0 3,-1.33799 3,-3 0,-1.662 -1.337997,-3 -3,-3 z m 8,0 c -1.662003,0 -3,1.338 -3,3 0,1.66201 1.337997,3 3,3 1.662003,0 3,-1.33799 3,-3 0,-1.662 -1.337997,-3 -3,-3 z m -16,8 c -1.662003,0 -3,1.338 -3,3 0,1.66198 1.337997,3 3,3 1.662003,0 3,-1.33802 3,-3 0,-1.662 -1.337997,-3 -3,-3 z m 8,0 c -1.662004,0 -3,1.338 -3,3 0,1.66198 1.337996,3 3,3 1.662003,0 3,-1.33802 3,-3 0,-1.662 -1.337997,-3 -3,-3 z m 8,0 c -1.662003,0 -3,1.338 -3,3 0,1.66198 1.337997,3 3,3 1.662003,0 3,-1.33802 3,-3 0,-1.662 -1.337997,-3 -3,-3 z m -16,8 c -1.662003,0 -3,1.33798 -3,3 0,1.66199 1.337997,3 3,3 1.662003,0 3,-1.33801 3,-3 0,-1.66202 -1.337997,-3 -3,-3 z m 8,0 c -1.662004,0 -3,1.33798 -3,3 0,1.66199 1.337996,3 3,3 1.662003,0 3,-1.33801 3,-3 0,-1.66202 -1.337997,-3 -3,-3 z m 8,0 c -1.662003,0 -3,1.33798 -3,3 0,1.66199 1.337997,3 3,3 1.662003,0 3,-1.33801 3,-3 0,-1.66202 -1.337997,-3 -3,-3 z" opacity="1"/><path id="rect4666" fill="url(#linearGradient7801)" fill-opacity="1" stroke="none" stroke-dasharray="none" stroke-miterlimit="4" stroke-opacity="1" stroke-width=".3" d="m 16,279.64999 c -1.662003,0 -3,1.338 -3,3 0,1.66201 1.337997,3 3,3 1.662003,0 3,-1.33799 3,-3 0,-1.662 -1.337997,-3 -3,-3 z m 8,0 c -1.662004,0 -3,1.338 -3,3 0,1.66201 1.337996,3 3,3 1.662003,0 3,-1.33799 3,-3 0,-1.662 -1.337997,-3 -3,-3 z m 8,0 c -1.662003,0 -3,1.338 -3,3 0,1.66201 1.337997,3 3,3 1.662003,0 3,-1.33799 3,-3 0,-1.662 -1.337997,-3 -3,-3 z m -16,8 c -1.662003,0 -3,1.338 -3,3 0,1.66198 1.337997,3 3,3 1.662003,0 3,-1.33802 3,-3 0,-1.662 -1.337997,-3 -3,-3 z m 8,0 c -1.662004,0 -3,1.338 -3,3 0,1.66198 1.337996,3 3,3 1.662003,0 3,-1.33802 3,-3 0,-1.662 -1.337997,-3 -3,-3 z m 8,0 c -1.662003,0 -3,1.338 -3,3 0,1.66198 1.337997,3 3,3 1.662003,0 3,-1.33802 3,-3 0,-1.662 -1.337997,-3 -3,-3 z m -16,8 c -1.662003,0 -3,1.33799 -3,3 0,1.662 1.337997,3 3,3 1.662003,0 3,-1.338 3,-3 0,-1.66201 -1.337997,-3 -3,-3 z m 8,0 c -1.662004,0 -3,1.33799 -3,3 0,1.662 1.337996,3 3,3 1.662003,0 3,-1.338 3,-3 0,-1.66201 -1.337997,-3 -3,-3 z m 8,0 c -1.662003,0 -3,1.33799 -3,3 0,1.662 1.337997,3 3,3 1.662003,0 3,-1.338 3,-3 0,-1.66201 -1.337997,-3 -3,-3 z" opacity="1"/></g></g></g></svg>