<svg xmlns="http://www.w3.org/2000/svg" xmlns:svg="http://www.w3.org/2000/svg" xmlns:xlink="http://www.w3.org/1999/xlink" id="svg8" width="48" height="48" version="1.1" viewBox="0 0 48 48"><title id="title7895">Antu icon Theme</title><defs id="defs2"><linearGradient id="linearGradient9532-3" x1="82.815" x2="82.815" y1="284.3" y2="275.304" gradientTransform="matrix(3.7795276,0,0,3.7795276,-323.07143,-763.8697)" gradientUnits="userSpaceOnUse" xlink:href="#linearGradient9530-0"/><linearGradient id="linearGradient9530-0"><stop id="stop9526-7" offset="0" stop-color="#3d9df3" stop-opacity="1"/><stop id="stop9528-8" offset="1" stop-color="#50c2f9" stop-opacity="1"/></linearGradient><linearGradient id="linearGradient7718" x1="-12.681" x2="-12.662" y1="273.565" y2="272.772" gradientTransform="matrix(3.7795276,0,0,3.7795276,31.785714,-719.29825)" gradientUnits="userSpaceOnUse" xlink:href="#linearGradient4547"/><linearGradient id="linearGradient4547"><stop id="stop4543" offset="0" stop-color="#c3f7f9" stop-opacity="1"/><stop id="stop4545" offset="1" stop-color="#e5fafb" stop-opacity="1"/></linearGradient></defs><metadata id="metadata5"/><g id="layer1" transform="translate(0,-266.64999)"><g id="g8335" transform="translate(35.071428,-3.99999)"><path id="rect9183-4-4" fill="#3182d9" fill-opacity="1" stroke="none" stroke-opacity="1" stroke-width="1" d="m -33.071417,273.65 h 17.975774 5.024239 21.000002 c 1.107968,0 1.999975,0.89197 1.999975,1.99997 v 37.99998 c 0,1.10801 -0.892007,2.00001 -2.000013,2.00001 h -43.999977 c -1.108006,0 -2.000012,-0.892 -2.000012,-2.00001 v -37.99998 c 0,-1.108 0.892006,-1.99997 2.000012,-1.99997 z" opacity="1"/><path id="rect9179-4-3" fill="url(#linearGradient9532-3)" fill-opacity="1" stroke="none" stroke-opacity="1" stroke-width="1" d="m -33.071424,274.64999 c -0.554004,-0.003 -0.999999,0.44602 -0.999999,0.99998 v 32.00002 h 46.000001 v -32.00002 c 0,-0.55396 -0.446,-0.99998 -1.000003,-0.99998 h -22 -3.999999 z" opacity=".99"/><path id="rect4523" fill="url(#linearGradient7718)" fill-opacity="1" stroke="none" stroke-dasharray="none" stroke-miterlimit="4" stroke-opacity="1" stroke-width=".3" d="m -34.071427,308.64997 v 2 2 1 c 0,0.554 0.446001,1 1,1 h 44.000001 c 0.554003,0 1,-0.446 1,-1 v -1 -2 -2 h -1 -44.000001 z m 2,1 h 2 v 2 h 2 v 2 h -2 v -2 h -2 z m 37.0000005,1 h 5 v 2 h -5 z" opacity=".99"/></g></g></svg>