<svg xmlns="http://www.w3.org/2000/svg" xmlns:svg="http://www.w3.org/2000/svg" xmlns:xlink="http://www.w3.org/1999/xlink" id="svg8" width="128" height="128" version="1.1" viewBox="0 0 128 128"><title id="title7895">Antu icon Theme</title><defs id="defs2"><linearGradient id="linearGradient6795" x1="-6.911" x2="-6.911" y1="272.428" y2="265.813" gradientTransform="matrix(3.7795275,0,0,3.7795275,-12.879446,-801.99771)" gradientUnits="userSpaceOnUse" xlink:href="#linearGradient6793"/><linearGradient id="linearGradient6793"><stop id="stop6789" offset="0" stop-color="#3489e5" stop-opacity="1"/><stop id="stop6791" offset="1" stop-color="#3b99f3" stop-opacity="1"/></linearGradient><linearGradient id="linearGradient4532" x1="15.298" x2="15.298" y1="304.603" y2="279.203" gradientTransform="matrix(3.7795275,0,0,3.7795275,-56.821079,-837.60561)" gradientUnits="userSpaceOnUse" xlink:href="#linearGradient4530"/><linearGradient id="linearGradient4530"><stop id="stop4526" offset="0" stop-color="#3c99f3" stop-opacity="1"/><stop id="stop4528" offset="1" stop-color="#52c6f9" stop-opacity="1"/></linearGradient><linearGradient id="linearGradient4536" x1="84" x2="84" y1="268.65" y2="238.65" gradientTransform="translate(-50.000001,-8.00006)" gradientUnits="userSpaceOnUse" xlink:href="#linearGradient4631"/><linearGradient id="linearGradient4631"><stop id="stop4627" offset="0" stop-color="#c2f0f2" stop-opacity="1"/><stop id="stop4629" offset="1" stop-color="#f2feff" stop-opacity="1"/></linearGradient></defs><metadata id="metadata5"/><g id="layer1" transform="translate(0,-186.64999)"><g id="g5158" transform="translate(64,-7.999995)"><path id="rect4937-8-6" fill="#3182d9" fill-opacity="1" stroke="none" stroke-dasharray="none" stroke-dashoffset="0" stroke-linecap="round" stroke-linejoin="round" stroke-miterlimit="4" stroke-opacity="1" stroke-width=".756" d="m -60.000017,202.65003 42.999986,-4e-5 11.9999965,13.99997 h 3.500001 c 2.216009,0 4.000026,1.78402 4.000026,3.99999 v 14.00001 c 0,2.21602 -1.784017,4.00003 -4.000026,4.00003 H -59.999979 c -2.216013,0 -4.000025,-1.78401 -4.000025,-4.00003 v -27.99994 c 0,-2.21598 1.784012,-3.99999 3.999987,-3.99999 z" opacity="1" paint-order="normal" vector-effect="none"/><path id="rect9379-4-2" fill="url(#linearGradient6795)" fill-opacity="1" stroke="none" stroke-opacity="1" stroke-width="1" d="m -60.000093,203.65002 h 41.999999 L -4.0000775,219.65 -18.000094,233.64998 h -41.999999 c -1.662009,0 -2.999999,-1.33799 -2.999999,-3 v -23.99996 c 0,-1.66201 1.33799,-3 2.999999,-3 z" opacity="1"/><path id="rect4931-3-6" fill="#3182d9" fill-opacity="1" stroke="none" stroke-dasharray="none" stroke-dashoffset="0" stroke-linecap="round" stroke-linejoin="round" stroke-miterlimit="4" stroke-opacity="1" stroke-width=".756" d="m -62.962184,229.64999 h 45.962153 L -5.0000345,216.65 H 60.000025 c 2.21596,0 3.99998,1.78401 3.99998,4.00003 v 89.99996 c 0,2.21597 -1.78402,3.99999 -3.99998,3.99999 H -59.999979 c -2.216013,0 -4.001121,-1.78402 -4.000025,-3.99999 l 0.0378,-76.99998 c 0.0011,-2.21601 1.783975,-4.00157 3.999987,-4.00002 z" opacity="1" paint-order="normal" vector-effect="none"/><path id="rect9376-6-1" fill="url(#linearGradient4532)" fill-opacity="1" stroke="none" stroke-opacity="1" stroke-width="1" d="m -60.000093,230.64998 h 44.000008 L -4.0000775,217.64999 H 59.999905 c 1.66201,0 3,1.33799 3,3 v 90 c 0,1.66201 -1.33799,3 -3,3 H -60.000093 c -1.662009,0 -2.999999,-1.33799 -2.999999,-3 v -77.00001 c 0,-1.66201 1.33799,-3.00386 2.999999,-3 z" opacity="1"/><path id="Triangle-1" fill="#358bd9" fill-opacity="1" fill-rule="nonzero" stroke="none" stroke-dasharray="none" stroke-dashoffset="0" stroke-linecap="butt" stroke-linejoin="miter" stroke-miterlimit="4" stroke-opacity="1" stroke-width="2" d="m 24,220.64999 c -1.662,0 -3,1.33797 -3,3 v 24 11 10 l 13,-7 13.000002,7 v -21 -24 c 0,-1.66203 -1.338,-3 -3.000002,-3 z" baseline-shift="baseline" clip-rule="nonzero" color="#000" color-interpolation="sRGB" color-interpolation-filters="linearRGB" color-rendering="auto" direction="ltr" display="inline" dominant-baseline="auto" enable-background="accumulate" font-family="sans-serif" font-size="medium" font-stretch="normal" font-style="normal" font-variant="normal" font-weight="normal" image-rendering="auto" letter-spacing="normal" opacity="1" overflow="visible" shape-rendering="auto" text-anchor="start" text-decoration="none" text-rendering="auto" vector-effect="none" visibility="visible" word-spacing="normal" writing-mode="lr-tb" style="line-height:normal;font-variant-ligatures:normal;font-variant-position:normal;font-variant-caps:normal;font-variant-numeric:normal;font-variant-alternates:normal;font-feature-settings:normal;text-indent:0;text-align:start;text-decoration-line:none;text-decoration-style:solid;text-decoration-color:#000;text-transform:none;text-orientation:mixed;white-space:normal;shape-padding:0;isolation:auto;mix-blend-mode:normal;solid-color:#000;solid-opacity:1"/><path id="Triangle-1-3" fill="url(#linearGradient4536)" fill-opacity="1" fill-rule="nonzero" stroke="none" stroke-dasharray="none" stroke-dashoffset="0" stroke-linecap="butt" stroke-linejoin="miter" stroke-miterlimit="4" stroke-opacity="1" stroke-width="2" d="m 24,219.64999 c -1.662,0 -3,1.33797 -3,3 v 24 11 10 l 13,-7 13.000002,7 v -21 -24 c 0,-1.66203 -1.338,-3 -3.000002,-3 z" baseline-shift="baseline" clip-rule="nonzero" color="#000" color-interpolation="sRGB" color-interpolation-filters="linearRGB" color-rendering="auto" direction="ltr" display="inline" dominant-baseline="auto" enable-background="accumulate" font-family="sans-serif" font-size="medium" font-stretch="normal" font-style="normal" font-variant="normal" font-weight="normal" image-rendering="auto" letter-spacing="normal" opacity="1" overflow="visible" shape-rendering="auto" text-anchor="start" text-decoration="none" text-rendering="auto" vector-effect="none" visibility="visible" word-spacing="normal" writing-mode="lr-tb" style="line-height:normal;font-variant-ligatures:normal;font-variant-position:normal;font-variant-caps:normal;font-variant-numeric:normal;font-variant-alternates:normal;font-feature-settings:normal;text-indent:0;text-align:start;text-decoration-line:none;text-decoration-style:solid;text-decoration-color:#000;text-transform:none;text-orientation:mixed;white-space:normal;shape-padding:0;isolation:auto;mix-blend-mode:normal;solid-color:#000;solid-opacity:1"/></g></g></svg>