<svg xmlns="http://www.w3.org/2000/svg" xmlns:svg="http://www.w3.org/2000/svg" xmlns:xlink="http://www.w3.org/1999/xlink" id="svg8" width="128" height="128" version="1.1" viewBox="0 0 33.867 33.867"><defs id="defs2"><linearGradient id="linearGradient4536" x1="16.621" x2="16.621" y1="304.338" y2="279.203" gradientTransform="translate(2.8731475,-0.20043888)" gradientUnits="userSpaceOnUse" xlink:href="#linearGradient10231-8"/><linearGradient id="linearGradient10231-8"><stop id="stop10227-9" offset="0" stop-color="#f25548" stop-opacity="1"/><stop id="stop10229-7" offset="1" stop-color="#fe756a" stop-opacity="1"/></linearGradient><linearGradient id="linearGradient4544" x1="3.392" x2="3.392" y1="283.172" y2="275.234" gradientTransform="translate(2.8731475,-0.20043888)" gradientUnits="userSpaceOnUse" xlink:href="#linearGradient10239-6"/><linearGradient id="linearGradient10239-6"><stop id="stop10235-1" offset="0" stop-color="#e55045" stop-opacity="1"/><stop id="stop10237-2" offset="1" stop-color="#fa584b" stop-opacity="1"/></linearGradient></defs><metadata id="metadata5"/><g id="layer1" transform="translate(0,-263.13332)"><g id="g5162" transform="translate(-0.9737247,-9.7838715)"><path id="rect4937-8-6" fill="#e53737" fill-opacity="1" stroke="none" stroke-dasharray="none" stroke-dashoffset="0" stroke-linecap="round" stroke-linejoin="round" stroke-miterlimit="4" stroke-opacity="1" stroke-width=".2" d="m 2.0320535,275.03387 11.3770795,-10e-6 3.174999,3.70416 h 0.926042 c 0.586319,0 1.05834,0.47202 1.05834,1.05833 v 3.70417 c 0,0.58632 -0.472021,1.05834 -1.05834,1.05834 H 2.0320635 c -0.58632,0 -1.05833997,-0.47202 -1.05833997,-1.05834 v -7.40832 c 0,-0.58631 0.47201997,-1.05833 1.05832997,-1.05833 z" opacity="1" paint-order="normal" vector-effect="none"/><path id="rect9379-4-2" fill="url(#linearGradient4544)" fill-opacity="1" stroke="none" stroke-opacity="1" stroke-width=".265" d="M 2.0320335,275.29845 H 13.144533 l 3.704171,4.23333 -3.704171,3.70416 H 2.0320335 c -0.43974,0 -0.79375,-0.35401 -0.79375,-0.79375 v -6.34999 c 0,-0.43974 0.35401,-0.79375 0.79375,-0.79375 z" opacity="1"/><path id="rect4931-3-6" fill="#e53737" fill-opacity="1" stroke="none" stroke-dasharray="none" stroke-dashoffset="0" stroke-linecap="round" stroke-linejoin="round" stroke-miterlimit="4" stroke-opacity="1" stroke-width=".2" d="M 1.2483135,282.17761 H 13.409133 l 3.174999,-3.43958 h 17.197933 c 0.586306,0 1.058328,0.47202 1.058328,1.05834 v 23.81249 c 0,0.58631 -0.472022,1.05833 -1.058328,1.05833 H 2.0320635 c -0.58632,0 -1.05862997,-0.47202 -1.05833997,-1.05833 l 0.01,-20.37291 c 2.9e-4,-0.58632 0.47200997,-1.05875 1.05832997,-1.05834 z" opacity="1" paint-order="normal" vector-effect="none"/><path id="rect9376-6-1" fill="url(#linearGradient4536)" fill-opacity="1" stroke="none" stroke-opacity="1" stroke-width=".265" d="M 2.0320335,282.44219 H 13.673702 l 3.175002,-3.43958 h 16.933329 c 0.43974,0 0.79375,0.35401 0.79375,0.79375 v 23.8125 c 0,0.43974 -0.35401,0.79375 -0.79375,0.79375 H 2.0320335 c -0.43974,0 -0.79375,-0.35401 -0.79375,-0.79375 v -20.37292 c 0,-0.43974 0.35401,-0.79477 0.79375,-0.79375 z" opacity="1"/></g></g></svg>