<svg xmlns="http://www.w3.org/2000/svg" xmlns:svg="http://www.w3.org/2000/svg" xmlns:xlink="http://www.w3.org/1999/xlink" id="svg8" width="128" height="128" version="1.1" viewBox="0 0 128 128"><title id="title7895">Antu icon Theme</title><defs id="defs2"><linearGradient id="linearGradient6795" x1="-6.911" x2="-6.911" y1="272.428" y2="265.813" gradientTransform="matrix(3.7795275,0,0,3.7795275,19.120556,-833.99771)" gradientUnits="userSpaceOnUse" xlink:href="#linearGradient6793"/><linearGradient id="linearGradient6793"><stop id="stop6789" offset="0" stop-color="#3489e5" stop-opacity="1"/><stop id="stop6791" offset="1" stop-color="#3b99f3" stop-opacity="1"/></linearGradient><linearGradient id="linearGradient4532" x1="15.298" x2="15.298" y1="304.603" y2="279.203" gradientTransform="matrix(3.7795275,0,0,3.7795275,-24.820983,-869.60561)" gradientUnits="userSpaceOnUse" xlink:href="#linearGradient4530"/><linearGradient id="linearGradient4530"><stop id="stop4526" offset="0" stop-color="#3c99f3" stop-opacity="1"/><stop id="stop4528" offset="1" stop-color="#52c6f9" stop-opacity="1"/></linearGradient><linearGradient id="linearGradient4528" x1="48" x2="48" y1="270.65" y2="246.65" gradientTransform="translate(-16,-13.00001)" gradientUnits="userSpaceOnUse" xlink:href="#linearGradient4627"/><linearGradient id="linearGradient4627"><stop id="stop4623" offset="0" stop-color="#c2f7f9" stop-opacity="1"/><stop id="stop4625" offset="1" stop-color="#e5fafb" stop-opacity="1"/></linearGradient></defs><metadata id="metadata5"/><g id="layer1" transform="translate(0,-186.64999)"><g id="g5168" transform="translate(31.999998,24.000005)"><path id="rect4937-8-6" fill="#3182d9" fill-opacity="1" stroke="none" stroke-dasharray="none" stroke-dashoffset="0" stroke-linecap="round" stroke-linejoin="round" stroke-miterlimit="4" stroke-opacity="1" stroke-width=".756" d="m -28.000015,170.65003 42.999986,-4e-5 11.999996,13.99997 h 3.500001 c 2.216009,0 4.000026,1.78402 4.000026,3.99999 v 14.00001 c 0,2.21602 -1.784017,4.00003 -4.000026,4.00003 h -58.499945 c -2.216013,0 -4.000025,-1.78401 -4.000025,-4.00003 v -27.99994 c 0,-2.21598 1.784012,-3.99999 3.999987,-3.99999 z" opacity="1" paint-order="normal" vector-effect="none"/><path id="rect9379-4-2" fill="url(#linearGradient6795)" fill-opacity="1" stroke="none" stroke-opacity="1" stroke-width="1" d="M -28.000091,171.65002 H 13.999908 L 27.999924,187.65 13.999908,201.64998 h -41.999999 c -1.662009,0 -2.999999,-1.33799 -2.999999,-3 v -23.99996 c 0,-1.66201 1.33799,-3 2.999999,-3 z" opacity="1"/><path id="rect4931-3-6" fill="#3182d9" fill-opacity="1" stroke="none" stroke-dasharray="none" stroke-dashoffset="0" stroke-linecap="round" stroke-linejoin="round" stroke-miterlimit="4" stroke-opacity="1" stroke-width=".756" d="M -30.962182,197.64999 H 14.999971 L 26.999967,184.65 h 65.00006 c 2.21596,0 3.99998,1.78401 3.99998,4.00003 v 89.99996 c 0,2.21597 -1.78402,3.99999 -3.99998,3.99999 H -27.999977 c -2.216013,0 -4.001121,-1.78402 -4.000025,-3.99999 l 0.0378,-76.99998 c 0.0011,-2.21601 1.783975,-4.00157 3.999987,-4.00002 z" opacity="1" paint-order="normal" vector-effect="none"/><path id="rect9376-6-1" fill="url(#linearGradient4532)" fill-opacity="1" stroke="none" stroke-opacity="1" stroke-width="1" d="m -27.999996,198.64998 h 44.000007 l 12.000008,-12.99999 h 63.999978 c 1.66201,0 3,1.33799 3,3 v 90 c 0,1.66201 -1.33799,3 -3,3 H -27.999996 c -1.66201,0 -3,-1.33799 -3,-3 v -77.00001 c 0,-1.66201 1.33799,-3.00386 3,-3 z" opacity="1"/><path id="rect7967" fill="#358bd9" fill-opacity="1" stroke="none" stroke-dasharray="none" stroke-linecap="round" stroke-linejoin="round" stroke-miterlimit="4" stroke-opacity="1" stroke-width="2" d="m 10,217.64998 c -1.1079995,0 -1.9999995,0.89201 -1.9999995,2 v 37 c 0,1.108 0.892133,1.98283 1.9999995,2 l 8.000003,-3e-5 v 2 c 0,1.10801 0.892,2 2,2 h 24 c 1.108,0 1.963088,-0.8926 2,-2 v -2 L 54,258.64998 c 1.108,10e-6 2,-0.892 2,-2 v -37 c 0,-1.108 -0.892,-2 -2,-2 z m 4,6 h 36 v 30 l -9.999997,-3e-5 v 3 h -16 v -3 L 14,253.64998 Z m 2.000003,1.99997 -3e-6,26.00003 9.999997,3e-5 3e-6,2.99997 h 12 l -3e-6,-2.99997 10.000003,-3e-5 3e-6,-26.00003 z m 5,6 h 6 v 8 h -6 z m 8,0 h 6 v 8 h -6 z m 8,0 h 6 v 8 h -6 z" opacity="1"/><path id="rect7967-3" fill="url(#linearGradient4528)" fill-opacity="1" stroke="none" stroke-dasharray="none" stroke-linecap="round" stroke-linejoin="round" stroke-miterlimit="4" stroke-opacity="1" stroke-width="2" d="m 10,216.64998 c -1.1079995,0 -1.9999995,0.89201 -1.9999995,2 v 37 c 0,1.108 0.892133,1.98283 1.9999995,2 l 8.000003,-4e-5 v 2 c 0,1.10802 0.892,2 2,2 h 24 c 1.108,0 1.963088,-0.89259 2,-2 v -2 L 54,257.64998 c 1.108,0 2,-0.892 2,-2 v -37 c 0,-1.10801 -0.892,-2 -2,-2 z m 4,6 h 36 v 30 l -9.999997,-4e-5 v 3 h -16 v -3 L 14,252.64998 Z m 2.000003,1.99996 -3e-6,26.00003 9.999997,4e-5 3e-6,2.99998 h 12 l -3e-6,-2.99998 10.000003,-4e-5 3e-6,-26.00003 z m 5,6 h 6 v 8 h -6 z m 8,0 h 6 v 8 h -6 z m 8,0 h 6 v 8 h -6 z" opacity="1"/></g></g></svg>