<svg xmlns="http://www.w3.org/2000/svg" xmlns:svg="http://www.w3.org/2000/svg" xmlns:xlink="http://www.w3.org/1999/xlink" id="svg8" width="128" height="128" version="1.1" viewBox="0 0 128 128"><title id="title7895">Antu icon Theme</title><defs id="defs2"><linearGradient id="linearGradient4581" x1="32.741" x2="32.741" y1="304.889" y2="278.431" gradientTransform="matrix(3.7795275,0,0,3.7795275,-27.743682,-849.68691)" gradientUnits="userSpaceOnUse" xlink:href="#linearGradient10231"/><linearGradient id="linearGradient10231"><stop id="stop10227" offset="0" stop-color="#3e9ff4" stop-opacity="1"/><stop id="stop10229" offset="1" stop-color="#50c2f9" stop-opacity="1"/></linearGradient><linearGradient id="linearGradient4601" x1="8.467" x2="8.467" y1="291.094" y2="284.949" gradientTransform="matrix(7.8110237,0,0,7.8110237,29.866666,-1999.0906)" gradientUnits="userSpaceOnUse" xlink:href="#linearGradient4547"/><linearGradient id="linearGradient4547"><stop id="stop4543" offset="0" stop-color="#c3f7f9" stop-opacity="1"/><stop id="stop4545" offset="1" stop-color="#e5fafb" stop-opacity="1"/></linearGradient></defs><metadata id="metadata5"/><g id="layer1" transform="translate(0,-186.64999)"><g id="g1525" transform="translate(-32,-4)"><path id="rect4500" fill="#3182d9" fill-opacity="1" stroke="none" stroke-dasharray="none" stroke-miterlimit="4" stroke-opacity="1" stroke-width=".187" d="m 96.000003,191.64999 c 34.901997,0 62.999997,28.09799 62.999997,63 0,34.90197 -28.098,63 -62.999997,63 -34.902002,0 -63.000003,-28.09803 -63.000003,-63 0,-34.90201 28.098001,-63 63.000003,-63 z" opacity="1"/><path id="rect4500-3" fill="url(#linearGradient4581)" fill-opacity="1" stroke="none" stroke-dasharray="none" stroke-miterlimit="4" stroke-opacity="1" stroke-width=".184" d="m 96.000003,192.64998 c 34.347997,0 61.999997,27.652 61.999997,62.00001 0,34.348 -27.652,62.00001 -61.999997,62.00001 -34.348002,0 -62.000005,-27.65201 -62.000005,-62.00001 0,-34.34801 27.652003,-62.00001 62.000005,-62.00001 z" opacity="1"/><path id="rect4673-2" fill="#358bd9" fill-opacity="1" stroke="none" stroke-dasharray="none" stroke-miterlimit="4" stroke-opacity="1" stroke-width=".3" d="m 73,223.64999 c -4.985999,0 -9,4.01399 -9,9 0,4.98601 4.014001,9 9,9 4.985999,0 9,-4.01399 9,-9 0,-4.98601 -4.014001,-9 -9,-9 z m 23,0 c -4.986,0 -9,4.01399 -9,9 0,4.98601 4.014,9 9,9 4.986,0 9,-4.01399 9,-9 0,-4.98601 -4.014,-9 -9,-9 z m 23,0 c -4.98597,0 -9,4.01399 -9,9 0,4.98593 4.01403,9 9,9 4.98598,0 9,-4.01407 9,-9 0,-4.98601 -4.01402,-9 -9,-9 z m -46,23 c -4.985999,0 -9,4.01399 -9,9 0,4.98601 4.014001,9 9,9 4.985999,0 9,-4.01399 9,-9 0,-4.98601 -4.014001,-9 -9,-9 z m 23,0 c -4.986,0 -9,4.01399 -9,9 0,4.98601 4.014,9 9,9 4.986,0 9,-4.01399 9,-9 0,-4.98601 -4.014,-9 -9,-9 z m 23,0 c -4.98597,0 -9,4.01399 -9,9 0,4.98593 4.01403,9 9,9 4.98597,0 9,-4.01407 9,-9 0,-4.98601 -4.01403,-9 -9,-9 z m -46,23 c -4.986,0 -9,4.01399 -9,9 0,4.98601 4.014,9 9,9 4.985999,0 9,-4.01399 9,-9 0,-4.98601 -4.014001,-9 -9,-9 z m 23,0 c -4.986,0 -9,4.01399 -9,9 0,4.98601 4.014,9 9,9 4.986,0 9,-4.01399 9,-9 0,-4.98601 -4.014,-9 -9,-9 z m 23,0 c -4.98597,0 -9,4.01407 -9,9 0,4.98601 4.01403,9 9,9 4.98597,0 9,-4.01399 9,-9 0,-4.98593 -4.01403,-9 -9,-9 z" opacity="1"/><path id="rect4673" fill="url(#linearGradient4601)" fill-opacity="1" stroke="none" stroke-dasharray="none" stroke-miterlimit="4" stroke-opacity="1" stroke-width=".3" d="m 73,222.64999 c -4.985999,0 -9,4.01399 -9,9 0,4.98601 4.014001,9 9,9 4.985999,0 9,-4.01399 9,-9 0,-4.98601 -4.014001,-9 -9,-9 z m 23,0 c -4.986,0 -9,4.01399 -9,9 0,4.98601 4.014,9 9,9 4.986,0 9,-4.01399 9,-9 0,-4.98601 -4.014,-9 -9,-9 z m 23,0 c -4.98597,0 -9,4.01399 -9,9 0,4.98593 4.01403,9 9,9 4.98598,0 9,-4.01407 9,-9 0,-4.98601 -4.01402,-9 -9,-9 z m -46,23 c -4.985999,0 -9,4.01399 -9,9 0,4.98601 4.014001,9 9,9 4.985999,0 9,-4.01399 9,-9 0,-4.98601 -4.014001,-9 -9,-9 z m 23,0 c -4.986,0 -9,4.01399 -9,9 0,4.98601 4.014,9 9,9 4.986,0 9,-4.01399 9,-9 0,-4.98601 -4.014,-9 -9,-9 z m 23,0 c -4.98597,0 -9,4.01399 -9,9 0,4.98593 4.01403,9 9,9 4.98597,0 9,-4.01407 9,-9 0,-4.98601 -4.01403,-9 -9,-9 z m -46,23 c -4.986,0 -9,4.01399 -9,9 0,4.98601 4.014,9 9,9 4.985999,0 9,-4.01399 9,-9 0,-4.98601 -4.014001,-9 -9,-9 z m 23,0 c -4.986,0 -9,4.01399 -9,9 0,4.98601 4.014,9 9,9 4.986,0 9,-4.01399 9,-9 0,-4.98601 -4.014,-9 -9,-9 z m 23,0 c -4.98597,0 -9,4.01407 -9,9 0,4.98601 4.01403,9 9,9 4.98597,0 9,-4.01399 9,-9 0,-4.98593 -4.01403,-9 -9,-9 z" opacity="1"/></g></g></svg>