<svg xmlns="http://www.w3.org/2000/svg" xmlns:svg="http://www.w3.org/2000/svg" xmlns:xlink="http://www.w3.org/1999/xlink" id="svg8" width="128" height="128" version="1.1" viewBox="0 0 128 128"><title id="title7895">Antu icon Theme</title><defs id="defs2"><linearGradient id="linearGradient4629" x1="7.815" x2="7.815" y1="301.861" y2="299.215" gradientTransform="matrix(3.7795275,0,0,3.7795275,-43.538081,-810.24151)" gradientUnits="userSpaceOnUse" xlink:href="#linearGradient4627"/><linearGradient id="linearGradient4627"><stop id="stop4623" offset="0" stop-color="#c2f7f9" stop-opacity="1"/><stop id="stop4625" offset="1" stop-color="#e5fafb" stop-opacity="1"/></linearGradient><linearGradient id="linearGradient5247" x1="15.298" x2="15.298" y1="304.338" y2="275.234" gradientTransform="matrix(3.7795275,0,0,3.7795275,-46.821077,-821.60571)" gradientUnits="userSpaceOnUse" xlink:href="#linearGradient8202"/><linearGradient id="linearGradient8202"><stop id="stop8198" offset="0" stop-color="#3790f2" stop-opacity="1"/><stop id="stop8200" offset="1" stop-color="#53c7f9" stop-opacity="1"/></linearGradient></defs><metadata id="metadata5"/><g id="layer1" transform="translate(0,-186.64999)"><g id="g5203" transform="translate(54,-24)"><path id="rect5200" fill="#3182d9" fill-opacity="1" stroke="none" stroke-dasharray="none" stroke-miterlimit="4" stroke-opacity="1" stroke-width=".279" d="M -49.999922,217.64999 H 69.99993 c 2.21604,0 4.00007,1.78401 4.00007,4.00006 v 105.99984 c 0,2.21605 -1.78403,4.0001 -4.00007,4.0001 H -49.999922 C -52.215965,331.64999 -54,329.86594 -54,327.64989 V 221.65005 c 0,-2.21605 1.784035,-4.00006 4.000078,-4.00006 z" opacity="1"/><path id="rect5200-6" fill="url(#linearGradient5247)" fill-opacity="1" stroke="none" stroke-dasharray="none" stroke-miterlimit="4" stroke-opacity="1" stroke-width=".279" d="m -49.999997,218.64994 c -1.662,0 -3,1.33803 -3,3 v 90.99999 H 73 v -90.99999 c 0,-1.66197 -1.338,-3 -3,-3 z" opacity="1"/><path id="rect5249" fill="url(#linearGradient4629)" fill-opacity="1" stroke="none" stroke-dasharray="none" stroke-miterlimit="4" stroke-opacity="1" stroke-width=".3" d="m -52.999995,313.64996 v 4 1 9 c 0,1.66201 1.337999,3 3,3 H 70.00001 c 1.662,0 3,-1.33799 3,-3 v -9 -1 -4 h -3 -120.000005 z m 5.5,3 c 0.830985,0 1.5,0.66902 1.5,1.5 0,0.83098 -0.669015,1.5 -1.5,1.5 -0.830984,0 -1.5,-0.66902 -1.5,-1.5 0,-0.83098 0.669016,-1.5 1.5,-1.5 z m 4,0 c 0.830984,0 1.5,0.66902 1.5,1.5 0,0.83098 -0.669016,1.5 -1.5,1.5 -0.830984,0 -1.5,-0.66902 -1.5,-1.5 0,-0.83098 0.669016,-1.5 1.5,-1.5 z m 4,0 c 0.830984,0 1.5,0.66902 1.5,1.5 0,0.83098 -0.669016,1.5 -1.5,1.5 -0.830984,0 -1.5,-0.66902 -1.5,-1.5 0,-0.83098 0.669016,-1.5 1.5,-1.5 z m 80.5,1 c 0.554018,0 1,0.44592 1,1 v 7 c 0,0.554 -0.445997,1 -1,1 -0.554011,0 -1,-0.44592 -1,-1 v -7 c 0,-0.554 0.445997,-1 1,-1 z m 5.500005,0 c 1.939,0 3.5,1.56095 3.5,3.5 v 2 c 0,1.93897 -1.561,3.5 -3.5,3.5 -1.939001,0 -3.500005,-1.56103 -3.500005,-3.5 v -2 c 0,-1.93905 1.561004,-3.5 3.500005,-3.5 z m 11,0 c 1.939,0 3.5,1.56095 3.5,3.5 v 2 c 0,1.93897 -1.561,3.5 -3.5,3.5 -1.939,0 -3.5,-1.56103 -3.5,-3.5 v -2 c 0,-1.93905 1.561,-3.5 3.5,-3.5 z m 8,0 c 1.939,0 3.5,1.56095 3.5,3.5 v 2 c 0,1.93897 -1.561,3.5 -3.5,3.5 -1.939,0 -3.5,-1.56103 -3.5,-3.5 v -2 c 0,-1.93905 1.561,-3.5 3.5,-3.5 z m -19,2 c -0.831025,0 -1.500005,0.66896 -1.500005,1.5 v 2 c 0,0.83104 0.668999,1.5 1.500005,1.5 0.83103,0 1.5,-0.66903 1.5,-1.5 v -2 c 0,-0.83104 -0.669,-1.5 -1.5,-1.5 z m 4.5,0 h 2 v 2 h -2 z m 6.5,0 c -0.83102,0 -1.5,0.66896 -1.5,1.5 v 2 c 0,0.83104 0.669,1.5 1.5,1.5 0.83103,0 1.5,-0.66903 1.5,-1.5 v -2 c 0,-0.83104 -0.669,-1.5 -1.5,-1.5 z m 8,0 c -0.83103,0 -1.5,0.66896 -1.5,1.5 v 2 c 0,0.83104 0.669,1.5 1.5,1.5 0.83102,0 1.5,-0.66903 1.5,-1.5 v -2 c 0,-0.83104 -0.669,-1.5 -1.5,-1.5 z m -113.000005,1 c 0.830985,0 1.5,0.66902 1.5,1.5 0,0.83098 -0.669015,1.5 -1.5,1.5 -0.830984,0 -1.5,-0.66902 -1.5,-1.5 0,-0.83098 0.669016,-1.5 1.5,-1.5 z m 4,0 c 0.830984,0 1.5,0.66902 1.5,1.5 0,0.83098 -0.669016,1.5 -1.5,1.5 -0.830984,0 -1.5,-0.66902 -1.5,-1.5 0,-0.83098 0.669016,-1.5 1.5,-1.5 z m 4,0 c 0.830984,0 1.5,0.66902 1.5,1.5 0,0.83098 -0.669016,1.5 -1.5,1.5 -0.830984,0 -1.5,-0.66902 -1.5,-1.5 0,-0.83098 0.669016,-1.5 1.5,-1.5 z m 90.500005,2 h 2 v 2 h -2 z m -98.500005,2 c 0.830985,0 1.5,0.66902 1.5,1.5 0,0.83098 -0.669015,1.5 -1.5,1.5 -0.830984,0 -1.5,-0.66902 -1.5,-1.5 0,-0.83098 0.669016,-1.5 1.5,-1.5 z m 4,0 c 0.830984,0 1.5,0.66902 1.5,1.5 0,0.83098 -0.669016,1.5 -1.5,1.5 -0.830984,0 -1.5,-0.66902 -1.5,-1.5 0,-0.83098 0.669016,-1.5 1.5,-1.5 z m 4,0 c 0.830984,0 1.5,0.66902 1.5,1.5 0,0.83098 -0.669016,1.5 -1.5,1.5 -0.830984,0 -1.5,-0.66902 -1.5,-1.5 0,-0.83098 0.669016,-1.5 1.5,-1.5 z" opacity="1"/></g></g></svg>