<svg xmlns="http://www.w3.org/2000/svg" xmlns:svg="http://www.w3.org/2000/svg" xmlns:xlink="http://www.w3.org/1999/xlink" id="svg8" width="32" height="32" version="1.1" viewBox="0 0 32 32"><title id="title7895">Antu icon Theme</title><defs id="defs2"><linearGradient id="linearGradient4571" x1="7.574" x2="7.574" y1="293.669" y2="292.082" gradientTransform="matrix(3.7795275,0,0,3.7795275,-0.6249999,-812.2804)" gradientUnits="userSpaceOnUse" xlink:href="#linearGradient4547"/><linearGradient id="linearGradient4547"><stop id="stop4543" offset="0" stop-color="#c3f7f9" stop-opacity="1"/><stop id="stop4545" offset="1" stop-color="#e5fafb" stop-opacity="1"/></linearGradient><linearGradient id="linearGradient10233" x1="4.763" x2="4.763" y1="7.673" y2="1.587" gradientTransform="matrix(3.7795275,0,0,3.7795275,4.0000003,281.64994)" gradientUnits="userSpaceOnUse" xlink:href="#linearGradient10231"/><linearGradient id="linearGradient10231"><stop id="stop10227" offset="0" stop-color="#3e9ff4" stop-opacity="1"/><stop id="stop10229" offset="1" stop-color="#50c2f9" stop-opacity="1"/></linearGradient><linearGradient id="linearGradient10241" x1="1.852" x2="1.852" y1="2.381" y2=".794" gradientTransform="matrix(3.7795275,0,0,3.7795275,4.0000003,281.64994)" gradientUnits="userSpaceOnUse" xlink:href="#linearGradient10239"/><linearGradient id="linearGradient10239"><stop id="stop10235" offset="0" stop-color="#348be7" stop-opacity="1"/><stop id="stop10237" offset="1" stop-color="#3997f1" stop-opacity="1"/></linearGradient></defs><metadata id="metadata5"/><g id="layer1" transform="translate(0,-282.64999)"><g id="g5211" transform="translate(-4,0.999995)"><path id="path13-6-7-64-1-3-02-8-0" fill="url(#linearGradient10241)" fill-opacity="1" stroke-width="1" d="M 4.9999999,284.64999 H 17 l 3,6 H 35.000001 V 310.65 H 4.9999999 Z"/><path id="path13-6-3-1-3-0-7-7" fill="#3182d9" fill-opacity="1" stroke-width="1" d="M 4.9999999,283.65 C 4.4459903,283.65 4,284.09598 4,284.64999 V 310.65 c 0,0.554 0.4459903,0.99999 0.9999999,0.99999 H 35.000001 C 35.55401,311.64999 36,311.204 36,310.65 v -20.00001 c 0,-0.55401 -0.450268,-1.0687 -0.999999,-0.99999 H 21 l -3,-6 z m 0,0.99999 H 17 l 3,6 H 35.000001 V 310.65 H 4.9999999 Z"/><path id="path13-0-0-9-9-8" fill="#3182d9" fill-opacity="1" stroke-width="1" d="m 5.0000509,290.64999 c -0.5540096,0 -0.9999984,0.44602 -0.9999999,1.00002 L 4,310.65 c -1.5e-6,0.554 0.4459903,0.99999 0.9999999,0.99999 H 35.000001 C 35.55401,311.64999 36,311.204 36,310.65 v -23.00001 c 0,0 0,-0.99999 -0.999999,-0.99999 H 19 l -1.999948,4.00003 z m 0,1.00002 H 18.000052 L 20,287.64999 H 35.000001 V 310.65 H 4.9999999 Z"/><path id="path13-5-2-9-4-2-6" fill="url(#linearGradient10233)" fill-opacity="1" stroke-width="1" d="M 5.0000509,291.65001 H 18.000052 L 20,287.64999 H 35.000001 V 310.65 H 4.9999999 Z"/><path id="path4545" fill="#358bd9" fill-opacity="1" stroke="none" stroke-linecap="butt" stroke-linejoin="miter" stroke-opacity="1" stroke-width="1" d="m 24.999999,289.65 c -0.553999,0 -1,0.44598 -1,0.99999 v 6 2.00001 3.99999 l 4,-3 4,3 v -3.99999 -2.00001 -6 c 0,-0.55401 -0.446,-0.99999 -1,-0.99999 z"/><path id="path4545-5" fill="url(#linearGradient4571)" fill-opacity="1" stroke="none" stroke-linecap="butt" stroke-linejoin="miter" stroke-opacity="1" stroke-width="1" d="m 25,288.65001 c -0.554,0 -1,0.44599 -1,0.99999 v 6 2.00001 3.99999 l 4,-3 3.999999,3 v -3.99999 -2.00001 -6 c 0,-0.554 -0.445999,-0.99999 -0.999999,-0.99999 z"/></g></g></svg>