<svg xmlns="http://www.w3.org/2000/svg" xmlns:svg="http://www.w3.org/2000/svg" xmlns:xlink="http://www.w3.org/1999/xlink" id="svg8" width="32" height="32" version="1.1" viewBox="0 0 32 32"><title id="title7895">Antu icon Theme</title><defs id="defs2"><linearGradient id="linearGradient10241" x1="1.852" x2="1.852" y1="2.381" y2=".794" gradientTransform="matrix(3.7795275,0,0,3.7795275,-18,286.64994)" gradientUnits="userSpaceOnUse" xlink:href="#linearGradient10239"/><linearGradient id="linearGradient10239"><stop id="stop10235" offset="0" stop-color="#348be7" stop-opacity="1"/><stop id="stop10237" offset="1" stop-color="#3997f1" stop-opacity="1"/></linearGradient><linearGradient id="linearGradient10233" x1="4.763" x2="4.763" y1="7.673" y2="1.587" gradientTransform="matrix(3.7795275,0,0,3.7795275,-18,286.64994)" gradientUnits="userSpaceOnUse" xlink:href="#linearGradient10231"/><linearGradient id="linearGradient10231"><stop id="stop10227" offset="0" stop-color="#3e9ff4" stop-opacity="1"/><stop id="stop10229" offset="1" stop-color="#50c2f9" stop-opacity="1"/></linearGradient><linearGradient id="linearGradient11619" x1="4.928" x2="4.928" y1="295.521" y2="293.934" gradientTransform="matrix(3.7795275,0,0,3.7795275,-22.625,-807.2804)" gradientUnits="userSpaceOnUse" xlink:href="#linearGradient4547"/><linearGradient id="linearGradient4547"><stop id="stop4543" offset="0" stop-color="#c3f7f9" stop-opacity="1"/><stop id="stop4545" offset="1" stop-color="#e5fafb" stop-opacity="1"/></linearGradient></defs><metadata id="metadata5"/><g id="layer1" transform="translate(0,-282.64999)"><g id="g12259" transform="translate(18,-4.000005)"><path id="path13-6-7-64-1-3-02-8-0" fill="url(#linearGradient10241)" fill-opacity="1" stroke-width="1" d="m -17,289.64999 h 12 l 3,6 H 13.000001 V 315.65 H -17 Z"/><path id="path13-6-3-1-3-0-7-7" fill="#3182d9" fill-opacity="1" stroke-width="1" d="m -17,288.65 c -0.55401,0 -1,0.44598 -1,0.99999 V 315.65 c 0,0.554 0.44599,0.99999 1,0.99999 H 13.000001 C 13.55401,316.64999 14,316.204 14,315.65 v -20.00001 c 0,-0.55401 -0.450268,-1.0687 -0.999999,-0.99999 H -1 l -3,-6 z m 0,0.99999 h 12 l 3,6 H 13.000001 V 315.65 H -17 Z"/><path id="path13-0-0-9-9-8" fill="#3182d9" fill-opacity="1" stroke-width="1" d="m -16.999949,295.64999 c -0.55401,0 -0.999998,0.44602 -1,1.00002 L -18,315.65 c -2e-6,0.554 0.44599,0.99999 1,0.99999 H 13.000001 C 13.55401,316.64999 14,316.204 14,315.65 v -23.00001 c 0,0 0,-0.99999 -0.999999,-0.99999 H -3 l -1.999948,4.00003 z m 0,1.00002 H -3.999948 L -2,292.64999 H 13.000001 V 315.65 H -17 Z"/><path id="path13-5-2-9-4-2-6" fill="url(#linearGradient10233)" fill-opacity="1" stroke-width="1" d="m -16.999949,296.65001 h 13 l 1.999948,-4.00002 H 13 V 315.65 h -30.000001 z"/><path id="rect11549-7" fill="#358bd9" fill-opacity="1" stroke="none" stroke-dasharray="none" stroke-linecap="round" stroke-linejoin="round" stroke-miterlimit="4" stroke-opacity="1" stroke-width="2" d="m -8,301.64825 c -0.5540329,0 -0.9999998,0.44594 -0.9999998,0.99999 v 8.00001 c 0,0.554 0.4459669,0.99999 0.9999998,0.99999 h 8 c 0.554033,0 1,-0.44599 1,-0.99999 v -2.58595 l 3.292969,3.29298 C 4.922964,311.98484 5.99965,311.53897 6,310.64825 v -8.00001 c 1.84e-4,-0.56391 -0.465631,-1.01647 -1.029297,-0.99999 -0.255008,0.008 -0.49746,0.11263 -0.677734,0.29291 L 1,305.23415 v -2.58595 c 0,-0.55404 -0.445967,-0.99999 -1,-0.99999 z" opacity="1"/><path id="rect11549" fill="url(#linearGradient11619)" fill-opacity="1" stroke="none" stroke-dasharray="none" stroke-linecap="round" stroke-linejoin="round" stroke-miterlimit="4" stroke-opacity="1" stroke-width="2" d="m -8.0000003,300.6483 c -0.554033,0 -0.9999998,0.44595 -0.9999998,0.99999 v 8.00001 c 0,0.554 0.4459668,0.99999 0.9999998,0.99999 H -1e-6 C 0.554032,310.64829 1,310.2023 1,309.6483 v -2.58595 l 3.292968,3.29295 c 0.629995,0.62955 1.706681,0.18368 1.707031,-0.707 v -8.00001 c 1.84e-4,-0.56391 -0.465631,-1.01647 -1.029297,-0.99999 -0.255008,0.008 -0.49746,0.11263 -0.677734,0.29291 L 1,304.2342 v -2.58595 C 1,301.09421 0.554032,300.64826 -1e-6,300.64826 Z" opacity="1"/></g></g></svg>