<svg xmlns="http://www.w3.org/2000/svg" xmlns:svg="http://www.w3.org/2000/svg" xmlns:xlink="http://www.w3.org/1999/xlink" id="svg8" width="32" height="32" version="1.1" viewBox="0 0 32 32"><title id="title7895">Antu icon Theme</title><defs id="defs2"><linearGradient id="linearGradient10241" x1="1.852" x2="1.852" y1="2.381" y2=".794" gradientTransform="matrix(3.7795275,0,0,3.7795275,-17,286.64994)" gradientUnits="userSpaceOnUse" xlink:href="#linearGradient10239"/><linearGradient id="linearGradient10239"><stop id="stop10235" offset="0" stop-color="#348be7" stop-opacity="1"/><stop id="stop10237" offset="1" stop-color="#3997f1" stop-opacity="1"/></linearGradient><linearGradient id="linearGradient10233" x1="4.763" x2="4.763" y1="7.673" y2="1.587" gradientTransform="matrix(3.7795275,0,0,3.7795275,-17,286.64994)" gradientUnits="userSpaceOnUse" xlink:href="#linearGradient10231"/><linearGradient id="linearGradient10231"><stop id="stop10227" offset="0" stop-color="#3e9ff4" stop-opacity="1"/><stop id="stop10229" offset="1" stop-color="#50c2f9" stop-opacity="1"/></linearGradient><linearGradient id="linearGradient5333" x1="3.898" x2="3.898" y1="294.794" y2="292.941" gradientTransform="matrix(3.7795275,0,0,3.7795275,-15.732143,-803.5303)" gradientUnits="userSpaceOnUse" xlink:href="#linearGradient4547"/><linearGradient id="linearGradient4547"><stop id="stop4543" offset="0" stop-color="#c3f7f9" stop-opacity="1"/><stop id="stop4545" offset="1" stop-color="#e5fafb" stop-opacity="1"/></linearGradient></defs><metadata id="metadata5"/><g id="layer1" transform="translate(0,-282.64999)"><g id="g5973" transform="translate(17,-4.000005)"><path id="path13-6-7-64-1-3-02-8-0" fill="url(#linearGradient10241)" fill-opacity="1" stroke-width="1" d="m -16,289.64999 h 12 l 3,6 H 14.000001 V 315.65 H -16 Z"/><path id="path13-6-3-1-3-0-7-7" fill="#3182d9" fill-opacity="1" stroke-width="1" d="m -16,288.65 c -0.55401,0 -1,0.44598 -1,0.99999 V 315.65 c 0,0.554 0.44599,0.99999 1,0.99999 H 14.000001 C 14.55401,316.64999 15,316.204 15,315.65 v -20.00001 c 0,-0.55401 -0.450268,-1.0687 -0.999999,-0.99999 H 0 l -3,-6 z m 0,0.99999 h 12 l 3,6 H 14.000001 V 315.65 H -16 Z"/><path id="path13-0-0-9-9-8" fill="#3182d9" fill-opacity="1" stroke-width="1" d="m -15.999949,295.64999 c -0.55401,0 -0.999998,0.44602 -1,1.00002 L -17,315.65 c -2e-6,0.554 0.44599,0.99999 1,0.99999 H 14.000001 C 14.55401,316.64999 15,316.204 15,315.65 v -23.00001 c 0,0 0,-0.99999 -0.999999,-0.99999 H -2 l -1.999948,4.00003 z m 0,1.00002 H -2.999948 L -1,292.64999 H 14.000001 V 315.65 H -16 Z"/><path id="path13-5-2-9-4-2-6" fill="url(#linearGradient10233)" fill-opacity="1" stroke-width="1" d="M -15.999949,296.65001 H -2.999948 L -1,292.64999 H 14.000001 V 315.65 H -16 Z"/><path id="rect4515-0" fill="#358bd9" fill-opacity="1" stroke="none" stroke-dasharray="none" stroke-miterlimit="4" stroke-opacity="1" stroke-width=".3" d="m 0.554689,300.65006 c -2.100689,0 -3.839335,1.43301 -4.339844,3.37308 -0.3273,-0.23357 -0.72565,-0.37304 -1.160156,-0.37304 -1.10798,0 -2,0.89205 -2,2.00002 0,0.0151 0.0054,0.034 0.0059,0.0488 -1.7011011,0.24075 -3.0058586,1.68155 -3.0058586,3.45116 0,1.93901 1.561003,3.49999 3.4999996,3.49999 h 11 c 1.939,0 3.5,-1.56098 3.5,-3.49999 0,-1.78632 -1.329963,-3.23535 -3.054688,-3.45506 0.02192,-0.18066 0.05469,-0.35792 0.05469,-0.54493 0,-2.49297 -2.007014,-4.50002 -4.5,-4.50002 z" opacity="1"/><path id="rect4515" fill="url(#linearGradient5333)" fill-opacity="1" stroke="none" stroke-dasharray="none" stroke-miterlimit="4" stroke-opacity="1" stroke-width=".3" d="m 0.5,299.65006 c -2.100689,0 -3.839335,1.43301 -4.339844,3.37308 -0.3273,-0.23357 -0.72565,-0.37304 -1.160156,-0.37304 -1.10798,0 -2,0.89205 -2,2.00002 0,0.0151 0.0054,0.034 0.0059,0.0488 -1.7011011,0.24075 -3.0058586,1.68155 -3.0058586,3.45116 0,1.93901 1.561003,3.49999 3.4999996,3.49999 h 11 c 1.939,0 3.5,-1.56098 3.5,-3.49999 0,-1.78632 -1.329963,-3.23535 -3.054688,-3.45506 0.02192,-0.18066 0.05469,-0.35792 0.05469,-0.54493 0,-2.49297 -2.007014,-4.50002 -4.5,-4.50002 z" opacity="1"/></g></g></svg>