<svg xmlns="http://www.w3.org/2000/svg" xmlns:svg="http://www.w3.org/2000/svg" xmlns:xlink="http://www.w3.org/1999/xlink" id="svg8" width="32" height="32" version="1.1" viewBox="0 0 32 32"><title id="title7895">Antu icon Theme</title><defs id="defs2"><linearGradient id="linearGradient10241" x1="1.852" x2="1.852" y1="2.381" y2=".794" gradientTransform="matrix(3.7795275,0,0,3.7795275,-19,289.64994)" gradientUnits="userSpaceOnUse" xlink:href="#linearGradient10239"/><linearGradient id="linearGradient10239"><stop id="stop10235" offset="0" stop-color="#348be7" stop-opacity="1"/><stop id="stop10237" offset="1" stop-color="#3997f1" stop-opacity="1"/></linearGradient><linearGradient id="linearGradient10233" x1="4.763" x2="4.763" y1="7.673" y2="1.587" gradientTransform="matrix(3.7795275,0,0,3.7795275,-19,289.64994)" gradientUnits="userSpaceOnUse" xlink:href="#linearGradient10231"/><linearGradient id="linearGradient10231"><stop id="stop10227" offset="0" stop-color="#3e9ff4" stop-opacity="1"/><stop id="stop10229" offset="1" stop-color="#50c2f9" stop-opacity="1"/></linearGradient><linearGradient id="linearGradient10834" x1=".794" x2="2.381" y1="2.117" y2="2.117" gradientTransform="matrix(0,-3.7795275,3.7795275,0,-10.99998,316.65004)" gradientUnits="userSpaceOnUse" xlink:href="#linearGradient4547"/><linearGradient id="linearGradient4547"><stop id="stop4543" offset="0" stop-color="#c3f7f9" stop-opacity="1"/><stop id="stop4545" offset="1" stop-color="#e5fafb" stop-opacity="1"/></linearGradient></defs><metadata id="metadata5"/><g id="layer1" transform="translate(0,-282.64999)"><g id="g11474" transform="translate(19,-7.000005)"><path id="path13-6-7-64-1-3-02-8-0" fill="url(#linearGradient10241)" fill-opacity="1" stroke-width="1" d="m -18,292.64999 h 12 l 3,6 H 12.000001 V 318.65 H -18 Z"/><path id="path13-6-3-1-3-0-7-7" fill="#3182d9" fill-opacity="1" stroke-width="1" d="m -18,291.65 c -0.55401,0 -1,0.44598 -1,0.99999 V 318.65 c 0,0.554 0.44599,0.99999 1,0.99999 H 12.000001 C 12.55401,319.64999 13,319.204 13,318.65 v -20.00001 c 0,-0.55401 -0.450268,-1.0687 -0.999999,-0.99999 H -2 l -3,-6 z m 0,0.99999 h 12 l 3,6 H 12.000001 V 318.65 H -18 Z"/><path id="path13-0-0-9-9-8" fill="#3182d9" fill-opacity="1" stroke-width="1" d="m -17.999949,298.64999 c -0.55401,0 -0.999998,0.44602 -1,1.00002 L -19,318.65 c -2e-6,0.554 0.44599,0.99999 1,0.99999 H 12.000001 C 12.55401,319.64999 13,319.204 13,318.65 v -23.00001 c 0,0 0,-0.99999 -0.999999,-0.99999 H -4 l -1.999948,4.00003 z m 0,1.00002 H -4.999948 L -3,295.64999 H 12.000001 V 318.65 H -18 Z"/><path id="path13-5-2-9-4-2-6" fill="url(#linearGradient10233)" fill-opacity="1" stroke-width="1" d="m -17.999949,299.65001 h 13 l 1.999948,-4.00002 H 12 V 318.65 h -30.000001 z"/><path id="path6565-2" fill="#358bd9" fill-opacity="1" stroke="none" stroke-dasharray="none" stroke-linecap="round" stroke-linejoin="round" stroke-miterlimit="4" stroke-opacity="1" stroke-width="1" d="m -3,302.64997 c -0.328101,0.008 -0.632468,0.17235 -0.814453,0.44531 l -2,3 c -0.442842,0.66455 0.03345,1.55452 0.832031,1.55471 h 1 V 309.65 c 0,0.55396 0.446,0.99999 1,0.99999 0.554,0 1,-0.44603 1,-0.99999 v -2.00001 h 1 c 0.798587,-1.9e-4 1.274873,-0.89016 0.832031,-1.55471 l -2,-3 C -2.339285,302.81181 -2.659444,302.64404 -3,302.64997 Z m -3.982422,6 c -0.554,0 -0.999998,0.44603 -1,1.00003 l -2.2e-5,4.99997 c -3e-6,0.55401 0.446,1.00003 1,1.00003 h 8 c 0.554,0 0.999997,-0.44602 1,-1.00003 l 2.2e-5,-4.99997 c 2e-6,-0.554 -0.446508,-1.02372 -1,-1.00003 h -2 v 2.00002 h 1 l -2.2e-5,3 h -6 l 2.2e-5,-3 h 1 v -2.00002 z" opacity="1"/><path id="path6565" fill="url(#linearGradient10834)" fill-opacity="1" stroke="none" stroke-dasharray="none" stroke-linecap="round" stroke-linejoin="round" stroke-miterlimit="4" stroke-opacity="1" stroke-width="1" d="m -3,301.65005 c -0.328101,0.006 -0.632468,0.17224 -0.814453,0.44531 l -2,3 c -0.442842,0.66455 0.03344,1.55452 0.832031,1.55469 h 1 v 2 c 0,0.554 0.446,1 1,1 0.554,0 1,-0.446 1,-1 v -2 h 1 c 0.798587,-1.7e-4 1.274873,-0.89014 0.832031,-1.55469 l -2,-3 C -2.339286,301.81193 -2.659444,301.64412 -3,301.65005 Z m -3.982422,6 c -0.554,0 -0.999998,0.446 -1,1 l -2.2e-5,5.00001 c -3e-6,0.554 0.446,1 1,1 h 8 c 0.554,0 0.999997,-0.446 1,-1 l 2.2e-5,-5.00001 c 2e-6,-0.554 -0.446508,-1.02372 -1,-1 h -2 v 2 h 1 l -2.2e-5,3.00001 h -6 l 2.2e-5,-3.00001 h 1 v -2 z" opacity="1"/></g></g></svg>