<svg xmlns="http://www.w3.org/2000/svg" xmlns:svg="http://www.w3.org/2000/svg" xmlns:xlink="http://www.w3.org/1999/xlink" id="svg8" width="32" height="32" version="1.1" viewBox="0 0 8.467 8.467"><defs id="defs2"><linearGradient id="linearGradient10233" x1="4.763" x2="4.763" y1="7.673" y2="1.587" gradientTransform="translate(-2.7450521,289.90822)" gradientUnits="userSpaceOnUse" xlink:href="#linearGradient10231"/><linearGradient id="linearGradient10231"><stop id="stop10227" offset="0" stop-color="#f05447" stop-opacity="1"/><stop id="stop10229" offset="1" stop-color="#fe756a" stop-opacity="1"/></linearGradient><linearGradient id="linearGradient10241" x1="1.852" x2="1.852" y1="2.381" y2=".794" gradientTransform="translate(-2.7450521,289.90822)" gradientUnits="userSpaceOnUse" xlink:href="#linearGradient10239"/><linearGradient id="linearGradient10239"><stop id="stop10235" offset="0" stop-color="#e55045" stop-opacity="1"/><stop id="stop10237" offset="1" stop-color="#fa584b" stop-opacity="1"/></linearGradient></defs><metadata id="metadata5"/><g id="layer1" transform="translate(0,-288.53332)"><g id="g5236" transform="translate(2.7450521,-1.3748916)"><path id="path13-6-7-64-1-3-02-8-0" fill="url(#linearGradient10241)" fill-opacity="1" stroke-width=".265" d="m -2.4804688,290.70196 h 3.17500001 l 0.79374999,1.5875 h 3.9687503 v 5.29167 h -7.9375003 z"/><path id="path13-6-3-1-3-0-7-7" fill="#e53737" fill-opacity="1" stroke-width=".265" d="m -2.4804688,290.43738 c -0.1465817,0 -0.2645833,0.118 -0.2645833,0.26458 v 6.87917 c 0,0.14658 0.1180016,0.26458 0.2645833,0.26458 h 7.9375003 c 0.1465816,0 0.2645831,-0.118 0.2645831,-0.26458 v -5.29167 c 0,-0.14658 -0.1191334,-0.28276 -0.2645831,-0.26458 H 1.7528646 l -0.79374999,-1.5875 z m 0,0.26458 h 3.17500001 l 0.79374999,1.5875 h 3.9687503 v 5.29167 h -7.9375003 z"/><path id="path13-0-0-9-9-8" fill="#e53737" fill-opacity="1" stroke-width=".265" d="m -2.4804553,292.28946 c -0.1465817,0 -0.2645829,0.11801 -0.2645833,0.26459 l -1.35e-5,5.02708 c -4e-7,0.14658 0.1180016,0.26458 0.2645833,0.26458 h 7.9375003 c 0.1465816,0 0.2645831,-0.118 0.2645831,-0.26458 v -6.08542 c 0,0 0,-0.26458 -0.2645831,-0.26458 H 1.2236979 l -0.52915289,1.05834 z m 0,0.26459 h 3.43958361 l 0.52915289,-1.05834 h 3.9687503 v 6.08542 h -7.9375003 z"/><path id="path13-5-2-9-4-2-6" fill="url(#linearGradient10233)" fill-opacity="1" stroke-width=".265" d="m -2.4804553,292.55405 h 3.43958361 l 0.52915289,-1.05834 h 3.9687503 v 6.08542 h -7.9375003 z"/></g></g></svg>