<svg xmlns="http://www.w3.org/2000/svg" xmlns:svg="http://www.w3.org/2000/svg" xmlns:xlink="http://www.w3.org/1999/xlink" id="svg8" width="32" height="32" version="1.1" viewBox="0 0 32 32"><title id="title7895">Antu icon Theme</title><defs id="defs2"><linearGradient id="linearGradient10241" x1="1.852" x2="1.852" y1="2.381" y2=".794" gradientTransform="matrix(3.7795275,0,0,3.7795275,-18,283.64994)" gradientUnits="userSpaceOnUse" xlink:href="#linearGradient10239"/><linearGradient id="linearGradient10239"><stop id="stop10235" offset="0" stop-color="#348be7" stop-opacity="1"/><stop id="stop10237" offset="1" stop-color="#3997f1" stop-opacity="1"/></linearGradient><linearGradient id="linearGradient10233" x1="4.763" x2="4.763" y1="7.673" y2="1.587" gradientTransform="matrix(3.7795275,0,0,3.7795275,-18,283.64994)" gradientUnits="userSpaceOnUse" xlink:href="#linearGradient10231"/><linearGradient id="linearGradient10231"><stop id="stop10227" offset="0" stop-color="#3e9ff4" stop-opacity="1"/><stop id="stop10229" offset="1" stop-color="#50c2f9" stop-opacity="1"/></linearGradient></defs><metadata id="metadata5"/><g id="layer1" transform="translate(0,-282.64999)"><g id="g7619" transform="translate(18,-1.000005)"><path id="path13-6-7-64-1-3-02-8-0" fill="url(#linearGradient10241)" fill-opacity="1" stroke-width="1" d="m -17,286.64999 h 12 l 3,6 H 13.000001 V 312.65 H -17 Z"/><path id="path13-6-3-1-3-0-7-7" fill="#3182d9" fill-opacity="1" stroke-width="1" d="m -17,285.65 c -0.55401,0 -1,0.44598 -1,0.99999 V 312.65 c 0,0.554 0.44599,0.99999 1,0.99999 H 13.000001 C 13.55401,313.64999 14,313.204 14,312.65 v -20.00001 c 0,-0.55401 -0.450268,-1.0687 -0.999999,-0.99999 H -1 l -3,-6 z m 0,0.99999 h 12 l 3,6 H 13.000001 V 312.65 H -17 Z"/><path id="path13-0-0-9-9-8" fill="#3182d9" fill-opacity="1" stroke-width="1" d="m -16.999949,292.64999 c -0.55401,0 -0.999998,0.44602 -1,1.00002 L -18,312.65 c -2e-6,0.554 0.44599,0.99999 1,0.99999 H 13.000001 C 13.55401,313.64999 14,313.204 14,312.65 v -23.00001 c 0,0 0,-0.99999 -0.999999,-0.99999 H -3 l -1.999948,4.00003 z m 0,1.00002 H -3.999948 L -2,289.64999 H 13.000001 V 312.65 H -17 Z"/><path id="path13-5-2-9-4-2-6" fill="url(#linearGradient10233)" fill-opacity="1" stroke-width="1" d="M -16.999949,293.65001 H -3.999948 L -2,289.64999 H 13.000001 V 312.65 H -17 Z"/></g></g></svg>