<svg xmlns="http://www.w3.org/2000/svg" xmlns:svg="http://www.w3.org/2000/svg" xmlns:xlink="http://www.w3.org/1999/xlink" id="svg8" width="32" height="32" version="1.1" viewBox="0 0 32 32"><title id="title7895">Antu icon Theme</title><defs id="defs2"><linearGradient id="linearGradient10241" x1="1.852" x2="1.852" y1="2.381" y2=".794" gradientTransform="matrix(3.7795275,0,0,3.7795275,3.42695e-7,286.64994)" gradientUnits="userSpaceOnUse" xlink:href="#linearGradient10239"/><linearGradient id="linearGradient10239"><stop id="stop10235" offset="0" stop-color="#348be7" stop-opacity="1"/><stop id="stop10237" offset="1" stop-color="#3997f1" stop-opacity="1"/></linearGradient><linearGradient id="linearGradient10233" x1="4.763" x2="4.763" y1="7.673" y2="1.587" gradientTransform="matrix(3.7795275,0,0,3.7795275,3.42695e-7,286.64994)" gradientUnits="userSpaceOnUse" xlink:href="#linearGradient10231"/><linearGradient id="linearGradient10231"><stop id="stop10227" offset="0" stop-color="#3e9ff4" stop-opacity="1"/><stop id="stop10229" offset="1" stop-color="#50c2f9" stop-opacity="1"/></linearGradient><linearGradient id="linearGradient6079" x1="5.457" x2="5.457" y1="295.786" y2="293.934" gradientTransform="matrix(3.7795275,0,0,3.7795275,-4.6249999,-807.2804)" gradientUnits="userSpaceOnUse" xlink:href="#linearGradient4547"/><linearGradient id="linearGradient4547"><stop id="stop4543" offset="0" stop-color="#c3f7f9" stop-opacity="1"/><stop id="stop4545" offset="1" stop-color="#e5fafb" stop-opacity="1"/></linearGradient></defs><metadata id="metadata5"/><g id="layer1" transform="translate(0,-282.64999)"><g id="g6719" transform="translate(0,-4.000005)"><path id="path13-6-7-64-1-3-02-8-0" fill="url(#linearGradient10241)" fill-opacity="1" stroke-width="1" d="M 0.99999986,289.64999 H 13 l 3,6 H 31.000001 V 315.65 H 0.99999986 Z"/><path id="path13-6-3-1-3-0-7-7" fill="#3182d9" fill-opacity="1" stroke-width="1" d="M 0.99999986,288.65 C 0.44599029,288.65 0,289.09598 0,289.64999 V 315.65 c 0,0.554 0.44599029,0.99999 0.99999986,0.99999 H 31.000001 C 31.55401,316.64999 32,316.204 32,315.65 v -20.00001 c 0,-0.55401 -0.450268,-1.0687 -0.999999,-0.99999 H 17 l -3,-6 z m 0,0.99999 H 13 l 3,6 H 31.000001 V 315.65 H 0.99999986 Z"/><path id="path13-0-0-9-9-8" fill="#3182d9" fill-opacity="1" stroke-width="1" d="m 1.0000509,295.64999 c -0.55400958,0 -0.999998364564,0.44602 -0.999999876375,1.00002 L 0,315.65 c -1.5118072e-6,0.554 0.44599029,0.99999 0.99999986,0.99999 H 31.000001 C 31.55401,316.64999 32,316.204 32,315.65 v -23.00001 c 0,0 0,-0.99999 -0.999999,-0.99999 H 15 l -1.999948,4.00003 z m 0,1.00002 H 14.000052 L 16,292.64999 H 31.000001 V 315.65 H 0.99999986 Z"/><path id="path13-5-2-9-4-2-6" fill="url(#linearGradient10233)" fill-opacity="1" stroke-width="1" d="M 1.0000509,296.65001 H 14.000052 L 16,292.64999 H 31.000001 V 315.65 H 0.99999986 Z"/><path id="rect6055-9" fill="#358bd9" fill-opacity="1" stroke="none" stroke-dasharray="none" stroke-linecap="round" stroke-linejoin="round" stroke-miterlimit="4" stroke-opacity="1" stroke-width="2" d="M 12.000001,300.65007 18,300.65 l 3,3 v 8.00005 c 0,0.554 -0.446,1.00002 -1,1.00002 H 12.000001 C 11.446,312.65007 11,312.20405 11,311.65005 v -9.99999 c 0,-0.554 0.446,-0.99999 1.000001,-0.99999 z" opacity="1"/><path id="rect6055" fill="url(#linearGradient6079)" fill-opacity="1" stroke="none" stroke-dasharray="none" stroke-linecap="round" stroke-linejoin="round" stroke-miterlimit="4" stroke-opacity="1" stroke-width="2" d="m 12.000001,299.65005 5.999999,-8e-5 3,3 v 8.00005 c 0,0.55401 -0.446,1.00003 -1,1.00003 H 12.000001 C 11.446,311.65005 11,311.20403 11,310.65002 v -9.99998 c 0,-0.55401 0.446,-0.99999 1.000001,-0.99999 z" opacity="1"/></g></g></svg>