<svg xmlns="http://www.w3.org/2000/svg" xmlns:svg="http://www.w3.org/2000/svg" xmlns:xlink="http://www.w3.org/1999/xlink" id="svg8" width="32" height="32" version="1.1" viewBox="0 0 32 32"><title id="title7895">Antu icon Theme</title><defs id="defs2"><linearGradient id="linearGradient10241" x1="1.852" x2="1.852" y1="2.381" y2=".794" gradientTransform="matrix(3.7795275,0,0,3.7795275,-19,289.64994)" gradientUnits="userSpaceOnUse" xlink:href="#linearGradient10239"/><linearGradient id="linearGradient10239"><stop id="stop10235" offset="0" stop-color="#348be7" stop-opacity="1"/><stop id="stop10237" offset="1" stop-color="#3997f1" stop-opacity="1"/></linearGradient><linearGradient id="linearGradient10233" x1="4.763" x2="4.763" y1="7.673" y2="1.587" gradientTransform="matrix(3.7795275,0,0,3.7795275,-19,289.64994)" gradientUnits="userSpaceOnUse" xlink:href="#linearGradient10231"/><linearGradient id="linearGradient10231"><stop id="stop10227" offset="0" stop-color="#3e9ff4" stop-opacity="1"/><stop id="stop10229" offset="1" stop-color="#50c2f9" stop-opacity="1"/></linearGradient><linearGradient id="linearGradient9304" x1="5.192" x2="5.192" y1="295.786" y2="293.404" gradientTransform="matrix(3.7795275,0,0,3.7795275,-23.625,-804.2804)" gradientUnits="userSpaceOnUse" xlink:href="#linearGradient4547"/><linearGradient id="linearGradient4547"><stop id="stop4543" offset="0" stop-color="#c3f7f9" stop-opacity="1"/><stop id="stop4545" offset="1" stop-color="#e5fafb" stop-opacity="1"/></linearGradient></defs><metadata id="metadata5"/><g id="layer1" transform="translate(0,-282.64999)"><g id="g9944" transform="translate(19,-7.000005)"><path id="path13-6-7-64-1-3-02-8-0" fill="url(#linearGradient10241)" fill-opacity="1" stroke-width="1" d="m -18,292.64999 h 12 l 3,6 H 12.000001 V 318.65 H -18 Z"/><path id="path13-6-3-1-3-0-7-7" fill="#3182d9" fill-opacity="1" stroke-width="1" d="m -18,291.65 c -0.55401,0 -1,0.44598 -1,0.99999 V 318.65 c 0,0.554 0.44599,0.99999 1,0.99999 H 12.000001 C 12.55401,319.64999 13,319.204 13,318.65 v -20.00001 c 0,-0.55401 -0.450268,-1.0687 -0.999999,-0.99999 H -2 l -3,-6 z m 0,0.99999 h 12 l 3,6 H 12.000001 V 318.65 H -18 Z"/><path id="path13-0-0-9-9-8" fill="#3182d9" fill-opacity="1" stroke-width="1" d="m -17.999949,298.64999 c -0.55401,0 -0.999998,0.44602 -1,1.00002 L -19,318.65 c -2e-6,0.554 0.44599,0.99999 1,0.99999 H 12.000001 C 12.55401,319.64999 13,319.204 13,318.65 v -23.00001 c 0,0 0,-0.99999 -0.999999,-0.99999 H -4 l -1.999948,4.00003 z m 0,1.00002 H -4.999948 L -3,295.64999 H 12.000001 V 318.65 H -18 Z"/><path id="path13-5-2-9-4-2-6" fill="url(#linearGradient10233)" fill-opacity="1" stroke-width="1" d="m -17.999949,299.65001 h 13 l 1.999948,-4.00002 H 12 V 318.65 h -30.000001 z"/><path id="rect4689" fill="#358bd9" fill-opacity="1" stroke="none" stroke-opacity="1" stroke-width="1" d="m 3,300.65006 -5,2 v 3 1 2.55078 c -0.589552,-0.34167 -1.266971,-0.55078 -2,-0.55078 -2.216,0 -4,1.78403 -4,4 0,2.21601 1.784,4 4,4 2.216,0 4,-1.78399 4,-4 v -5 -1.80078 l 3,-1.19922 z" opacity="1"/><path id="rect4689-9" fill="url(#linearGradient9304)" fill-opacity="1" stroke="none" stroke-opacity="1" stroke-width="1" d="m 3,299.65001 -5,2.00001 v 3 0.99999 2.5508 c -0.589552,-0.34166 -1.266971,-0.55079 -2,-0.55079 -2.216,0 -4,1.78402 -4,3.99999 0,2.21601 1.784,4.00003 4,4.00003 2.216,0 4,-1.78402 4,-4.00003 V 306.65 304.84924 L 3,303.65 Z" opacity="1"/></g></g></svg>