<svg xmlns="http://www.w3.org/2000/svg" xmlns:svg="http://www.w3.org/2000/svg" xmlns:xlink="http://www.w3.org/1999/xlink" id="svg8" width="32" height="32" version="1.1" viewBox="0 0 32 32"><title id="title7895">Antu icon Theme</title><defs id="defs2"><linearGradient id="linearGradient10241" x1="1.852" x2="1.852" y1="2.381" y2=".794" gradientTransform="matrix(3.7795275,0,0,3.7795275,-23,292.64994)" gradientUnits="userSpaceOnUse" xlink:href="#linearGradient10239"/><linearGradient id="linearGradient10239"><stop id="stop10235" offset="0" stop-color="#348be7" stop-opacity="1"/><stop id="stop10237" offset="1" stop-color="#3997f1" stop-opacity="1"/></linearGradient><linearGradient id="linearGradient10233" x1="4.763" x2="4.763" y1="7.673" y2="1.587" gradientTransform="matrix(3.7795275,0,0,3.7795275,-23,292.64994)" gradientUnits="userSpaceOnUse" xlink:href="#linearGradient10231"/><linearGradient id="linearGradient10231"><stop id="stop10227" offset="0" stop-color="#3e9ff4" stop-opacity="1"/><stop id="stop10229" offset="1" stop-color="#50c2f9" stop-opacity="1"/></linearGradient><linearGradient id="linearGradient10069" x1="5.457" x2="5.457" y1="295.786" y2="294.198" gradientTransform="matrix(3.7795275,0,0,3.7795275,-27.625,-801.2804)" gradientUnits="userSpaceOnUse" xlink:href="#linearGradient4547"/><linearGradient id="linearGradient4547"><stop id="stop4543" offset="0" stop-color="#c3f7f9" stop-opacity="1"/><stop id="stop4545" offset="1" stop-color="#e5fafb" stop-opacity="1"/></linearGradient></defs><metadata id="metadata5"/><g id="layer1" transform="translate(0,-282.64999)"><g id="g10709" transform="translate(23,-10.000005)"><path id="path13-6-7-64-1-3-02-8-0" fill="url(#linearGradient10241)" fill-opacity="1" stroke-width="1" d="m -22,295.64999 h 12 l 3,6 H 8.000001 V 321.65 H -22 Z"/><path id="path13-6-3-1-3-0-7-7" fill="#3182d9" fill-opacity="1" stroke-width="1" d="m -22,294.65 c -0.55401,0 -1,0.44598 -1,0.99999 V 321.65 c 0,0.554 0.44599,0.99999 1,0.99999 H 8.000001 C 8.55401,322.64999 9,322.204 9,321.65 V 301.64999 C 9,301.09598 8.549732,300.58129 8.000001,300.65 H -6 l -3,-6 z m 0,0.99999 h 12 l 3,6 H 8.000001 V 321.65 H -22 Z"/><path id="path13-0-0-9-9-8" fill="#3182d9" fill-opacity="1" stroke-width="1" d="m -21.999949,301.64999 c -0.55401,0 -0.999998,0.44602 -1,1.00002 L -23,321.65 c -2e-6,0.554 0.44599,0.99999 1,0.99999 H 8.000001 C 8.55401,322.64999 9,322.204 9,321.65 v -23.00001 c 0,0 0,-0.99999 -0.999999,-0.99999 H -8 l -1.999948,4.00003 z m 0,1.00002 H -8.999948 L -7,298.64999 H 8.000001 V 321.65 H -22 Z"/><path id="path13-5-2-9-4-2-6" fill="url(#linearGradient10233)" fill-opacity="1" stroke-width="1" d="m -21.999949,302.65001 h 13 l 1.999948,-4.00002 H 8 V 321.65 h -30.000001 z"/><path id="path10038-9" fill="#358bd9" fill-opacity="1" stroke="none" stroke-width="1" d="m -13,306.65004 c -0.554,0 -1,0.44598 -1,0.99998 v 9.99999 c 0,0.554 0.446,1.00003 1,1.00003 h 2 v 0.99998 h 8 v -0.99998 h 2 c 0.554,0 1,-0.44603 1,-1.00003 v -9.99999 c 0,-0.554 -0.446,-0.99998 -1,-0.99998 z m 1,1.99997 h 10 v 8.00001 h -3 v 0.99999 h -4 v -0.99999 h -3 z m 1,2.00001 v 3 h 2 v -3 z m 3,0 v 3 h 2 l -1e-6,-3 z m 3,0 v 3 h 2 v -3 z" class="ColorScheme-Text" color="#122036" opacity=".99"/><path id="path10038" fill="url(#linearGradient10069)" fill-opacity="1" stroke="none" stroke-width="1" d="m -13,305.65005 c -0.554,0 -1.000001,0.44598 -1.000001,0.99999 v 9.99998 c 0,0.55401 0.446001,1.00003 1.000001,1.00003 h 1.999999 v 0.99999 h 8 v -0.99999 h 2 c 0.554,0 1,-0.44602 1,-1.00003 v -9.99998 c 0,-0.55401 -0.446,-0.99999 -1,-0.99999 z m 1,1.99997 h 9.999999 v 8.00002 h -3 v 0.99998 H -9 v -0.99998 h -3 z m 0.999999,2.00002 v 3 H -9 v -3 z m 3,0 v 3 h 2 v -3 z m 3,0 v 3 h 2 v -3 z" class="ColorScheme-Text" color="#122036" opacity=".99"/></g></g></svg>