<svg xmlns="http://www.w3.org/2000/svg" xmlns:svg="http://www.w3.org/2000/svg" xmlns:xlink="http://www.w3.org/1999/xlink" id="svg8" width="32" height="32" version="1.1" viewBox="0 0 32 32"><title id="title7895">Antu icon Theme</title><defs id="defs2"><linearGradient id="linearGradient4513"><stop id="stop4509" offset="0" stop-color="#a6a6a6" stop-opacity=".302"/><stop id="stop4511" offset="1" stop-color="#a6a6a6" stop-opacity="1"/></linearGradient><linearGradient id="linearGradient4732-6-5" x1="3.175" x2="3.175" y1="294.883" y2="293.56" gradientTransform="matrix(3.7795275,0,0,3.7795275,-12.660534,-803.67785)" gradientUnits="userSpaceOnUse" xlink:href="#linearGradient4513"/><linearGradient id="linearGradient4732-7-3" x1="3.175" x2="3.175" y1="294.883" y2="293.56" gradientTransform="matrix(3.7795275,0,0,3.7795275,-17.660534,-803.67775)" gradientUnits="userSpaceOnUse" xlink:href="#linearGradient4513"/><linearGradient id="linearGradient4732-74" x1="3.175" x2="3.175" y1="294.883" y2="293.56" gradientTransform="matrix(3.7795275,0,0,3.7795275,-22.660534,-803.67785)" gradientUnits="userSpaceOnUse" xlink:href="#linearGradient4513"/><linearGradient id="linearGradient4704-5" x1="16" x2="16" y1="28" y2="12" gradientTransform="translate(-21.660534,286.84175)" gradientUnits="userSpaceOnUse" xlink:href="#linearGradient4569"/><linearGradient id="linearGradient4569"><stop id="stop4565" offset="0" stop-color="#cdcdcd" stop-opacity="1"/><stop id="stop4567" offset="1" stop-color="#e5e5e5" stop-opacity="1"/></linearGradient><linearGradient id="linearGradient4713" x1="16" x2="16" y1="10" y2="7" gradientTransform="translate(-21.660534,286.84175)" gradientUnits="userSpaceOnUse" xlink:href="#linearGradient4569"/><linearGradient id="linearGradient4721" x1="16" x2="16" y1="6" y2="3" gradientTransform="translate(-21.660534,286.84175)" gradientUnits="userSpaceOnUse" xlink:href="#linearGradient4560"/><linearGradient id="linearGradient4560"><stop id="stop4556" offset="0" stop-color="#d0d0d0" stop-opacity="1"/><stop id="stop4558" offset="1" stop-color="#e4e4e4" stop-opacity="1"/></linearGradient></defs><metadata id="metadata5"/><g id="layer1" transform="translate(0,-282.64999)"><g id="g8535" transform="translate(21.660534,-4.19176)"><path id="rect4605-0" fill="#a6a6a6" fill-opacity="1" stroke="none" stroke-dasharray="none" stroke-linecap="round" stroke-linejoin="round" stroke-miterlimit="4" stroke-opacity="1" stroke-width="2" d="m -8.6605341,288.84175 c -1.107972,0 -1.9999999,0.89203 -1.9999999,2 v 2 h -4 c -1.108002,0 -2,0.892 -2,2 v 1 2 h 1 v 1 10 5 c 0,1.66198 1.338023,3 3,3 h 14 c 1.661976,0 3,-1.33802 3,-3 v -5 -10 -1 h 1 v -2 -1 c 0,-1.108 -0.891998,-2 -2,-2 h -4 v -2 c 0,-1.10797 -0.892028,-2 -2,-2 z m 1,3 h 4.0000001 v 1 h -4.0000001 z" opacity=".99"/><path id="rect4632" fill="url(#linearGradient4713)" fill-opacity="1" stroke="none" stroke-dasharray="none" stroke-linecap="round" stroke-linejoin="round" stroke-miterlimit="4" stroke-opacity="1" stroke-width="2" d="m -14.660534,293.84175 c -0.553994,0 -1,0.44601 -1,1 v 1 1 h 1 18 1 v -1 -1 c 0,-0.55399 -0.446007,-1 -1,-1 z" opacity=".99"/><path id="rect4636-7" fill="url(#linearGradient4704-5)" fill-opacity="1" stroke="none" stroke-dasharray="none" stroke-linecap="round" stroke-linejoin="round" stroke-miterlimit="4" stroke-opacity="1" stroke-width="2" d="m -14.660534,297.84175 v 2 9 5 c 0,1.108 0.892,2 2,2 h 14 c 1.108,0 2,-0.892 2,-2 v -5 -9 -2 h -2 -14 z" opacity=".99"/><path id="rect4640" fill="url(#linearGradient4721)" fill-opacity="1" stroke="none" stroke-dasharray="none" stroke-linecap="round" stroke-linejoin="round" stroke-miterlimit="4" stroke-opacity="1" stroke-width="2" d="m -8.6605341,289.84175 c -0.554027,0 -1,0.44597 -1,1 v 1 1 h 1 v -2 h 6.0000001 v 2 h 1 v -1 -1 c 0,-0.55403 -0.445973,-1 -1,-1 z" opacity=".99"/><path id="rect4675-8" fill="url(#linearGradient4732-74)" fill-opacity="1" stroke="none" stroke-dasharray="none" stroke-linecap="round" stroke-linejoin="round" stroke-miterlimit="4" stroke-opacity="1" stroke-width="2" d="m -10.660534,300.84178 c 0.554,0 1.0000001,0.44598 1.0000001,0.99999 v 9.99998 c 0,0.55401 -0.4460001,1.00003 -1.0000001,1.00003 -0.554,0 -1,-0.44602 -1,-1.00003 v -9.99998 c 0,-0.55401 0.446,-0.99999 1,-0.99999 z" opacity=".99"/><path id="rect4675-3-6" fill="url(#linearGradient4732-7-3)" fill-opacity="1" stroke="none" stroke-dasharray="none" stroke-linecap="round" stroke-linejoin="round" stroke-miterlimit="4" stroke-opacity="1" stroke-width="2" d="m -5.660534,300.84178 c 0.554,0 1,0.44598 1,0.99999 v 9.99998 c 0,0.55401 -0.446,1.00003 -1,1.00003 -0.554,0 -1.0000007,-0.44602 -1.0000007,-1.00003 v -9.99998 c 0,-0.55401 0.4460007,-0.99999 1.0000007,-0.99999 z" opacity=".99"/><path id="rect4675-26-8" fill="url(#linearGradient4732-6-5)" fill-opacity="1" stroke="none" stroke-dasharray="none" stroke-linecap="round" stroke-linejoin="round" stroke-miterlimit="4" stroke-opacity="1" stroke-width="2" d="m -0.660534,300.84178 c 0.554,0 1,0.44598 1,0.99999 v 9.99998 c 0,0.55401 -0.446,1.00003 -1,1.00003 -0.554,0 -1,-0.44602 -1,-1.00003 v -9.99998 c 0,-0.55401 0.446,-0.99999 1,-0.99999 z" opacity=".99"/></g></g></svg>