<svg xmlns="http://www.w3.org/2000/svg" xmlns:svg="http://www.w3.org/2000/svg" xmlns:xlink="http://www.w3.org/1999/xlink" id="svg8" width="32" height="32" version="1.1" viewBox="0 0 32 32"><title id="title7895">Antu icon Theme</title><defs id="defs2"><linearGradient id="linearGradient10241" x1="1.852" x2="1.852" y1="2.381" y2=".794" gradientTransform="matrix(3.7795275,0,0,3.7795275,-16,283.64994)" gradientUnits="userSpaceOnUse" xlink:href="#linearGradient10239"/><linearGradient id="linearGradient10239"><stop id="stop10235" offset="0" stop-color="#348be7" stop-opacity="1"/><stop id="stop10237" offset="1" stop-color="#3997f1" stop-opacity="1"/></linearGradient><linearGradient id="linearGradient10233" x1="4.763" x2="4.763" y1="7.673" y2="1.587" gradientTransform="matrix(3.7795275,0,0,3.7795275,-16,283.64994)" gradientUnits="userSpaceOnUse" xlink:href="#linearGradient10231"/><linearGradient id="linearGradient10231"><stop id="stop10227" offset="0" stop-color="#3e9ff4" stop-opacity="1"/><stop id="stop10229" offset="1" stop-color="#50c2f9" stop-opacity="1"/></linearGradient><linearGradient id="linearGradient13069" x1="5.457" x2="5.457" y1="295.521" y2="293.934" gradientTransform="matrix(3.7795275,0,0,3.7795275,-20.625,-809.28046)" gradientUnits="userSpaceOnUse" xlink:href="#linearGradient4547"/><linearGradient id="linearGradient4547"><stop id="stop4543" offset="0" stop-color="#c3f7f9" stop-opacity="1"/><stop id="stop4545" offset="1" stop-color="#e5fafb" stop-opacity="1"/></linearGradient></defs><metadata id="metadata5"/><g id="layer1" transform="translate(0,-282.64999)"><g id="g13709" transform="translate(16,-1.000005)"><path id="path13-6-7-64-1-3-02-8-0" fill="url(#linearGradient10241)" fill-opacity="1" stroke-width="1" d="m -15,286.64999 h 12 l 3,6 H 15.000001 V 312.65 H -15 Z"/><path id="path13-6-3-1-3-0-7-7" fill="#3182d9" fill-opacity="1" stroke-width="1" d="m -15,285.65 c -0.55401,0 -1,0.44598 -1,0.99999 V 312.65 c 0,0.554 0.44599,0.99999 1,0.99999 H 15.000001 C 15.55401,313.64999 16,313.204 16,312.65 v -20.00001 c 0,-0.55401 -0.450268,-1.0687 -0.999999,-0.99999 H 1 l -3,-6 z m 0,0.99999 h 12 l 3,6 H 15.000001 V 312.65 H -15 Z"/><path id="path13-0-0-9-9-8" fill="#3182d9" fill-opacity="1" stroke-width="1" d="m -14.999949,292.64999 c -0.55401,0 -0.999998,0.44602 -1,1.00002 L -16,312.65 c -2e-6,0.554 0.44599,0.99999 1,0.99999 H 15.000001 C 15.55401,313.64999 16,313.204 16,312.65 v -23.00001 c 0,0 0,-0.99999 -0.999999,-0.99999 H -1 l -1.999948,4.00003 z m 0,1.00002 H -1.999948 L 0,289.64999 H 15.000001 V 312.65 H -15 Z"/><path id="path13-5-2-9-4-2-6" fill="url(#linearGradient10233)" fill-opacity="1" stroke-width="1" d="M -14.99995,293.65001 H -1.999949 L -1e-6,289.64999 H 15 V 312.65 h -30.000001 z"/><path id="Triangle-1" fill="#358bd9" fill-opacity="1" fill-rule="nonzero" stroke="none" stroke-dasharray="none" stroke-dashoffset="0" stroke-linecap="butt" stroke-linejoin="miter" stroke-miterlimit="4" stroke-opacity="1" stroke-width="2" d="m -0.021919,297.64999 c -0.288252,0.007 -0.559496,0.13791 -0.74414,0.35937 l -5,6 c -0.5430224,0.65115 -0.08028,1.64022 0.767578,1.64063 v 4 c 0,0.55403 0.445967,1 1,1 h 8 c 0.554033,0 1,-0.44597 1,-1 v -4 c 0.847862,-4.2e-4 1.310601,-0.98948 0.767578,-1.64063 l -0.767578,-0.92187 v -2.4375 c 0,-0.55399 -0.446,-1 -1,-1 -0.554,0 -1,0.44601 -1,1 v 0.0391 l -2.232422,-2.67968 c -0.195151,-0.23404 -0.486363,-0.36636 -0.791016,-0.35938 z" baseline-shift="baseline" clip-rule="nonzero" color="#000" color-interpolation="sRGB" color-interpolation-filters="linearRGB" color-rendering="auto" direction="ltr" display="inline" dominant-baseline="auto" enable-background="accumulate" font-family="sans-serif" font-size="medium" font-stretch="normal" font-style="normal" font-variant="normal" font-weight="normal" image-rendering="auto" letter-spacing="normal" opacity="1" overflow="visible" shape-rendering="auto" text-anchor="start" text-decoration="none" text-rendering="auto" vector-effect="none" visibility="visible" word-spacing="normal" writing-mode="lr-tb" style="line-height:normal;font-variant-ligatures:normal;font-variant-position:normal;font-variant-caps:normal;font-variant-numeric:normal;font-variant-alternates:normal;font-feature-settings:normal;text-indent:0;text-align:start;text-decoration-line:none;text-decoration-style:solid;text-decoration-color:#000;text-transform:none;text-orientation:mixed;white-space:normal;shape-padding:0;isolation:auto;mix-blend-mode:normal;solid-color:#000;solid-opacity:1"/><path id="Triangle-1-1" fill="url(#linearGradient13069)" fill-opacity="1" fill-rule="nonzero" stroke="none" stroke-dasharray="none" stroke-dashoffset="0" stroke-linecap="butt" stroke-linejoin="miter" stroke-miterlimit="4" stroke-opacity="1" stroke-width="2" d="m -0.021919,296.64989 c -0.288253,0.008 -0.559496,0.13795 -0.74414,0.35943 l -4.999999,6 c -0.5430233,0.65114 -0.08028,1.6402 0.767577,1.64062 v 3.99999 c 0,0.55404 0.445968,0.99998 1,0.99998 h 8 c 0.554033,0 1,-0.44594 1,-0.99998 v -3.99999 c 0.847862,-4.2e-4 1.310601,-0.98948 0.767578,-1.64062 l -0.767578,-0.9219 v -2.43749 c 0,-0.55401 -0.446,-0.99999 -1,-0.99999 -0.554,0 -1,0.44598 -1,0.99999 v 0.0389 l -2.232422,-2.67969 c -0.195152,-0.23395 -0.486363,-0.36622 -0.791016,-0.35942 z" baseline-shift="baseline" clip-rule="nonzero" color="#000" color-interpolation="sRGB" color-interpolation-filters="linearRGB" color-rendering="auto" direction="ltr" display="inline" dominant-baseline="auto" enable-background="accumulate" font-family="sans-serif" font-size="medium" font-stretch="normal" font-style="normal" font-variant="normal" font-weight="normal" image-rendering="auto" letter-spacing="normal" opacity="1" overflow="visible" shape-rendering="auto" text-anchor="start" text-decoration="none" text-rendering="auto" vector-effect="none" visibility="visible" word-spacing="normal" writing-mode="lr-tb" style="line-height:normal;font-variant-ligatures:normal;font-variant-position:normal;font-variant-caps:normal;font-variant-numeric:normal;font-variant-alternates:normal;font-feature-settings:normal;text-indent:0;text-align:start;text-decoration-line:none;text-decoration-style:solid;text-decoration-color:#000;text-transform:none;text-orientation:mixed;white-space:normal;shape-padding:0;isolation:auto;mix-blend-mode:normal;solid-color:#000;solid-opacity:1"/></g></g></svg>