<svg xmlns="http://www.w3.org/2000/svg" xmlns:svg="http://www.w3.org/2000/svg" xmlns:xlink="http://www.w3.org/1999/xlink" id="svg8" width="32" height="32" version="1.1" viewBox="0 0 32 32"><title id="title7895">Antu icon Theme</title><defs id="defs2"><linearGradient id="linearGradient4759" x1="4.762" x2="4.762" y1="6.615" y2="1.058" gradientTransform="matrix(3.7795275,0,0,3.7795275,-18,289.64994)" gradientUnits="userSpaceOnUse" xlink:href="#linearGradient10231-7"/><linearGradient id="linearGradient10231-7"><stop id="stop10227-3" offset="0" stop-color="#3ea0f4" stop-opacity="1"/><stop id="stop10229-6" offset="1" stop-color="#4fc0f9" stop-opacity="1"/></linearGradient><linearGradient id="linearGradient12340" x1="51" x2="51" y1="30" y2="28" gradientTransform="translate(-53.000002,288.64999)" gradientUnits="userSpaceOnUse" xlink:href="#linearGradient4547"/><linearGradient id="linearGradient4547"><stop id="stop4543" offset="0" stop-color="#c3f7f9" stop-opacity="1"/><stop id="stop4545" offset="1" stop-color="#e5fafb" stop-opacity="1"/></linearGradient></defs><metadata id="metadata5"/><g id="layer1" transform="translate(0,-282.64999)"><g id="g12956" transform="translate(18.000002,-7)"><path id="path12329" fill="#3182d9" fill-opacity="1" stroke-width="1" d="m -17.000002,291.64999 c -0.55401,0 -1,0.446 -1,1 v 26 c 0,0.554 0.44599,1 1,1 h 30 c 0.554009,0 1,-0.446 1,-1 v -26 c 0,-0.554 -0.445992,-1 -1,-1 h -14 -3 z"/><path id="path13-5-2-9-4-2-6-6" fill="url(#linearGradient4759)" fill-opacity="1" stroke-width="1" d="m -17.000002,292.64999 v 21 h 30 v -21 h -15 -2 z"/><path id="rect4537-2" fill="url(#linearGradient12340)" fill-opacity="1" stroke="none" stroke-dasharray="none" stroke-linecap="round" stroke-linejoin="round" stroke-miterlimit="4" stroke-opacity="1" stroke-width=".4" d="m -17.000002,314.64999 v 4 h 30 v -4 z m 2,1 h 1 1 v 1 1 h -1 -1 v -1 z"/></g></g></svg>